<svg width="551" height="28" viewBox="0 0 551 28" fill="none" xmlns="http://www.w3.org/2000/svg">
<path d="M25.729 1.3085L19.8726 16.2562L13.9846 0.270142L7.74444 16.2204L2.42184 1.3085H0L7.6494 22.2504L13.9258 6.29977L19.8074 22.268L28.15 1.3085H25.729Z" fill="#FF7300"/>
<path d="M37.5107 11.9483C36.5339 11.15 31.4174 8.49187 30.7592 8.03232C30.1032 7.57427 29.7737 6.90676 29.7737 6.03053C29.7737 5.15318 30.108 4.44094 30.7748 3.89381C31.4416 3.34332 32.2533 3.07162 33.2093 3.07162C33.8258 3.07162 34.3524 3.19014 34.7918 3.43091C35.2298 3.67056 35.6483 4.05966 36.0456 4.59747L36.2562 4.92396C36.3147 4.96608 36.3963 5.06559 36.4958 5.2225L38.2584 4.08873C37.6807 3.07236 36.9591 2.30086 36.0915 1.772C35.2264 1.24499 34.2943 0.980743 33.3003 0.980743C31.6067 0.980743 30.221 1.45743 29.1453 2.41417C28.0712 3.37016 27.5341 4.59747 27.5341 6.09202C27.5341 7.50457 28.0198 8.59586 28.9959 9.36176C29.9731 10.128 34.8418 12.6554 35.5984 13.1734C36.3557 13.6904 36.7325 14.457 36.7325 15.4734C36.7325 16.6288 36.352 17.5881 35.5838 18.3536C34.8164 19.1225 33.8448 19.5046 32.6719 19.5046C31.6369 19.5046 30.7804 19.1863 30.1039 18.5478C29.4264 17.9098 28.9471 16.997 28.6687 15.8014L26.517 16.4596C26.7045 17.2661 26.9784 17.9847 27.3325 18.6104C27.6966 19.2493 28.1469 19.7912 28.6839 20.2362C29.7488 21.124 31.0983 21.5679 32.7326 21.5679C34.465 21.5679 35.9372 20.9734 37.1537 19.7893C38.3672 18.6041 38.9747 17.1554 38.9747 15.4413C38.9747 13.9091 38.4872 12.7433 37.5107 11.9483Z" fill="#FF7300"/>
<path d="M62.5951 10.5778C63.0971 10.4351 63.6301 10.3631 64.1999 10.3631C65.7176 10.3631 66.9468 10.8544 67.8834 11.8357C68.8234 12.8133 69.2948 13.9687 69.2948 15.2996C69.2948 16.2351 69.0697 17.1117 68.6191 17.9309C68.1719 18.7494 67.2997 19.8615 66.0038 21.258L61.897 25.6903H69.5162V27.2843H58.3075L64.6144 20.4739C65.892 19.1019 66.725 18.0867 67.1111 17.4248C67.4976 16.7647 67.6896 16.0663 67.6896 15.3354C67.6896 14.407 67.3441 13.6072 66.6497 12.9389C65.9587 12.271 65.1108 11.9348 64.1071 11.9348C63.5332 11.9348 63.0129 12.0392 62.5429 12.2468C62.585 11.8465 62.6003 10.7269 62.5951 10.5778Z" fill="black"/>
<path d="M50.5384 20.4433C55.5519 20.4433 59.616 16.3357 59.616 11.2688C59.616 6.20184 55.5519 2.09427 50.5384 2.09427C45.525 2.09427 41.4608 6.20184 41.4608 11.2688C41.4608 16.3357 45.525 20.4433 50.5384 20.4433Z" fill="#FF7300"/>
<path d="M50.5388 0C44.2979 0 39.2388 5.04531 39.2388 11.2687C39.2388 17.4922 44.2979 22.5375 50.5388 22.5375C56.7794 22.5375 61.8389 17.4922 61.8389 11.2687C61.8389 5.04531 56.7794 0 50.5388 0ZM50.5388 20.4433C45.5256 20.4433 41.4612 16.3357 41.4612 11.2687C41.4612 6.20182 45.5256 2.09423 50.5388 2.09423C55.5521 2.09423 59.6164 6.20182 59.6164 11.2687C59.6164 16.3357 55.5521 20.4433 50.5388 20.4433Z" fill="black"/>
<path d="M59.586 10.5537L56.2965 10.5616L54.6566 13.5126L50.5643 3.53644L46.8827 11.7315L41.4722 11.7199C41.4938 12.1713 41.5486 12.614 41.6328 13.046L47.7396 13.0591L50.5088 6.89451L54.4762 16.5658L57.0773 11.8854L59.5939 11.8794C59.6069 11.6774 59.6162 11.4739 59.6162 11.2686C59.6162 11.0278 59.6039 10.79 59.586 10.5537Z" fill="white"/>
<path d="M93.2324 21L91.5611 16.3379H82.9406L81.2693 21H77.8974L85.6382 0.475114H88.8342L96.6044 21H93.2324ZM83.9962 13.4938H90.5642L88.1012 6.77919C87.9839 6.45665 87.8666 6.13412 87.7787 5.81158C87.6907 5.48905 87.6027 5.19584 87.5441 4.96127C87.4854 4.7267 87.4268 4.52145 87.3682 4.37484L87.3095 4.14027H87.2509L87.1922 4.37484C87.1336 4.52145 87.0749 4.7267 86.987 4.96127C86.899 5.19584 86.8111 5.48905 86.7231 5.81158C86.6351 6.13412 86.5178 6.45665 86.4006 6.77919L83.9962 13.4938ZM98.5693 0.475114H104.756L104.727 0.504435C105.87 0.504435 106.897 0.651042 107.806 0.973576C108.714 1.29611 109.506 1.73593 110.151 2.32235C110.796 2.90878 111.295 3.61249 111.647 4.43349C111.998 5.25448 112.174 6.19276 112.174 7.219C112.174 8.24525 111.998 9.18353 111.647 10.0045C111.295 10.8255 110.796 11.5292 110.151 12.1157C109.506 12.7021 108.744 13.1419 107.835 13.4351C106.926 13.7283 105.9 13.8749 104.756 13.8749H101.765V21H98.5693V0.475114ZM101.765 10.8842H104.727C106.046 10.8842 107.073 10.5616 107.776 9.91656C108.48 9.27149 108.832 8.36253 108.832 7.219C108.832 6.01683 108.451 5.07855 107.718 4.43349C106.985 3.78842 105.988 3.46588 104.727 3.46588H101.765V10.8842ZM117.608 21H114.412V0.475114H117.608V21ZM142.468 0.475114H145.429L145.282 21.088H142.204V13.3178C142.204 12.2916 142.204 11.324 142.233 10.415C142.262 9.50606 142.292 8.71439 142.321 8.04C142.35 7.36561 142.38 6.83783 142.409 6.45665L142.438 5.87023H142.38L142.204 6.19276C142.086 6.42733 141.94 6.69122 141.764 7.01376C141.588 7.33629 141.412 7.68815 141.236 8.04C141.06 8.39186 140.914 8.71439 140.767 9.0076L137.16 15.8395H135.548L131.941 9.0076C131.795 8.71439 131.648 8.39186 131.472 8.04C131.296 7.68815 131.12 7.33629 130.944 7.01376C130.768 6.69122 130.622 6.39801 130.505 6.16344L130.329 5.81158H130.299L130.329 6.36869C130.358 6.74986 130.387 7.27765 130.417 7.95204C130.446 8.62643 130.475 9.4181 130.505 10.3271C130.534 11.236 130.534 12.2036 130.534 13.2299V21H127.426V0.504435H130.417L134.697 8.47982C135.049 9.12489 135.343 9.65267 135.548 10.0925C135.753 10.5323 135.929 10.8842 136.046 11.1481C136.164 11.4119 136.252 11.5879 136.31 11.7052L136.398 11.8811H136.427L136.515 11.7052C136.574 11.5879 136.662 11.3826 136.779 11.1187C136.897 10.8548 137.073 10.503 137.307 10.0632C137.542 9.62335 137.835 9.09557 138.187 8.4505L142.468 0.475114ZM162.71 21L161.039 16.3379H152.418L150.747 21H147.375L155.116 0.475114H158.312L166.082 21H162.71ZM153.474 13.4938H160.042L157.579 6.77919C157.462 6.45665 157.344 6.13412 157.256 5.81158C157.168 5.48905 157.08 5.19584 157.022 4.96127C156.963 4.7267 156.904 4.52145 156.846 4.37484L156.787 4.14027H156.729L156.67 4.37484C156.611 4.52145 156.553 4.7267 156.465 4.96127C156.377 5.19584 156.289 5.48905 156.201 5.81158C156.113 6.13412 155.995 6.45665 155.878 6.77919L153.474 13.4938ZM180.743 0.475114H183.91L183.822 20.9414H180.919L174.087 10.5616C173.706 10.0045 173.325 9.44742 172.973 8.89032C172.621 8.33321 172.299 7.83475 172.005 7.39493C171.712 6.95511 171.478 6.60326 171.302 6.33937L171.038 5.92887H170.979L171.008 6.39801C171.038 6.72054 171.038 7.16036 171.067 7.71747C171.096 8.27457 171.126 8.94896 171.155 9.71131C171.184 10.4737 171.184 11.2947 171.184 12.2036V20.912H168.018V0.387151H170.92L177.87 10.8842C178.192 11.3533 178.515 11.8518 178.867 12.3795C179.218 12.9073 179.541 13.3765 179.834 13.8163C180.127 14.2561 180.333 14.6373 180.538 14.9012L180.831 15.3117H180.89V14.8132C180.89 14.4907 180.89 14.0509 180.86 13.4938C180.831 12.9367 180.802 12.2916 180.772 11.5586C180.743 10.8255 180.743 10.0338 180.743 9.21285V0.475114ZM201.153 21L199.482 16.3379H190.861L189.19 21H185.818L193.559 0.475114H196.755L204.525 21H201.153ZM191.917 13.4938H198.485L196.022 6.77919C195.904 6.45665 195.787 6.13412 195.699 5.81158C195.611 5.48905 195.523 5.19584 195.465 4.96127C195.406 4.7267 195.347 4.52145 195.289 4.37484L195.23 4.14027H195.171L195.113 4.37484C195.054 4.52145 194.996 4.7267 194.908 4.96127C194.82 5.19584 194.732 5.48905 194.644 5.81158C194.556 6.13412 194.438 6.45665 194.321 6.77919L191.917 13.4938ZM220.74 18.537H220.711H220.681C220.476 18.8302 220.183 19.1528 219.802 19.4753C219.421 19.7978 218.981 20.091 218.453 20.3843C217.925 20.6775 217.339 20.912 216.694 21.0586C216.049 21.2346 215.374 21.3225 214.641 21.3225C213.292 21.3225 212.032 21.0586 210.888 20.5895C209.745 20.091 208.748 19.3873 207.897 18.4784C207.047 17.5694 206.402 16.4552 205.933 15.1357C205.464 13.8163 205.229 12.3502 205.229 10.7376C205.229 9.12489 205.464 7.65882 205.933 6.33937C206.402 5.01991 207.076 3.9057 207.927 2.96742C208.777 2.02914 209.774 1.32543 210.917 0.826969C212.061 0.328507 213.322 0.064616 214.7 0.064616C216.664 0.0939368 218.365 0.592399 219.802 1.53068C221.239 2.46896 222.353 3.78842 223.115 5.45973L219.948 6.31005C219.421 5.2838 218.688 4.49213 217.779 3.96434C216.87 3.43656 215.843 3.17267 214.729 3.17267C213.791 3.17267 212.941 3.3486 212.178 3.70045C211.416 4.05231 210.771 4.55077 210.214 5.19584C209.657 5.84091 209.246 6.63258 208.953 7.57086C208.66 8.50914 208.513 9.56471 208.513 10.7376C208.513 11.9397 208.689 12.9953 209.012 13.9336C209.334 14.8719 209.774 15.6635 210.331 16.3086C210.888 16.9537 211.562 17.4521 212.354 17.804C213.146 18.1558 214.025 18.3318 214.964 18.3318C215.785 18.3318 216.518 18.2145 217.163 17.9799C217.808 17.7453 218.365 17.4521 218.834 17.1003C219.303 16.7484 219.714 16.3379 220.036 15.8981C220.359 15.4583 220.593 15.0185 220.74 14.5786V12.5555H215.433V9.94588H223.467V21H220.74C220.74 20.0324 220.74 19.3873 220.74 19.0648C220.74 18.7423 220.74 18.5663 220.74 18.537ZM229.766 17.9799H239.618V21H226.57V0.475114H239.442V3.49521H229.766V8.861H237.361V11.7052H229.766V17.9799ZM257.181 20.9707H253.603L249.616 13.5524C249.528 13.5817 249.44 13.5817 249.323 13.5817H249.029H246.039V20.9414H242.843V0.416472H249.029C250.173 0.416472 251.199 0.563078 252.108 0.885611C253.017 1.20815 253.809 1.64796 254.454 2.23439C255.099 2.82082 255.597 3.52453 255.949 4.34552C256.301 5.16652 256.477 6.07548 256.477 7.10172C256.477 8.53846 256.154 9.74063 255.48 10.7376C254.806 11.7345 253.867 12.4675 252.665 12.966L257.181 20.9707ZM246.039 10.8255H249.293V10.7962C250.554 10.7962 251.522 10.4443 252.196 9.74063C252.87 9.03692 253.193 8.15729 253.193 7.13104C253.193 6.04615 252.87 5.16652 252.196 4.49213C251.522 3.81774 250.554 3.46588 249.293 3.46588H246.039V10.8255ZM280.662 0.475114H283.624L283.477 21.088H280.399V13.3178C280.399 12.2916 280.399 11.324 280.428 10.415C280.457 9.50606 280.486 8.71439 280.516 8.04C280.545 7.36561 280.574 6.83783 280.604 6.45665L280.633 5.87023H280.574L280.399 6.19276C280.281 6.42733 280.135 6.69122 279.959 7.01376C279.783 7.33629 279.607 7.68815 279.431 8.04C279.255 8.39186 279.108 8.71439 278.962 9.0076L275.355 15.8395H273.743L270.136 9.0076C269.989 8.71439 269.843 8.39186 269.667 8.04C269.491 7.68815 269.315 7.33629 269.139 7.01376C268.963 6.69122 268.817 6.39801 268.699 6.16344L268.523 5.81158H268.494L268.523 6.36869C268.553 6.74986 268.582 7.27765 268.611 7.95204C268.641 8.62643 268.67 9.4181 268.699 10.3271C268.729 11.236 268.729 12.2036 268.729 13.2299V21H265.621V0.504435H268.611L272.892 8.47982C273.244 9.12489 273.537 9.65267 273.743 10.0925C273.948 10.5323 274.124 10.8842 274.241 11.1481C274.358 11.4119 274.446 11.5879 274.505 11.7052L274.593 11.8811H274.622L274.71 11.7052C274.769 11.5879 274.857 11.3826 274.974 11.1187C275.091 10.8548 275.267 10.503 275.502 10.0632C275.736 9.62335 276.03 9.09557 276.382 8.4505L280.662 0.475114ZM290.789 21H287.593V0.475114H290.789V21ZM308.981 18.537H308.952H308.922C308.717 18.8302 308.424 19.1528 308.043 19.4753C307.662 19.7978 307.222 20.091 306.694 20.3843C306.166 20.6775 305.58 20.912 304.935 21.0586C304.29 21.2346 303.615 21.3225 302.882 21.3225C301.533 21.3225 300.273 21.0586 299.129 20.5895C297.986 20.091 296.989 19.3873 296.138 18.4784C295.288 17.5694 294.643 16.4552 294.174 15.1357C293.705 13.8163 293.47 12.3502 293.47 10.7376C293.47 9.12489 293.705 7.65882 294.174 6.33937C294.643 5.01991 295.317 3.9057 296.168 2.96742C297.018 2.02914 298.015 1.32543 299.158 0.826969C300.302 0.328507 301.563 0.064616 302.941 0.064616C304.905 0.0939368 306.606 0.592399 308.043 1.53068C309.479 2.46896 310.594 3.78842 311.356 5.45973L308.189 6.31005C307.662 5.2838 306.929 4.49213 306.02 3.96434C305.111 3.43656 304.084 3.17267 302.97 3.17267C302.032 3.17267 301.182 3.3486 300.419 3.70045C299.657 4.05231 299.012 4.55077 298.455 5.19584C297.898 5.84091 297.487 6.63258 297.194 7.57086C296.901 8.50914 296.754 9.56471 296.754 10.7376C296.754 11.9397 296.93 12.9953 297.253 13.9336C297.575 14.8719 298.015 15.6635 298.572 16.3086C299.129 16.9537 299.803 17.4521 300.595 17.804C301.387 18.1558 302.266 18.3318 303.205 18.3318C304.026 18.3318 304.759 18.2145 305.404 17.9799C306.049 17.7453 306.606 17.4521 307.075 17.1003C307.544 16.7484 307.955 16.3379 308.277 15.8981C308.6 15.4583 308.834 15.0185 308.981 14.5786V12.5555H303.674V9.94588H311.708V21H308.981C308.981 20.0324 308.981 19.3873 308.981 19.0648C308.981 18.7423 308.981 18.5663 308.981 18.537ZM329.149 20.9707H325.572L321.585 13.5524C321.497 13.5817 321.409 13.5817 321.291 13.5817H320.998H318.007V20.9414H314.811V0.416472H320.998C322.142 0.416472 323.168 0.563078 324.077 0.885611C324.986 1.20815 325.778 1.64796 326.423 2.23439C327.068 2.82082 327.566 3.52453 327.918 4.34552C328.27 5.16652 328.446 6.07548 328.446 7.10172C328.446 8.53846 328.123 9.74063 327.449 10.7376C326.774 11.7345 325.836 12.4675 324.634 12.966L329.149 20.9707ZM318.007 10.8255H321.262V10.7962C322.523 10.7962 323.49 10.4443 324.165 9.74063C324.839 9.03692 325.162 8.15729 325.162 7.13104C325.162 6.04615 324.839 5.16652 324.165 4.49213C323.49 3.81774 322.523 3.46588 321.262 3.46588H318.007V10.8255ZM345.025 21L343.354 16.3379H334.734L333.062 21H329.69L337.431 0.475114H340.627L348.397 21H345.025ZM335.789 13.4938H342.357L339.894 6.77919C339.777 6.45665 339.66 6.13412 339.572 5.81158C339.484 5.48905 339.396 5.19584 339.337 4.96127C339.278 4.7267 339.22 4.52145 339.161 4.37484L339.102 4.14027H339.044L338.985 4.37484C338.927 4.52145 338.868 4.7267 338.78 4.96127C338.692 5.19584 338.604 5.48905 338.516 5.81158C338.428 6.13412 338.311 6.45665 338.193 6.77919L335.789 13.4938ZM348.456 0.475114H363.791V3.49521H357.693V21H354.497V3.49521H348.456V0.475114ZM369 21H365.804V0.475114H369V21ZM371.622 10.7669V10.8255C371.622 9.21285 371.857 7.74679 372.326 6.42733C372.795 5.10787 373.47 3.99367 374.32 3.05538C375.17 2.1171 376.167 1.41339 377.311 0.914932C378.454 0.416472 379.715 0.15258 381.093 0.15258C382.471 0.15258 383.732 0.416472 384.905 0.914932C386.078 1.41339 387.104 2.1171 387.954 3.05538C388.805 3.99367 389.479 5.10787 389.948 6.42733C390.417 7.74679 390.652 9.21285 390.652 10.8255C390.652 12.4382 390.417 13.9043 389.948 15.2237C389.479 16.5432 388.805 17.6574 387.954 18.5957C387.104 19.5339 386.107 20.2376 384.934 20.7361C383.761 21.2052 382.501 21.4398 381.123 21.4398C379.744 21.4398 378.484 21.1759 377.311 20.7068C376.138 20.2083 375.141 19.4753 374.291 18.537C373.44 17.5987 372.795 16.4845 372.326 15.1651C371.857 13.8456 371.622 12.3795 371.622 10.7669ZM374.965 10.7376L374.906 10.7669C374.906 11.9397 375.053 12.9953 375.346 13.9336C375.639 14.8719 376.079 15.6635 376.636 16.3086C377.194 16.9537 377.839 17.4521 378.601 17.804C379.363 18.1558 380.214 18.3318 381.123 18.3318C382.061 18.3318 382.911 18.1558 383.674 17.804C384.436 17.4521 385.11 16.9537 385.667 16.3086C386.224 15.6635 386.664 14.8719 386.957 13.9336C387.251 12.9953 387.397 11.9397 387.397 10.7669C387.397 9.56471 387.251 8.50914 386.957 7.57086C386.664 6.63258 386.224 5.84091 385.667 5.19584C385.11 4.55077 384.465 4.05231 383.703 3.70045C382.94 3.3486 382.09 3.17267 381.152 3.17267C380.243 3.17267 379.393 3.3486 378.63 3.70045C377.868 4.05231 377.223 4.55077 376.666 5.19584C376.109 5.84091 375.698 6.63258 375.405 7.57086C375.112 8.50914 374.965 9.56471 374.965 10.7376ZM406.091 0.475114H409.257L409.169 20.9414H406.267L399.435 10.5616C399.054 10.0045 398.672 9.44742 398.321 8.89032C397.969 8.33321 397.646 7.83475 397.353 7.39493C397.06 6.95511 396.825 6.60326 396.649 6.33937L396.385 5.92887H396.327L396.356 6.39801C396.385 6.72054 396.385 7.16036 396.415 7.71747C396.444 8.27457 396.473 8.94896 396.503 9.71131C396.532 10.4737 396.532 11.2947 396.532 12.2036V20.912H393.365V0.387151H396.268L403.217 10.8842C403.54 11.3533 403.862 11.8518 404.214 12.3795C404.566 12.9073 404.889 13.3765 405.182 13.8163C405.475 14.2561 405.68 14.6373 405.886 14.9012L406.179 15.3117H406.237V14.8132C406.237 14.4907 406.237 14.0509 406.208 13.4938C406.179 12.9367 406.149 12.2916 406.12 11.5586C406.091 10.8255 406.091 10.0338 406.091 9.21285V0.475114ZM419.123 0.475114H426.6L426.542 0.533757C427.978 0.533757 429.327 0.768326 430.559 1.26679C431.79 1.76525 432.846 2.46896 433.725 3.37792C434.605 4.28688 435.309 5.37176 435.807 6.63258C436.306 7.89339 436.57 9.30082 436.57 10.8548C436.57 12.4089 436.335 13.8163 435.837 15.0771C435.338 16.3379 434.664 17.3935 433.784 18.2731C432.904 19.1528 431.878 19.8271 430.676 20.2963C429.474 20.7654 428.184 21 426.776 21H419.123V0.475114ZM422.349 18.0092H426.923H426.894C427.802 18.0092 428.653 17.8333 429.444 17.5108C430.236 17.1882 430.911 16.7191 431.497 16.1033C432.083 15.4876 432.523 14.7252 432.846 13.8456C433.168 12.966 433.344 11.9397 433.344 10.7962C433.344 9.62335 433.168 8.56778 432.846 7.65882C432.523 6.74986 432.054 5.98751 431.468 5.37176C430.881 4.75602 430.177 4.28688 429.386 3.96434C428.594 3.64181 427.715 3.46588 426.776 3.46588H422.349V18.0092ZM437.942 10.7669V10.8255C437.942 9.21285 438.177 7.74679 438.646 6.42733C439.115 5.10787 439.79 3.99367 440.64 3.05538C441.49 2.1171 442.487 1.41339 443.631 0.914932C444.774 0.416472 446.035 0.15258 447.413 0.15258C448.791 0.15258 450.052 0.416472 451.225 0.914932C452.398 1.41339 453.424 2.1171 454.274 3.05538C455.125 3.99367 455.799 5.10787 456.268 6.42733C456.737 7.74679 456.972 9.21285 456.972 10.8255C456.972 12.4382 456.737 13.9043 456.268 15.2237C455.799 16.5432 455.125 17.6574 454.274 18.5957C453.424 19.5339 452.427 20.2376 451.254 20.7361C450.081 21.2052 448.821 21.4398 447.442 21.4398C446.064 21.4398 444.804 21.1759 443.631 20.7068C442.458 20.2083 441.461 19.4753 440.611 18.537C439.76 17.5987 439.115 16.4845 438.646 15.1651C438.177 13.8456 437.942 12.3795 437.942 10.7669ZM441.285 10.7376L441.226 10.7669C441.226 11.9397 441.373 12.9953 441.666 13.9336C441.959 14.8719 442.399 15.6635 442.956 16.3086C443.513 16.9537 444.158 17.4521 444.921 17.804C445.683 18.1558 446.533 18.3318 447.442 18.3318C448.381 18.3318 449.231 18.1558 449.993 17.804C450.756 17.4521 451.43 16.9537 451.987 16.3086C452.544 15.6635 452.984 14.8719 453.277 13.9336C453.571 12.9953 453.717 11.9397 453.717 10.7669C453.717 9.56471 453.571 8.50914 453.277 7.57086C452.984 6.63258 452.544 5.84091 451.987 5.19584C451.43 4.55077 450.785 4.05231 450.023 3.70045C449.26 3.3486 448.41 3.17267 447.472 3.17267C446.563 3.17267 445.712 3.3486 444.95 3.70045C444.188 4.05231 443.543 4.55077 442.986 5.19584C442.429 5.84091 442.018 6.63258 441.725 7.57086C441.432 8.50914 441.285 9.56471 441.285 10.7376ZM476.34 5.45973L473.173 6.31005L473.056 6.39801C472.528 5.37176 471.795 4.58009 470.886 4.05231C469.977 3.52453 468.951 3.26063 467.837 3.26063C466.898 3.26063 466.048 3.43656 465.286 3.78842C464.523 4.14027 463.878 4.63873 463.35 5.2838C462.823 5.92887 462.412 6.72054 462.119 7.65882C461.826 8.5971 461.679 9.65267 461.679 10.8255C461.679 11.9984 461.826 13.0539 462.148 13.9922C462.471 14.9305 462.911 15.7222 463.468 16.3672C464.025 17.0123 464.67 17.5108 465.432 17.8626C466.195 18.2145 467.045 18.3904 467.954 18.3904C469.185 18.3904 470.3 18.0679 471.296 17.4228C472.293 16.7777 473.026 15.8688 473.525 14.6959L476.662 15.5169C475.929 17.3642 474.786 18.8302 473.261 19.8858C471.736 20.9414 469.977 21.4398 467.954 21.4398C466.576 21.4398 465.315 21.1759 464.142 20.7068C462.969 20.2083 461.972 19.4753 461.122 18.537C460.272 17.5987 459.627 16.4845 459.157 15.1651C458.688 13.8456 458.454 12.3795 458.454 10.7669C458.454 9.15421 458.688 7.68815 459.157 6.36869C459.627 5.04923 460.301 3.93502 461.151 2.99674C462.002 2.05846 462.999 1.35475 464.142 0.85629C465.286 0.357828 466.546 0.0939368 467.924 0.0939368C469.83 0.0939368 471.502 0.563078 472.968 1.50136C474.434 2.43964 475.548 3.7591 476.34 5.45973ZM491.809 5.45973L488.818 6.28072L488.759 6.54462C488.495 5.43041 487.997 4.58009 487.235 3.99367C486.472 3.40724 485.593 3.11403 484.566 3.11403C483.54 3.11403 482.719 3.3486 482.103 3.84706C481.488 4.34552 481.165 4.99059 481.165 5.78226C481.165 6.22208 481.312 6.60326 481.576 6.95511C481.839 7.30697 482.191 7.6295 482.631 7.92272C483.071 8.21593 483.599 8.47982 484.185 8.71439C484.772 8.94896 485.387 9.18353 486.003 9.44742C486.678 9.71131 487.381 10.0338 488.085 10.3857C488.789 10.7376 489.434 11.1481 490.02 11.6172C490.607 12.0863 491.076 12.6434 491.457 13.2885C491.838 13.9336 492.014 14.6959 492.014 15.6049C492.014 16.4552 491.838 17.2469 491.486 17.9799C491.134 18.7129 490.665 19.358 490.049 19.8858C489.434 20.4136 488.671 20.8241 487.792 21.088C486.912 21.3812 485.944 21.5278 484.889 21.5278C483.833 21.5278 482.895 21.3812 482.045 21.088C481.194 20.8241 480.461 20.4136 479.816 19.8858C479.171 19.358 478.643 18.7129 478.233 17.9799C477.822 17.2469 477.529 16.4259 477.324 15.5462L480.344 14.7252C480.432 15.253 480.608 15.7515 480.872 16.2206C481.136 16.6898 481.458 17.1003 481.839 17.4521C482.221 17.804 482.69 18.0972 483.218 18.3024C483.745 18.5077 484.332 18.5957 485.006 18.5957C486.179 18.5957 487.088 18.3024 487.733 17.7453C488.378 17.1882 488.701 16.4845 488.701 15.6342C488.701 15.0478 488.554 14.5493 488.232 14.1681C487.909 13.787 487.499 13.4351 487 13.1419C486.502 12.8487 485.915 12.5555 485.27 12.2916C484.625 12.0277 483.951 11.7638 483.276 11.4706C482.66 11.2067 482.045 10.9135 481.4 10.591C480.755 10.2684 480.168 9.88724 479.64 9.44742C479.113 9.0076 478.673 8.47982 478.35 7.86407C478.028 7.24833 477.852 6.51529 477.852 5.66498C477.852 4.90263 478.028 4.16959 478.35 3.49521C478.673 2.82082 479.142 2.23439 479.728 1.73593C480.315 1.23747 481.048 0.826969 481.898 0.533757C482.748 0.240545 483.687 0.0939368 484.713 0.0939368C485.622 0.0939368 486.472 0.211222 487.235 0.475114C487.997 0.739005 488.701 1.09086 489.316 1.56C489.932 2.02914 490.46 2.58625 490.87 3.26063C491.281 3.93502 491.603 4.66805 491.809 5.45973Z" fill="black"/>
</svg>
