<svg width="539" height="28" viewBox="0 0 539 28" fill="none" xmlns="http://www.w3.org/2000/svg">
<path d="M25.7308 1.30788L19.874 16.2535L13.9856 0.269665L7.74499 16.2178L2.42201 1.30788H0L7.64994 22.2469L13.9267 6.29845L19.8088 22.2644L28.152 1.30788H25.7308Z" fill="#FF7300"/>
<path d="M37.514 11.9465C36.5371 11.1483 31.4202 8.49049 30.762 8.03101C30.106 7.57302 29.7765 6.90559 29.7765 6.02948C29.7765 5.15226 30.1108 4.44012 30.7776 3.89306C31.4444 3.34265 32.2562 3.07099 33.2123 3.07099C33.8288 3.07099 34.3555 3.18949 34.7949 3.43023C35.2329 3.66984 35.6514 4.05889 36.0488 4.59663L36.2594 4.92308C36.3179 4.96519 36.3995 5.06468 36.499 5.22157L38.2617 4.08796C37.684 3.07173 36.9623 2.30034 36.0946 1.77154C35.2295 1.24461 34.2973 0.9804 33.3032 0.9804C31.6096 0.9804 30.2237 1.45702 29.148 2.41363C28.0738 3.36948 27.5367 4.59663 27.5367 6.09097C27.5367 7.50333 28.0224 8.59446 28.9986 9.36026C29.9759 10.1264 34.8449 12.6534 35.6015 13.1714C36.3589 13.6883 36.7357 14.4548 36.7357 15.471C36.7357 16.6263 36.3552 17.5855 35.587 18.3509C34.8195 19.1197 33.8478 19.5017 32.6748 19.5017C31.6397 19.5017 30.7832 19.1834 30.1067 18.5451C29.4291 17.9071 28.9497 16.9944 28.6713 15.799L26.5195 16.4571C26.707 17.2635 26.981 17.982 27.3351 18.6077C27.6992 19.2464 28.1495 19.7882 28.6866 20.2332C29.7515 21.1208 31.1011 21.5647 32.7356 21.5647C34.468 21.5647 35.9403 20.9703 37.1569 19.7864C38.3705 18.6013 38.9781 17.1528 38.9781 15.439C38.9781 13.907 38.4905 12.7413 37.514 11.9465Z" fill="#FF7300"/>
<path d="M62.6004 10.5758C63.1025 10.4331 63.6355 10.3612 64.2054 10.3612C65.7231 10.3612 66.9524 10.8523 67.8891 11.8335C68.8291 12.811 69.3006 13.9662 69.3006 15.297C69.3006 16.2323 69.0755 17.1088 68.6249 17.9279C68.1776 18.7462 67.3054 19.8582 66.0094 21.2546L61.9023 25.6862H69.522V27.28H58.3125L64.6199 20.4705C65.8976 19.0988 66.7306 18.0837 67.1168 17.4218C67.5033 16.7619 67.6953 16.0635 67.6953 15.3327C67.6953 14.4044 67.3497 13.6047 66.6553 12.9366C65.9643 12.2688 65.1163 11.9326 64.1126 11.9326C63.5386 11.9326 63.0182 12.037 62.5482 12.2445C62.5903 11.8443 62.6056 10.7249 62.6004 10.5758Z" fill="white"/>
<path d="M50.5431 20.4405C55.5569 20.4405 59.6213 16.3335 59.6213 11.2672C59.6213 6.20099 55.5569 2.09399 50.5431 2.09399C45.5293 2.09399 41.4648 6.20099 41.4648 11.2672C41.4648 16.3335 45.5293 20.4405 50.5431 20.4405Z" fill="#FF7300"/>
<path d="M50.543 0C44.3016 0 39.2422 5.04461 39.2422 11.2672C39.2422 17.4898 44.3016 22.5344 50.543 22.5344C56.784 22.5344 61.8439 17.4898 61.8439 11.2672C61.8439 5.04461 56.784 0 50.543 0ZM50.543 20.4404C45.5294 20.4404 41.4648 16.3334 41.4648 11.2672C41.4648 6.20096 45.529 2.09394 50.543 2.09394C55.557 2.09394 59.6213 6.20096 59.6213 11.2672C59.6213 16.3334 55.5566 20.4404 50.543 20.4404Z" fill="white"/>
<path d="M59.5917 10.5525L56.302 10.5604L54.6619 13.511L50.5693 3.53621L46.8875 11.7301L41.4766 11.7186C41.4982 12.1698 41.553 12.6126 41.6372 13.0445L47.7444 13.0575L50.5138 6.89381L54.4815 16.5642L57.0828 11.8844L59.5995 11.8784C59.6126 11.6764 59.6219 11.473 59.6219 11.2676C59.6219 11.0265 59.6096 10.7888 59.5917 10.5525Z" fill="black"/>
<path d="M83.1224 21H79.9264V0.475114H83.1224V21ZM87.0349 0.475114H94.5119L94.4532 0.533757C95.89 0.533757 97.2387 0.768326 98.4702 1.26679C99.7017 1.76525 100.757 2.46896 101.637 3.37792C102.517 4.28688 103.22 5.37176 103.719 6.63258C104.217 7.89339 104.481 9.30082 104.481 10.8548C104.481 12.4089 104.247 13.8163 103.748 15.0771C103.25 16.3379 102.575 17.3935 101.696 18.2731C100.816 19.1528 99.7897 19.8271 98.5875 20.2963C97.3854 20.7654 96.0952 21 94.6878 21H87.0349V0.475114ZM90.2603 18.0092H94.8344H94.8051C95.714 18.0092 96.5644 17.8333 97.356 17.5108C98.1477 17.1882 98.8221 16.7191 99.4085 16.1033C99.9949 15.4876 100.435 14.7252 100.757 13.8456C101.08 12.966 101.256 11.9397 101.256 10.7962C101.256 9.62335 101.08 8.56778 100.757 7.65882C100.435 6.74986 99.9656 5.98751 99.3792 5.37176C98.7928 4.75602 98.0891 4.28688 97.2974 3.96434C96.5057 3.64181 95.6261 3.46588 94.6878 3.46588H90.2603V18.0092ZM110.369 17.9799H120.221V21H107.173V0.475114H120.045V3.49521H110.369V8.861H117.964V11.7052H110.369V17.9799ZM136.142 0.475114H139.308L139.22 20.9414H136.318L129.486 10.5616C129.105 10.0045 128.723 9.44742 128.372 8.89032C128.02 8.33321 127.697 7.83475 127.404 7.39493C127.111 6.95511 126.876 6.60326 126.7 6.33937L126.436 5.92887H126.378L126.407 6.39801C126.436 6.72054 126.436 7.16036 126.466 7.71747C126.495 8.27457 126.524 8.94896 126.554 9.71131C126.583 10.4737 126.583 11.2947 126.583 12.2036V20.912H123.416V0.387151H126.319L133.268 10.8842C133.591 11.3533 133.913 11.8518 134.265 12.3795C134.617 12.9073 134.939 13.3765 135.233 13.8163C135.526 14.2561 135.731 14.6373 135.936 14.9012L136.23 15.3117H136.288V14.8132C136.288 14.4907 136.288 14.0509 136.259 13.4938C136.23 12.9367 136.2 12.2916 136.171 11.5586C136.142 10.8255 136.142 10.0338 136.142 9.21285V0.475114ZM141.334 0.475114H156.669V3.49521H150.57V21H147.374V3.49521H141.334V0.475114ZM161.877 21H158.681V0.475114H161.877V21ZM163.913 0.475114H179.248V3.49521H173.15V21H169.954V3.49521H163.913V0.475114ZM193.459 0.475114H196.948L189.676 11.5879V21H186.539V11.5879L179.267 0.504435H182.757L186.979 6.83783C187.301 7.30697 187.536 7.77611 187.741 8.15729C187.946 8.53846 188.064 8.71439 188.093 8.71439H188.152C188.181 8.71439 188.298 8.50914 188.503 8.12796C188.709 7.74679 188.943 7.27765 189.266 6.80851L193.459 0.475114ZM217.744 5.45973L214.754 6.28072L214.695 6.54462C214.431 5.43041 213.933 4.58009 213.17 3.99367C212.408 3.40724 211.528 3.11403 210.502 3.11403C209.476 3.11403 208.655 3.3486 208.039 3.84706C207.423 4.34552 207.101 4.99059 207.101 5.78226C207.101 6.22208 207.247 6.60326 207.511 6.95511C207.775 7.30697 208.127 7.6295 208.567 7.92272C209.007 8.21593 209.534 8.47982 210.121 8.71439C210.707 8.94896 211.323 9.18353 211.939 9.44742C212.613 9.71131 213.317 10.0338 214.021 10.3857C214.724 10.7376 215.369 11.1481 215.956 11.6172C216.542 12.0863 217.011 12.6434 217.392 13.2885C217.774 13.9336 217.95 14.6959 217.95 15.6049C217.95 16.4552 217.774 17.2469 217.422 17.9799C217.07 18.7129 216.601 19.358 215.985 19.8858C215.369 20.4136 214.607 20.8241 213.727 21.088C212.848 21.3812 211.88 21.5278 210.825 21.5278C209.769 21.5278 208.831 21.3812 207.98 21.088C207.13 20.8241 206.397 20.4136 205.752 19.8858C205.107 19.358 204.579 18.7129 204.169 17.9799C203.758 17.2469 203.465 16.4259 203.26 15.5462L206.28 14.7252C206.368 15.253 206.544 15.7515 206.807 16.2206C207.071 16.6898 207.394 17.1003 207.775 17.4521C208.156 17.804 208.625 18.0972 209.153 18.3024C209.681 18.5077 210.267 18.5957 210.942 18.5957C212.115 18.5957 213.024 18.3024 213.669 17.7453C214.314 17.1882 214.636 16.4845 214.636 15.6342C214.636 15.0478 214.49 14.5493 214.167 14.1681C213.845 13.787 213.434 13.4351 212.936 13.1419C212.437 12.8487 211.851 12.5555 211.206 12.2916C210.561 12.0277 209.886 11.7638 209.212 11.4706C208.596 11.2067 207.98 10.9135 207.335 10.591C206.69 10.2684 206.104 9.88724 205.576 9.44742C205.048 9.0076 204.608 8.47982 204.286 7.86407C203.963 7.24833 203.787 6.51529 203.787 5.66498C203.787 4.90263 203.963 4.16959 204.286 3.49521C204.608 2.82082 205.078 2.23439 205.664 1.73593C206.25 1.23747 206.983 0.826969 207.834 0.533757C208.684 0.240545 209.622 0.0939368 210.649 0.0939368C211.558 0.0939368 212.408 0.211222 213.17 0.475114C213.933 0.739005 214.636 1.09086 215.252 1.56C215.868 2.02914 216.396 2.58625 216.806 3.26063C217.217 3.93502 217.539 4.66805 217.744 5.45973ZM223.595 17.9799H233.447V21H220.399V0.475114H233.271V3.49521H223.595V8.861H231.19V11.7052H223.595V17.9799ZM251.01 20.9707H247.432L243.445 13.5524C243.357 13.5817 243.269 13.5817 243.151 13.5817H242.858H239.867V20.9414H236.671V0.416472H242.858C244.002 0.416472 245.028 0.563078 245.937 0.885611C246.846 1.20815 247.638 1.64796 248.283 2.23439C248.928 2.82082 249.426 3.52453 249.778 4.34552C250.13 5.16652 250.306 6.07548 250.306 7.10172C250.306 8.53846 249.983 9.74063 249.309 10.7376C248.635 11.7345 247.696 12.4675 246.494 12.966L251.01 20.9707ZM239.867 10.8255H243.122V10.7962C244.383 10.7962 245.351 10.4443 246.025 9.74063C246.699 9.03692 247.022 8.15729 247.022 7.13104C247.022 6.04615 246.699 5.16652 246.025 4.49213C245.351 3.81774 244.383 3.46588 243.122 3.46588H239.867V10.8255ZM266.768 0.475114H270.199L262.634 21H259.145L251.58 0.475114H254.981L259.819 14.0509C259.995 14.52 260.112 14.9598 260.229 15.3703C260.347 15.7808 260.464 16.162 260.552 16.4845C260.64 16.8071 260.728 17.071 260.787 17.2762L260.875 17.5694H260.904L260.992 17.2762C261.05 17.071 261.138 16.8071 261.226 16.4845C261.314 16.162 261.432 15.7808 261.549 15.3703C261.666 14.9598 261.783 14.52 261.959 14.0509L266.768 0.475114ZM275.332 17.9799H285.184V21H272.136V0.475114H285.008V3.49521H275.332V8.861H282.927V11.7052H275.332V17.9799ZM302.747 20.9707H299.169L295.182 13.5524C295.094 13.5817 295.006 13.5817 294.889 13.5817H294.595H291.605V20.9414H288.409V0.416472H294.595C295.739 0.416472 296.765 0.563078 297.674 0.885611C298.583 1.20815 299.375 1.64796 300.02 2.23439C300.665 2.82082 301.163 3.52453 301.515 4.34552C301.867 5.16652 302.043 6.07548 302.043 7.10172C302.043 8.53846 301.72 9.74063 301.046 10.7376C300.372 11.7345 299.433 12.4675 298.231 12.966L302.747 20.9707ZM291.605 10.8255H294.859V10.7962C296.12 10.7962 297.088 10.4443 297.762 9.74063C298.436 9.03692 298.759 8.15729 298.759 7.13104C298.759 6.04615 298.436 5.16652 297.762 4.49213C297.088 3.81774 296.12 3.46588 294.859 3.46588H291.605V10.8255ZM326.228 0.475114H329.19L329.043 21.088H325.965V13.3178C325.965 12.2916 325.965 11.324 325.994 10.415C326.023 9.50606 326.053 8.71439 326.082 8.04C326.111 7.36561 326.14 6.83783 326.17 6.45665L326.199 5.87023H326.14L325.965 6.19276C325.847 6.42733 325.701 6.69122 325.525 7.01376C325.349 7.33629 325.173 7.68815 324.997 8.04C324.821 8.39186 324.674 8.71439 324.528 9.0076L320.921 15.8395H319.309L315.702 9.0076C315.555 8.71439 315.409 8.39186 315.233 8.04C315.057 7.68815 314.881 7.33629 314.705 7.01376C314.529 6.69122 314.383 6.39801 314.265 6.16344L314.089 5.81158H314.06L314.089 6.36869C314.119 6.74986 314.148 7.27765 314.177 7.95204C314.207 8.62643 314.236 9.4181 314.265 10.3271C314.295 11.236 314.295 12.2036 314.295 13.2299V21H311.187V0.504435H314.177L318.458 8.47982C318.81 9.12489 319.103 9.65267 319.309 10.0925C319.514 10.5323 319.69 10.8842 319.807 11.1481C319.924 11.4119 320.012 11.5879 320.071 11.7052L320.159 11.8811H320.188L320.276 11.7052C320.335 11.5879 320.423 11.3826 320.54 11.1187C320.657 10.8548 320.833 10.503 321.068 10.0632C321.302 9.62335 321.596 9.09557 321.948 8.4505L326.228 0.475114ZM336.355 21H333.159V0.475114H336.355V21ZM354.547 18.537H354.518H354.488C354.283 18.8302 353.99 19.1528 353.609 19.4753C353.228 19.7978 352.788 20.091 352.26 20.3843C351.732 20.6775 351.146 20.912 350.501 21.0586C349.856 21.2346 349.181 21.3225 348.448 21.3225C347.099 21.3225 345.839 21.0586 344.695 20.5895C343.552 20.091 342.555 19.3873 341.704 18.4784C340.854 17.5694 340.209 16.4552 339.74 15.1357C339.271 13.8163 339.036 12.3502 339.036 10.7376C339.036 9.12489 339.271 7.65882 339.74 6.33937C340.209 5.01991 340.883 3.9057 341.734 2.96742C342.584 2.02914 343.581 1.32543 344.724 0.826969C345.868 0.328507 347.129 0.064616 348.507 0.064616C350.471 0.0939368 352.172 0.592399 353.609 1.53068C355.046 2.46896 356.16 3.78842 356.922 5.45973L353.755 6.31005C353.228 5.2838 352.495 4.49213 351.586 3.96434C350.677 3.43656 349.65 3.17267 348.536 3.17267C347.598 3.17267 346.748 3.3486 345.985 3.70045C345.223 4.05231 344.578 4.55077 344.021 5.19584C343.464 5.84091 343.053 6.63258 342.76 7.57086C342.467 8.50914 342.32 9.56471 342.32 10.7376C342.32 11.9397 342.496 12.9953 342.819 13.9336C343.141 14.8719 343.581 15.6635 344.138 16.3086C344.695 16.9537 345.369 17.4521 346.161 17.804C346.953 18.1558 347.832 18.3318 348.771 18.3318C349.592 18.3318 350.325 18.2145 350.97 17.9799C351.615 17.7453 352.172 17.4521 352.641 17.1003C353.11 16.7484 353.521 16.3379 353.843 15.8981C354.166 15.4583 354.4 15.0185 354.547 14.5786V12.5555H349.24V9.94588H357.274V21H354.547C354.547 20.0324 354.547 19.3873 354.547 19.0648C354.547 18.7423 354.547 18.5663 354.547 18.537ZM374.715 20.9707H371.138L367.151 13.5524C367.063 13.5817 366.975 13.5817 366.857 13.5817H366.564H363.573V20.9414H360.377V0.416472H366.564C367.708 0.416472 368.734 0.563078 369.643 0.885611C370.552 1.20815 371.344 1.64796 371.989 2.23439C372.634 2.82082 373.132 3.52453 373.484 4.34552C373.836 5.16652 374.012 6.07548 374.012 7.10172C374.012 8.53846 373.689 9.74063 373.015 10.7376C372.34 11.7345 371.402 12.4675 370.2 12.966L374.715 20.9707ZM363.573 10.8255H366.828V10.7962C368.089 10.7962 369.056 10.4443 369.731 9.74063C370.405 9.03692 370.728 8.15729 370.728 7.13104C370.728 6.04615 370.405 5.16652 369.731 4.49213C369.056 3.81774 368.089 3.46588 366.828 3.46588H363.573V10.8255ZM390.591 21L388.92 16.3379H380.3L378.628 21H375.256L382.997 0.475114H386.193L393.963 21H390.591ZM381.355 13.4938H387.923L385.46 6.77919C385.343 6.45665 385.226 6.13412 385.138 5.81158C385.05 5.48905 384.962 5.19584 384.903 4.96127C384.844 4.7267 384.786 4.52145 384.727 4.37484L384.668 4.14027H384.61L384.551 4.37484C384.493 4.52145 384.434 4.7267 384.346 4.96127C384.258 5.19584 384.17 5.48905 384.082 5.81158C383.994 6.13412 383.877 6.45665 383.759 6.77919L381.355 13.4938ZM394.022 0.475114H409.357V3.49521H403.259V21H400.063V3.49521H394.022V0.475114ZM414.566 21H411.37V0.475114H414.566V21ZM417.188 10.7669V10.8255C417.188 9.21285 417.423 7.74679 417.892 6.42733C418.361 5.10787 419.036 3.99367 419.886 3.05538C420.736 2.1171 421.733 1.41339 422.877 0.914932C424.02 0.416472 425.281 0.15258 426.659 0.15258C428.037 0.15258 429.298 0.416472 430.471 0.914932C431.644 1.41339 432.67 2.1171 433.52 3.05538C434.371 3.99367 435.045 5.10787 435.514 6.42733C435.983 7.74679 436.218 9.21285 436.218 10.8255C436.218 12.4382 435.983 13.9043 435.514 15.2237C435.045 16.5432 434.371 17.6574 433.52 18.5957C432.67 19.5339 431.673 20.2376 430.5 20.7361C429.327 21.2052 428.067 21.4398 426.689 21.4398C425.31 21.4398 424.05 21.1759 422.877 20.7068C421.704 20.2083 420.707 19.4753 419.857 18.537C419.006 17.5987 418.361 16.4845 417.892 15.1651C417.423 13.8456 417.188 12.3795 417.188 10.7669ZM420.531 10.7376L420.472 10.7669C420.472 11.9397 420.619 12.9953 420.912 13.9336C421.205 14.8719 421.645 15.6635 422.202 16.3086C422.76 16.9537 423.405 17.4521 424.167 17.804C424.929 18.1558 425.78 18.3318 426.689 18.3318C427.627 18.3318 428.477 18.1558 429.24 17.804C430.002 17.4521 430.676 16.9537 431.233 16.3086C431.79 15.6635 432.23 14.8719 432.524 13.9336C432.817 12.9953 432.963 11.9397 432.963 10.7669C432.963 9.56471 432.817 8.50914 432.524 7.57086C432.23 6.63258 431.79 5.84091 431.233 5.19584C430.676 4.55077 430.031 4.05231 429.269 3.70045C428.506 3.3486 427.656 3.17267 426.718 3.17267C425.809 3.17267 424.959 3.3486 424.196 3.70045C423.434 4.05231 422.789 4.55077 422.232 5.19584C421.675 5.84091 421.264 6.63258 420.971 7.57086C420.678 8.50914 420.531 9.56471 420.531 10.7376ZM451.657 0.475114H454.823L454.736 20.9414H451.833L445.001 10.5616C444.62 10.0045 444.238 9.44742 443.887 8.89032C443.535 8.33321 443.212 7.83475 442.919 7.39493C442.626 6.95511 442.391 6.60326 442.215 6.33937L441.951 5.92887H441.893L441.922 6.39801C441.951 6.72054 441.951 7.16036 441.981 7.71747C442.01 8.27457 442.039 8.94896 442.069 9.71131C442.098 10.4737 442.098 11.2947 442.098 12.2036V20.912H438.931V0.387151H441.834L448.783 10.8842C449.106 11.3533 449.428 11.8518 449.78 12.3795C450.132 12.9073 450.455 13.3765 450.748 13.8163C451.041 14.2561 451.246 14.6373 451.452 14.9012L451.745 15.3117H451.803V14.8132C451.803 14.4907 451.803 14.0509 451.774 13.4938C451.745 12.9367 451.715 12.2916 451.686 11.5586C451.657 10.8255 451.657 10.0338 451.657 9.21285V0.475114ZM464.689 0.475114H472.166L472.108 0.533757C473.544 0.533757 474.893 0.768326 476.125 1.26679C477.356 1.76525 478.412 2.46896 479.291 3.37792C480.171 4.28688 480.875 5.37176 481.373 6.63258C481.872 7.89339 482.136 9.30082 482.136 10.8548C482.136 12.4089 481.901 13.8163 481.403 15.0771C480.904 16.3379 480.23 17.3935 479.35 18.2731C478.47 19.1528 477.444 19.8271 476.242 20.2963C475.04 20.7654 473.75 21 472.342 21H464.689V0.475114ZM467.915 18.0092H472.489H472.46C473.369 18.0092 474.219 17.8333 475.01 17.5108C475.802 17.1882 476.477 16.7191 477.063 16.1033C477.649 15.4876 478.089 14.7252 478.412 13.8456C478.734 12.966 478.91 11.9397 478.91 10.7962C478.91 9.62335 478.734 8.56778 478.412 7.65882C478.089 6.74986 477.62 5.98751 477.034 5.37176C476.447 4.75602 475.744 4.28688 474.952 3.96434C474.16 3.64181 473.281 3.46588 472.342 3.46588H467.915V18.0092ZM483.508 10.7669V10.8255C483.508 9.21285 483.743 7.74679 484.212 6.42733C484.681 5.10787 485.356 3.99367 486.206 3.05538C487.056 2.1171 488.053 1.41339 489.197 0.914932C490.34 0.416472 491.601 0.15258 492.979 0.15258C494.357 0.15258 495.618 0.416472 496.791 0.914932C497.964 1.41339 498.99 2.1171 499.84 3.05538C500.691 3.99367 501.365 5.10787 501.834 6.42733C502.303 7.74679 502.538 9.21285 502.538 10.8255C502.538 12.4382 502.303 13.9043 501.834 15.2237C501.365 16.5432 500.691 17.6574 499.84 18.5957C498.99 19.5339 497.993 20.2376 496.82 20.7361C495.647 21.2052 494.387 21.4398 493.008 21.4398C491.63 21.4398 490.37 21.1759 489.197 20.7068C488.024 20.2083 487.027 19.4753 486.177 18.537C485.326 17.5987 484.681 16.4845 484.212 15.1651C483.743 13.8456 483.508 12.3795 483.508 10.7669ZM486.851 10.7376L486.792 10.7669C486.792 11.9397 486.939 12.9953 487.232 13.9336C487.525 14.8719 487.965 15.6635 488.522 16.3086C489.079 16.9537 489.724 17.4521 490.487 17.804C491.249 18.1558 492.1 18.3318 493.008 18.3318C493.947 18.3318 494.797 18.1558 495.559 17.804C496.322 17.4521 496.996 16.9537 497.553 16.3086C498.11 15.6635 498.55 14.8719 498.843 13.9336C499.137 12.9953 499.283 11.9397 499.283 10.7669C499.283 9.56471 499.137 8.50914 498.843 7.57086C498.55 6.63258 498.11 5.84091 497.553 5.19584C496.996 4.55077 496.351 4.05231 495.589 3.70045C494.826 3.3486 493.976 3.17267 493.038 3.17267C492.129 3.17267 491.279 3.3486 490.516 3.70045C489.754 4.05231 489.109 4.55077 488.552 5.19584C487.995 5.84091 487.584 6.63258 487.291 7.57086C486.998 8.50914 486.851 9.56471 486.851 10.7376ZM521.906 5.45973L518.739 6.31005L518.622 6.39801C518.094 5.37176 517.361 4.58009 516.452 4.05231C515.543 3.52453 514.517 3.26063 513.403 3.26063C512.464 3.26063 511.614 3.43656 510.852 3.78842C510.089 4.14027 509.444 4.63873 508.916 5.2838C508.389 5.92887 507.978 6.72054 507.685 7.65882C507.392 8.5971 507.245 9.65267 507.245 10.8255C507.245 11.9984 507.392 13.0539 507.714 13.9922C508.037 14.9305 508.477 15.7222 509.034 16.3672C509.591 17.0123 510.236 17.5108 510.998 17.8626C511.761 18.2145 512.611 18.3904 513.52 18.3904C514.751 18.3904 515.866 18.0679 516.862 17.4228C517.859 16.7777 518.592 15.8688 519.091 14.6959L522.228 15.5169C521.495 17.3642 520.352 18.8302 518.827 19.8858C517.302 20.9414 515.543 21.4398 513.52 21.4398C512.142 21.4398 510.881 21.1759 509.708 20.7068C508.535 20.2083 507.538 19.4753 506.688 18.537C505.838 17.5987 505.193 16.4845 504.723 15.1651C504.254 13.8456 504.02 12.3795 504.02 10.7669C504.02 9.15421 504.254 7.68815 504.723 6.36869C505.193 5.04923 505.867 3.93502 506.717 2.99674C507.568 2.05846 508.565 1.35475 509.708 0.85629C510.852 0.357828 512.112 0.0939368 513.491 0.0939368C515.396 0.0939368 517.068 0.563078 518.534 1.50136C520 2.43964 521.114 3.7591 521.906 5.45973ZM537.375 5.45973L534.384 6.28072L534.325 6.54462C534.061 5.43041 533.563 4.58009 532.801 3.99367C532.038 3.40724 531.159 3.11403 530.132 3.11403C529.106 3.11403 528.285 3.3486 527.669 3.84706C527.054 4.34552 526.731 4.99059 526.731 5.78226C526.731 6.22208 526.878 6.60326 527.142 6.95511C527.406 7.30697 527.757 7.6295 528.197 7.92272C528.637 8.21593 529.165 8.47982 529.751 8.71439C530.338 8.94896 530.953 9.18353 531.569 9.44742C532.244 9.71131 532.947 10.0338 533.651 10.3857C534.355 10.7376 535 11.1481 535.586 11.6172C536.173 12.0863 536.642 12.6434 537.023 13.2885C537.404 13.9336 537.58 14.6959 537.58 15.6049C537.58 16.4552 537.404 17.2469 537.052 17.9799C536.7 18.7129 536.231 19.358 535.615 19.8858C535 20.4136 534.237 20.8241 533.358 21.088C532.478 21.3812 531.511 21.5278 530.455 21.5278C529.399 21.5278 528.461 21.3812 527.611 21.088C526.76 20.8241 526.027 20.4136 525.382 19.8858C524.737 19.358 524.21 18.7129 523.799 17.9799C523.389 17.2469 523.095 16.4259 522.89 15.5462L525.91 14.7252C525.998 15.253 526.174 15.7515 526.438 16.2206C526.702 16.6898 527.024 17.1003 527.406 17.4521C527.787 17.804 528.256 18.0972 528.784 18.3024C529.311 18.5077 529.898 18.5957 530.572 18.5957C531.745 18.5957 532.654 18.3024 533.299 17.7453C533.944 17.1882 534.267 16.4845 534.267 15.6342C534.267 15.0478 534.12 14.5493 533.798 14.1681C533.475 13.787 533.065 13.4351 532.566 13.1419C532.068 12.8487 531.481 12.5555 530.836 12.2916C530.191 12.0277 529.517 11.7638 528.842 11.4706C528.227 11.2067 527.611 10.9135 526.966 10.591C526.321 10.2684 525.734 9.88724 525.206 9.44742C524.679 9.0076 524.239 8.47982 523.916 7.86407C523.594 7.24833 523.418 6.51529 523.418 5.66498C523.418 4.90263 523.594 4.16959 523.916 3.49521C524.239 2.82082 524.708 2.23439 525.294 1.73593C525.881 1.23747 526.614 0.826969 527.464 0.533757C528.314 0.240545 529.253 0.0939368 530.279 0.0939368C531.188 0.0939368 532.038 0.211222 532.801 0.475114C533.563 0.739005 534.267 1.09086 534.882 1.56C535.498 2.02914 536.026 2.58625 536.436 3.26063C536.847 3.93502 537.17 4.66805 537.375 5.45973Z" fill="white"/>
</svg>
