<svg width="513" height="28" viewBox="0 0 513 28" fill="none" xmlns="http://www.w3.org/2000/svg">
<path d="M25.7308 1.30787L19.874 16.2535L13.9856 0.269653L7.74499 16.2177L2.42201 1.30787H0L7.64994 22.2469L13.9267 6.29844L19.8088 22.2644L28.152 1.30787H25.7308Z" fill="#FF7300"/>
<path d="M37.514 11.9465C36.5371 11.1483 31.4202 8.4905 30.762 8.03101C30.106 7.57302 29.7765 6.9056 29.7765 6.02949C29.7765 5.15226 30.1108 4.44012 30.7776 3.89307C31.4444 3.34266 32.2562 3.07099 33.2123 3.07099C33.8288 3.07099 34.3555 3.1895 34.7949 3.43023C35.2329 3.66985 35.6514 4.0589 36.0488 4.59664L36.2594 4.92308C36.3179 4.96519 36.3995 5.06469 36.499 5.22158L38.2617 4.08797C37.684 3.07174 36.9623 2.30035 36.0946 1.77155C35.2295 1.24462 34.2973 0.980408 33.3032 0.980408C31.6096 0.980408 30.2237 1.45703 29.148 2.41363C28.0738 3.36949 27.5367 4.59664 27.5367 6.09098C27.5367 7.50334 28.0224 8.59447 28.9986 9.36027C29.9759 10.1264 34.8449 12.6534 35.6015 13.1714C36.3589 13.6883 36.7357 14.4548 36.7357 15.471C36.7357 16.6263 36.3552 17.5855 35.587 18.3509C34.8195 19.1197 33.8478 19.5017 32.6748 19.5017C31.6397 19.5017 30.7832 19.1834 30.1067 18.5451C29.4291 17.9071 28.9497 16.9945 28.6713 15.799L26.5195 16.4571C26.707 17.2635 26.981 17.982 27.3351 18.6077C27.6992 19.2464 28.1495 19.7882 28.6866 20.2332C29.7515 21.1208 31.1011 21.5647 32.7356 21.5647C34.468 21.5647 35.9403 20.9703 37.1569 19.7864C38.3705 18.6013 38.9781 17.1528 38.9781 15.439C38.9781 13.907 38.4905 12.7414 37.514 11.9465Z" fill="#FF7300"/>
<path d="M62.6004 10.5758C63.1025 10.4331 63.6355 10.3611 64.2054 10.3611C65.7231 10.3611 66.9524 10.8523 67.8891 11.8335C68.8291 12.811 69.3006 13.9662 69.3006 15.2969C69.3006 16.2323 69.0755 17.1088 68.6249 17.9279C68.1776 18.7462 67.3054 19.8582 66.0094 21.2546L61.9023 25.6862H69.522V27.28H58.3125L64.6199 20.4705C65.8976 19.0988 66.7306 18.0836 67.1168 17.4218C67.5033 16.7618 67.6953 16.0635 67.6953 15.3327C67.6953 14.4044 67.3497 13.6047 66.6553 12.9366C65.9643 12.2688 65.1163 11.9326 64.1126 11.9326C63.5386 11.9326 63.0182 12.037 62.5482 12.2445C62.5903 11.8443 62.6056 10.7249 62.6004 10.5758Z" fill="white"/>
<path d="M50.5431 20.4405C55.5569 20.4405 59.6213 16.3335 59.6213 11.2672C59.6213 6.20099 55.5569 2.09399 50.5431 2.09399C45.5293 2.09399 41.4648 6.20099 41.4648 11.2672C41.4648 16.3335 45.5293 20.4405 50.5431 20.4405Z" fill="#FF7300"/>
<path d="M50.543 0C44.3016 0 39.2422 5.04461 39.2422 11.2672C39.2422 17.4898 44.3016 22.5344 50.543 22.5344C56.784 22.5344 61.8439 17.4898 61.8439 11.2672C61.8439 5.04461 56.784 0 50.543 0ZM50.543 20.4404C45.5294 20.4404 41.4648 16.3334 41.4648 11.2672C41.4648 6.20096 45.529 2.09394 50.543 2.09394C55.557 2.09394 59.6213 6.20096 59.6213 11.2672C59.6213 16.3334 55.5566 20.4404 50.543 20.4404Z" fill="white"/>
<path d="M59.5917 10.5525L56.302 10.5603L54.6619 13.511L50.5693 3.53619L46.8875 11.7301L41.4766 11.7185C41.4982 12.1698 41.553 12.6125 41.6372 13.0445L47.7444 13.0575L50.5138 6.8938L54.4815 16.5642L57.0828 11.8844L59.5995 11.8784C59.6126 11.6764 59.6219 11.473 59.6219 11.2676C59.6219 11.0265 59.6096 10.7888 59.5917 10.5525Z" fill="black"/>
<path d="M78.6069 10.7669V10.8255C78.6069 9.21285 78.8415 7.74679 79.3106 6.42733C79.7798 5.10787 80.4542 3.99367 81.3045 3.05538C82.1548 2.1171 83.1517 1.41339 84.2952 0.914932C85.4388 0.416472 86.6996 0.15258 88.0777 0.15258C89.4558 0.15258 90.7166 0.416472 91.8894 0.914932C93.0623 1.41339 94.0885 2.1171 94.9389 3.05538C95.7892 3.99367 96.4636 5.10787 96.9327 6.42733C97.4018 7.74679 97.6364 9.21285 97.6364 10.8255C97.6364 12.4382 97.4018 13.9043 96.9327 15.2237C96.4636 16.5432 95.7892 17.6574 94.9389 18.5957C94.0885 19.5339 93.0916 20.2376 91.9188 20.7361C90.7459 21.2052 89.4851 21.4398 88.107 21.4398C86.7289 21.4398 85.4681 21.1759 84.2952 20.7068C83.1224 20.2083 82.1255 19.4753 81.2751 18.537C80.4248 17.5987 79.7798 16.4845 79.3106 15.1651C78.8415 13.8456 78.6069 12.3795 78.6069 10.7669ZM81.9495 10.7376L81.8909 10.7669C81.8909 11.9397 82.0375 12.9953 82.3307 13.9336C82.6239 14.8719 83.0637 15.6635 83.6208 16.3086C84.178 16.9537 84.823 17.4521 85.5854 17.804C86.3477 18.1558 87.198 18.3318 88.107 18.3318C89.0453 18.3318 89.8956 18.1558 90.658 17.804C91.4203 17.4521 92.0947 16.9537 92.6518 16.3086C93.2089 15.6635 93.6487 14.8719 93.9419 13.9336C94.2351 12.9953 94.3818 11.9397 94.3818 10.7669C94.3818 9.56471 94.2351 8.50914 93.9419 7.57086C93.6487 6.63258 93.2089 5.84091 92.6518 5.19584C92.0947 4.55077 91.4496 4.05231 90.6873 3.70045C89.9249 3.3486 89.0746 3.17267 88.1363 3.17267C87.2274 3.17267 86.377 3.3486 85.6147 3.70045C84.8523 4.05231 84.2073 4.55077 83.6502 5.19584C83.0931 5.84091 82.6826 6.63258 82.3894 7.57086C82.0961 8.50914 81.9495 9.56471 81.9495 10.7376ZM100.379 0.475114H106.566L106.537 0.504435C107.68 0.504435 108.706 0.651042 109.615 0.973576C110.524 1.29611 111.316 1.73593 111.961 2.32235C112.606 2.90878 113.105 3.61249 113.456 4.43349C113.808 5.25448 113.984 6.19276 113.984 7.219C113.984 8.24525 113.808 9.18353 113.456 10.0045C113.105 10.8255 112.606 11.5292 111.961 12.1157C111.316 12.7021 110.554 13.1419 109.645 13.4351C108.736 13.7283 107.709 13.8749 106.566 13.8749H103.575V21H100.379V0.475114ZM103.575 10.8842H106.537C107.856 10.8842 108.882 10.5616 109.586 9.91656C110.29 9.27149 110.642 8.36253 110.642 7.219C110.642 6.01683 110.26 5.07855 109.527 4.43349C108.794 3.78842 107.797 3.46588 106.537 3.46588H103.575V10.8842ZM119.418 17.9799H129.27V21H116.222V0.475114H129.094V3.49521H119.418V8.861H127.012V11.7052H119.418V17.9799ZM145.19 0.475114H148.357L148.269 20.9414H145.366L138.534 10.5616C138.153 10.0045 137.772 9.44742 137.42 8.89032C137.068 8.33321 136.745 7.83475 136.452 7.39493C136.159 6.95511 135.924 6.60326 135.749 6.33937L135.485 5.92887H135.426L135.455 6.39801C135.485 6.72054 135.485 7.16036 135.514 7.71747C135.543 8.27457 135.573 8.94896 135.602 9.71131C135.631 10.4737 135.631 11.2947 135.631 12.2036V20.912H132.465V0.387151H135.367L142.317 10.8842C142.639 11.3533 142.962 11.8518 143.313 12.3795C143.665 12.9073 143.988 13.3765 144.281 13.8163C144.574 14.2561 144.78 14.6373 144.985 14.9012L145.278 15.3117H145.337V14.8132C145.337 14.4907 145.337 14.0509 145.307 13.4938C145.278 12.9367 145.249 12.2916 145.219 11.5586C145.19 10.8255 145.19 10.0338 145.19 9.21285V0.475114ZM158.252 0.504435H165.436L165.318 0.533757C166.198 0.533757 167.019 0.651042 167.752 0.914932C168.485 1.17882 169.101 1.53068 169.629 1.99982C170.156 2.46896 170.567 3.02606 170.86 3.67113C171.153 4.3162 171.3 4.99059 171.3 5.72362C171.3 6.28072 171.212 6.80851 171.007 7.27765C170.801 7.74679 170.567 8.15729 170.274 8.50914C169.98 8.861 169.658 9.15421 169.306 9.38878C168.954 9.62335 168.602 9.76996 168.28 9.85792V9.88724C168.72 9.9752 169.189 10.1511 169.687 10.415C170.186 10.6789 170.655 11.0308 171.065 11.4706C171.476 11.9104 171.828 12.4382 172.092 13.0246C172.355 13.611 172.502 14.2561 172.502 14.9891C172.502 15.8981 172.355 16.7191 172.062 17.4521C171.769 18.1852 171.329 18.8302 170.743 19.358C170.156 19.8858 169.453 20.2963 168.602 20.5895C167.752 20.8827 166.784 21 165.67 21H158.252V0.504435ZM161.448 8.83167H164.996C165.963 8.83167 166.755 8.56778 167.342 8.04C167.928 7.51222 168.221 6.83783 168.221 6.01683C168.221 5.16652 167.928 4.49213 167.342 3.99367C166.755 3.49521 165.963 3.23131 164.967 3.23131H161.448V8.83167ZM161.448 18.2731H165.524V18.3024C166.609 18.3024 167.517 17.9799 168.221 17.3642C168.925 16.7484 169.277 15.8981 169.277 14.8425C169.277 14.3148 169.189 13.8456 168.984 13.4351C168.778 13.0246 168.514 12.6434 168.163 12.3209C167.811 11.9984 167.4 11.7638 166.931 11.5879C166.462 11.4119 165.963 11.324 165.436 11.324H161.448V18.2731ZM188.351 21L186.68 16.3379H178.06L176.388 21H173.016L180.757 0.475114H183.953L191.723 21H188.351ZM179.115 13.4938H185.683L183.22 6.77919C183.103 6.45665 182.986 6.13412 182.898 5.81158C182.81 5.48905 182.722 5.19584 182.663 4.96127C182.604 4.7267 182.546 4.52145 182.487 4.37484L182.428 4.14027H182.37L182.311 4.37484C182.253 4.52145 182.194 4.7267 182.106 4.96127C182.018 5.19584 181.93 5.48905 181.842 5.81158C181.754 6.13412 181.637 6.45665 181.52 6.77919L179.115 13.4938ZM206.384 0.475114H209.551L209.463 20.9414H206.56L199.728 10.5616C199.347 10.0045 198.966 9.44742 198.614 8.89032C198.262 8.33321 197.94 7.83475 197.647 7.39493C197.353 6.95511 197.119 6.60326 196.943 6.33937L196.679 5.92887H196.62L196.65 6.39801C196.679 6.72054 196.679 7.16036 196.708 7.71747C196.738 8.27457 196.767 8.94896 196.796 9.71131C196.826 10.4737 196.826 11.2947 196.826 12.2036V20.912H193.659V0.387151H196.562L203.511 10.8842C203.833 11.3533 204.156 11.8518 204.508 12.3795C204.86 12.9073 205.182 13.3765 205.475 13.8163C205.769 14.2561 205.974 14.6373 206.179 14.9012L206.472 15.3117H206.531V14.8132C206.531 14.4907 206.531 14.0509 206.502 13.4938C206.472 12.9367 206.443 12.2916 206.414 11.5586C206.384 10.8255 206.384 10.0338 206.384 9.21285V0.475114ZM229.551 21H225.827L218.995 11.2653L216.62 13.8163V21.0586H213.424V0.563078H216.62V5.34244C216.62 6.83783 216.62 7.95204 216.591 8.71439C216.561 9.47674 216.561 9.85792 216.591 9.85792H216.62L216.854 9.59403C217.001 9.4181 217.206 9.18353 217.47 8.89032C217.734 8.5971 218.027 8.27457 218.379 7.89339C218.731 7.51222 219.083 7.10172 219.493 6.6619L225.27 0.475114H229.111L221.135 8.94896L229.551 21ZM235.012 21H231.816V0.475114H235.012V21ZM251.65 0.475114H254.817L254.729 20.9414H251.826L244.994 10.5616C244.613 10.0045 244.232 9.44742 243.88 8.89032C243.528 8.33321 243.206 7.83475 242.913 7.39493C242.619 6.95511 242.385 6.60326 242.209 6.33937L241.945 5.92887H241.886L241.916 6.39801C241.945 6.72054 241.945 7.16036 241.974 7.71747C242.004 8.27457 242.033 8.94896 242.062 9.71131C242.092 10.4737 242.092 11.2947 242.092 12.2036V20.912H238.925V0.387151H241.828L248.777 10.8842C249.099 11.3533 249.422 11.8518 249.774 12.3795C250.126 12.9073 250.448 13.3765 250.741 13.8163C251.035 14.2561 251.24 14.6373 251.445 14.9012L251.738 15.3117H251.797V14.8132C251.797 14.4907 251.797 14.0509 251.768 13.4938C251.738 12.9367 251.709 12.2916 251.68 11.5586C251.65 10.8255 251.65 10.0338 251.65 9.21285V0.475114ZM272.998 18.537H272.969H272.94C272.735 18.8302 272.441 19.1528 272.06 19.4753C271.679 19.7978 271.239 20.091 270.711 20.3843C270.184 20.6775 269.597 20.912 268.952 21.0586C268.307 21.2346 267.633 21.3225 266.9 21.3225C265.551 21.3225 264.29 21.0586 263.146 20.5895C262.003 20.091 261.006 19.3873 260.156 18.4784C259.305 17.5694 258.66 16.4552 258.191 15.1357C257.722 13.8163 257.487 12.3502 257.487 10.7376C257.487 9.12489 257.722 7.65882 258.191 6.33937C258.66 5.01991 259.335 3.9057 260.185 2.96742C261.035 2.02914 262.032 1.32543 263.176 0.826969C264.319 0.328507 265.58 0.064616 266.958 0.064616C268.923 0.0939368 270.623 0.592399 272.06 1.53068C273.497 2.46896 274.611 3.78842 275.373 5.45973L272.207 6.31005C271.679 5.2838 270.946 4.49213 270.037 3.96434C269.128 3.43656 268.102 3.17267 266.988 3.17267C266.049 3.17267 265.199 3.3486 264.437 3.70045C263.674 4.05231 263.029 4.55077 262.472 5.19584C261.915 5.84091 261.504 6.63258 261.211 7.57086C260.918 8.50914 260.771 9.56471 260.771 10.7376C260.771 11.9397 260.947 12.9953 261.27 13.9336C261.592 14.8719 262.032 15.6635 262.589 16.3086C263.146 16.9537 263.821 17.4521 264.613 17.804C265.404 18.1558 266.284 18.3318 267.222 18.3318C268.043 18.3318 268.776 18.2145 269.421 17.9799C270.066 17.7453 270.623 17.4521 271.093 17.1003C271.562 16.7484 271.972 16.3379 272.295 15.8981C272.617 15.4583 272.852 15.0185 272.998 14.5786V12.5555H267.691V9.94588H275.725V21H272.998C272.998 20.0324 272.998 19.3873 272.998 19.0648C272.998 18.7423 272.998 18.5663 272.998 18.537ZM299.747 0.475114H302.708L302.561 21.088H299.483V13.3178C299.483 12.2916 299.483 11.324 299.512 10.415C299.541 9.50606 299.571 8.71439 299.6 8.04C299.629 7.36561 299.659 6.83783 299.688 6.45665L299.717 5.87023H299.659L299.483 6.19276C299.365 6.42733 299.219 6.69122 299.043 7.01376C298.867 7.33629 298.691 7.68815 298.515 8.04C298.339 8.39186 298.192 8.71439 298.046 9.0076L294.439 15.8395H292.827L289.22 9.0076C289.074 8.71439 288.927 8.39186 288.751 8.04C288.575 7.68815 288.399 7.33629 288.223 7.01376C288.047 6.69122 287.901 6.39801 287.783 6.16344L287.608 5.81158H287.578L287.608 6.36869C287.637 6.74986 287.666 7.27765 287.695 7.95204C287.725 8.62643 287.754 9.4181 287.783 10.3271C287.813 11.236 287.813 12.2036 287.813 13.2299V21H284.705V0.504435H287.695L291.976 8.47982C292.328 9.12489 292.621 9.65267 292.827 10.0925C293.032 10.5323 293.208 10.8842 293.325 11.1481C293.442 11.4119 293.53 11.5879 293.589 11.7052L293.677 11.8811H293.706L293.794 11.7052C293.853 11.5879 293.941 11.3826 294.058 11.1187C294.175 10.8548 294.351 10.503 294.586 10.0632C294.821 9.62335 295.114 9.09557 295.466 8.4505L299.747 0.475114ZM309.873 21H306.677V0.475114H309.873V21ZM328.065 18.537H328.036H328.006C327.801 18.8302 327.508 19.1528 327.127 19.4753C326.746 19.7978 326.306 20.091 325.778 20.3843C325.25 20.6775 324.664 20.912 324.019 21.0586C323.374 21.2346 322.699 21.3225 321.966 21.3225C320.618 21.3225 319.357 21.0586 318.213 20.5895C317.07 20.091 316.073 19.3873 315.222 18.4784C314.372 17.5694 313.727 16.4552 313.258 15.1357C312.789 13.8163 312.554 12.3502 312.554 10.7376C312.554 9.12489 312.789 7.65882 313.258 6.33937C313.727 5.01991 314.401 3.9057 315.252 2.96742C316.102 2.02914 317.099 1.32543 318.243 0.826969C319.386 0.328507 320.647 0.064616 322.025 0.064616C323.989 0.0939368 325.69 0.592399 327.127 1.53068C328.564 2.46896 329.678 3.78842 330.44 5.45973L327.273 6.31005C326.746 5.2838 326.013 4.49213 325.104 3.96434C324.195 3.43656 323.168 3.17267 322.054 3.17267C321.116 3.17267 320.266 3.3486 319.503 3.70045C318.741 4.05231 318.096 4.55077 317.539 5.19584C316.982 5.84091 316.571 6.63258 316.278 7.57086C315.985 8.50914 315.838 9.56471 315.838 10.7376C315.838 11.9397 316.014 12.9953 316.337 13.9336C316.659 14.8719 317.099 15.6635 317.656 16.3086C318.213 16.9537 318.888 17.4521 319.679 17.804C320.471 18.1558 321.351 18.3318 322.289 18.3318C323.11 18.3318 323.843 18.2145 324.488 17.9799C325.133 17.7453 325.69 17.4521 326.159 17.1003C326.628 16.7484 327.039 16.3379 327.361 15.8981C327.684 15.4583 327.919 15.0185 328.065 14.5786V12.5555H322.758V9.94588H330.792V21H328.065C328.065 20.0324 328.065 19.3873 328.065 19.0648C328.065 18.7423 328.065 18.5663 328.065 18.537ZM348.234 20.9707H344.656L340.669 13.5524C340.581 13.5817 340.493 13.5817 340.375 13.5817H340.082H337.092V20.9414H333.895V0.416472H340.082C341.226 0.416472 342.252 0.563078 343.161 0.885611C344.07 1.20815 344.862 1.64796 345.507 2.23439C346.152 2.82082 346.65 3.52453 347.002 4.34552C347.354 5.16652 347.53 6.07548 347.53 7.10172C347.53 8.53846 347.207 9.74063 346.533 10.7376C345.859 11.7345 344.92 12.4675 343.718 12.966L348.234 20.9707ZM337.092 10.8255H340.346V10.7962C341.607 10.7962 342.575 10.4443 343.249 9.74063C343.923 9.03692 344.246 8.15729 344.246 7.13104C344.246 6.04615 343.923 5.16652 343.249 4.49213C342.575 3.81774 341.607 3.46588 340.346 3.46588H337.092V10.8255ZM364.109 21L362.438 16.3379H353.818L352.146 21H348.774L356.515 0.475114H359.711L367.481 21H364.109ZM354.873 13.4938H361.441L358.978 6.77919C358.861 6.45665 358.744 6.13412 358.656 5.81158C358.568 5.48905 358.48 5.19584 358.421 4.96127C358.362 4.7267 358.304 4.52145 358.245 4.37484L358.187 4.14027H358.128L358.069 4.37484C358.011 4.52145 357.952 4.7267 357.864 4.96127C357.776 5.19584 357.688 5.48905 357.6 5.81158C357.512 6.13412 357.395 6.45665 357.278 6.77919L354.873 13.4938ZM367.54 0.475114H382.875V3.49521H376.777V21H373.581V3.49521H367.54V0.475114ZM388.084 21H384.888V0.475114H388.084V21ZM390.707 10.7669V10.8255C390.707 9.21285 390.941 7.74679 391.41 6.42733C391.879 5.10787 392.554 3.99367 393.404 3.05538C394.254 2.1171 395.251 1.41339 396.395 0.914932C397.538 0.416472 398.799 0.15258 400.177 0.15258C401.555 0.15258 402.816 0.416472 403.989 0.914932C405.162 1.41339 406.188 2.1171 407.039 3.05538C407.889 3.99367 408.563 5.10787 409.032 6.42733C409.502 7.74679 409.736 9.21285 409.736 10.8255C409.736 12.4382 409.502 13.9043 409.032 15.2237C408.563 16.5432 407.889 17.6574 407.039 18.5957C406.188 19.5339 405.191 20.2376 404.018 20.7361C402.846 21.2052 401.585 21.4398 400.207 21.4398C398.829 21.4398 397.568 21.1759 396.395 20.7068C395.222 20.2083 394.225 19.4753 393.375 18.537C392.525 17.5987 391.879 16.4845 391.41 15.1651C390.941 13.8456 390.707 12.3795 390.707 10.7669ZM394.049 10.7376L393.991 10.7669C393.991 11.9397 394.137 12.9953 394.43 13.9336C394.724 14.8719 395.163 15.6635 395.721 16.3086C396.278 16.9537 396.923 17.4521 397.685 17.804C398.447 18.1558 399.298 18.3318 400.207 18.3318C401.145 18.3318 401.995 18.1558 402.758 17.804C403.52 17.4521 404.194 16.9537 404.751 16.3086C405.309 15.6635 405.748 14.8719 406.042 13.9336C406.335 12.9953 406.481 11.9397 406.481 10.7669C406.481 9.56471 406.335 8.50914 406.042 7.57086C405.748 6.63258 405.309 5.84091 404.751 5.19584C404.194 4.55077 403.549 4.05231 402.787 3.70045C402.025 3.3486 401.174 3.17267 400.236 3.17267C399.327 3.17267 398.477 3.3486 397.714 3.70045C396.952 4.05231 396.307 4.55077 395.75 5.19584C395.193 5.84091 394.782 6.63258 394.489 7.57086C394.196 8.50914 394.049 9.56471 394.049 10.7376ZM425.175 0.475114H428.342L428.254 20.9414H425.351L418.519 10.5616C418.138 10.0045 417.757 9.44742 417.405 8.89032C417.053 8.33321 416.73 7.83475 416.437 7.39493C416.144 6.95511 415.909 6.60326 415.733 6.33937L415.47 5.92887H415.411L415.44 6.39801C415.47 6.72054 415.47 7.16036 415.499 7.71747C415.528 8.27457 415.558 8.94896 415.587 9.71131C415.616 10.4737 415.616 11.2947 415.616 12.2036V20.912H412.449V0.387151H415.352L422.301 10.8842C422.624 11.3533 422.946 11.8518 423.298 12.3795C423.65 12.9073 423.973 13.3765 424.266 13.8163C424.559 14.2561 424.764 14.6373 424.97 14.9012L425.263 15.3117H425.321V14.8132C425.321 14.4907 425.321 14.0509 425.292 13.4938C425.263 12.9367 425.234 12.2916 425.204 11.5586C425.175 10.8255 425.175 10.0338 425.175 9.21285V0.475114ZM438.207 0.475114H445.684L445.626 0.533757C447.062 0.533757 448.411 0.768326 449.643 1.26679C450.874 1.76525 451.93 2.46896 452.809 3.37792C453.689 4.28688 454.393 5.37176 454.891 6.63258C455.39 7.89339 455.654 9.30082 455.654 10.8548C455.654 12.4089 455.419 13.8163 454.921 15.0771C454.422 16.3379 453.748 17.3935 452.868 18.2731C451.988 19.1528 450.962 19.8271 449.76 20.2963C448.558 20.7654 447.268 21 445.86 21H438.207V0.475114ZM441.433 18.0092H446.007H445.978C446.887 18.0092 447.737 17.8333 448.529 17.5108C449.32 17.1882 449.995 16.7191 450.581 16.1033C451.167 15.4876 451.607 14.7252 451.93 13.8456C452.252 12.966 452.428 11.9397 452.428 10.7962C452.428 9.62335 452.252 8.56778 451.93 7.65882C451.607 6.74986 451.138 5.98751 450.552 5.37176C449.965 4.75602 449.262 4.28688 448.47 3.96434C447.678 3.64181 446.799 3.46588 445.86 3.46588H441.433V18.0092ZM457.026 10.7669V10.8255C457.026 9.21285 457.261 7.74679 457.73 6.42733C458.199 5.10787 458.874 3.99367 459.724 3.05538C460.574 2.1171 461.571 1.41339 462.715 0.914932C463.858 0.416472 465.119 0.15258 466.497 0.15258C467.875 0.15258 469.136 0.416472 470.309 0.914932C471.482 1.41339 472.508 2.1171 473.358 3.05538C474.209 3.99367 474.883 5.10787 475.352 6.42733C475.821 7.74679 476.056 9.21285 476.056 10.8255C476.056 12.4382 475.821 13.9043 475.352 15.2237C474.883 16.5432 474.209 17.6574 473.358 18.5957C472.508 19.5339 471.511 20.2376 470.338 20.7361C469.165 21.2052 467.905 21.4398 466.527 21.4398C465.148 21.4398 463.888 21.1759 462.715 20.7068C461.542 20.2083 460.545 19.4753 459.695 18.537C458.844 17.5987 458.199 16.4845 457.73 15.1651C457.261 13.8456 457.026 12.3795 457.026 10.7669ZM460.369 10.7376L460.31 10.7669C460.31 11.9397 460.457 12.9953 460.75 13.9336C461.043 14.8719 461.483 15.6635 462.04 16.3086C462.598 16.9537 463.243 17.4521 464.005 17.804C464.767 18.1558 465.618 18.3318 466.527 18.3318C467.465 18.3318 468.315 18.1558 469.078 17.804C469.84 17.4521 470.514 16.9537 471.071 16.3086C471.628 15.6635 472.068 14.8719 472.361 13.9336C472.655 12.9953 472.801 11.9397 472.801 10.7669C472.801 9.56471 472.655 8.50914 472.361 7.57086C472.068 6.63258 471.628 5.84091 471.071 5.19584C470.514 4.55077 469.869 4.05231 469.107 3.70045C468.344 3.3486 467.494 3.17267 466.556 3.17267C465.647 3.17267 464.797 3.3486 464.034 3.70045C463.272 4.05231 462.627 4.55077 462.07 5.19584C461.513 5.84091 461.102 6.63258 460.809 7.57086C460.516 8.50914 460.369 9.56471 460.369 10.7376ZM495.424 5.45973L492.257 6.31005L492.14 6.39801C491.612 5.37176 490.879 4.58009 489.97 4.05231C489.061 3.52453 488.035 3.26063 486.921 3.26063C485.982 3.26063 485.132 3.43656 484.37 3.78842C483.607 4.14027 482.962 4.63873 482.434 5.2838C481.907 5.92887 481.496 6.72054 481.203 7.65882C480.91 8.5971 480.763 9.65267 480.763 10.8255C480.763 11.9984 480.91 13.0539 481.232 13.9922C481.555 14.9305 481.995 15.7222 482.552 16.3672C483.109 17.0123 483.754 17.5108 484.516 17.8626C485.279 18.2145 486.129 18.3904 487.038 18.3904C488.269 18.3904 489.384 18.0679 490.381 17.4228C491.377 16.7777 492.111 15.8688 492.609 14.6959L495.746 15.5169C495.013 17.3642 493.87 18.8302 492.345 19.8858C490.82 20.9414 489.061 21.4398 487.038 21.4398C485.66 21.4398 484.399 21.1759 483.226 20.7068C482.053 20.2083 481.056 19.4753 480.206 18.537C479.356 17.5987 478.711 16.4845 478.242 15.1651C477.772 13.8456 477.538 12.3795 477.538 10.7669C477.538 9.15421 477.772 7.68815 478.242 6.36869C478.711 5.04923 479.385 3.93502 480.235 2.99674C481.086 2.05846 482.083 1.35475 483.226 0.85629C484.37 0.357828 485.631 0.0939368 487.009 0.0939368C488.914 0.0939368 490.586 0.563078 492.052 1.50136C493.518 2.43964 494.632 3.7591 495.424 5.45973ZM510.893 5.45973L507.902 6.28072L507.843 6.54462C507.58 5.43041 507.081 4.58009 506.319 3.99367C505.556 3.40724 504.677 3.11403 503.65 3.11403C502.624 3.11403 501.803 3.3486 501.187 3.84706C500.572 4.34552 500.249 4.99059 500.249 5.78226C500.249 6.22208 500.396 6.60326 500.66 6.95511C500.924 7.30697 501.275 7.6295 501.715 7.92272C502.155 8.21593 502.683 8.47982 503.269 8.71439C503.856 8.94896 504.471 9.18353 505.087 9.44742C505.762 9.71131 506.465 10.0338 507.169 10.3857C507.873 10.7376 508.518 11.1481 509.104 11.6172C509.691 12.0863 510.16 12.6434 510.541 13.2885C510.922 13.9336 511.098 14.6959 511.098 15.6049C511.098 16.4552 510.922 17.2469 510.57 17.9799C510.218 18.7129 509.749 19.358 509.134 19.8858C508.518 20.4136 507.755 20.8241 506.876 21.088C505.996 21.3812 505.029 21.5278 503.973 21.5278C502.917 21.5278 501.979 21.3812 501.129 21.088C500.279 20.8241 499.545 20.4136 498.9 19.8858C498.255 19.358 497.728 18.7129 497.317 17.9799C496.907 17.2469 496.613 16.4259 496.408 15.5462L499.428 14.7252C499.516 15.253 499.692 15.7515 499.956 16.2206C500.22 16.6898 500.542 17.1003 500.924 17.4521C501.305 17.804 501.774 18.0972 502.302 18.3024C502.829 18.5077 503.416 18.5957 504.09 18.5957C505.263 18.5957 506.172 18.3024 506.817 17.7453C507.462 17.1882 507.785 16.4845 507.785 15.6342C507.785 15.0478 507.638 14.5493 507.316 14.1681C506.993 13.787 506.583 13.4351 506.084 13.1419C505.586 12.8487 504.999 12.5555 504.354 12.2916C503.709 12.0277 503.035 11.7638 502.36 11.4706C501.745 11.2067 501.129 10.9135 500.484 10.591C499.839 10.2684 499.252 9.88724 498.724 9.44742C498.197 9.0076 497.757 8.47982 497.434 7.86407C497.112 7.24833 496.936 6.51529 496.936 5.66498C496.936 4.90263 497.112 4.16959 497.434 3.49521C497.757 2.82082 498.226 2.23439 498.812 1.73593C499.399 1.23747 500.132 0.826969 500.982 0.533757C501.833 0.240545 502.771 0.0939368 503.797 0.0939368C504.706 0.0939368 505.556 0.211222 506.319 0.475114C507.081 0.739005 507.785 1.09086 508.401 1.56C509.016 2.02914 509.544 2.58625 509.955 3.26063C510.365 3.93502 510.688 4.66805 510.893 5.45973Z" fill="white"/>
</svg>
