<svg width="571" height="28" viewBox="0 0 571 28" fill="none" xmlns="http://www.w3.org/2000/svg">
<path d="M25.729 1.30851L19.8726 16.2562L13.9846 0.270157L7.74444 16.2204L2.42184 1.30851H0L7.6494 22.2504L13.9258 6.29978L19.8074 22.268L28.15 1.30851H25.729Z" fill="#FF7300"/>
<path d="M37.5107 11.9483C36.5339 11.15 31.4174 8.49186 30.7592 8.03231C30.1032 7.57425 29.7737 6.90674 29.7737 6.03051C29.7737 5.15316 30.108 4.44092 30.7748 3.89379C31.4416 3.34331 32.2533 3.0716 33.2093 3.0716C33.8258 3.0716 34.3524 3.19012 34.7918 3.43089C35.2298 3.67054 35.6483 4.05965 36.0456 4.59746L36.2562 4.92395C36.3147 4.96606 36.3963 5.06558 36.4958 5.22248L38.2584 4.08872C37.6807 3.07235 36.9591 2.30085 36.0915 1.77198C35.2264 1.24498 34.2943 0.980728 33.3003 0.980728C31.6067 0.980728 30.221 1.45742 29.1453 2.41415C28.0712 3.37014 27.5341 4.59746 27.5341 6.09201C27.5341 7.50456 28.0198 8.59584 28.9959 9.36175C29.9731 10.128 34.8418 12.6553 35.5984 13.1734C36.3557 13.6903 36.7325 14.457 36.7325 15.4734C36.7325 16.6288 36.352 17.5881 35.5838 18.3536C34.8164 19.1225 33.8448 19.5045 32.6719 19.5045C31.6369 19.5045 30.7804 19.1863 30.1039 18.5478C29.4264 17.9097 28.9471 16.997 28.6687 15.8013L26.517 16.4595C26.7045 17.2661 26.9784 17.9847 27.3325 18.6104C27.6966 19.2492 28.1469 19.7912 28.6839 20.2362C29.7488 21.124 31.0983 21.5678 32.7326 21.5678C34.465 21.5678 35.9372 20.9734 37.1537 19.7893C38.3672 18.6041 38.9747 17.1554 38.9747 15.4413C38.9747 13.9091 38.4872 12.7433 37.5107 11.9483Z" fill="#FF7300"/>
<path d="M62.5951 10.5778C63.0971 10.4351 63.6301 10.3631 64.1999 10.3631C65.7176 10.3631 66.9468 10.8544 67.8834 11.8357C68.8234 12.8133 69.2948 13.9687 69.2948 15.2996C69.2948 16.2351 69.0697 17.1117 68.6191 17.9309C68.1719 18.7494 67.2997 19.8615 66.0038 21.2581L61.897 25.6903H69.5162V27.2843H58.3075L64.6144 20.4739C65.892 19.102 66.725 18.0867 67.1111 17.4248C67.4976 16.7647 67.6896 16.0663 67.6896 15.3354C67.6896 14.407 67.3441 13.6072 66.6497 12.9389C65.9587 12.271 65.1108 11.9348 64.1071 11.9348C63.5332 11.9348 63.0129 12.0392 62.5429 12.2468C62.585 11.8465 62.6003 10.7269 62.5951 10.5778Z" fill="black"/>
<path d="M50.5384 20.4433C55.5519 20.4433 59.616 16.3357 59.616 11.2688C59.616 6.20182 55.5519 2.09425 50.5384 2.09425C45.525 2.09425 41.4608 6.20182 41.4608 11.2688C41.4608 16.3357 45.525 20.4433 50.5384 20.4433Z" fill="#FF7300"/>
<path d="M50.5388 0C44.2979 0 39.2388 5.04531 39.2388 11.2687C39.2388 17.4922 44.2979 22.5375 50.5388 22.5375C56.7794 22.5375 61.8389 17.4922 61.8389 11.2687C61.8389 5.04531 56.7794 0 50.5388 0ZM50.5388 20.4433C45.5256 20.4433 41.4612 16.3357 41.4612 11.2687C41.4612 6.20182 45.5256 2.09423 50.5388 2.09423C55.5521 2.09423 59.6164 6.20182 59.6164 11.2687C59.6164 16.3357 55.5521 20.4433 50.5388 20.4433Z" fill="black"/>
<path d="M59.586 10.5537L56.2965 10.5616L54.6566 13.5126L50.5643 3.53644L46.8827 11.7315L41.4722 11.7199C41.4938 12.1713 41.5486 12.614 41.6328 13.046L47.7396 13.0591L50.5088 6.89451L54.4762 16.5658L57.0773 11.8854L59.5939 11.8794C59.6069 11.6774 59.6162 11.4739 59.6162 11.2686C59.6162 11.0278 59.6039 10.79 59.586 10.5537Z" fill="white"/>
<path d="M78.6011 10.7669V10.8255C78.6011 9.21285 78.8357 7.74679 79.3048 6.42733C79.774 5.10787 80.4483 3.99367 81.2987 3.05538C82.149 2.1171 83.1459 1.41339 84.2894 0.914932C85.433 0.416472 86.6938 0.15258 88.0719 0.15258C89.45 0.15258 90.7108 0.416472 91.8836 0.914932C93.0565 1.41339 94.0827 2.1171 94.933 3.05538C95.7834 3.99367 96.4577 5.10787 96.9269 6.42733C97.396 7.74679 97.6306 9.21285 97.6306 10.8255C97.6306 12.4382 97.396 13.9043 96.9269 15.2237C96.4577 16.5432 95.7834 17.6574 94.933 18.5957C94.0827 19.5339 93.0858 20.2376 91.913 20.7361C90.7401 21.2052 89.4793 21.4398 88.1012 21.4398C86.7231 21.4398 85.4623 21.1759 84.2894 20.7068C83.1166 20.2083 82.1197 19.4753 81.2693 18.537C80.419 17.5987 79.774 16.4845 79.3048 15.1651C78.8357 13.8456 78.6011 12.3795 78.6011 10.7669ZM81.9437 10.7376L81.8851 10.7669C81.8851 11.9397 82.0317 12.9953 82.3249 13.9336C82.6181 14.8719 83.0579 15.6635 83.615 16.3086C84.1721 16.9537 84.8172 17.4521 85.5796 17.804C86.3419 18.1558 87.1922 18.3318 88.1012 18.3318C89.0395 18.3318 89.8898 18.1558 90.6521 17.804C91.4145 17.4521 92.0889 16.9537 92.646 16.3086C93.2031 15.6635 93.6429 14.8719 93.9361 13.9336C94.2293 12.9953 94.3759 11.9397 94.3759 10.7669C94.3759 9.56471 94.2293 8.50914 93.9361 7.57086C93.6429 6.63258 93.2031 5.84091 92.646 5.19584C92.0889 4.55077 91.4438 4.05231 90.6815 3.70045C89.9191 3.3486 89.0688 3.17267 88.1305 3.17267C87.2216 3.17267 86.3712 3.3486 85.6089 3.70045C84.8465 4.05231 84.2015 4.55077 83.6444 5.19584C83.0873 5.84091 82.6768 6.63258 82.3835 7.57086C82.0903 8.50914 81.9437 9.56471 81.9437 10.7376ZM100.373 0.475114H106.56L106.531 0.504435C107.674 0.504435 108.701 0.651042 109.609 0.973576C110.518 1.29611 111.31 1.73593 111.955 2.32235C112.6 2.90878 113.099 3.61249 113.451 4.43349C113.802 5.25448 113.978 6.19276 113.978 7.219C113.978 8.24525 113.802 9.18353 113.451 10.0045C113.099 10.8255 112.6 11.5292 111.955 12.1157C111.31 12.7021 110.548 13.1419 109.639 13.4351C108.73 13.7283 107.704 13.8749 106.56 13.8749H103.569V21H100.373V0.475114ZM103.569 10.8842H106.531C107.85 10.8842 108.876 10.5616 109.58 9.91656C110.284 9.27149 110.636 8.36253 110.636 7.219C110.636 6.01683 110.255 5.07855 109.522 4.43349C108.788 3.78842 107.792 3.46588 106.531 3.46588H103.569V10.8842ZM119.412 17.9799H129.264V21H116.216V0.475114H129.088V3.49521H119.412V8.861H127.006V11.7052H119.412V17.9799ZM145.184 0.475114H148.351L148.263 20.9414H145.36L138.528 10.5616C138.147 10.0045 137.766 9.44742 137.414 8.89032C137.062 8.33321 136.74 7.83475 136.446 7.39493C136.153 6.95511 135.919 6.60326 135.743 6.33937L135.479 5.92887H135.42L135.45 6.39801C135.479 6.72054 135.479 7.16036 135.508 7.71747C135.537 8.27457 135.567 8.94896 135.596 9.71131C135.625 10.4737 135.625 11.2947 135.625 12.2036V20.912H132.459V0.387151H135.362L142.311 10.8842C142.633 11.3533 142.956 11.8518 143.308 12.3795C143.659 12.9073 143.982 13.3765 144.275 13.8163C144.568 14.2561 144.774 14.6373 144.979 14.9012L145.272 15.3117H145.331V14.8132C145.331 14.4907 145.331 14.0509 145.301 13.4938C145.272 12.9367 145.243 12.2916 145.214 11.5586C145.184 10.8255 145.184 10.0338 145.184 9.21285V0.475114ZM158.246 0.504435H165.43L165.313 0.533757C166.192 0.533757 167.013 0.651042 167.746 0.914932C168.479 1.17882 169.095 1.53068 169.623 1.99982C170.151 2.46896 170.561 3.02606 170.854 3.67113C171.147 4.3162 171.294 4.99059 171.294 5.72362C171.294 6.28072 171.206 6.80851 171.001 7.27765C170.796 7.74679 170.561 8.15729 170.268 8.50914C169.975 8.861 169.652 9.15421 169.3 9.38878C168.948 9.62335 168.597 9.76996 168.274 9.85792V9.88724C168.714 9.9752 169.183 10.1511 169.681 10.415C170.18 10.6789 170.649 11.0308 171.06 11.4706C171.47 11.9104 171.822 12.4382 172.086 13.0246C172.35 13.611 172.496 14.2561 172.496 14.9891C172.496 15.8981 172.35 16.7191 172.056 17.4521C171.763 18.1852 171.323 18.8302 170.737 19.358C170.151 19.8858 169.447 20.2963 168.597 20.5895C167.746 20.8827 166.779 21 165.664 21H158.246V0.504435ZM161.442 8.83167H164.99C165.958 8.83167 166.749 8.56778 167.336 8.04C167.922 7.51222 168.215 6.83783 168.215 6.01683C168.215 5.16652 167.922 4.49213 167.336 3.99367C166.749 3.49521 165.958 3.23131 164.961 3.23131H161.442V8.83167ZM161.442 18.2731H165.518V18.3024C166.603 18.3024 167.512 17.9799 168.215 17.3642C168.919 16.7484 169.271 15.8981 169.271 14.8425C169.271 14.3148 169.183 13.8456 168.978 13.4351C168.772 13.0246 168.509 12.6434 168.157 12.3209C167.805 11.9984 167.394 11.7638 166.925 11.5879C166.456 11.4119 165.958 11.324 165.43 11.324H161.442V18.2731ZM188.346 21L186.674 16.3379H178.054L176.382 21H173.011L180.751 0.475114H183.947L191.718 21H188.346ZM179.109 13.4938H185.677L183.214 6.77919C183.097 6.45665 182.98 6.13412 182.892 5.81158C182.804 5.48905 182.716 5.19584 182.657 4.96127C182.599 4.7267 182.54 4.52145 182.481 4.37484L182.423 4.14027H182.364L182.305 4.37484C182.247 4.52145 182.188 4.7267 182.1 4.96127C182.012 5.19584 181.924 5.48905 181.836 5.81158C181.748 6.13412 181.631 6.45665 181.514 6.77919L179.109 13.4938ZM206.379 0.475114H209.545L209.457 20.9414H206.555L199.723 10.5616C199.341 10.0045 198.96 9.44742 198.608 8.89032C198.257 8.33321 197.934 7.83475 197.641 7.39493C197.348 6.95511 197.113 6.60326 196.937 6.33937L196.673 5.92887H196.615L196.644 6.39801C196.673 6.72054 196.673 7.16036 196.703 7.71747C196.732 8.27457 196.761 8.94896 196.791 9.71131C196.82 10.4737 196.82 11.2947 196.82 12.2036V20.912H193.653V0.387151H196.556L203.505 10.8842C203.828 11.3533 204.15 11.8518 204.502 12.3795C204.854 12.9073 205.176 13.3765 205.47 13.8163C205.763 14.2561 205.968 14.6373 206.173 14.9012L206.467 15.3117H206.525V14.8132C206.525 14.4907 206.525 14.0509 206.496 13.4938C206.467 12.9367 206.437 12.2916 206.408 11.5586C206.379 10.8255 206.379 10.0338 206.379 9.21285V0.475114ZM229.545 21H225.821L218.989 11.2653L216.614 13.8163V21.0586H213.418V0.563078H216.614V5.34244C216.614 6.83783 216.614 7.95204 216.585 8.71439C216.555 9.47674 216.555 9.85792 216.585 9.85792H216.614L216.849 9.59403C216.995 9.4181 217.2 9.18353 217.464 8.89032C217.728 8.5971 218.021 8.27457 218.373 7.89339C218.725 7.51222 219.077 7.10172 219.487 6.6619L225.264 0.475114H229.105L221.129 8.94896L229.545 21ZM235.006 21H231.81V0.475114H235.006V21ZM251.644 0.475114H254.811L254.723 20.9414H251.82L244.989 10.5616C244.607 10.0045 244.226 9.44742 243.874 8.89032C243.522 8.33321 243.2 7.83475 242.907 7.39493C242.613 6.95511 242.379 6.60326 242.203 6.33937L241.939 5.92887H241.88L241.91 6.39801C241.939 6.72054 241.939 7.16036 241.968 7.71747C241.998 8.27457 242.027 8.94896 242.056 9.71131C242.086 10.4737 242.086 11.2947 242.086 12.2036V20.912H238.919V0.387151H241.822L248.771 10.8842C249.093 11.3533 249.416 11.8518 249.768 12.3795C250.12 12.9073 250.442 13.3765 250.735 13.8163C251.029 14.2561 251.234 14.6373 251.439 14.9012L251.732 15.3117H251.791V14.8132C251.791 14.4907 251.791 14.0509 251.762 13.4938C251.732 12.9367 251.703 12.2916 251.674 11.5586C251.644 10.8255 251.644 10.0338 251.644 9.21285V0.475114ZM272.993 18.537H272.963H272.934C272.729 18.8302 272.436 19.1528 272.054 19.4753C271.673 19.7978 271.233 20.091 270.706 20.3843C270.178 20.6775 269.591 20.912 268.946 21.0586C268.301 21.2346 267.627 21.3225 266.894 21.3225C265.545 21.3225 264.284 21.0586 263.141 20.5895C261.997 20.091 261 19.3873 260.15 18.4784C259.3 17.5694 258.655 16.4552 258.185 15.1357C257.716 13.8163 257.482 12.3502 257.482 10.7376C257.482 9.12489 257.716 7.65882 258.185 6.33937C258.655 5.01991 259.329 3.9057 260.179 2.96742C261.03 2.02914 262.026 1.32543 263.17 0.826969C264.314 0.328507 265.574 0.064616 266.952 0.064616C268.917 0.0939368 270.618 0.592399 272.054 1.53068C273.491 2.46896 274.605 3.78842 275.368 5.45973L272.201 6.31005C271.673 5.2838 270.94 4.49213 270.031 3.96434C269.122 3.43656 268.096 3.17267 266.982 3.17267C266.043 3.17267 265.193 3.3486 264.431 3.70045C263.668 4.05231 263.023 4.55077 262.466 5.19584C261.909 5.84091 261.499 6.63258 261.205 7.57086C260.912 8.50914 260.766 9.56471 260.766 10.7376C260.766 11.9397 260.942 12.9953 261.264 13.9336C261.587 14.8719 262.026 15.6635 262.584 16.3086C263.141 16.9537 263.815 17.4521 264.607 17.804C265.398 18.1558 266.278 18.3318 267.216 18.3318C268.037 18.3318 268.77 18.2145 269.415 17.9799C270.06 17.7453 270.618 17.4521 271.087 17.1003C271.556 16.7484 271.966 16.3379 272.289 15.8981C272.611 15.4583 272.846 15.0185 272.993 14.5786V12.5555H267.685V9.94588H275.719V21H272.993C272.993 20.0324 272.993 19.3873 272.993 19.0648C272.993 18.7423 272.993 18.5663 272.993 18.537ZM299.741 0.475114H302.702L302.556 21.088H299.477V13.3178C299.477 12.2916 299.477 11.324 299.506 10.415C299.535 9.50606 299.565 8.71439 299.594 8.04C299.623 7.36561 299.653 6.83783 299.682 6.45665L299.711 5.87023H299.653L299.477 6.19276C299.36 6.42733 299.213 6.69122 299.037 7.01376C298.861 7.33629 298.685 7.68815 298.509 8.04C298.333 8.39186 298.187 8.71439 298.04 9.0076L294.434 15.8395H292.821L289.214 9.0076C289.068 8.71439 288.921 8.39186 288.745 8.04C288.569 7.68815 288.393 7.33629 288.217 7.01376C288.042 6.69122 287.895 6.39801 287.778 6.16344L287.602 5.81158H287.572L287.602 6.36869C287.631 6.74986 287.66 7.27765 287.69 7.95204C287.719 8.62643 287.748 9.4181 287.778 10.3271C287.807 11.236 287.807 12.2036 287.807 13.2299V21H284.699V0.504435H287.69L291.971 8.47982C292.322 9.12489 292.616 9.65267 292.821 10.0925C293.026 10.5323 293.202 10.8842 293.319 11.1481C293.437 11.4119 293.525 11.5879 293.583 11.7052L293.671 11.8811H293.701L293.788 11.7052C293.847 11.5879 293.935 11.3826 294.052 11.1187C294.17 10.8548 294.346 10.503 294.58 10.0632C294.815 9.62335 295.108 9.09557 295.46 8.4505L299.741 0.475114ZM309.867 21H306.671V0.475114H309.867V21ZM328.059 18.537H328.03H328.001C327.795 18.8302 327.502 19.1528 327.121 19.4753C326.74 19.7978 326.3 20.091 325.772 20.3843C325.244 20.6775 324.658 20.912 324.013 21.0586C323.368 21.2346 322.694 21.3225 321.96 21.3225C320.612 21.3225 319.351 21.0586 318.207 20.5895C317.064 20.091 316.067 19.3873 315.217 18.4784C314.366 17.5694 313.721 16.4552 313.252 15.1357C312.783 13.8163 312.548 12.3502 312.548 10.7376C312.548 9.12489 312.783 7.65882 313.252 6.33937C313.721 5.01991 314.396 3.9057 315.246 2.96742C316.096 2.02914 317.093 1.32543 318.237 0.826969C319.38 0.328507 320.641 0.064616 322.019 0.064616C323.984 0.0939368 325.684 0.592399 327.121 1.53068C328.558 2.46896 329.672 3.78842 330.434 5.45973L327.268 6.31005C326.74 5.2838 326.007 4.49213 325.098 3.96434C324.189 3.43656 323.163 3.17267 322.048 3.17267C321.11 3.17267 320.26 3.3486 319.498 3.70045C318.735 4.05231 318.09 4.55077 317.533 5.19584C316.976 5.84091 316.565 6.63258 316.272 7.57086C315.979 8.50914 315.832 9.56471 315.832 10.7376C315.832 11.9397 316.008 12.9953 316.331 13.9336C316.653 14.8719 317.093 15.6635 317.65 16.3086C318.207 16.9537 318.882 17.4521 319.673 17.804C320.465 18.1558 321.345 18.3318 322.283 18.3318C323.104 18.3318 323.837 18.2145 324.482 17.9799C325.127 17.7453 325.684 17.4521 326.153 17.1003C326.623 16.7484 327.033 16.3379 327.356 15.8981C327.678 15.4583 327.913 15.0185 328.059 14.5786V12.5555H322.752V9.94588H330.786V21H328.059C328.059 20.0324 328.059 19.3873 328.059 19.0648C328.059 18.7423 328.059 18.5663 328.059 18.537ZM348.228 20.9707H344.651L340.663 13.5524C340.575 13.5817 340.487 13.5817 340.37 13.5817H340.076H337.086V20.9414H333.89V0.416472H340.076C341.22 0.416472 342.246 0.563078 343.155 0.885611C344.064 1.20815 344.856 1.64796 345.501 2.23439C346.146 2.82082 346.644 3.52453 346.996 4.34552C347.348 5.16652 347.524 6.07548 347.524 7.10172C347.524 8.53846 347.202 9.74063 346.527 10.7376C345.853 11.7345 344.914 12.4675 343.712 12.966L348.228 20.9707ZM337.086 10.8255H340.34V10.7962C341.601 10.7962 342.569 10.4443 343.243 9.74063C343.918 9.03692 344.24 8.15729 344.24 7.13104C344.24 6.04615 343.918 5.16652 343.243 4.49213C342.569 3.81774 341.601 3.46588 340.34 3.46588H337.086V10.8255ZM364.104 21L362.432 16.3379H353.812L352.141 21H348.769L356.509 0.475114H359.705L367.476 21H364.104ZM354.867 13.4938H361.435L358.972 6.77919C358.855 6.45665 358.738 6.13412 358.65 5.81158C358.562 5.48905 358.474 5.19584 358.415 4.96127C358.357 4.7267 358.298 4.52145 358.239 4.37484L358.181 4.14027H358.122L358.063 4.37484C358.005 4.52145 357.946 4.7267 357.858 4.96127C357.77 5.19584 357.682 5.48905 357.594 5.81158C357.506 6.13412 357.389 6.45665 357.272 6.77919L354.867 13.4938ZM367.535 0.475114H382.87V3.49521H376.771V21H373.575V3.49521H367.535V0.475114ZM388.078 21H384.882V0.475114H388.078V21ZM390.701 10.7669V10.8255C390.701 9.21285 390.935 7.74679 391.404 6.42733C391.874 5.10787 392.548 3.99367 393.398 3.05538C394.249 2.1171 395.246 1.41339 396.389 0.914932C397.533 0.416472 398.793 0.15258 400.172 0.15258C401.55 0.15258 402.81 0.416472 403.983 0.914932C405.156 1.41339 406.182 2.1171 407.033 3.05538C407.883 3.99367 408.557 5.10787 409.027 6.42733C409.496 7.74679 409.73 9.21285 409.73 10.8255C409.73 12.4382 409.496 13.9043 409.027 15.2237C408.557 16.5432 407.883 17.6574 407.033 18.5957C406.182 19.5339 405.185 20.2376 404.013 20.7361C402.84 21.2052 401.579 21.4398 400.201 21.4398C398.823 21.4398 397.562 21.1759 396.389 20.7068C395.216 20.2083 394.219 19.4753 393.369 18.537C392.519 17.5987 391.874 16.4845 391.404 15.1651C390.935 13.8456 390.701 12.3795 390.701 10.7669ZM394.043 10.7376L393.985 10.7669C393.985 11.9397 394.131 12.9953 394.425 13.9336C394.718 14.8719 395.158 15.6635 395.715 16.3086C396.272 16.9537 396.917 17.4521 397.679 17.804C398.442 18.1558 399.292 18.3318 400.201 18.3318C401.139 18.3318 401.989 18.1558 402.752 17.804C403.514 17.4521 404.189 16.9537 404.746 16.3086C405.303 15.6635 405.743 14.8719 406.036 13.9336C406.329 12.9953 406.476 11.9397 406.476 10.7669C406.476 9.56471 406.329 8.50914 406.036 7.57086C405.743 6.63258 405.303 5.84091 404.746 5.19584C404.189 4.55077 403.543 4.05231 402.781 3.70045C402.019 3.3486 401.168 3.17267 400.23 3.17267C399.321 3.17267 398.471 3.3486 397.709 3.70045C396.946 4.05231 396.301 4.55077 395.744 5.19584C395.187 5.84091 394.776 6.63258 394.483 7.57086C394.19 8.50914 394.043 9.56471 394.043 10.7376ZM425.169 0.475114H428.336L428.248 20.9414H425.345L418.513 10.5616C418.132 10.0045 417.751 9.44742 417.399 8.89032C417.047 8.33321 416.725 7.83475 416.431 7.39493C416.138 6.95511 415.904 6.60326 415.728 6.33937L415.464 5.92887H415.405L415.434 6.39801C415.464 6.72054 415.464 7.16036 415.493 7.71747C415.522 8.27457 415.552 8.94896 415.581 9.71131C415.61 10.4737 415.61 11.2947 415.61 12.2036V20.912H412.444V0.387151H415.346L422.296 10.8842C422.618 11.3533 422.941 11.8518 423.293 12.3795C423.644 12.9073 423.967 13.3765 424.26 13.8163C424.553 14.2561 424.759 14.6373 424.964 14.9012L425.257 15.3117H425.316V14.8132C425.316 14.4907 425.316 14.0509 425.286 13.4938C425.257 12.9367 425.228 12.2916 425.198 11.5586C425.169 10.8255 425.169 10.0338 425.169 9.21285V0.475114ZM438.202 0.475114H445.679L445.62 0.533757C447.057 0.533757 448.405 0.768326 449.637 1.26679C450.868 1.76525 451.924 2.46896 452.804 3.37792C453.683 4.28688 454.387 5.37176 454.885 6.63258C455.384 7.89339 455.648 9.30082 455.648 10.8548C455.648 12.4089 455.413 13.8163 454.915 15.0771C454.416 16.3379 453.742 17.3935 452.862 18.2731C451.983 19.1528 450.956 19.8271 449.754 20.2963C448.552 20.7654 447.262 21 445.855 21H438.202V0.475114ZM441.427 18.0092H446.001H445.972C446.881 18.0092 447.731 17.8333 448.523 17.5108C449.314 17.1882 449.989 16.7191 450.575 16.1033C451.162 15.4876 451.601 14.7252 451.924 13.8456C452.247 12.966 452.422 11.9397 452.422 10.7962C452.422 9.62335 452.247 8.56778 451.924 7.65882C451.601 6.74986 451.132 5.98751 450.546 5.37176C449.959 4.75602 449.256 4.28688 448.464 3.96434C447.672 3.64181 446.793 3.46588 445.855 3.46588H441.427V18.0092ZM457.021 10.7669V10.8255C457.021 9.21285 457.255 7.74679 457.724 6.42733C458.194 5.10787 458.868 3.99367 459.718 3.05538C460.569 2.1171 461.565 1.41339 462.709 0.914932C463.853 0.416472 465.113 0.15258 466.491 0.15258C467.87 0.15258 469.13 0.416472 470.303 0.914932C471.476 1.41339 472.502 2.1171 473.353 3.05538C474.203 3.99367 474.877 5.10787 475.346 6.42733C475.816 7.74679 476.05 9.21285 476.05 10.8255C476.05 12.4382 475.816 13.9043 475.346 15.2237C474.877 16.5432 474.203 17.6574 473.353 18.5957C472.502 19.5339 471.505 20.2376 470.333 20.7361C469.16 21.2052 467.899 21.4398 466.521 21.4398C465.143 21.4398 463.882 21.1759 462.709 20.7068C461.536 20.2083 460.539 19.4753 459.689 18.537C458.839 17.5987 458.194 16.4845 457.724 15.1651C457.255 13.8456 457.021 12.3795 457.021 10.7669ZM460.363 10.7376L460.305 10.7669C460.305 11.9397 460.451 12.9953 460.744 13.9336C461.038 14.8719 461.477 15.6635 462.035 16.3086C462.592 16.9537 463.237 17.4521 463.999 17.804C464.761 18.1558 465.612 18.3318 466.521 18.3318C467.459 18.3318 468.309 18.1558 469.072 17.804C469.834 17.4521 470.508 16.9537 471.066 16.3086C471.623 15.6635 472.062 14.8719 472.356 13.9336C472.649 12.9953 472.795 11.9397 472.795 10.7669C472.795 9.56471 472.649 8.50914 472.356 7.57086C472.062 6.63258 471.623 5.84091 471.066 5.19584C470.508 4.55077 469.863 4.05231 469.101 3.70045C468.339 3.3486 467.488 3.17267 466.55 3.17267C465.641 3.17267 464.791 3.3486 464.028 3.70045C463.266 4.05231 462.621 4.55077 462.064 5.19584C461.507 5.84091 461.096 6.63258 460.803 7.57086C460.51 8.50914 460.363 9.56471 460.363 10.7376ZM495.418 5.45973L492.251 6.31005L492.134 6.39801C491.606 5.37176 490.873 4.58009 489.964 4.05231C489.055 3.52453 488.029 3.26063 486.915 3.26063C485.977 3.26063 485.126 3.43656 484.364 3.78842C483.602 4.14027 482.956 4.63873 482.429 5.2838C481.901 5.92887 481.49 6.72054 481.197 7.65882C480.904 8.5971 480.757 9.65267 480.757 10.8255C480.757 11.9984 480.904 13.0539 481.227 13.9922C481.549 14.9305 481.989 15.7222 482.546 16.3672C483.103 17.0123 483.748 17.5108 484.51 17.8626C485.273 18.2145 486.123 18.3904 487.032 18.3904C488.264 18.3904 489.378 18.0679 490.375 17.4228C491.372 16.7777 492.105 15.8688 492.603 14.6959L495.741 15.5169C495.008 17.3642 493.864 18.8302 492.339 19.8858C490.815 20.9414 489.055 21.4398 487.032 21.4398C485.654 21.4398 484.393 21.1759 483.22 20.7068C482.048 20.2083 481.051 19.4753 480.2 18.537C479.35 17.5987 478.705 16.4845 478.236 15.1651C477.767 13.8456 477.532 12.3795 477.532 10.7669C477.532 9.15421 477.767 7.68815 478.236 6.36869C478.705 5.04923 479.379 3.93502 480.23 2.99674C481.08 2.05846 482.077 1.35475 483.22 0.85629C484.364 0.357828 485.625 0.0939368 487.003 0.0939368C488.909 0.0939368 490.58 0.563078 492.046 1.50136C493.512 2.43964 494.626 3.7591 495.418 5.45973ZM510.887 5.45973L507.896 6.28072L507.838 6.54462C507.574 5.43041 507.075 4.58009 506.313 3.99367C505.551 3.40724 504.671 3.11403 503.645 3.11403C502.618 3.11403 501.797 3.3486 501.182 3.84706C500.566 4.34552 500.243 4.99059 500.243 5.78226C500.243 6.22208 500.39 6.60326 500.654 6.95511C500.918 7.30697 501.27 7.6295 501.709 7.92272C502.149 8.21593 502.677 8.47982 503.263 8.71439C503.85 8.94896 504.466 9.18353 505.081 9.44742C505.756 9.71131 506.459 10.0338 507.163 10.3857C507.867 10.7376 508.512 11.1481 509.098 11.6172C509.685 12.0863 510.154 12.6434 510.535 13.2885C510.916 13.9336 511.092 14.6959 511.092 15.6049C511.092 16.4552 510.916 17.2469 510.564 17.9799C510.213 18.7129 509.743 19.358 509.128 19.8858C508.512 20.4136 507.75 20.8241 506.87 21.088C505.99 21.3812 505.023 21.5278 503.967 21.5278C502.912 21.5278 501.973 21.3812 501.123 21.088C500.273 20.8241 499.54 20.4136 498.895 19.8858C498.25 19.358 497.722 18.7129 497.311 17.9799C496.901 17.2469 496.608 16.4259 496.402 15.5462L499.422 14.7252C499.51 15.253 499.686 15.7515 499.95 16.2206C500.214 16.6898 500.537 17.1003 500.918 17.4521C501.299 17.804 501.768 18.0972 502.296 18.3024C502.824 18.5077 503.41 18.5957 504.084 18.5957C505.257 18.5957 506.166 18.3024 506.811 17.7453C507.456 17.1882 507.779 16.4845 507.779 15.6342C507.779 15.0478 507.632 14.5493 507.31 14.1681C506.987 13.787 506.577 13.4351 506.078 13.1419C505.58 12.8487 504.993 12.5555 504.348 12.2916C503.703 12.0277 503.029 11.7638 502.355 11.4706C501.739 11.2067 501.123 10.9135 500.478 10.591C499.833 10.2684 499.246 9.88724 498.719 9.44742C498.191 9.0076 497.751 8.47982 497.429 7.86407C497.106 7.24833 496.93 6.51529 496.93 5.66498C496.93 4.90263 497.106 4.16959 497.429 3.49521C497.751 2.82082 498.22 2.23439 498.807 1.73593C499.393 1.23747 500.126 0.826969 500.976 0.533757C501.827 0.240545 502.765 0.0939368 503.791 0.0939368C504.7 0.0939368 505.551 0.211222 506.313 0.475114C507.075 0.739005 507.779 1.09086 508.395 1.56C509.01 2.02914 509.538 2.58625 509.949 3.26063C510.359 3.93502 510.682 4.66805 510.887 5.45973Z" fill="black"/>
</svg>
