<svg width="184" height="28" viewBox="0 0 184 28" fill="none" xmlns="http://www.w3.org/2000/svg">
<path d="M25.729 1.3085L19.8726 16.2562L13.9846 0.270142L7.74444 16.2204L2.42184 1.3085H0L7.6494 22.2504L13.9258 6.29977L19.8074 22.268L28.1501 1.3085H25.729Z" fill="#FF7300"/>
<path d="M37.5107 11.9483C36.5339 11.15 31.4174 8.49184 30.7592 8.03229C30.1032 7.57424 29.7737 6.90673 29.7737 6.0305C29.7737 5.15315 30.108 4.44091 30.7748 3.89378C31.4416 3.34329 32.2533 3.07159 33.2093 3.07159C33.8258 3.07159 34.3524 3.19011 34.7918 3.43088C35.2298 3.67053 35.6483 4.05963 36.0456 4.59744L36.2562 4.92393C36.3147 4.96605 36.3963 5.06556 36.4958 5.22247L38.2584 4.0887C37.6807 3.07233 36.9591 2.30083 36.0915 1.77196C35.2264 1.24496 34.2943 0.980713 33.3003 0.980713C31.6067 0.980713 30.221 1.4574 29.1453 2.41414C28.0712 3.37012 27.5341 4.59744 27.5341 6.09199C27.5341 7.50454 28.0198 8.59583 28.9959 9.36173C29.9731 10.128 34.8418 12.6553 35.5984 13.1734C36.3557 13.6903 36.7325 14.457 36.7325 15.4734C36.7325 16.6287 36.352 17.5881 35.5838 18.3536C34.8164 19.1225 33.8448 19.5045 32.6719 19.5045C31.6369 19.5045 30.7804 19.1862 30.1039 18.5478C29.4264 17.9097 28.9471 16.997 28.6687 15.8013L26.517 16.4595C26.7045 17.2661 26.9784 17.9846 27.3325 18.6104C27.6966 19.2492 28.1469 19.7911 28.6839 20.2362C29.7488 21.1239 31.0983 21.5678 32.7326 21.5678C34.465 21.5678 35.9372 20.9734 37.1537 19.7893C38.3672 18.6041 38.9747 17.1554 38.9747 15.4413C38.9747 13.9091 38.4872 12.7433 37.5107 11.9483Z" fill="#FF7300"/>
<path d="M62.5951 10.5778C63.0971 10.4351 63.6301 10.3632 64.1999 10.3632C65.7176 10.3632 66.9468 10.8544 67.8834 11.8357C68.8234 12.8133 69.2948 13.9687 69.2948 15.2996C69.2948 16.2351 69.0697 17.1117 68.6191 17.9309C68.1719 18.7494 67.2997 19.8616 66.0038 21.2581L61.897 25.6903H69.5162V27.2843H58.3075L64.6144 20.4739C65.892 19.102 66.725 18.0867 67.1111 17.4248C67.4976 16.7647 67.6896 16.0663 67.6896 15.3354C67.6896 14.407 67.3441 13.6072 66.6497 12.9389C65.9587 12.271 65.1108 11.9349 64.1071 11.9349C63.5332 11.9349 63.0129 12.0392 62.5429 12.2468C62.585 11.8465 62.6003 10.7269 62.5951 10.5778Z" fill="black"/>
<path d="M50.5384 20.4433C55.5519 20.4433 59.616 16.3357 59.616 11.2687C59.616 6.20181 55.5519 2.09424 50.5384 2.09424C45.525 2.09424 41.4608 6.20181 41.4608 11.2687C41.4608 16.3357 45.525 20.4433 50.5384 20.4433Z" fill="#FF7300"/>
<path d="M50.5388 0C44.2979 0 39.2388 5.04531 39.2388 11.2687C39.2388 17.4922 44.2979 22.5375 50.5388 22.5375C56.7794 22.5375 61.8389 17.4922 61.8389 11.2687C61.8389 5.04531 56.7794 0 50.5388 0ZM50.5388 20.4433C45.5256 20.4433 41.4612 16.3357 41.4612 11.2687C41.4612 6.20182 45.5256 2.09423 50.5388 2.09423C55.5521 2.09423 59.6164 6.20182 59.6164 11.2687C59.6164 16.3357 55.5521 20.4433 50.5388 20.4433Z" fill="black"/>
<path d="M59.586 10.5537L56.2965 10.5616L54.6566 13.5126L50.5643 3.53644L46.8827 11.7315L41.4722 11.7199C41.4938 12.1713 41.5486 12.614 41.6328 13.046L47.7396 13.0591L50.5088 6.89451L54.4762 16.5658L57.0773 11.8854L59.5939 11.8794C59.6069 11.6774 59.6162 11.4739 59.6162 11.2686C59.6162 11.0278 59.6039 10.79 59.586 10.5537Z" fill="white"/>
<path d="M83.1166 17.9799H92.9685V21H79.9206V0.475114H92.7926V3.49521H83.1166V8.861H90.7108V11.7052H83.1166V17.9799ZM99.3887 21H96.1927V0.475114H99.3887V21ZM109.265 0.475114H116.742L116.683 0.533757C118.12 0.533757 119.469 0.768326 120.7 1.26679C121.932 1.76525 122.988 2.46896 123.867 3.37792C124.747 4.28688 125.451 5.37176 125.949 6.63258C126.447 7.89339 126.711 9.30082 126.711 10.8548C126.711 12.4089 126.477 13.8163 125.978 15.0771C125.48 16.3379 124.805 17.3935 123.926 18.2731C123.046 19.1528 122.02 19.8271 120.818 20.2963C119.616 20.7654 118.325 21 116.918 21H109.265V0.475114ZM112.491 18.0092H117.065H117.035C117.944 18.0092 118.795 17.8333 119.586 17.5108C120.378 17.1882 121.052 16.7191 121.639 16.1033C122.225 15.4876 122.665 14.7252 122.988 13.8456C123.31 12.966 123.486 11.9397 123.486 10.7962C123.486 9.62335 123.31 8.56778 122.988 7.65882C122.665 6.74986 122.196 5.98751 121.609 5.37176C121.023 4.75602 120.319 4.28688 119.528 3.96434C118.736 3.64181 117.856 3.46588 116.918 3.46588H112.491V18.0092ZM128.084 10.7669V10.8255C128.084 9.21285 128.319 7.74679 128.788 6.42733C129.257 5.10787 129.931 3.99367 130.782 3.05538C131.632 2.1171 132.629 1.41339 133.772 0.914932C134.916 0.416472 136.177 0.15258 137.555 0.15258C138.933 0.15258 140.194 0.416472 141.367 0.914932C142.54 1.41339 143.566 2.1171 144.416 3.05538C145.266 3.99367 145.941 5.10787 146.41 6.42733C146.879 7.74679 147.114 9.21285 147.114 10.8255C147.114 12.4382 146.879 13.9043 146.41 15.2237C145.941 16.5432 145.266 17.6574 144.416 18.5957C143.566 19.5339 142.569 20.2376 141.396 20.7361C140.223 21.2052 138.962 21.4398 137.584 21.4398C136.206 21.4398 134.945 21.1759 133.772 20.7068C132.6 20.2083 131.603 19.4753 130.752 18.537C129.902 17.5987 129.257 16.4845 128.788 15.1651C128.319 13.8456 128.084 12.3795 128.084 10.7669ZM131.427 10.7376L131.368 10.7669C131.368 11.9397 131.515 12.9953 131.808 13.9336C132.101 14.8719 132.541 15.6635 133.098 16.3086C133.655 16.9537 134.3 17.4521 135.063 17.804C135.825 18.1558 136.675 18.3318 137.584 18.3318C138.523 18.3318 139.373 18.1558 140.135 17.804C140.898 17.4521 141.572 16.9537 142.129 16.3086C142.686 15.6635 143.126 14.8719 143.419 13.9336C143.712 12.9953 143.859 11.9397 143.859 10.7669C143.859 9.56471 143.712 8.50914 143.419 7.57086C143.126 6.63258 142.686 5.84091 142.129 5.19584C141.572 4.55077 140.927 4.05231 140.165 3.70045C139.402 3.3486 138.552 3.17267 137.614 3.17267C136.705 3.17267 135.854 3.3486 135.092 3.70045C134.33 4.05231 133.685 4.55077 133.127 5.19584C132.57 5.84091 132.16 6.63258 131.867 7.57086C131.573 8.50914 131.427 9.56471 131.427 10.7376ZM166.482 5.45973L163.315 6.31005L163.198 6.39801C162.67 5.37176 161.937 4.58009 161.028 4.05231C160.119 3.52453 159.093 3.26063 157.978 3.26063C157.04 3.26063 156.19 3.43656 155.427 3.78842C154.665 4.14027 154.02 4.63873 153.492 5.2838C152.964 5.92887 152.554 6.72054 152.261 7.65882C151.967 8.5971 151.821 9.65267 151.821 10.8255C151.821 11.9984 151.967 13.0539 152.29 13.9922C152.613 14.9305 153.052 15.7222 153.609 16.3672C154.167 17.0123 154.812 17.5108 155.574 17.8626C156.336 18.2145 157.187 18.3904 158.096 18.3904C159.327 18.3904 160.441 18.0679 161.438 17.4228C162.435 16.7777 163.168 15.8688 163.667 14.6959L166.804 15.5169C166.071 17.3642 164.927 18.8302 163.403 19.8858C161.878 20.9414 160.119 21.4398 158.096 21.4398C156.718 21.4398 155.457 21.1759 154.284 20.7068C153.111 20.2083 152.114 19.4753 151.264 18.537C150.413 17.5987 149.768 16.4845 149.299 15.1651C148.83 13.8456 148.596 12.3795 148.596 10.7669C148.596 9.15421 148.83 7.68815 149.299 6.36869C149.768 5.04923 150.443 3.93502 151.293 2.99674C152.143 2.05846 153.14 1.35475 154.284 0.85629C155.427 0.357828 156.688 0.0939368 158.066 0.0939368C159.972 0.0939368 161.644 0.563078 163.11 1.50136C164.576 2.43964 165.69 3.7591 166.482 5.45973ZM181.951 5.45973L178.96 6.28072L178.901 6.54462C178.637 5.43041 178.139 4.58009 177.376 3.99367C176.614 3.40724 175.734 3.11403 174.708 3.11403C173.682 3.11403 172.861 3.3486 172.245 3.84706C171.629 4.34552 171.307 4.99059 171.307 5.78226C171.307 6.22208 171.454 6.60326 171.717 6.95511C171.981 7.30697 172.333 7.6295 172.773 7.92272C173.213 8.21593 173.741 8.47982 174.327 8.71439C174.913 8.94896 175.529 9.18353 176.145 9.44742C176.819 9.71131 177.523 10.0338 178.227 10.3857C178.93 10.7376 179.576 11.1481 180.162 11.6172C180.748 12.0863 181.218 12.6434 181.599 13.2885C181.98 13.9336 182.156 14.6959 182.156 15.6049C182.156 16.4552 181.98 17.2469 181.628 17.9799C181.276 18.7129 180.807 19.358 180.191 19.8858C179.576 20.4136 178.813 20.8241 177.934 21.088C177.054 21.3812 176.086 21.5278 175.031 21.5278C173.975 21.5278 173.037 21.3812 172.187 21.088C171.336 20.8241 170.603 20.4136 169.958 19.8858C169.313 19.358 168.785 18.7129 168.375 17.9799C167.964 17.2469 167.671 16.4259 167.466 15.5462L170.486 14.7252C170.574 15.253 170.75 15.7515 171.014 16.2206C171.278 16.6898 171.6 17.1003 171.981 17.4521C172.362 17.804 172.832 18.0972 173.359 18.3024C173.887 18.5077 174.474 18.5957 175.148 18.5957C176.321 18.5957 177.23 18.3024 177.875 17.7453C178.52 17.1882 178.842 16.4845 178.842 15.6342C178.842 15.0478 178.696 14.5493 178.373 14.1681C178.051 13.787 177.64 13.4351 177.142 13.1419C176.643 12.8487 176.057 12.5555 175.412 12.2916C174.767 12.0277 174.092 11.7638 173.418 11.4706C172.802 11.2067 172.187 10.9135 171.541 10.591C170.896 10.2684 170.31 9.88724 169.782 9.44742C169.254 9.0076 168.815 8.47982 168.492 7.86407C168.17 7.24833 167.994 6.51529 167.994 5.66498C167.994 4.90263 168.17 4.16959 168.492 3.49521C168.815 2.82082 169.284 2.23439 169.87 1.73593C170.457 1.23747 171.19 0.826969 172.04 0.533757C172.89 0.240545 173.829 0.0939368 174.855 0.0939368C175.764 0.0939368 176.614 0.211222 177.376 0.475114C178.139 0.739005 178.842 1.09086 179.458 1.56C180.074 2.02914 180.602 2.58625 181.012 3.26063C181.423 3.93502 181.745 4.66805 181.951 5.45973Z" fill="black"/>
</svg>
