<svg width="184" height="28" viewBox="0 0 184 28" fill="none" xmlns="http://www.w3.org/2000/svg">
<path d="M25.7308 1.30787L19.874 16.2535L13.9856 0.269653L7.74499 16.2177L2.42201 1.30787H0L7.64994 22.2469L13.9267 6.29844L19.8088 22.2644L28.152 1.30787H25.7308Z" fill="#FF7300"/>
<path d="M37.514 11.9465C36.5371 11.1483 31.4202 8.4905 30.762 8.03101C30.106 7.57302 29.7765 6.9056 29.7765 6.02949C29.7765 5.15226 30.1108 4.44012 30.7776 3.89307C31.4444 3.34266 32.2562 3.07099 33.2123 3.07099C33.8288 3.07099 34.3555 3.1895 34.7949 3.43023C35.2329 3.66985 35.6514 4.0589 36.0488 4.59664L36.2594 4.92308C36.3179 4.96519 36.3995 5.06469 36.499 5.22158L38.2617 4.08797C37.684 3.07174 36.9623 2.30035 36.0946 1.77155C35.2295 1.24462 34.2973 0.980408 33.3032 0.980408C31.6096 0.980408 30.2237 1.45703 29.148 2.41363C28.0738 3.36949 27.5367 4.59664 27.5367 6.09098C27.5367 7.50334 28.0224 8.59447 28.9986 9.36027C29.9759 10.1264 34.8449 12.6534 35.6015 13.1714C36.3589 13.6883 36.7357 14.4548 36.7357 15.471C36.7357 16.6263 36.3552 17.5855 35.587 18.3509C34.8195 19.1197 33.8478 19.5017 32.6748 19.5017C31.6397 19.5017 30.7832 19.1834 30.1067 18.5451C29.4291 17.9071 28.9497 16.9945 28.6713 15.799L26.5195 16.4571C26.707 17.2635 26.981 17.982 27.3351 18.6077C27.6992 19.2464 28.1495 19.7882 28.6866 20.2332C29.7515 21.1208 31.1011 21.5647 32.7356 21.5647C34.468 21.5647 35.9403 20.9703 37.1569 19.7864C38.3705 18.6013 38.9781 17.1528 38.9781 15.439C38.9781 13.907 38.4905 12.7414 37.514 11.9465Z" fill="#FF7300"/>
<path d="M62.6004 10.5758C63.1025 10.4331 63.6355 10.3611 64.2054 10.3611C65.7231 10.3611 66.9524 10.8523 67.8891 11.8335C68.8291 12.811 69.3006 13.9662 69.3006 15.2969C69.3006 16.2323 69.0755 17.1088 68.6249 17.9279C68.1776 18.7462 67.3054 19.8582 66.0094 21.2546L61.9023 25.6862H69.522V27.28H58.3125L64.6199 20.4705C65.8976 19.0988 66.7306 18.0836 67.1168 17.4218C67.5033 16.7618 67.6953 16.0635 67.6953 15.3327C67.6953 14.4044 67.3497 13.6047 66.6553 12.9366C65.9643 12.2688 65.1163 11.9326 64.1126 11.9326C63.5386 11.9326 63.0182 12.037 62.5482 12.2445C62.5903 11.8443 62.6056 10.7249 62.6004 10.5758Z" fill="white"/>
<path d="M50.5431 20.4405C55.5569 20.4405 59.6213 16.3335 59.6213 11.2672C59.6213 6.20099 55.5569 2.09399 50.5431 2.09399C45.5293 2.09399 41.4648 6.20099 41.4648 11.2672C41.4648 16.3335 45.5293 20.4405 50.5431 20.4405Z" fill="#FF7300"/>
<path d="M50.543 0C44.3016 0 39.2422 5.04461 39.2422 11.2672C39.2422 17.4898 44.3016 22.5344 50.543 22.5344C56.784 22.5344 61.8439 17.4898 61.8439 11.2672C61.8439 5.04461 56.784 0 50.543 0ZM50.543 20.4404C45.5294 20.4404 41.4648 16.3334 41.4648 11.2672C41.4648 6.20096 45.529 2.09394 50.543 2.09394C55.557 2.09394 59.6213 6.20096 59.6213 11.2672C59.6213 16.3334 55.5566 20.4404 50.543 20.4404Z" fill="white"/>
<path d="M59.5917 10.5525L56.302 10.5603L54.6619 13.511L50.5693 3.53619L46.8875 11.7301L41.4766 11.7185C41.4982 12.1698 41.553 12.6125 41.6372 13.0445L47.7444 13.0575L50.5138 6.8938L54.4815 16.5642L57.0828 11.8844L59.5995 11.8784C59.6126 11.6764 59.6219 11.473 59.6219 11.2676C59.6219 11.0265 59.6096 10.7888 59.5917 10.5525Z" fill="black"/>
<path d="M83.1224 17.9799H92.9743V21H79.9264V0.475114H92.7984V3.49521H83.1224V8.861H90.7166V11.7052H83.1224V17.9799ZM99.3945 21H96.1985V0.475114H99.3945V21ZM109.271 0.475114H116.748L116.689 0.533757C118.126 0.533757 119.475 0.768326 120.706 1.26679C121.938 1.76525 122.993 2.46896 123.873 3.37792C124.753 4.28688 125.456 5.37176 125.955 6.63258C126.453 7.89339 126.717 9.30082 126.717 10.8548C126.717 12.4089 126.483 13.8163 125.984 15.0771C125.486 16.3379 124.811 17.3935 123.932 18.2731C123.052 19.1528 122.026 19.8271 120.824 20.2963C119.621 20.7654 118.331 21 116.924 21H109.271V0.475114ZM112.496 18.0092H117.07H117.041C117.95 18.0092 118.8 17.8333 119.592 17.5108C120.384 17.1882 121.058 16.7191 121.645 16.1033C122.231 15.4876 122.671 14.7252 122.993 13.8456C123.316 12.966 123.492 11.9397 123.492 10.7962C123.492 9.62335 123.316 8.56778 122.993 7.65882C122.671 6.74986 122.202 5.98751 121.615 5.37176C121.029 4.75602 120.325 4.28688 119.533 3.96434C118.742 3.64181 117.862 3.46588 116.924 3.46588H112.496V18.0092ZM128.09 10.7669V10.8255C128.09 9.21285 128.325 7.74679 128.794 6.42733C129.263 5.10787 129.937 3.99367 130.788 3.05538C131.638 2.1171 132.635 1.41339 133.778 0.914932C134.922 0.416472 136.183 0.15258 137.561 0.15258C138.939 0.15258 140.2 0.416472 141.373 0.914932C142.545 1.41339 143.572 2.1171 144.422 3.05538C145.272 3.99367 145.947 5.10787 146.416 6.42733C146.885 7.74679 147.119 9.21285 147.119 10.8255C147.119 12.4382 146.885 13.9043 146.416 15.2237C145.947 16.5432 145.272 17.6574 144.422 18.5957C143.572 19.5339 142.575 20.2376 141.402 20.7361C140.229 21.2052 138.968 21.4398 137.59 21.4398C136.212 21.4398 134.951 21.1759 133.778 20.7068C132.605 20.2083 131.609 19.4753 130.758 18.537C129.908 17.5987 129.263 16.4845 128.794 15.1651C128.325 13.8456 128.09 12.3795 128.09 10.7669ZM131.433 10.7376L131.374 10.7669C131.374 11.9397 131.521 12.9953 131.814 13.9336C132.107 14.8719 132.547 15.6635 133.104 16.3086C133.661 16.9537 134.306 17.4521 135.068 17.804C135.831 18.1558 136.681 18.3318 137.59 18.3318C138.528 18.3318 139.379 18.1558 140.141 17.804C140.903 17.4521 141.578 16.9537 142.135 16.3086C142.692 15.6635 143.132 14.8719 143.425 13.9336C143.718 12.9953 143.865 11.9397 143.865 10.7669C143.865 9.56471 143.718 8.50914 143.425 7.57086C143.132 6.63258 142.692 5.84091 142.135 5.19584C141.578 4.55077 140.933 4.05231 140.17 3.70045C139.408 3.3486 138.558 3.17267 137.619 3.17267C136.71 3.17267 135.86 3.3486 135.098 3.70045C134.335 4.05231 133.69 4.55077 133.133 5.19584C132.576 5.84091 132.166 6.63258 131.872 7.57086C131.579 8.50914 131.433 9.56471 131.433 10.7376ZM166.487 5.45973L163.321 6.31005L163.203 6.39801C162.676 5.37176 161.943 4.58009 161.034 4.05231C160.125 3.52453 159.098 3.26063 157.984 3.26063C157.046 3.26063 156.196 3.43656 155.433 3.78842C154.671 4.14027 154.026 4.63873 153.498 5.2838C152.97 5.92887 152.56 6.72054 152.267 7.65882C151.973 8.5971 151.827 9.65267 151.827 10.8255C151.827 11.9984 151.973 13.0539 152.296 13.9922C152.618 14.9305 153.058 15.7222 153.615 16.3672C154.172 17.0123 154.817 17.5108 155.58 17.8626C156.342 18.2145 157.192 18.3904 158.101 18.3904C159.333 18.3904 160.447 18.0679 161.444 17.4228C162.441 16.7777 163.174 15.8688 163.672 14.6959L166.81 15.5169C166.077 17.3642 164.933 18.8302 163.409 19.8858C161.884 20.9414 160.125 21.4398 158.101 21.4398C156.723 21.4398 155.463 21.1759 154.29 20.7068C153.117 20.2083 152.12 19.4753 151.27 18.537C150.419 17.5987 149.774 16.4845 149.305 15.1651C148.836 13.8456 148.601 12.3795 148.601 10.7669C148.601 9.15421 148.836 7.68815 149.305 6.36869C149.774 5.04923 150.449 3.93502 151.299 2.99674C152.149 2.05846 153.146 1.35475 154.29 0.85629C155.433 0.357828 156.694 0.0939368 158.072 0.0939368C159.978 0.0939368 161.649 0.563078 163.115 1.50136C164.581 2.43964 165.696 3.7591 166.487 5.45973ZM181.956 5.45973L178.966 6.28072L178.907 6.54462C178.643 5.43041 178.145 4.58009 177.382 3.99367C176.62 3.40724 175.74 3.11403 174.714 3.11403C173.688 3.11403 172.867 3.3486 172.251 3.84706C171.635 4.34552 171.313 4.99059 171.313 5.78226C171.313 6.22208 171.459 6.60326 171.723 6.95511C171.987 7.30697 172.339 7.6295 172.779 7.92272C173.219 8.21593 173.746 8.47982 174.333 8.71439C174.919 8.94896 175.535 9.18353 176.151 9.44742C176.825 9.71131 177.529 10.0338 178.233 10.3857C178.936 10.7376 179.581 11.1481 180.168 11.6172C180.754 12.0863 181.223 12.6434 181.604 13.2885C181.986 13.9336 182.162 14.6959 182.162 15.6049C182.162 16.4552 181.986 17.2469 181.634 17.9799C181.282 18.7129 180.813 19.358 180.197 19.8858C179.581 20.4136 178.819 20.8241 177.939 21.088C177.06 21.3812 176.092 21.5278 175.037 21.5278C173.981 21.5278 173.043 21.3812 172.192 21.088C171.342 20.8241 170.609 20.4136 169.964 19.8858C169.319 19.358 168.791 18.7129 168.381 17.9799C167.97 17.2469 167.677 16.4259 167.472 15.5462L170.492 14.7252C170.58 15.253 170.756 15.7515 171.02 16.2206C171.283 16.6898 171.606 17.1003 171.987 17.4521C172.368 17.804 172.837 18.0972 173.365 18.3024C173.893 18.5077 174.479 18.5957 175.154 18.5957C176.327 18.5957 177.236 18.3024 177.881 17.7453C178.526 17.1882 178.848 16.4845 178.848 15.6342C178.848 15.0478 178.702 14.5493 178.379 14.1681C178.057 13.787 177.646 13.4351 177.148 13.1419C176.649 12.8487 176.063 12.5555 175.418 12.2916C174.773 12.0277 174.098 11.7638 173.424 11.4706C172.808 11.2067 172.192 10.9135 171.547 10.591C170.902 10.2684 170.316 9.88724 169.788 9.44742C169.26 9.0076 168.82 8.47982 168.498 7.86407C168.175 7.24833 167.999 6.51529 167.999 5.66498C167.999 4.90263 168.175 4.16959 168.498 3.49521C168.82 2.82082 169.29 2.23439 169.876 1.73593C170.462 1.23747 171.195 0.826969 172.046 0.533757C172.896 0.240545 173.834 0.0939368 174.861 0.0939368C175.77 0.0939368 176.62 0.211222 177.382 0.475114C178.145 0.739005 178.848 1.09086 179.464 1.56C180.08 2.02914 180.608 2.58625 181.018 3.26063C181.429 3.93502 181.751 4.66805 181.956 5.45973Z" fill="white"/>
</svg>
