<svg width="644" height="28" viewBox="0 0 644 28" fill="none" xmlns="http://www.w3.org/2000/svg">
<path d="M25.7308 1.30787L19.874 16.2535L13.9856 0.269653L7.74499 16.2177L2.42201 1.30787H0L7.64994 22.2469L13.9267 6.29844L19.8088 22.2644L28.152 1.30787H25.7308Z" fill="#FF7300"/>
<path d="M37.514 11.9465C36.5371 11.1483 31.4202 8.4905 30.762 8.03101C30.106 7.57302 29.7765 6.9056 29.7765 6.02949C29.7765 5.15226 30.1108 4.44012 30.7776 3.89307C31.4444 3.34266 32.2562 3.07099 33.2123 3.07099C33.8288 3.07099 34.3555 3.1895 34.7949 3.43023C35.2329 3.66985 35.6514 4.0589 36.0488 4.59664L36.2594 4.92308C36.3179 4.96519 36.3995 5.06469 36.499 5.22158L38.2617 4.08797C37.684 3.07174 36.9623 2.30035 36.0946 1.77155C35.2295 1.24462 34.2973 0.980408 33.3032 0.980408C31.6096 0.980408 30.2237 1.45703 29.148 2.41363C28.0738 3.36949 27.5367 4.59664 27.5367 6.09098C27.5367 7.50334 28.0224 8.59447 28.9986 9.36027C29.9759 10.1264 34.8449 12.6534 35.6015 13.1714C36.3589 13.6883 36.7357 14.4548 36.7357 15.471C36.7357 16.6263 36.3552 17.5855 35.587 18.3509C34.8195 19.1197 33.8478 19.5017 32.6748 19.5017C31.6397 19.5017 30.7832 19.1834 30.1067 18.5451C29.4291 17.9071 28.9497 16.9945 28.6713 15.799L26.5195 16.4571C26.707 17.2635 26.981 17.982 27.3351 18.6077C27.6992 19.2464 28.1495 19.7882 28.6866 20.2332C29.7515 21.1208 31.1011 21.5647 32.7356 21.5647C34.468 21.5647 35.9403 20.9703 37.1569 19.7864C38.3705 18.6013 38.9781 17.1528 38.9781 15.439C38.9781 13.907 38.4905 12.7414 37.514 11.9465Z" fill="#FF7300"/>
<path d="M62.6004 10.5758C63.1025 10.4331 63.6355 10.3611 64.2054 10.3611C65.7231 10.3611 66.9524 10.8523 67.8891 11.8335C68.8291 12.811 69.3006 13.9662 69.3006 15.2969C69.3006 16.2323 69.0755 17.1088 68.6249 17.9279C68.1776 18.7462 67.3054 19.8582 66.0094 21.2546L61.9023 25.6862H69.522V27.28H58.3125L64.6199 20.4705C65.8976 19.0988 66.7306 18.0836 67.1168 17.4218C67.5033 16.7618 67.6953 16.0635 67.6953 15.3327C67.6953 14.4044 67.3497 13.6047 66.6553 12.9366C65.9643 12.2688 65.1163 11.9326 64.1126 11.9326C63.5386 11.9326 63.0182 12.037 62.5482 12.2445C62.5903 11.8443 62.6056 10.7249 62.6004 10.5758Z" fill="white"/>
<path d="M50.5431 20.4405C55.5569 20.4405 59.6213 16.3335 59.6213 11.2672C59.6213 6.20099 55.5569 2.09399 50.5431 2.09399C45.5293 2.09399 41.4648 6.20099 41.4648 11.2672C41.4648 16.3335 45.5293 20.4405 50.5431 20.4405Z" fill="#FF7300"/>
<path d="M50.543 0C44.3016 0 39.2422 5.04461 39.2422 11.2672C39.2422 17.4898 44.3016 22.5344 50.543 22.5344C56.784 22.5344 61.8439 17.4898 61.8439 11.2672C61.8439 5.04461 56.784 0 50.543 0ZM50.543 20.4404C45.5294 20.4404 41.4648 16.3334 41.4648 11.2672C41.4648 6.20096 45.529 2.09394 50.543 2.09394C55.557 2.09394 59.6213 6.20096 59.6213 11.2672C59.6213 16.3334 55.5566 20.4404 50.543 20.4404Z" fill="white"/>
<path d="M59.5917 10.5525L56.302 10.5603L54.6619 13.511L50.5693 3.53619L46.8875 11.7301L41.4766 11.7185C41.4982 12.1698 41.553 12.6125 41.6372 13.0445L47.7444 13.0575L50.5138 6.8938L54.4815 16.5642L57.0828 11.8844L59.5995 11.8784C59.6126 11.6764 59.6219 11.473 59.6219 11.2676C59.6219 11.0265 59.6096 10.7888 59.5917 10.5525Z" fill="black"/>
<path d="M83.1224 17.9799H92.9743V21H79.9264V0.475114H92.7984V3.49521H83.1224V8.861H90.7166V11.7052H83.1224V17.9799ZM108.895 0.475114H112.061L111.973 20.9414H109.071L102.239 10.5616C101.858 10.0045 101.476 9.44742 101.124 8.89032C100.773 8.33321 100.45 7.83475 100.157 7.39493C99.8637 6.95511 99.6291 6.60326 99.4532 6.33937L99.1893 5.92887H99.1307L99.16 6.39801C99.1893 6.72054 99.1893 7.16036 99.2186 7.71747C99.2479 8.27457 99.2773 8.94896 99.3066 9.71131C99.3359 10.4737 99.3359 11.2947 99.3359 12.2036V20.912H96.1692V0.387151H99.072L106.021 10.8842C106.344 11.3533 106.666 11.8518 107.018 12.3795C107.37 12.9073 107.692 13.3765 107.986 13.8163C108.279 14.2561 108.484 14.6373 108.689 14.9012L108.983 15.3117H109.041V14.8132C109.041 14.4907 109.041 14.0509 109.012 13.4938C108.983 12.9367 108.953 12.2916 108.924 11.5586C108.895 10.8255 108.895 10.0338 108.895 9.21285V0.475114ZM114.087 0.475114H129.422V3.49521H123.323V21H120.127V3.49521H114.087V0.475114ZM134.63 17.9799H144.482V21H131.434V0.475114H144.306V3.49521H134.63V8.861H142.225V11.7052H134.63V17.9799ZM162.045 20.9707H158.468L154.48 13.5524C154.392 13.5817 154.304 13.5817 154.187 13.5817H153.893H150.903V20.9414H147.707V0.416472H153.893C155.037 0.416472 156.063 0.563078 156.972 0.885611C157.881 1.20815 158.673 1.64796 159.318 2.23439C159.963 2.82082 160.461 3.52453 160.813 4.34552C161.165 5.16652 161.341 6.07548 161.341 7.10172C161.341 8.53846 161.018 9.74063 160.344 10.7376C159.67 11.7345 158.731 12.4675 157.529 12.966L162.045 20.9707ZM150.903 10.8255H154.157V10.7962C155.418 10.7962 156.386 10.4443 157.06 9.74063C157.734 9.03692 158.057 8.15729 158.057 7.13104C158.057 6.04615 157.734 5.16652 157.06 4.49213C156.386 3.81774 155.418 3.46588 154.157 3.46588H150.903V10.8255ZM164.609 0.475114H170.795L170.766 0.504435C171.91 0.504435 172.936 0.651042 173.845 0.973576C174.754 1.29611 175.546 1.73593 176.191 2.32235C176.836 2.90878 177.334 3.61249 177.686 4.43349C178.038 5.25448 178.214 6.19276 178.214 7.219C178.214 8.24525 178.038 9.18353 177.686 10.0045C177.334 10.8255 176.836 11.5292 176.191 12.1157C175.546 12.7021 174.783 13.1419 173.874 13.4351C172.965 13.7283 171.939 13.8749 170.795 13.8749H167.805V21H164.609V0.475114ZM167.805 10.8842H170.766C172.086 10.8842 173.112 10.5616 173.816 9.91656C174.519 9.27149 174.871 8.36253 174.871 7.219C174.871 6.01683 174.49 5.07855 173.757 4.43349C173.024 3.78842 172.027 3.46588 170.766 3.46588H167.805V10.8842ZM194.789 20.9707H191.212L187.225 13.5524C187.137 13.5817 187.049 13.5817 186.931 13.5817H186.638H183.647V20.9414H180.451V0.416472H186.638C187.782 0.416472 188.808 0.563078 189.717 0.885611C190.626 1.20815 191.418 1.64796 192.063 2.23439C192.708 2.82082 193.206 3.52453 193.558 4.34552C193.91 5.16652 194.086 6.07548 194.086 7.10172C194.086 8.53846 193.763 9.74063 193.089 10.7376C192.414 11.7345 191.476 12.4675 190.274 12.966L194.789 20.9707ZM183.647 10.8255H186.902V10.7962C188.163 10.7962 189.13 10.4443 189.805 9.74063C190.479 9.03692 190.802 8.15729 190.802 7.13104C190.802 6.04615 190.479 5.16652 189.805 4.49213C189.13 3.81774 188.163 3.46588 186.902 3.46588H183.647V10.8255ZM200.549 21H197.353V0.475114H200.549V21ZM217.393 5.45973L214.402 6.28072L214.343 6.54462C214.079 5.43041 213.581 4.58009 212.819 3.99367C212.056 3.40724 211.177 3.11403 210.15 3.11403C209.124 3.11403 208.303 3.3486 207.687 3.84706C207.072 4.34552 206.749 4.99059 206.749 5.78226C206.749 6.22208 206.896 6.60326 207.16 6.95511C207.423 7.30697 207.775 7.6295 208.215 7.92272C208.655 8.21593 209.183 8.47982 209.769 8.71439C210.356 8.94896 210.971 9.18353 211.587 9.44742C212.261 9.71131 212.965 10.0338 213.669 10.3857C214.373 10.7376 215.018 11.1481 215.604 11.6172C216.191 12.0863 216.66 12.6434 217.041 13.2885C217.422 13.9336 217.598 14.6959 217.598 15.6049C217.598 16.4552 217.422 17.2469 217.07 17.9799C216.718 18.7129 216.249 19.358 215.633 19.8858C215.018 20.4136 214.255 20.8241 213.376 21.088C212.496 21.3812 211.528 21.5278 210.473 21.5278C209.417 21.5278 208.479 21.3812 207.629 21.088C206.778 20.8241 206.045 20.4136 205.4 19.8858C204.755 19.358 204.227 18.7129 203.817 17.9799C203.406 17.2469 203.113 16.4259 202.908 15.5462L205.928 14.7252C206.016 15.253 206.192 15.7515 206.456 16.2206C206.72 16.6898 207.042 17.1003 207.423 17.4521C207.805 17.804 208.274 18.0972 208.802 18.3024C209.329 18.5077 209.916 18.5957 210.59 18.5957C211.763 18.5957 212.672 18.3024 213.317 17.7453C213.962 17.1882 214.285 16.4845 214.285 15.6342C214.285 15.0478 214.138 14.5493 213.816 14.1681C213.493 13.787 213.082 13.4351 212.584 13.1419C212.086 12.8487 211.499 12.5555 210.854 12.2916C210.209 12.0277 209.535 11.7638 208.86 11.4706C208.244 11.2067 207.629 10.9135 206.984 10.591C206.339 10.2684 205.752 9.88724 205.224 9.44742C204.697 9.0076 204.257 8.47982 203.934 7.86407C203.612 7.24833 203.436 6.51529 203.436 5.66498C203.436 4.90263 203.612 4.16959 203.934 3.49521C204.257 2.82082 204.726 2.23439 205.312 1.73593C205.899 1.23747 206.632 0.826969 207.482 0.533757C208.332 0.240545 209.271 0.0939368 210.297 0.0939368C211.206 0.0939368 212.056 0.211222 212.819 0.475114C213.581 0.739005 214.285 1.09086 214.9 1.56C215.516 2.02914 216.044 2.58625 216.454 3.26063C216.865 3.93502 217.187 4.66805 217.393 5.45973ZM223.244 17.9799H233.096V21H220.048V0.475114H232.92V3.49521H223.244V8.861H230.838V11.7052H223.244V17.9799ZM245.48 21H242.284V0.475114H245.48V21ZM262.118 0.475114H265.284L265.196 20.9414H262.294L255.462 10.5616C255.081 10.0045 254.699 9.44742 254.348 8.89032C253.996 8.33321 253.673 7.83475 253.38 7.39493C253.087 6.95511 252.852 6.60326 252.676 6.33937L252.412 5.92887H252.354L252.383 6.39801C252.412 6.72054 252.412 7.16036 252.442 7.71747C252.471 8.27457 252.5 8.94896 252.53 9.71131C252.559 10.4737 252.559 11.2947 252.559 12.2036V20.912H249.392V0.387151H252.295L259.244 10.8842C259.567 11.3533 259.889 11.8518 260.241 12.3795C260.593 12.9073 260.916 13.3765 261.209 13.8163C261.502 14.2561 261.707 14.6373 261.912 14.9012L262.206 15.3117H262.264V14.8132C262.264 14.4907 262.264 14.0509 262.235 13.4938C262.206 12.9367 262.176 12.2916 262.147 11.5586C262.118 10.8255 262.118 10.0338 262.118 9.21285V0.475114ZM267.31 0.475114H282.645V3.49521H276.546V21H273.35V3.49521H267.31V0.475114ZM287.854 17.9799H297.705V21H284.658V0.475114H297.53V3.49521H287.854V8.861H295.448V11.7052H287.854V17.9799ZM315.18 18.537H315.15H315.121C314.916 18.8302 314.623 19.1528 314.242 19.4753C313.86 19.7978 313.421 20.091 312.893 20.3843C312.365 20.6775 311.779 20.912 311.133 21.0586C310.488 21.2346 309.814 21.3225 309.081 21.3225C307.732 21.3225 306.471 21.0586 305.328 20.5895C304.184 20.091 303.187 19.3873 302.337 18.4784C301.487 17.5694 300.842 16.4552 300.373 15.1357C299.903 13.8163 299.669 12.3502 299.669 10.7376C299.669 9.12489 299.903 7.65882 300.373 6.33937C300.842 5.01991 301.516 3.9057 302.366 2.96742C303.217 2.02914 304.214 1.32543 305.357 0.826969C306.501 0.328507 307.762 0.064616 309.14 0.064616C311.104 0.0939368 312.805 0.592399 314.242 1.53068C315.678 2.46896 316.792 3.78842 317.555 5.45973L314.388 6.31005C313.86 5.2838 313.127 4.49213 312.218 3.96434C311.309 3.43656 310.283 3.17267 309.169 3.17267C308.231 3.17267 307.38 3.3486 306.618 3.70045C305.856 4.05231 305.211 4.55077 304.653 5.19584C304.096 5.84091 303.686 6.63258 303.393 7.57086C303.099 8.50914 302.953 9.56471 302.953 10.7376C302.953 11.9397 303.129 12.9953 303.451 13.9336C303.774 14.8719 304.214 15.6635 304.771 16.3086C305.328 16.9537 306.002 17.4521 306.794 17.804C307.586 18.1558 308.465 18.3318 309.404 18.3318C310.225 18.3318 310.958 18.2145 311.603 17.9799C312.248 17.7453 312.805 17.4521 313.274 17.1003C313.743 16.7484 314.154 16.3379 314.476 15.8981C314.799 15.4583 315.033 15.0185 315.18 14.5786V12.5555H309.873V9.94588H317.907V21H315.18C315.18 20.0324 315.18 19.3873 315.18 19.0648C315.18 18.7423 315.18 18.5663 315.18 18.537ZM335.348 20.9707H331.771L327.783 13.5524C327.695 13.5817 327.607 13.5817 327.49 13.5817H327.197H324.206V20.9414H321.01V0.416472H327.197C328.34 0.416472 329.367 0.563078 330.276 0.885611C331.185 1.20815 331.976 1.64796 332.621 2.23439C333.266 2.82082 333.765 3.52453 334.117 4.34552C334.469 5.16652 334.645 6.07548 334.645 7.10172C334.645 8.53846 334.322 9.74063 333.648 10.7376C332.973 11.7345 332.035 12.4675 330.833 12.966L335.348 20.9707ZM324.206 10.8255H327.461V10.7962C328.722 10.7962 329.689 10.4443 330.364 9.74063C331.038 9.03692 331.361 8.15729 331.361 7.13104C331.361 6.04615 331.038 5.16652 330.364 4.49213C329.689 3.81774 328.722 3.46588 327.461 3.46588H324.206V10.8255ZM351.224 21L349.553 16.3379H340.932L339.261 21H335.889L343.63 0.475114H346.826L354.596 21H351.224ZM341.988 13.4938H348.556L346.093 6.77919C345.976 6.45665 345.858 6.13412 345.77 5.81158C345.682 5.48905 345.594 5.19584 345.536 4.96127C345.477 4.7267 345.419 4.52145 345.36 4.37484L345.301 4.14027H345.243L345.184 4.37484C345.125 4.52145 345.067 4.7267 344.979 4.96127C344.891 5.19584 344.803 5.48905 344.715 5.81158C344.627 6.13412 344.51 6.45665 344.392 6.77919L341.988 13.4938ZM354.655 0.475114H369.99V3.49521H363.891V21H360.695V3.49521H354.655V0.475114ZM370.683 10.7669V10.8255C370.683 9.21285 370.918 7.74679 371.387 6.42733C371.856 5.10787 372.531 3.99367 373.381 3.05538C374.231 2.1171 375.228 1.41339 376.372 0.914932C377.515 0.416472 378.776 0.15258 380.154 0.15258C381.532 0.15258 382.793 0.416472 383.966 0.914932C385.139 1.41339 386.165 2.1171 387.015 3.05538C387.866 3.99367 388.54 5.10787 389.009 6.42733C389.478 7.74679 389.713 9.21285 389.713 10.8255C389.713 12.4382 389.478 13.9043 389.009 15.2237C388.54 16.5432 387.866 17.6574 387.015 18.5957C386.165 19.5339 385.168 20.2376 383.995 20.7361C382.822 21.2052 381.562 21.4398 380.183 21.4398C378.805 21.4398 377.545 21.1759 376.372 20.7068C375.199 20.2083 374.202 19.4753 373.352 18.537C372.501 17.5987 371.856 16.4845 371.387 15.1651C370.918 13.8456 370.683 12.3795 370.683 10.7669ZM374.026 10.7376L373.967 10.7669C373.967 11.9397 374.114 12.9953 374.407 13.9336C374.7 14.8719 375.14 15.6635 375.697 16.3086C376.254 16.9537 376.899 17.4521 377.662 17.804C378.424 18.1558 379.274 18.3318 380.183 18.3318C381.122 18.3318 381.972 18.1558 382.734 17.804C383.497 17.4521 384.171 16.9537 384.728 16.3086C385.285 15.6635 385.725 14.8719 386.018 13.9336C386.312 12.9953 386.458 11.9397 386.458 10.7669C386.458 9.56471 386.312 8.50914 386.018 7.57086C385.725 6.63258 385.285 5.84091 384.728 5.19584C384.171 4.55077 383.526 4.05231 382.764 3.70045C382.001 3.3486 381.151 3.17267 380.213 3.17267C379.304 3.17267 378.453 3.3486 377.691 3.70045C376.929 4.05231 376.284 4.55077 375.727 5.19584C375.17 5.84091 374.759 6.63258 374.466 7.57086C374.173 8.50914 374.026 9.56471 374.026 10.7376ZM406.794 20.9707H403.216L399.229 13.5524C399.141 13.5817 399.053 13.5817 398.936 13.5817H398.642H395.652V20.9414H392.456V0.416472H398.642C399.786 0.416472 400.812 0.563078 401.721 0.885611C402.63 1.20815 403.422 1.64796 404.067 2.23439C404.712 2.82082 405.21 3.52453 405.562 4.34552C405.914 5.16652 406.09 6.07548 406.09 7.10172C406.09 8.53846 405.767 9.74063 405.093 10.7376C404.419 11.7345 403.48 12.4675 402.278 12.966L406.794 20.9707ZM395.652 10.8255H398.906V10.7962C400.167 10.7962 401.135 10.4443 401.809 9.74063C402.483 9.03692 402.806 8.15729 402.806 7.13104C402.806 6.04615 402.483 5.16652 401.809 4.49213C401.135 3.81774 400.167 3.46588 398.906 3.46588H395.652V10.8255ZM430.275 0.475114H433.237L433.09 21.088H430.011V13.3178C430.011 12.2916 430.011 11.324 430.041 10.415C430.07 9.50606 430.099 8.71439 430.129 8.04C430.158 7.36561 430.187 6.83783 430.217 6.45665L430.246 5.87023H430.187L430.011 6.19276C429.894 6.42733 429.748 6.69122 429.572 7.01376C429.396 7.33629 429.22 7.68815 429.044 8.04C428.868 8.39186 428.721 8.71439 428.575 9.0076L424.968 15.8395H423.356L419.749 9.0076C419.602 8.71439 419.456 8.39186 419.28 8.04C419.104 7.68815 418.928 7.33629 418.752 7.01376C418.576 6.69122 418.43 6.39801 418.312 6.16344L418.136 5.81158H418.107L418.136 6.36869C418.166 6.74986 418.195 7.27765 418.224 7.95204C418.254 8.62643 418.283 9.4181 418.312 10.3271C418.342 11.236 418.342 12.2036 418.342 13.2299V21H415.234V0.504435H418.224L422.505 8.47982C422.857 9.12489 423.15 9.65267 423.356 10.0925C423.561 10.5323 423.737 10.8842 423.854 11.1481C423.971 11.4119 424.059 11.5879 424.118 11.7052L424.206 11.8811H424.235L424.323 11.7052C424.382 11.5879 424.47 11.3826 424.587 11.1187C424.704 10.8548 424.88 10.503 425.115 10.0632C425.349 9.62335 425.643 9.09557 425.994 8.4505L430.275 0.475114ZM440.402 21H437.206V0.475114H440.402V21ZM458.594 18.537H458.565H458.535C458.33 18.8302 458.037 19.1528 457.656 19.4753C457.275 19.7978 456.835 20.091 456.307 20.3843C455.779 20.6775 455.193 20.912 454.548 21.0586C453.903 21.2346 453.228 21.3225 452.495 21.3225C451.146 21.3225 449.886 21.0586 448.742 20.5895C447.599 20.091 446.602 19.3873 445.751 18.4784C444.901 17.5694 444.256 16.4552 443.787 15.1357C443.318 13.8163 443.083 12.3502 443.083 10.7376C443.083 9.12489 443.318 7.65882 443.787 6.33937C444.256 5.01991 444.93 3.9057 445.781 2.96742C446.631 2.02914 447.628 1.32543 448.771 0.826969C449.915 0.328507 451.176 0.064616 452.554 0.064616C454.518 0.0939368 456.219 0.592399 457.656 1.53068C459.092 2.46896 460.207 3.78842 460.969 5.45973L457.802 6.31005C457.275 5.2838 456.542 4.49213 455.633 3.96434C454.724 3.43656 453.697 3.17267 452.583 3.17267C451.645 3.17267 450.795 3.3486 450.032 3.70045C449.27 4.05231 448.625 4.55077 448.068 5.19584C447.511 5.84091 447.1 6.63258 446.807 7.57086C446.514 8.50914 446.367 9.56471 446.367 10.7376C446.367 11.9397 446.543 12.9953 446.866 13.9336C447.188 14.8719 447.628 15.6635 448.185 16.3086C448.742 16.9537 449.416 17.4521 450.208 17.804C451 18.1558 451.879 18.3318 452.818 18.3318C453.639 18.3318 454.372 18.2145 455.017 17.9799C455.662 17.7453 456.219 17.4521 456.688 17.1003C457.157 16.7484 457.568 16.3379 457.89 15.8981C458.213 15.4583 458.447 15.0185 458.594 14.5786V12.5555H453.287V9.94588H461.321V21H458.594C458.594 20.0324 458.594 19.3873 458.594 19.0648C458.594 18.7423 458.594 18.5663 458.594 18.537ZM478.762 20.9707H475.185L471.198 13.5524C471.11 13.5817 471.022 13.5817 470.904 13.5817H470.611H467.62V20.9414H464.424V0.416472H470.611C471.755 0.416472 472.781 0.563078 473.69 0.885611C474.599 1.20815 475.391 1.64796 476.036 2.23439C476.681 2.82082 477.179 3.52453 477.531 4.34552C477.883 5.16652 478.059 6.07548 478.059 7.10172C478.059 8.53846 477.736 9.74063 477.062 10.7376C476.387 11.7345 475.449 12.4675 474.247 12.966L478.762 20.9707ZM467.62 10.8255H470.875V10.7962C472.136 10.7962 473.103 10.4443 473.778 9.74063C474.452 9.03692 474.775 8.15729 474.775 7.13104C474.775 6.04615 474.452 5.16652 473.778 4.49213C473.103 3.81774 472.136 3.46588 470.875 3.46588H467.62V10.8255ZM494.638 21L492.967 16.3379H484.347L482.675 21H479.303L487.044 0.475114H490.24L498.01 21H494.638ZM485.402 13.4938H491.97L489.507 6.77919C489.39 6.45665 489.273 6.13412 489.185 5.81158C489.097 5.48905 489.009 5.19584 488.95 4.96127C488.891 4.7267 488.833 4.52145 488.774 4.37484L488.715 4.14027H488.657L488.598 4.37484C488.539 4.52145 488.481 4.7267 488.393 4.96127C488.305 5.19584 488.217 5.48905 488.129 5.81158C488.041 6.13412 487.924 6.45665 487.806 6.77919L485.402 13.4938ZM498.069 0.475114H513.404V3.49521H507.306V21H504.11V3.49521H498.069V0.475114ZM518.613 21H515.417V0.475114H518.613V21ZM521.235 10.7669V10.8255C521.235 9.21285 521.47 7.74679 521.939 6.42733C522.408 5.10787 523.083 3.99367 523.933 3.05538C524.783 2.1171 525.78 1.41339 526.924 0.914932C528.067 0.416472 529.328 0.15258 530.706 0.15258C532.084 0.15258 533.345 0.416472 534.518 0.914932C535.691 1.41339 536.717 2.1171 537.567 3.05538C538.418 3.99367 539.092 5.10787 539.561 6.42733C540.03 7.74679 540.265 9.21285 540.265 10.8255C540.265 12.4382 540.03 13.9043 539.561 15.2237C539.092 16.5432 538.418 17.6574 537.567 18.5957C536.717 19.5339 535.72 20.2376 534.547 20.7361C533.374 21.2052 532.114 21.4398 530.736 21.4398C529.357 21.4398 528.097 21.1759 526.924 20.7068C525.751 20.2083 524.754 19.4753 523.904 18.537C523.053 17.5987 522.408 16.4845 521.939 15.1651C521.47 13.8456 521.235 12.3795 521.235 10.7669ZM524.578 10.7376L524.519 10.7669C524.519 11.9397 524.666 12.9953 524.959 13.9336C525.252 14.8719 525.692 15.6635 526.249 16.3086C526.806 16.9537 527.452 17.4521 528.214 17.804C528.976 18.1558 529.827 18.3318 530.736 18.3318C531.674 18.3318 532.524 18.1558 533.286 17.804C534.049 17.4521 534.723 16.9537 535.28 16.3086C535.837 15.6635 536.277 14.8719 536.57 13.9336C536.864 12.9953 537.01 11.9397 537.01 10.7669C537.01 9.56471 536.864 8.50914 536.57 7.57086C536.277 6.63258 535.837 5.84091 535.28 5.19584C534.723 4.55077 534.078 4.05231 533.316 3.70045C532.553 3.3486 531.703 3.17267 530.765 3.17267C529.856 3.17267 529.006 3.3486 528.243 3.70045C527.481 4.05231 526.836 4.55077 526.279 5.19584C525.722 5.84091 525.311 6.63258 525.018 7.57086C524.725 8.50914 524.578 9.56471 524.578 10.7376ZM555.704 0.475114H558.87L558.782 20.9414H555.88L549.048 10.5616C548.667 10.0045 548.285 9.44742 547.934 8.89032C547.582 8.33321 547.259 7.83475 546.966 7.39493C546.673 6.95511 546.438 6.60326 546.262 6.33937L545.998 5.92887H545.94L545.969 6.39801C545.998 6.72054 545.998 7.16036 546.028 7.71747C546.057 8.27457 546.086 8.94896 546.116 9.71131C546.145 10.4737 546.145 11.2947 546.145 12.2036V20.912H542.978V0.387151H545.881L552.83 10.8842C553.153 11.3533 553.475 11.8518 553.827 12.3795C554.179 12.9073 554.502 13.3765 554.795 13.8163C555.088 14.2561 555.293 14.6373 555.498 14.9012L555.792 15.3117H555.85V14.8132C555.85 14.4907 555.85 14.0509 555.821 13.4938C555.792 12.9367 555.762 12.2916 555.733 11.5586C555.704 10.8255 555.704 10.0338 555.704 9.21285V0.475114ZM568.736 0.475114H576.213L576.155 0.533757C577.591 0.533757 578.94 0.768326 580.172 1.26679C581.403 1.76525 582.459 2.46896 583.338 3.37792C584.218 4.28688 584.922 5.37176 585.42 6.63258C585.919 7.89339 586.183 9.30082 586.183 10.8548C586.183 12.4089 585.948 13.8163 585.449 15.0771C584.951 16.3379 584.277 17.3935 583.397 18.2731C582.517 19.1528 581.491 19.8271 580.289 20.2963C579.087 20.7654 577.797 21 576.389 21H568.736V0.475114ZM571.962 18.0092H576.536H576.507C577.415 18.0092 578.266 17.8333 579.057 17.5108C579.849 17.1882 580.524 16.7191 581.11 16.1033C581.696 15.4876 582.136 14.7252 582.459 13.8456C582.781 12.966 582.957 11.9397 582.957 10.7962C582.957 9.62335 582.781 8.56778 582.459 7.65882C582.136 6.74986 581.667 5.98751 581.081 5.37176C580.494 4.75602 579.79 4.28688 578.999 3.96434C578.207 3.64181 577.328 3.46588 576.389 3.46588H571.962V18.0092ZM587.555 10.7669V10.8255C587.555 9.21285 587.79 7.74679 588.259 6.42733C588.728 5.10787 589.403 3.99367 590.253 3.05538C591.103 2.1171 592.1 1.41339 593.244 0.914932C594.387 0.416472 595.648 0.15258 597.026 0.15258C598.404 0.15258 599.665 0.416472 600.838 0.914932C602.011 1.41339 603.037 2.1171 603.887 3.05538C604.738 3.99367 605.412 5.10787 605.881 6.42733C606.35 7.74679 606.585 9.21285 606.585 10.8255C606.585 12.4382 606.35 13.9043 605.881 15.2237C605.412 16.5432 604.738 17.6574 603.887 18.5957C603.037 19.5339 602.04 20.2376 600.867 20.7361C599.694 21.2052 598.434 21.4398 597.055 21.4398C595.677 21.4398 594.417 21.1759 593.244 20.7068C592.071 20.2083 591.074 19.4753 590.224 18.537C589.373 17.5987 588.728 16.4845 588.259 15.1651C587.79 13.8456 587.555 12.3795 587.555 10.7669ZM590.898 10.7376L590.839 10.7669C590.839 11.9397 590.986 12.9953 591.279 13.9336C591.572 14.8719 592.012 15.6635 592.569 16.3086C593.126 16.9537 593.771 17.4521 594.534 17.804C595.296 18.1558 596.146 18.3318 597.055 18.3318C597.994 18.3318 598.844 18.1558 599.606 17.804C600.369 17.4521 601.043 16.9537 601.6 16.3086C602.157 15.6635 602.597 14.8719 602.89 13.9336C603.184 12.9953 603.33 11.9397 603.33 10.7669C603.33 9.56471 603.184 8.50914 602.89 7.57086C602.597 6.63258 602.157 5.84091 601.6 5.19584C601.043 4.55077 600.398 4.05231 599.636 3.70045C598.873 3.3486 598.023 3.17267 597.085 3.17267C596.176 3.17267 595.325 3.3486 594.563 3.70045C593.801 4.05231 593.156 4.55077 592.599 5.19584C592.041 5.84091 591.631 6.63258 591.338 7.57086C591.045 8.50914 590.898 9.56471 590.898 10.7376ZM625.953 5.45973L622.786 6.31005L622.669 6.39801C622.141 5.37176 621.408 4.58009 620.499 4.05231C619.59 3.52453 618.564 3.26063 617.45 3.26063C616.511 3.26063 615.661 3.43656 614.899 3.78842C614.136 4.14027 613.491 4.63873 612.963 5.2838C612.436 5.92887 612.025 6.72054 611.732 7.65882C611.439 8.5971 611.292 9.65267 611.292 10.8255C611.292 11.9984 611.439 13.0539 611.761 13.9922C612.084 14.9305 612.524 15.7222 613.081 16.3672C613.638 17.0123 614.283 17.5108 615.045 17.8626C615.808 18.2145 616.658 18.3904 617.567 18.3904C618.798 18.3904 619.913 18.0679 620.909 17.4228C621.906 16.7777 622.639 15.8688 623.138 14.6959L626.275 15.5169C625.542 17.3642 624.399 18.8302 622.874 19.8858C621.349 20.9414 619.59 21.4398 617.567 21.4398C616.189 21.4398 614.928 21.1759 613.755 20.7068C612.582 20.2083 611.585 19.4753 610.735 18.537C609.885 17.5987 609.24 16.4845 608.77 15.1651C608.301 13.8456 608.067 12.3795 608.067 10.7669C608.067 9.15421 608.301 7.68815 608.77 6.36869C609.24 5.04923 609.914 3.93502 610.764 2.99674C611.615 2.05846 612.612 1.35475 613.755 0.85629C614.899 0.357828 616.159 0.0939368 617.538 0.0939368C619.443 0.0939368 621.115 0.563078 622.581 1.50136C624.047 2.43964 625.161 3.7591 625.953 5.45973ZM641.422 5.45973L638.431 6.28072L638.372 6.54462C638.108 5.43041 637.61 4.58009 636.848 3.99367C636.085 3.40724 635.206 3.11403 634.179 3.11403C633.153 3.11403 632.332 3.3486 631.716 3.84706C631.101 4.34552 630.778 4.99059 630.778 5.78226C630.778 6.22208 630.925 6.60326 631.189 6.95511C631.452 7.30697 631.804 7.6295 632.244 7.92272C632.684 8.21593 633.212 8.47982 633.798 8.71439C634.385 8.94896 635 9.18353 635.616 9.44742C636.29 9.71131 636.994 10.0338 637.698 10.3857C638.402 10.7376 639.047 11.1481 639.633 11.6172C640.22 12.0863 640.689 12.6434 641.07 13.2885C641.451 13.9336 641.627 14.6959 641.627 15.6049C641.627 16.4552 641.451 17.2469 641.099 17.9799C640.747 18.7129 640.278 19.358 639.662 19.8858C639.047 20.4136 638.284 20.8241 637.405 21.088C636.525 21.3812 635.557 21.5278 634.502 21.5278C633.446 21.5278 632.508 21.3812 631.658 21.088C630.807 20.8241 630.074 20.4136 629.429 19.8858C628.784 19.358 628.256 18.7129 627.846 17.9799C627.435 17.2469 627.142 16.4259 626.937 15.5462L629.957 14.7252C630.045 15.253 630.221 15.7515 630.485 16.2206C630.749 16.6898 631.071 17.1003 631.452 17.4521C631.834 17.804 632.303 18.0972 632.831 18.3024C633.358 18.5077 633.945 18.5957 634.619 18.5957C635.792 18.5957 636.701 18.3024 637.346 17.7453C637.991 17.1882 638.314 16.4845 638.314 15.6342C638.314 15.0478 638.167 14.5493 637.845 14.1681C637.522 13.787 637.111 13.4351 636.613 13.1419C636.115 12.8487 635.528 12.5555 634.883 12.2916C634.238 12.0277 633.564 11.7638 632.889 11.4706C632.273 11.2067 631.658 10.9135 631.013 10.591C630.368 10.2684 629.781 9.88724 629.253 9.44742C628.726 9.0076 628.286 8.47982 627.963 7.86407C627.641 7.24833 627.465 6.51529 627.465 5.66498C627.465 4.90263 627.641 4.16959 627.963 3.49521C628.286 2.82082 628.755 2.23439 629.341 1.73593C629.928 1.23747 630.661 0.826969 631.511 0.533757C632.361 0.240545 633.3 0.0939368 634.326 0.0939368C635.235 0.0939368 636.085 0.211222 636.848 0.475114C637.61 0.739005 638.314 1.09086 638.929 1.56C639.545 2.02914 640.073 2.58625 640.483 3.26063C640.894 3.93502 641.216 4.66805 641.422 5.45973Z" fill="white"/>
</svg>
