<svg width="360" height="28" viewBox="0 0 360 28" fill="none" xmlns="http://www.w3.org/2000/svg">
<path d="M25.7308 1.30787L19.874 16.2535L13.9856 0.269653L7.74499 16.2177L2.42201 1.30787H0L7.64994 22.2469L13.9267 6.29844L19.8088 22.2644L28.152 1.30787H25.7308Z" fill="#FF7300"/>
<path d="M37.514 11.9465C36.5371 11.1483 31.4202 8.4905 30.762 8.03101C30.106 7.57302 29.7765 6.9056 29.7765 6.02949C29.7765 5.15226 30.1108 4.44012 30.7776 3.89307C31.4444 3.34266 32.2562 3.07099 33.2123 3.07099C33.8288 3.07099 34.3555 3.1895 34.7949 3.43023C35.2329 3.66985 35.6514 4.0589 36.0488 4.59664L36.2594 4.92308C36.3179 4.96519 36.3995 5.06469 36.499 5.22158L38.2617 4.08797C37.684 3.07174 36.9623 2.30035 36.0946 1.77155C35.2295 1.24462 34.2973 0.980408 33.3032 0.980408C31.6096 0.980408 30.2237 1.45703 29.148 2.41363C28.0738 3.36949 27.5367 4.59664 27.5367 6.09098C27.5367 7.50334 28.0224 8.59447 28.9986 9.36027C29.9759 10.1264 34.8449 12.6534 35.6015 13.1714C36.3589 13.6883 36.7357 14.4548 36.7357 15.471C36.7357 16.6263 36.3552 17.5855 35.587 18.3509C34.8195 19.1197 33.8478 19.5017 32.6748 19.5017C31.6397 19.5017 30.7832 19.1834 30.1067 18.5451C29.4291 17.9071 28.9497 16.9945 28.6713 15.799L26.5195 16.4571C26.707 17.2635 26.981 17.982 27.3351 18.6077C27.6992 19.2464 28.1495 19.7882 28.6866 20.2332C29.7515 21.1208 31.1011 21.5647 32.7356 21.5647C34.468 21.5647 35.9403 20.9703 37.1569 19.7864C38.3705 18.6013 38.9781 17.1528 38.9781 15.439C38.9781 13.907 38.4905 12.7414 37.514 11.9465Z" fill="#FF7300"/>
<path d="M62.6004 10.5758C63.1025 10.4331 63.6355 10.3611 64.2054 10.3611C65.7231 10.3611 66.9524 10.8523 67.8891 11.8335C68.8291 12.811 69.3006 13.9662 69.3006 15.2969C69.3006 16.2323 69.0755 17.1088 68.6249 17.9279C68.1776 18.7462 67.3054 19.8582 66.0094 21.2546L61.9023 25.6862H69.522V27.28H58.3125L64.6199 20.4705C65.8976 19.0988 66.7306 18.0836 67.1168 17.4218C67.5033 16.7618 67.6953 16.0635 67.6953 15.3327C67.6953 14.4044 67.3497 13.6047 66.6553 12.9366C65.9643 12.2688 65.1163 11.9326 64.1126 11.9326C63.5386 11.9326 63.0182 12.037 62.5482 12.2445C62.5903 11.8443 62.6056 10.7249 62.6004 10.5758Z" fill="white"/>
<path d="M50.5431 20.4405C55.5569 20.4405 59.6213 16.3335 59.6213 11.2672C59.6213 6.20099 55.5569 2.09399 50.5431 2.09399C45.5293 2.09399 41.4648 6.20099 41.4648 11.2672C41.4648 16.3335 45.5293 20.4405 50.5431 20.4405Z" fill="#FF7300"/>
<path d="M50.543 0C44.3016 0 39.2422 5.04461 39.2422 11.2672C39.2422 17.4898 44.3016 22.5344 50.543 22.5344C56.784 22.5344 61.8439 17.4898 61.8439 11.2672C61.8439 5.04461 56.784 0 50.543 0ZM50.543 20.4404C45.5294 20.4404 41.4648 16.3334 41.4648 11.2672C41.4648 6.20096 45.529 2.09394 50.543 2.09394C55.557 2.09394 59.6213 6.20096 59.6213 11.2672C59.6213 16.3334 55.5566 20.4404 50.543 20.4404Z" fill="white"/>
<path d="M59.5917 10.5525L56.302 10.5603L54.6619 13.511L50.5693 3.53619L46.8875 11.7301L41.4766 11.7185C41.4982 12.1698 41.553 12.6125 41.6372 13.0445L47.7444 13.0575L50.5138 6.8938L54.4815 16.5642L57.0828 11.8844L59.5995 11.8784C59.6126 11.6764 59.6219 11.473 59.6219 11.2676C59.6219 11.0265 59.6096 10.7888 59.5917 10.5525Z" fill="black"/>
<path d="M78.6069 10.7669V10.8255C78.6069 9.21285 78.8415 7.74679 79.3106 6.42733C79.7798 5.10787 80.4542 3.99367 81.3045 3.05538C82.1548 2.1171 83.1517 1.41339 84.2952 0.914932C85.4388 0.416472 86.6996 0.15258 88.0777 0.15258C89.4558 0.15258 90.7166 0.416472 91.8894 0.914932C93.0623 1.41339 94.0885 2.1171 94.9389 3.05538C95.7892 3.99367 96.4636 5.10787 96.9327 6.42733C97.4018 7.74679 97.6364 9.21285 97.6364 10.8255C97.6364 12.4382 97.4018 13.9043 96.9327 15.2237C96.4636 16.5432 95.7892 17.6574 94.9389 18.5957C94.0885 19.5339 93.0916 20.2376 91.9188 20.7361C90.7459 21.2052 89.4851 21.4398 88.107 21.4398C86.7289 21.4398 85.4681 21.1759 84.2952 20.7068C83.1224 20.2083 82.1255 19.4753 81.2751 18.537C80.4248 17.5987 79.7798 16.4845 79.3106 15.1651C78.8415 13.8456 78.6069 12.3795 78.6069 10.7669ZM81.9495 10.7376L81.8909 10.7669C81.8909 11.9397 82.0375 12.9953 82.3307 13.9336C82.6239 14.8719 83.0637 15.6635 83.6208 16.3086C84.178 16.9537 84.823 17.4521 85.5854 17.804C86.3477 18.1558 87.198 18.3318 88.107 18.3318C89.0453 18.3318 89.8956 18.1558 90.658 17.804C91.4203 17.4521 92.0947 16.9537 92.6518 16.3086C93.2089 15.6635 93.6487 14.8719 93.9419 13.9336C94.2351 12.9953 94.3818 11.9397 94.3818 10.7669C94.3818 9.56471 94.2351 8.50914 93.9419 7.57086C93.6487 6.63258 93.2089 5.84091 92.6518 5.19584C92.0947 4.55077 91.4496 4.05231 90.6873 3.70045C89.9249 3.3486 89.0746 3.17267 88.1363 3.17267C87.2274 3.17267 86.377 3.3486 85.6147 3.70045C84.8523 4.05231 84.2073 4.55077 83.6502 5.19584C83.0931 5.84091 82.6826 6.63258 82.3894 7.57086C82.0961 8.50914 81.9495 9.56471 81.9495 10.7376ZM100.379 0.475114H106.566L106.537 0.504435C107.68 0.504435 108.706 0.651042 109.615 0.973576C110.524 1.29611 111.316 1.73593 111.961 2.32235C112.606 2.90878 113.105 3.61249 113.456 4.43349C113.808 5.25448 113.984 6.19276 113.984 7.219C113.984 8.24525 113.808 9.18353 113.456 10.0045C113.105 10.8255 112.606 11.5292 111.961 12.1157C111.316 12.7021 110.554 13.1419 109.645 13.4351C108.736 13.7283 107.709 13.8749 106.566 13.8749H103.575V21H100.379V0.475114ZM103.575 10.8842H106.537C107.856 10.8842 108.882 10.5616 109.586 9.91656C110.29 9.27149 110.642 8.36253 110.642 7.219C110.642 6.01683 110.26 5.07855 109.527 4.43349C108.794 3.78842 107.797 3.46588 106.537 3.46588H103.575V10.8842ZM119.418 17.9799H129.27V21H116.222V0.475114H129.094V3.49521H119.418V8.861H127.012V11.7052H119.418V17.9799ZM145.19 0.475114H148.357L148.269 20.9414H145.366L138.534 10.5616C138.153 10.0045 137.772 9.44742 137.42 8.89032C137.068 8.33321 136.745 7.83475 136.452 7.39493C136.159 6.95511 135.924 6.60326 135.749 6.33937L135.485 5.92887H135.426L135.455 6.39801C135.485 6.72054 135.485 7.16036 135.514 7.71747C135.543 8.27457 135.573 8.94896 135.602 9.71131C135.631 10.4737 135.631 11.2947 135.631 12.2036V20.912H132.465V0.387151H135.367L142.317 10.8842C142.639 11.3533 142.962 11.8518 143.313 12.3795C143.665 12.9073 143.988 13.3765 144.281 13.8163C144.574 14.2561 144.78 14.6373 144.985 14.9012L145.278 15.3117H145.337V14.8132C145.337 14.4907 145.337 14.0509 145.307 13.4938C145.278 12.9367 145.249 12.2916 145.219 11.5586C145.19 10.8255 145.19 10.0338 145.19 9.21285V0.475114ZM158.252 0.504435H165.436L165.318 0.533757C166.198 0.533757 167.019 0.651042 167.752 0.914932C168.485 1.17882 169.101 1.53068 169.629 1.99982C170.156 2.46896 170.567 3.02606 170.86 3.67113C171.153 4.3162 171.3 4.99059 171.3 5.72362C171.3 6.28072 171.212 6.80851 171.007 7.27765C170.801 7.74679 170.567 8.15729 170.274 8.50914C169.98 8.861 169.658 9.15421 169.306 9.38878C168.954 9.62335 168.602 9.76996 168.28 9.85792V9.88724C168.72 9.9752 169.189 10.1511 169.687 10.415C170.186 10.6789 170.655 11.0308 171.065 11.4706C171.476 11.9104 171.828 12.4382 172.092 13.0246C172.355 13.611 172.502 14.2561 172.502 14.9891C172.502 15.8981 172.355 16.7191 172.062 17.4521C171.769 18.1852 171.329 18.8302 170.743 19.358C170.156 19.8858 169.453 20.2963 168.602 20.5895C167.752 20.8827 166.784 21 165.67 21H158.252V0.504435ZM161.448 8.83167H164.996C165.963 8.83167 166.755 8.56778 167.342 8.04C167.928 7.51222 168.221 6.83783 168.221 6.01683C168.221 5.16652 167.928 4.49213 167.342 3.99367C166.755 3.49521 165.963 3.23131 164.967 3.23131H161.448V8.83167ZM161.448 18.2731H165.524V18.3024C166.609 18.3024 167.517 17.9799 168.221 17.3642C168.925 16.7484 169.277 15.8981 169.277 14.8425C169.277 14.3148 169.189 13.8456 168.984 13.4351C168.778 13.0246 168.514 12.6434 168.163 12.3209C167.811 11.9984 167.4 11.7638 166.931 11.5879C166.462 11.4119 165.963 11.324 165.436 11.324H161.448V18.2731ZM188.351 21L186.68 16.3379H178.06L176.388 21H173.016L180.757 0.475114H183.953L191.723 21H188.351ZM179.115 13.4938H185.683L183.22 6.77919C183.103 6.45665 182.986 6.13412 182.898 5.81158C182.81 5.48905 182.722 5.19584 182.663 4.96127C182.604 4.7267 182.546 4.52145 182.487 4.37484L182.428 4.14027H182.37L182.311 4.37484C182.253 4.52145 182.194 4.7267 182.106 4.96127C182.018 5.19584 181.93 5.48905 181.842 5.81158C181.754 6.13412 181.637 6.45665 181.52 6.77919L179.115 13.4938ZM206.384 0.475114H209.551L209.463 20.9414H206.56L199.728 10.5616C199.347 10.0045 198.966 9.44742 198.614 8.89032C198.262 8.33321 197.94 7.83475 197.647 7.39493C197.353 6.95511 197.119 6.60326 196.943 6.33937L196.679 5.92887H196.62L196.65 6.39801C196.679 6.72054 196.679 7.16036 196.708 7.71747C196.738 8.27457 196.767 8.94896 196.796 9.71131C196.826 10.4737 196.826 11.2947 196.826 12.2036V20.912H193.659V0.387151H196.562L203.511 10.8842C203.833 11.3533 204.156 11.8518 204.508 12.3795C204.86 12.9073 205.182 13.3765 205.475 13.8163C205.769 14.2561 205.974 14.6373 206.179 14.9012L206.472 15.3117H206.531V14.8132C206.531 14.4907 206.531 14.0509 206.502 13.4938C206.472 12.9367 206.443 12.2916 206.414 11.5586C206.384 10.8255 206.384 10.0338 206.384 9.21285V0.475114ZM229.551 21H225.827L218.995 11.2653L216.62 13.8163V21.0586H213.424V0.563078H216.62V5.34244C216.62 6.83783 216.62 7.95204 216.591 8.71439C216.561 9.47674 216.561 9.85792 216.591 9.85792H216.62L216.854 9.59403C217.001 9.4181 217.206 9.18353 217.47 8.89032C217.734 8.5971 218.027 8.27457 218.379 7.89339C218.731 7.51222 219.083 7.10172 219.493 6.6619L225.27 0.475114H229.111L221.135 8.94896L229.551 21ZM235.012 21H231.816V0.475114H235.012V21ZM251.65 0.475114H254.817L254.729 20.9414H251.826L244.994 10.5616C244.613 10.0045 244.232 9.44742 243.88 8.89032C243.528 8.33321 243.206 7.83475 242.913 7.39493C242.619 6.95511 242.385 6.60326 242.209 6.33937L241.945 5.92887H241.886L241.916 6.39801C241.945 6.72054 241.945 7.16036 241.974 7.71747C242.004 8.27457 242.033 8.94896 242.062 9.71131C242.092 10.4737 242.092 11.2947 242.092 12.2036V20.912H238.925V0.387151H241.828L248.777 10.8842C249.099 11.3533 249.422 11.8518 249.774 12.3795C250.126 12.9073 250.448 13.3765 250.741 13.8163C251.035 14.2561 251.24 14.6373 251.445 14.9012L251.738 15.3117H251.797V14.8132C251.797 14.4907 251.797 14.0509 251.768 13.4938C251.738 12.9367 251.709 12.2916 251.68 11.5586C251.65 10.8255 251.65 10.0338 251.65 9.21285V0.475114ZM272.998 18.537H272.969H272.94C272.735 18.8302 272.441 19.1528 272.06 19.4753C271.679 19.7978 271.239 20.091 270.711 20.3843C270.184 20.6775 269.597 20.912 268.952 21.0586C268.307 21.2346 267.633 21.3225 266.9 21.3225C265.551 21.3225 264.29 21.0586 263.146 20.5895C262.003 20.091 261.006 19.3873 260.156 18.4784C259.305 17.5694 258.66 16.4552 258.191 15.1357C257.722 13.8163 257.487 12.3502 257.487 10.7376C257.487 9.12489 257.722 7.65882 258.191 6.33937C258.66 5.01991 259.335 3.9057 260.185 2.96742C261.035 2.02914 262.032 1.32543 263.176 0.826969C264.319 0.328507 265.58 0.064616 266.958 0.064616C268.923 0.0939368 270.623 0.592399 272.06 1.53068C273.497 2.46896 274.611 3.78842 275.373 5.45973L272.207 6.31005C271.679 5.2838 270.946 4.49213 270.037 3.96434C269.128 3.43656 268.102 3.17267 266.988 3.17267C266.049 3.17267 265.199 3.3486 264.437 3.70045C263.674 4.05231 263.029 4.55077 262.472 5.19584C261.915 5.84091 261.504 6.63258 261.211 7.57086C260.918 8.50914 260.771 9.56471 260.771 10.7376C260.771 11.9397 260.947 12.9953 261.27 13.9336C261.592 14.8719 262.032 15.6635 262.589 16.3086C263.146 16.9537 263.821 17.4521 264.613 17.804C265.404 18.1558 266.284 18.3318 267.222 18.3318C268.043 18.3318 268.776 18.2145 269.421 17.9799C270.066 17.7453 270.623 17.4521 271.093 17.1003C271.562 16.7484 271.972 16.3379 272.295 15.8981C272.617 15.4583 272.852 15.0185 272.998 14.5786V12.5555H267.691V9.94588H275.725V21H272.998C272.998 20.0324 272.998 19.3873 272.998 19.0648C272.998 18.7423 272.998 18.5663 272.998 18.537ZM284.763 0.475114H292.24L292.182 0.533757C293.618 0.533757 294.967 0.768326 296.199 1.26679C297.43 1.76525 298.486 2.46896 299.365 3.37792C300.245 4.28688 300.949 5.37176 301.447 6.63258C301.946 7.89339 302.21 9.30082 302.21 10.8548C302.21 12.4089 301.975 13.8163 301.476 15.0771C300.978 16.3379 300.304 17.3935 299.424 18.2731C298.544 19.1528 297.518 19.8271 296.316 20.2963C295.114 20.7654 293.824 21 292.416 21H284.763V0.475114ZM287.989 18.0092H292.563H292.533C293.442 18.0092 294.293 17.8333 295.084 17.5108C295.876 17.1882 296.55 16.7191 297.137 16.1033C297.723 15.4876 298.163 14.7252 298.486 13.8456C298.808 12.966 298.984 11.9397 298.984 10.7962C298.984 9.62335 298.808 8.56778 298.486 7.65882C298.163 6.74986 297.694 5.98751 297.108 5.37176C296.521 4.75602 295.817 4.28688 295.026 3.96434C294.234 3.64181 293.354 3.46588 292.416 3.46588H287.989V18.0092ZM303.582 10.7669V10.8255C303.582 9.21285 303.817 7.74679 304.286 6.42733C304.755 5.10787 305.43 3.99367 306.28 3.05538C307.13 2.1171 308.127 1.41339 309.271 0.914932C310.414 0.416472 311.675 0.15258 313.053 0.15258C314.431 0.15258 315.692 0.416472 316.865 0.914932C318.038 1.41339 319.064 2.1171 319.914 3.05538C320.765 3.99367 321.439 5.10787 321.908 6.42733C322.377 7.74679 322.612 9.21285 322.612 10.8255C322.612 12.4382 322.377 13.9043 321.908 15.2237C321.439 16.5432 320.765 17.6574 319.914 18.5957C319.064 19.5339 318.067 20.2376 316.894 20.7361C315.721 21.2052 314.461 21.4398 313.082 21.4398C311.704 21.4398 310.444 21.1759 309.271 20.7068C308.098 20.2083 307.101 19.4753 306.251 18.537C305.4 17.5987 304.755 16.4845 304.286 15.1651C303.817 13.8456 303.582 12.3795 303.582 10.7669ZM306.925 10.7376L306.866 10.7669C306.866 11.9397 307.013 12.9953 307.306 13.9336C307.599 14.8719 308.039 15.6635 308.596 16.3086C309.153 16.9537 309.798 17.4521 310.561 17.804C311.323 18.1558 312.173 18.3318 313.082 18.3318C314.021 18.3318 314.871 18.1558 315.633 17.804C316.396 17.4521 317.07 16.9537 317.627 16.3086C318.184 15.6635 318.624 14.8719 318.917 13.9336C319.211 12.9953 319.357 11.9397 319.357 10.7669C319.357 9.56471 319.211 8.50914 318.917 7.57086C318.624 6.63258 318.184 5.84091 317.627 5.19584C317.07 4.55077 316.425 4.05231 315.663 3.70045C314.9 3.3486 314.05 3.17267 313.112 3.17267C312.203 3.17267 311.352 3.3486 310.59 3.70045C309.828 4.05231 309.183 4.55077 308.626 5.19584C308.068 5.84091 307.658 6.63258 307.365 7.57086C307.072 8.50914 306.925 9.56471 306.925 10.7376ZM341.98 5.45973L338.813 6.31005L338.696 6.39801C338.168 5.37176 337.435 4.58009 336.526 4.05231C335.617 3.52453 334.591 3.26063 333.477 3.26063C332.538 3.26063 331.688 3.43656 330.926 3.78842C330.163 4.14027 329.518 4.63873 328.99 5.2838C328.463 5.92887 328.052 6.72054 327.759 7.65882C327.466 8.5971 327.319 9.65267 327.319 10.8255C327.319 11.9984 327.466 13.0539 327.788 13.9922C328.111 14.9305 328.551 15.7222 329.108 16.3672C329.665 17.0123 330.31 17.5108 331.072 17.8626C331.835 18.2145 332.685 18.3904 333.594 18.3904C334.825 18.3904 335.939 18.0679 336.936 17.4228C337.933 16.7777 338.666 15.8688 339.165 14.6959L342.302 15.5169C341.569 17.3642 340.426 18.8302 338.901 19.8858C337.376 20.9414 335.617 21.4398 333.594 21.4398C332.216 21.4398 330.955 21.1759 329.782 20.7068C328.609 20.2083 327.612 19.4753 326.762 18.537C325.912 17.5987 325.267 16.4845 324.797 15.1651C324.328 13.8456 324.094 12.3795 324.094 10.7669C324.094 9.15421 324.328 7.68815 324.797 6.36869C325.267 5.04923 325.941 3.93502 326.791 2.99674C327.642 2.05846 328.638 1.35475 329.782 0.85629C330.926 0.357828 332.186 0.0939368 333.564 0.0939368C335.47 0.0939368 337.142 0.563078 338.608 1.50136C340.074 2.43964 341.188 3.7591 341.98 5.45973ZM357.449 5.45973L354.458 6.28072L354.399 6.54462C354.135 5.43041 353.637 4.58009 352.875 3.99367C352.112 3.40724 351.233 3.11403 350.206 3.11403C349.18 3.11403 348.359 3.3486 347.743 3.84706C347.128 4.34552 346.805 4.99059 346.805 5.78226C346.805 6.22208 346.952 6.60326 347.216 6.95511C347.479 7.30697 347.831 7.6295 348.271 7.92272C348.711 8.21593 349.239 8.47982 349.825 8.71439C350.412 8.94896 351.027 9.18353 351.643 9.44742C352.317 9.71131 353.021 10.0338 353.725 10.3857C354.429 10.7376 355.074 11.1481 355.66 11.6172C356.247 12.0863 356.716 12.6434 357.097 13.2885C357.478 13.9336 357.654 14.6959 357.654 15.6049C357.654 16.4552 357.478 17.2469 357.126 17.9799C356.774 18.7129 356.305 19.358 355.689 19.8858C355.074 20.4136 354.311 20.8241 353.432 21.088C352.552 21.3812 351.584 21.5278 350.529 21.5278C349.473 21.5278 348.535 21.3812 347.685 21.088C346.834 20.8241 346.101 20.4136 345.456 19.8858C344.811 19.358 344.283 18.7129 343.873 17.9799C343.462 17.2469 343.169 16.4259 342.964 15.5462L345.984 14.7252C346.072 15.253 346.248 15.7515 346.512 16.2206C346.776 16.6898 347.098 17.1003 347.479 17.4521C347.861 17.804 348.33 18.0972 348.858 18.3024C349.385 18.5077 349.972 18.5957 350.646 18.5957C351.819 18.5957 352.728 18.3024 353.373 17.7453C354.018 17.1882 354.341 16.4845 354.341 15.6342C354.341 15.0478 354.194 14.5493 353.872 14.1681C353.549 13.787 353.138 13.4351 352.64 13.1419C352.142 12.8487 351.555 12.5555 350.91 12.2916C350.265 12.0277 349.591 11.7638 348.916 11.4706C348.3 11.2067 347.685 10.9135 347.04 10.591C346.395 10.2684 345.808 9.88724 345.28 9.44742C344.753 9.0076 344.313 8.47982 343.99 7.86407C343.668 7.24833 343.492 6.51529 343.492 5.66498C343.492 4.90263 343.668 4.16959 343.99 3.49521C344.313 2.82082 344.782 2.23439 345.368 1.73593C345.955 1.23747 346.688 0.826969 347.538 0.533757C348.388 0.240545 349.327 0.0939368 350.353 0.0939368C351.262 0.0939368 352.112 0.211222 352.875 0.475114C353.637 0.739005 354.341 1.09086 354.956 1.56C355.572 2.02914 356.1 2.58625 356.51 3.26063C356.921 3.93502 357.243 4.66805 357.449 5.45973Z" fill="white"/>
</svg>
