<svg width="340" height="28" viewBox="0 0 340 28" fill="none" xmlns="http://www.w3.org/2000/svg">
<path d="M25.7308 1.30787L19.874 16.2535L13.9856 0.269653L7.74499 16.2177L2.42201 1.30787H0L7.64994 22.2469L13.9267 6.29844L19.8088 22.2644L28.152 1.30787H25.7308Z" fill="#FF7300"/>
<path d="M37.514 11.9465C36.5371 11.1483 31.4202 8.4905 30.762 8.03101C30.106 7.57302 29.7765 6.9056 29.7765 6.02949C29.7765 5.15226 30.1108 4.44012 30.7776 3.89307C31.4444 3.34266 32.2562 3.07099 33.2123 3.07099C33.8288 3.07099 34.3555 3.1895 34.7949 3.43023C35.2329 3.66985 35.6514 4.0589 36.0488 4.59664L36.2594 4.92308C36.3179 4.96519 36.3995 5.06469 36.499 5.22158L38.2617 4.08797C37.684 3.07174 36.9623 2.30035 36.0946 1.77155C35.2295 1.24462 34.2973 0.980408 33.3032 0.980408C31.6096 0.980408 30.2237 1.45703 29.148 2.41363C28.0738 3.36949 27.5367 4.59664 27.5367 6.09098C27.5367 7.50334 28.0224 8.59447 28.9986 9.36027C29.9759 10.1264 34.8449 12.6534 35.6015 13.1714C36.3589 13.6883 36.7357 14.4548 36.7357 15.471C36.7357 16.6263 36.3552 17.5855 35.587 18.3509C34.8195 19.1197 33.8478 19.5017 32.6748 19.5017C31.6397 19.5017 30.7832 19.1834 30.1067 18.5451C29.4291 17.9071 28.9497 16.9945 28.6713 15.799L26.5195 16.4571C26.707 17.2635 26.981 17.982 27.3351 18.6077C27.6992 19.2464 28.1495 19.7882 28.6866 20.2332C29.7515 21.1208 31.1011 21.5647 32.7356 21.5647C34.468 21.5647 35.9403 20.9703 37.1569 19.7864C38.3705 18.6013 38.9781 17.1528 38.9781 15.439C38.9781 13.907 38.4905 12.7414 37.514 11.9465Z" fill="#FF7300"/>
<path d="M62.6004 10.5758C63.1025 10.4331 63.6355 10.3611 64.2054 10.3611C65.7231 10.3611 66.9524 10.8523 67.8891 11.8335C68.8291 12.811 69.3006 13.9662 69.3006 15.2969C69.3006 16.2323 69.0755 17.1088 68.6249 17.9279C68.1776 18.7462 67.3054 19.8582 66.0094 21.2546L61.9023 25.6862H69.522V27.28H58.3125L64.6199 20.4705C65.8976 19.0988 66.7306 18.0836 67.1168 17.4218C67.5033 16.7618 67.6953 16.0635 67.6953 15.3327C67.6953 14.4044 67.3497 13.6047 66.6553 12.9366C65.9643 12.2688 65.1163 11.9326 64.1126 11.9326C63.5386 11.9326 63.0182 12.037 62.5482 12.2445C62.5903 11.8443 62.6056 10.7249 62.6004 10.5758Z" fill="white"/>
<path d="M50.5431 20.4405C55.5569 20.4405 59.6213 16.3335 59.6213 11.2672C59.6213 6.20099 55.5569 2.09399 50.5431 2.09399C45.5293 2.09399 41.4648 6.20099 41.4648 11.2672C41.4648 16.3335 45.5293 20.4405 50.5431 20.4405Z" fill="#FF7300"/>
<path d="M50.543 0C44.3016 0 39.2422 5.04461 39.2422 11.2672C39.2422 17.4898 44.3016 22.5344 50.543 22.5344C56.784 22.5344 61.8439 17.4898 61.8439 11.2672C61.8439 5.04461 56.784 0 50.543 0ZM50.543 20.4404C45.5294 20.4404 41.4648 16.3334 41.4648 11.2672C41.4648 6.20096 45.529 2.09394 50.543 2.09394C55.557 2.09394 59.6213 6.20096 59.6213 11.2672C59.6213 16.3334 55.5566 20.4404 50.543 20.4404Z" fill="white"/>
<path d="M59.5917 10.5525L56.302 10.5603L54.6619 13.511L50.5693 3.53619L46.8875 11.7301L41.4766 11.7185C41.4982 12.1698 41.553 12.6125 41.6372 13.0445L47.7444 13.0575L50.5138 6.8938L54.4815 16.5642L57.0828 11.8844L59.5995 11.8784C59.6126 11.6764 59.6219 11.473 59.6219 11.2676C59.6219 11.0265 59.6096 10.7888 59.5917 10.5525Z" fill="black"/>
<path d="M93.2382 21L91.5669 16.3379H82.9465L81.2751 21H77.9032L85.644 0.475114H88.84L96.6102 21H93.2382ZM84.002 13.4938H90.57L88.107 6.77919C87.9897 6.45665 87.8724 6.13412 87.7845 5.81158C87.6965 5.48905 87.6085 5.19584 87.5499 4.96127C87.4913 4.7267 87.4326 4.52145 87.374 4.37484L87.3153 4.14027H87.2567L87.198 4.37484C87.1394 4.52145 87.0808 4.7267 86.9928 4.96127C86.9048 5.19584 86.8169 5.48905 86.7289 5.81158C86.6409 6.13412 86.5237 6.45665 86.4064 6.77919L84.002 13.4938ZM98.5752 0.475114H104.762L104.733 0.504435C105.876 0.504435 106.902 0.651042 107.811 0.973576C108.72 1.29611 109.512 1.73593 110.157 2.32235C110.802 2.90878 111.301 3.61249 111.652 4.43349C112.004 5.25448 112.18 6.19276 112.18 7.219C112.18 8.24525 112.004 9.18353 111.652 10.0045C111.301 10.8255 110.802 11.5292 110.157 12.1157C109.512 12.7021 108.75 13.1419 107.841 13.4351C106.932 13.7283 105.905 13.8749 104.762 13.8749H101.771V21H98.5752V0.475114ZM101.771 10.8842H104.733C106.052 10.8842 107.078 10.5616 107.782 9.91656C108.486 9.27149 108.838 8.36253 108.838 7.219C108.838 6.01683 108.456 5.07855 107.723 4.43349C106.99 3.78842 105.993 3.46588 104.733 3.46588H101.771V10.8842ZM117.614 21H114.418V0.475114H117.614V21ZM142.473 0.475114H145.435L145.288 21.088H142.21V13.3178C142.21 12.2916 142.21 11.324 142.239 10.415C142.268 9.50606 142.298 8.71439 142.327 8.04C142.356 7.36561 142.385 6.83783 142.415 6.45665L142.444 5.87023H142.385L142.21 6.19276C142.092 6.42733 141.946 6.69122 141.77 7.01376C141.594 7.33629 141.418 7.68815 141.242 8.04C141.066 8.39186 140.919 8.71439 140.773 9.0076L137.166 15.8395H135.554L131.947 9.0076C131.8 8.71439 131.654 8.39186 131.478 8.04C131.302 7.68815 131.126 7.33629 130.95 7.01376C130.774 6.69122 130.628 6.39801 130.51 6.16344L130.334 5.81158H130.305L130.334 6.36869C130.364 6.74986 130.393 7.27765 130.422 7.95204C130.452 8.62643 130.481 9.4181 130.51 10.3271C130.54 11.236 130.54 12.2036 130.54 13.2299V21H127.432V0.504435H130.422L134.703 8.47982C135.055 9.12489 135.348 9.65267 135.554 10.0925C135.759 10.5323 135.935 10.8842 136.052 11.1481C136.169 11.4119 136.257 11.5879 136.316 11.7052L136.404 11.8811H136.433L136.521 11.7052C136.58 11.5879 136.668 11.3826 136.785 11.1187C136.902 10.8548 137.078 10.503 137.313 10.0632C137.547 9.62335 137.841 9.09557 138.193 8.4505L142.473 0.475114ZM162.716 21L161.045 16.3379H152.424L150.753 21H147.381L155.122 0.475114H158.318L166.088 21H162.716ZM153.48 13.4938H160.048L157.585 6.77919C157.467 6.45665 157.35 6.13412 157.262 5.81158C157.174 5.48905 157.086 5.19584 157.028 4.96127C156.969 4.7267 156.91 4.52145 156.852 4.37484L156.793 4.14027H156.734L156.676 4.37484C156.617 4.52145 156.558 4.7267 156.47 4.96127C156.382 5.19584 156.295 5.48905 156.207 5.81158C156.119 6.13412 156.001 6.45665 155.884 6.77919L153.48 13.4938ZM180.749 0.475114H183.916L183.828 20.9414H180.925L174.093 10.5616C173.712 10.0045 173.331 9.44742 172.979 8.89032C172.627 8.33321 172.304 7.83475 172.011 7.39493C171.718 6.95511 171.483 6.60326 171.307 6.33937L171.044 5.92887H170.985L171.014 6.39801C171.044 6.72054 171.044 7.16036 171.073 7.71747C171.102 8.27457 171.132 8.94896 171.161 9.71131C171.19 10.4737 171.19 11.2947 171.19 12.2036V20.912H168.023V0.387151H170.926L177.875 10.8842C178.198 11.3533 178.52 11.8518 178.872 12.3795C179.224 12.9073 179.547 13.3765 179.84 13.8163C180.133 14.2561 180.338 14.6373 180.544 14.9012L180.837 15.3117H180.896V14.8132C180.896 14.4907 180.896 14.0509 180.866 13.4938C180.837 12.9367 180.808 12.2916 180.778 11.5586C180.749 10.8255 180.749 10.0338 180.749 9.21285V0.475114ZM201.159 21L199.487 16.3379H190.867L189.196 21H185.824L193.565 0.475114H196.761L204.531 21H201.159ZM191.923 13.4938H198.491L196.028 6.77919C195.91 6.45665 195.793 6.13412 195.705 5.81158C195.617 5.48905 195.529 5.19584 195.47 4.96127C195.412 4.7267 195.353 4.52145 195.295 4.37484L195.236 4.14027H195.177L195.119 4.37484C195.06 4.52145 195.001 4.7267 194.913 4.96127C194.825 5.19584 194.737 5.48905 194.649 5.81158C194.562 6.13412 194.444 6.45665 194.327 6.77919L191.923 13.4938ZM220.746 18.537H220.717H220.687C220.482 18.8302 220.189 19.1528 219.808 19.4753C219.426 19.7978 218.987 20.091 218.459 20.3843C217.931 20.6775 217.345 20.912 216.7 21.0586C216.054 21.2346 215.38 21.3225 214.647 21.3225C213.298 21.3225 212.037 21.0586 210.894 20.5895C209.75 20.091 208.753 19.3873 207.903 18.4784C207.053 17.5694 206.408 16.4552 205.939 15.1357C205.469 13.8163 205.235 12.3502 205.235 10.7376C205.235 9.12489 205.469 7.65882 205.939 6.33937C206.408 5.01991 207.082 3.9057 207.932 2.96742C208.783 2.02914 209.78 1.32543 210.923 0.826969C212.067 0.328507 213.328 0.064616 214.706 0.064616C216.67 0.0939368 218.371 0.592399 219.808 1.53068C221.244 2.46896 222.359 3.78842 223.121 5.45973L219.954 6.31005C219.426 5.2838 218.693 4.49213 217.784 3.96434C216.875 3.43656 215.849 3.17267 214.735 3.17267C213.797 3.17267 212.946 3.3486 212.184 3.70045C211.422 4.05231 210.777 4.55077 210.22 5.19584C209.662 5.84091 209.252 6.63258 208.959 7.57086C208.666 8.50914 208.519 9.56471 208.519 10.7376C208.519 11.9397 208.695 12.9953 209.017 13.9336C209.34 14.8719 209.78 15.6635 210.337 16.3086C210.894 16.9537 211.568 17.4521 212.36 17.804C213.152 18.1558 214.031 18.3318 214.97 18.3318C215.791 18.3318 216.524 18.2145 217.169 17.9799C217.814 17.7453 218.371 17.4521 218.84 17.1003C219.309 16.7484 219.72 16.3379 220.042 15.8981C220.365 15.4583 220.599 15.0185 220.746 14.5786V12.5555H215.439V9.94588H223.473V21H220.746C220.746 20.0324 220.746 19.3873 220.746 19.0648C220.746 18.7423 220.746 18.5663 220.746 18.537ZM229.772 17.9799H239.624V21H226.576V0.475114H239.448V3.49521H229.772V8.861H237.366V11.7052H229.772V17.9799ZM257.186 20.9707H253.609L249.622 13.5524C249.534 13.5817 249.446 13.5817 249.328 13.5817H249.035H246.044V20.9414H242.848V0.416472H249.035C250.179 0.416472 251.205 0.563078 252.114 0.885611C253.023 1.20815 253.815 1.64796 254.46 2.23439C255.105 2.82082 255.603 3.52453 255.955 4.34552C256.307 5.16652 256.483 6.07548 256.483 7.10172C256.483 8.53846 256.16 9.74063 255.486 10.7376C254.811 11.7345 253.873 12.4675 252.671 12.966L257.186 20.9707ZM246.044 10.8255H249.299V10.7962C250.56 10.7962 251.527 10.4443 252.202 9.74063C252.876 9.03692 253.199 8.15729 253.199 7.13104C253.199 6.04615 252.876 5.16652 252.202 4.49213C251.527 3.81774 250.56 3.46588 249.299 3.46588H246.044V10.8255ZM265.685 0.475114H273.162L273.103 0.533757C274.54 0.533757 275.889 0.768326 277.12 1.26679C278.352 1.76525 279.407 2.46896 280.287 3.37792C281.167 4.28688 281.87 5.37176 282.369 6.63258C282.867 7.89339 283.131 9.30082 283.131 10.8548C283.131 12.4089 282.897 13.8163 282.398 15.0771C281.9 16.3379 281.225 17.3935 280.346 18.2731C279.466 19.1528 278.44 19.8271 277.238 20.2963C276.035 20.7654 274.745 21 273.338 21H265.685V0.475114ZM268.91 18.0092H273.485H273.455C274.364 18.0092 275.214 17.8333 276.006 17.5108C276.798 17.1882 277.472 16.7191 278.059 16.1033C278.645 15.4876 279.085 14.7252 279.407 13.8456C279.73 12.966 279.906 11.9397 279.906 10.7962C279.906 9.62335 279.73 8.56778 279.407 7.65882C279.085 6.74986 278.616 5.98751 278.029 5.37176C277.443 4.75602 276.739 4.28688 275.948 3.96434C275.156 3.64181 274.276 3.46588 273.338 3.46588H268.91V18.0092ZM284.504 10.7669V10.8255C284.504 9.21285 284.739 7.74679 285.208 6.42733C285.677 5.10787 286.351 3.99367 287.202 3.05538C288.052 2.1171 289.049 1.41339 290.192 0.914932C291.336 0.416472 292.597 0.15258 293.975 0.15258C295.353 0.15258 296.614 0.416472 297.787 0.914932C298.959 1.41339 299.986 2.1171 300.836 3.05538C301.686 3.99367 302.361 5.10787 302.83 6.42733C303.299 7.74679 303.534 9.21285 303.534 10.8255C303.534 12.4382 303.299 13.9043 302.83 15.2237C302.361 16.5432 301.686 17.6574 300.836 18.5957C299.986 19.5339 298.989 20.2376 297.816 20.7361C296.643 21.2052 295.382 21.4398 294.004 21.4398C292.626 21.4398 291.365 21.1759 290.192 20.7068C289.02 20.2083 288.023 19.4753 287.172 18.537C286.322 17.5987 285.677 16.4845 285.208 15.1651C284.739 13.8456 284.504 12.3795 284.504 10.7669ZM287.847 10.7376L287.788 10.7669C287.788 11.9397 287.935 12.9953 288.228 13.9336C288.521 14.8719 288.961 15.6635 289.518 16.3086C290.075 16.9537 290.72 17.4521 291.482 17.804C292.245 18.1558 293.095 18.3318 294.004 18.3318C294.942 18.3318 295.793 18.1558 296.555 17.804C297.317 17.4521 297.992 16.9537 298.549 16.3086C299.106 15.6635 299.546 14.8719 299.839 13.9336C300.132 12.9953 300.279 11.9397 300.279 10.7669C300.279 9.56471 300.132 8.50914 299.839 7.57086C299.546 6.63258 299.106 5.84091 298.549 5.19584C297.992 4.55077 297.347 4.05231 296.584 3.70045C295.822 3.3486 294.972 3.17267 294.033 3.17267C293.124 3.17267 292.274 3.3486 291.512 3.70045C290.749 4.05231 290.104 4.55077 289.547 5.19584C288.99 5.84091 288.58 6.63258 288.286 7.57086C287.993 8.50914 287.847 9.56471 287.847 10.7376ZM322.901 5.45973L319.735 6.31005L319.617 6.39801C319.09 5.37176 318.357 4.58009 317.448 4.05231C316.539 3.52453 315.512 3.26063 314.398 3.26063C313.46 3.26063 312.61 3.43656 311.847 3.78842C311.085 4.14027 310.44 4.63873 309.912 5.2838C309.384 5.92887 308.974 6.72054 308.681 7.65882C308.387 8.5971 308.241 9.65267 308.241 10.8255C308.241 11.9984 308.387 13.0539 308.71 13.9922C309.032 14.9305 309.472 15.7222 310.029 16.3672C310.586 17.0123 311.232 17.5108 311.994 17.8626C312.756 18.2145 313.607 18.3904 314.515 18.3904C315.747 18.3904 316.861 18.0679 317.858 17.4228C318.855 16.7777 319.588 15.8688 320.087 14.6959L323.224 15.5169C322.491 17.3642 321.347 18.8302 319.823 19.8858C318.298 20.9414 316.539 21.4398 314.515 21.4398C313.137 21.4398 311.877 21.1759 310.704 20.7068C309.531 20.2083 308.534 19.4753 307.684 18.537C306.833 17.5987 306.188 16.4845 305.719 15.1651C305.25 13.8456 305.015 12.3795 305.015 10.7669C305.015 9.15421 305.25 7.68815 305.719 6.36869C306.188 5.04923 306.863 3.93502 307.713 2.99674C308.563 2.05846 309.56 1.35475 310.704 0.85629C311.847 0.357828 313.108 0.0939368 314.486 0.0939368C316.392 0.0939368 318.063 0.563078 319.529 1.50136C320.995 2.43964 322.11 3.7591 322.901 5.45973ZM338.37 5.45973L335.38 6.28072L335.321 6.54462C335.057 5.43041 334.559 4.58009 333.796 3.99367C333.034 3.40724 332.154 3.11403 331.128 3.11403C330.102 3.11403 329.281 3.3486 328.665 3.84706C328.049 4.34552 327.727 4.99059 327.727 5.78226C327.727 6.22208 327.873 6.60326 328.137 6.95511C328.401 7.30697 328.753 7.6295 329.193 7.92272C329.633 8.21593 330.16 8.47982 330.747 8.71439C331.333 8.94896 331.949 9.18353 332.565 9.44742C333.239 9.71131 333.943 10.0338 334.647 10.3857C335.35 10.7376 335.995 11.1481 336.582 11.6172C337.168 12.0863 337.637 12.6434 338.019 13.2885C338.4 13.9336 338.576 14.6959 338.576 15.6049C338.576 16.4552 338.4 17.2469 338.048 17.9799C337.696 18.7129 337.227 19.358 336.611 19.8858C335.995 20.4136 335.233 20.8241 334.353 21.088C333.474 21.3812 332.506 21.5278 331.451 21.5278C330.395 21.5278 329.457 21.3812 328.606 21.088C327.756 20.8241 327.023 20.4136 326.378 19.8858C325.733 19.358 325.205 18.7129 324.795 17.9799C324.384 17.2469 324.091 16.4259 323.886 15.5462L326.906 14.7252C326.994 15.253 327.17 15.7515 327.434 16.2206C327.697 16.6898 328.02 17.1003 328.401 17.4521C328.782 17.804 329.251 18.0972 329.779 18.3024C330.307 18.5077 330.893 18.5957 331.568 18.5957C332.741 18.5957 333.65 18.3024 334.295 17.7453C334.94 17.1882 335.262 16.4845 335.262 15.6342C335.262 15.0478 335.116 14.5493 334.793 14.1681C334.471 13.787 334.06 13.4351 333.562 13.1419C333.063 12.8487 332.477 12.5555 331.832 12.2916C331.187 12.0277 330.512 11.7638 329.838 11.4706C329.222 11.2067 328.606 10.9135 327.961 10.591C327.316 10.2684 326.73 9.88724 326.202 9.44742C325.674 9.0076 325.234 8.47982 324.912 7.86407C324.589 7.24833 324.413 6.51529 324.413 5.66498C324.413 4.90263 324.589 4.16959 324.912 3.49521C325.234 2.82082 325.704 2.23439 326.29 1.73593C326.876 1.23747 327.61 0.826969 328.46 0.533757C329.31 0.240545 330.248 0.0939368 331.275 0.0939368C332.184 0.0939368 333.034 0.211222 333.796 0.475114C334.559 0.739005 335.262 1.09086 335.878 1.56C336.494 2.02914 337.022 2.58625 337.432 3.26063C337.843 3.93502 338.165 4.66805 338.37 5.45973Z" fill="white"/>
</svg>
