<svg width="388" height="28" viewBox="0 0 388 28" fill="none" xmlns="http://www.w3.org/2000/svg">
<path d="M25.729 1.3085L19.8726 16.2562L13.9846 0.270142L7.74444 16.2204L2.42184 1.3085H0L7.6494 22.2504L13.9258 6.29977L19.8074 22.268L28.1501 1.3085H25.729Z" fill="#FF7300"/>
<path d="M37.5107 11.9483C36.5339 11.15 31.4174 8.49187 30.7592 8.03232C30.1032 7.57427 29.7737 6.90676 29.7737 6.03053C29.7737 5.15318 30.108 4.44094 30.7748 3.89381C31.4416 3.34332 32.2533 3.07162 33.2093 3.07162C33.8258 3.07162 34.3524 3.19014 34.7918 3.43091C35.2298 3.67056 35.6483 4.05966 36.0456 4.59747L36.2562 4.92396C36.3147 4.96608 36.3963 5.06559 36.4958 5.2225L38.2584 4.08873C37.6807 3.07236 36.9591 2.30086 36.0915 1.772C35.2264 1.24499 34.2943 0.980743 33.3003 0.980743C31.6067 0.980743 30.221 1.45743 29.1453 2.41417C28.0712 3.37016 27.5341 4.59747 27.5341 6.09202C27.5341 7.50457 28.0198 8.59586 28.9959 9.36176C29.9731 10.128 34.8418 12.6554 35.5984 13.1734C36.3557 13.6904 36.7325 14.457 36.7325 15.4734C36.7325 16.6288 36.352 17.5881 35.5838 18.3536C34.8164 19.1225 33.8448 19.5046 32.6719 19.5046C31.6369 19.5046 30.7804 19.1863 30.1039 18.5478C29.4264 17.9098 28.9471 16.997 28.6687 15.8014L26.517 16.4596C26.7045 17.2661 26.9784 17.9847 27.3325 18.6104C27.6966 19.2493 28.1469 19.7912 28.6839 20.2362C29.7488 21.124 31.0983 21.5679 32.7326 21.5679C34.465 21.5679 35.9372 20.9734 37.1537 19.7893C38.3672 18.6041 38.9747 17.1554 38.9747 15.4413C38.9747 13.9091 38.4872 12.7433 37.5107 11.9483Z" fill="#FF7300"/>
<path d="M62.5951 10.5778C63.0971 10.4351 63.6301 10.3631 64.1999 10.3631C65.7176 10.3631 66.9468 10.8544 67.8834 11.8357C68.8234 12.8133 69.2948 13.9687 69.2948 15.2996C69.2948 16.2351 69.0697 17.1117 68.6191 17.9309C68.1719 18.7494 67.2997 19.8615 66.0038 21.258L61.897 25.6903H69.5162V27.2843H58.3075L64.6144 20.4739C65.892 19.1019 66.725 18.0867 67.1111 17.4248C67.4976 16.7647 67.6896 16.0663 67.6896 15.3354C67.6896 14.407 67.3441 13.6072 66.6497 12.9389C65.9587 12.271 65.1108 11.9348 64.1071 11.9348C63.5332 11.9348 63.0129 12.0392 62.5429 12.2468C62.585 11.8465 62.6003 10.7269 62.5951 10.5778Z" fill="black"/>
<path d="M50.5384 20.4433C55.5519 20.4433 59.616 16.3357 59.616 11.2688C59.616 6.20184 55.5519 2.09427 50.5384 2.09427C45.525 2.09427 41.4608 6.20184 41.4608 11.2688C41.4608 16.3357 45.525 20.4433 50.5384 20.4433Z" fill="#FF7300"/>
<path d="M50.5388 0C44.2979 0 39.2388 5.04531 39.2388 11.2687C39.2388 17.4922 44.2979 22.5375 50.5388 22.5375C56.7794 22.5375 61.8389 17.4922 61.8389 11.2687C61.8389 5.04531 56.7794 0 50.5388 0ZM50.5388 20.4433C45.5256 20.4433 41.4612 16.3357 41.4612 11.2687C41.4612 6.20182 45.5256 2.09423 50.5388 2.09423C55.5521 2.09423 59.6164 6.20182 59.6164 11.2687C59.6164 16.3357 55.5521 20.4433 50.5388 20.4433Z" fill="black"/>
<path d="M59.586 10.5537L56.2965 10.5616L54.6566 13.5126L50.5643 3.53644L46.8827 11.7315L41.4722 11.7199C41.4938 12.1713 41.5486 12.614 41.6328 13.046L47.7396 13.0591L50.5088 6.89451L54.4762 16.5658L57.0773 11.8854L59.5939 11.8794C59.6069 11.6774 59.6162 11.4739 59.6162 11.2686C59.6162 11.0278 59.6039 10.79 59.586 10.5537Z" fill="white"/>
<path d="M93.2324 21L91.5611 16.3379H82.9406L81.2693 21H77.8974L85.6382 0.475114H88.8342L96.6044 21H93.2324ZM83.9962 13.4938H90.5642L88.1012 6.77919C87.9839 6.45665 87.8666 6.13412 87.7787 5.81158C87.6907 5.48905 87.6027 5.19584 87.5441 4.96127C87.4854 4.7267 87.4268 4.52145 87.3682 4.37484L87.3095 4.14027H87.2509L87.1922 4.37484C87.1336 4.52145 87.0749 4.7267 86.987 4.96127C86.899 5.19584 86.8111 5.48905 86.7231 5.81158C86.6351 6.13412 86.5178 6.45665 86.4006 6.77919L83.9962 13.4938ZM98.5693 0.475114H104.756L104.727 0.504435C105.87 0.504435 106.897 0.651042 107.806 0.973576C108.714 1.29611 109.506 1.73593 110.151 2.32235C110.796 2.90878 111.295 3.61249 111.647 4.43349C111.998 5.25448 112.174 6.19276 112.174 7.219C112.174 8.24525 111.998 9.18353 111.647 10.0045C111.295 10.8255 110.796 11.5292 110.151 12.1157C109.506 12.7021 108.744 13.1419 107.835 13.4351C106.926 13.7283 105.9 13.8749 104.756 13.8749H101.765V21H98.5693V0.475114ZM101.765 10.8842H104.727C106.046 10.8842 107.073 10.5616 107.776 9.91656C108.48 9.27149 108.832 8.36253 108.832 7.219C108.832 6.01683 108.451 5.07855 107.718 4.43349C106.985 3.78842 105.988 3.46588 104.727 3.46588H101.765V10.8842ZM117.608 21H114.412V0.475114H117.608V21ZM142.468 0.475114H145.429L145.282 21.088H142.204V13.3178C142.204 12.2916 142.204 11.324 142.233 10.415C142.262 9.50606 142.292 8.71439 142.321 8.04C142.35 7.36561 142.38 6.83783 142.409 6.45665L142.438 5.87023H142.38L142.204 6.19276C142.086 6.42733 141.94 6.69122 141.764 7.01376C141.588 7.33629 141.412 7.68815 141.236 8.04C141.06 8.39186 140.914 8.71439 140.767 9.0076L137.16 15.8395H135.548L131.941 9.0076C131.795 8.71439 131.648 8.39186 131.472 8.04C131.296 7.68815 131.12 7.33629 130.944 7.01376C130.768 6.69122 130.622 6.39801 130.505 6.16344L130.329 5.81158H130.299L130.329 6.36869C130.358 6.74986 130.387 7.27765 130.417 7.95204C130.446 8.62643 130.475 9.4181 130.505 10.3271C130.534 11.236 130.534 12.2036 130.534 13.2299V21H127.426V0.504435H130.417L134.697 8.47982C135.049 9.12489 135.343 9.65267 135.548 10.0925C135.753 10.5323 135.929 10.8842 136.046 11.1481C136.164 11.4119 136.252 11.5879 136.31 11.7052L136.398 11.8811H136.427L136.515 11.7052C136.574 11.5879 136.662 11.3826 136.779 11.1187C136.897 10.8548 137.073 10.503 137.307 10.0632C137.542 9.62335 137.835 9.09557 138.187 8.4505L142.468 0.475114ZM162.71 21L161.039 16.3379H152.418L150.747 21H147.375L155.116 0.475114H158.312L166.082 21H162.71ZM153.474 13.4938H160.042L157.579 6.77919C157.462 6.45665 157.344 6.13412 157.256 5.81158C157.168 5.48905 157.08 5.19584 157.022 4.96127C156.963 4.7267 156.904 4.52145 156.846 4.37484L156.787 4.14027H156.729L156.67 4.37484C156.611 4.52145 156.553 4.7267 156.465 4.96127C156.377 5.19584 156.289 5.48905 156.201 5.81158C156.113 6.13412 155.995 6.45665 155.878 6.77919L153.474 13.4938ZM180.743 0.475114H183.91L183.822 20.9414H180.919L174.087 10.5616C173.706 10.0045 173.325 9.44742 172.973 8.89032C172.621 8.33321 172.299 7.83475 172.005 7.39493C171.712 6.95511 171.478 6.60326 171.302 6.33937L171.038 5.92887H170.979L171.008 6.39801C171.038 6.72054 171.038 7.16036 171.067 7.71747C171.096 8.27457 171.126 8.94896 171.155 9.71131C171.184 10.4737 171.184 11.2947 171.184 12.2036V20.912H168.018V0.387151H170.92L177.87 10.8842C178.192 11.3533 178.515 11.8518 178.867 12.3795C179.218 12.9073 179.541 13.3765 179.834 13.8163C180.127 14.2561 180.333 14.6373 180.538 14.9012L180.831 15.3117H180.89V14.8132C180.89 14.4907 180.89 14.0509 180.86 13.4938C180.831 12.9367 180.802 12.2916 180.772 11.5586C180.743 10.8255 180.743 10.0338 180.743 9.21285V0.475114ZM201.153 21L199.482 16.3379H190.861L189.19 21H185.818L193.559 0.475114H196.755L204.525 21H201.153ZM191.917 13.4938H198.485L196.022 6.77919C195.904 6.45665 195.787 6.13412 195.699 5.81158C195.611 5.48905 195.523 5.19584 195.465 4.96127C195.406 4.7267 195.347 4.52145 195.289 4.37484L195.23 4.14027H195.171L195.113 4.37484C195.054 4.52145 194.996 4.7267 194.908 4.96127C194.82 5.19584 194.732 5.48905 194.644 5.81158C194.556 6.13412 194.438 6.45665 194.321 6.77919L191.917 13.4938ZM220.74 18.537H220.711H220.681C220.476 18.8302 220.183 19.1528 219.802 19.4753C219.421 19.7978 218.981 20.091 218.453 20.3843C217.925 20.6775 217.339 20.912 216.694 21.0586C216.049 21.2346 215.374 21.3225 214.641 21.3225C213.292 21.3225 212.032 21.0586 210.888 20.5895C209.745 20.091 208.748 19.3873 207.897 18.4784C207.047 17.5694 206.402 16.4552 205.933 15.1357C205.464 13.8163 205.229 12.3502 205.229 10.7376C205.229 9.12489 205.464 7.65882 205.933 6.33937C206.402 5.01991 207.076 3.9057 207.927 2.96742C208.777 2.02914 209.774 1.32543 210.917 0.826969C212.061 0.328507 213.322 0.064616 214.7 0.064616C216.664 0.0939368 218.365 0.592399 219.802 1.53068C221.239 2.46896 222.353 3.78842 223.115 5.45973L219.948 6.31005C219.421 5.2838 218.688 4.49213 217.779 3.96434C216.87 3.43656 215.843 3.17267 214.729 3.17267C213.791 3.17267 212.941 3.3486 212.178 3.70045C211.416 4.05231 210.771 4.55077 210.214 5.19584C209.657 5.84091 209.246 6.63258 208.953 7.57086C208.66 8.50914 208.513 9.56471 208.513 10.7376C208.513 11.9397 208.689 12.9953 209.012 13.9336C209.334 14.8719 209.774 15.6635 210.331 16.3086C210.888 16.9537 211.562 17.4521 212.354 17.804C213.146 18.1558 214.025 18.3318 214.964 18.3318C215.785 18.3318 216.518 18.2145 217.163 17.9799C217.808 17.7453 218.365 17.4521 218.834 17.1003C219.303 16.7484 219.714 16.3379 220.036 15.8981C220.359 15.4583 220.593 15.0185 220.74 14.5786V12.5555H215.433V9.94588H223.467V21H220.74C220.74 20.0324 220.74 19.3873 220.74 19.0648C220.74 18.7423 220.74 18.5663 220.74 18.537ZM229.766 17.9799H239.618V21H226.57V0.475114H239.442V3.49521H229.766V8.861H237.361V11.7052H229.766V17.9799ZM257.181 20.9707H253.603L249.616 13.5524C249.528 13.5817 249.44 13.5817 249.323 13.5817H249.029H246.039V20.9414H242.843V0.416472H249.029C250.173 0.416472 251.199 0.563078 252.108 0.885611C253.017 1.20815 253.809 1.64796 254.454 2.23439C255.099 2.82082 255.597 3.52453 255.949 4.34552C256.301 5.16652 256.477 6.07548 256.477 7.10172C256.477 8.53846 256.154 9.74063 255.48 10.7376C254.806 11.7345 253.867 12.4675 252.665 12.966L257.181 20.9707ZM246.039 10.8255H249.293V10.7962C250.554 10.7962 251.522 10.4443 252.196 9.74063C252.87 9.03692 253.193 8.15729 253.193 7.13104C253.193 6.04615 252.87 5.16652 252.196 4.49213C251.522 3.81774 250.554 3.46588 249.293 3.46588H246.039V10.8255ZM265.679 0.475114H273.156L273.098 0.533757C274.534 0.533757 275.883 0.768326 277.115 1.26679C278.346 1.76525 279.402 2.46896 280.281 3.37792C281.161 4.28688 281.865 5.37176 282.363 6.63258C282.862 7.89339 283.125 9.30082 283.125 10.8548C283.125 12.4089 282.891 13.8163 282.392 15.0771C281.894 16.3379 281.22 17.3935 280.34 18.2731C279.46 19.1528 278.434 19.8271 277.232 20.2963C276.03 20.7654 274.74 21 273.332 21H265.679V0.475114ZM268.905 18.0092H273.479H273.449C274.358 18.0092 275.209 17.8333 276 17.5108C276.792 17.1882 277.466 16.7191 278.053 16.1033C278.639 15.4876 279.079 14.7252 279.402 13.8456C279.724 12.966 279.9 11.9397 279.9 10.7962C279.9 9.62335 279.724 8.56778 279.402 7.65882C279.079 6.74986 278.61 5.98751 278.023 5.37176C277.437 4.75602 276.733 4.28688 275.942 3.96434C275.15 3.64181 274.27 3.46588 273.332 3.46588H268.905V18.0092ZM284.498 10.7669V10.8255C284.498 9.21285 284.733 7.74679 285.202 6.42733C285.671 5.10787 286.345 3.99367 287.196 3.05538C288.046 2.1171 289.043 1.41339 290.187 0.914932C291.33 0.416472 292.591 0.15258 293.969 0.15258C295.347 0.15258 296.608 0.416472 297.781 0.914932C298.954 1.41339 299.98 2.1171 300.83 3.05538C301.68 3.99367 302.355 5.10787 302.824 6.42733C303.293 7.74679 303.528 9.21285 303.528 10.8255C303.528 12.4382 303.293 13.9043 302.824 15.2237C302.355 16.5432 301.68 17.6574 300.83 18.5957C299.98 19.5339 298.983 20.2376 297.81 20.7361C296.637 21.2052 295.376 21.4398 293.998 21.4398C292.62 21.4398 291.359 21.1759 290.187 20.7068C289.014 20.2083 288.017 19.4753 287.166 18.537C286.316 17.5987 285.671 16.4845 285.202 15.1651C284.733 13.8456 284.498 12.3795 284.498 10.7669ZM287.841 10.7376L287.782 10.7669C287.782 11.9397 287.929 12.9953 288.222 13.9336C288.515 14.8719 288.955 15.6635 289.512 16.3086C290.069 16.9537 290.714 17.4521 291.477 17.804C292.239 18.1558 293.089 18.3318 293.998 18.3318C294.937 18.3318 295.787 18.1558 296.549 17.804C297.312 17.4521 297.986 16.9537 298.543 16.3086C299.1 15.6635 299.54 14.8719 299.833 13.9336C300.126 12.9953 300.273 11.9397 300.273 10.7669C300.273 9.56471 300.126 8.50914 299.833 7.57086C299.54 6.63258 299.1 5.84091 298.543 5.19584C297.986 4.55077 297.341 4.05231 296.579 3.70045C295.816 3.3486 294.966 3.17267 294.028 3.17267C293.119 3.17267 292.268 3.3486 291.506 3.70045C290.744 4.05231 290.099 4.55077 289.541 5.19584C288.984 5.84091 288.574 6.63258 288.281 7.57086C287.987 8.50914 287.841 9.56471 287.841 10.7376ZM322.896 5.45973L319.729 6.31005L319.612 6.39801C319.084 5.37176 318.351 4.58009 317.442 4.05231C316.533 3.52453 315.507 3.26063 314.392 3.26063C313.454 3.26063 312.604 3.43656 311.841 3.78842C311.079 4.14027 310.434 4.63873 309.906 5.2838C309.378 5.92887 308.968 6.72054 308.675 7.65882C308.382 8.5971 308.235 9.65267 308.235 10.8255C308.235 11.9984 308.382 13.0539 308.704 13.9922C309.027 14.9305 309.466 15.7222 310.024 16.3672C310.581 17.0123 311.226 17.5108 311.988 17.8626C312.75 18.2145 313.601 18.3904 314.51 18.3904C315.741 18.3904 316.855 18.0679 317.852 17.4228C318.849 16.7777 319.582 15.8688 320.081 14.6959L323.218 15.5169C322.485 17.3642 321.342 18.8302 319.817 19.8858C318.292 20.9414 316.533 21.4398 314.51 21.4398C313.132 21.4398 311.871 21.1759 310.698 20.7068C309.525 20.2083 308.528 19.4753 307.678 18.537C306.828 17.5987 306.182 16.4845 305.713 15.1651C305.244 13.8456 305.01 12.3795 305.01 10.7669C305.01 9.15421 305.244 7.68815 305.713 6.36869C306.182 5.04923 306.857 3.93502 307.707 2.99674C308.557 2.05846 309.554 1.35475 310.698 0.85629C311.841 0.357828 313.102 0.0939368 314.48 0.0939368C316.386 0.0939368 318.058 0.563078 319.524 1.50136C320.99 2.43964 322.104 3.7591 322.896 5.45973ZM338.365 5.45973L335.374 6.28072L335.315 6.54462C335.051 5.43041 334.553 4.58009 333.79 3.99367C333.028 3.40724 332.148 3.11403 331.122 3.11403C330.096 3.11403 329.275 3.3486 328.659 3.84706C328.044 4.34552 327.721 4.99059 327.721 5.78226C327.721 6.22208 327.868 6.60326 328.131 6.95511C328.395 7.30697 328.747 7.6295 329.187 7.92272C329.627 8.21593 330.155 8.47982 330.741 8.71439C331.327 8.94896 331.943 9.18353 332.559 9.44742C333.233 9.71131 333.937 10.0338 334.641 10.3857C335.345 10.7376 335.99 11.1481 336.576 11.6172C337.162 12.0863 337.632 12.6434 338.013 13.2885C338.394 13.9336 338.57 14.6959 338.57 15.6049C338.57 16.4552 338.394 17.2469 338.042 17.9799C337.69 18.7129 337.221 19.358 336.605 19.8858C335.99 20.4136 335.227 20.8241 334.348 21.088C333.468 21.3812 332.5 21.5278 331.445 21.5278C330.389 21.5278 329.451 21.3812 328.601 21.088C327.75 20.8241 327.017 20.4136 326.372 19.8858C325.727 19.358 325.199 18.7129 324.789 17.9799C324.378 17.2469 324.085 16.4259 323.88 15.5462L326.9 14.7252C326.988 15.253 327.164 15.7515 327.428 16.2206C327.692 16.6898 328.014 17.1003 328.395 17.4521C328.777 17.804 329.246 18.0972 329.773 18.3024C330.301 18.5077 330.888 18.5957 331.562 18.5957C332.735 18.5957 333.644 18.3024 334.289 17.7453C334.934 17.1882 335.257 16.4845 335.257 15.6342C335.257 15.0478 335.11 14.5493 334.787 14.1681C334.465 13.787 334.054 13.4351 333.556 13.1419C333.057 12.8487 332.471 12.5555 331.826 12.2916C331.181 12.0277 330.506 11.7638 329.832 11.4706C329.216 11.2067 328.601 10.9135 327.956 10.591C327.31 10.2684 326.724 9.88724 326.196 9.44742C325.668 9.0076 325.229 8.47982 324.906 7.86407C324.584 7.24833 324.408 6.51529 324.408 5.66498C324.408 4.90263 324.584 4.16959 324.906 3.49521C325.229 2.82082 325.698 2.23439 326.284 1.73593C326.871 1.23747 327.604 0.826969 328.454 0.533757C329.304 0.240545 330.243 0.0939368 331.269 0.0939368C332.178 0.0939368 333.028 0.211222 333.79 0.475114C334.553 0.739005 335.257 1.09086 335.872 1.56C336.488 2.02914 337.016 2.58625 337.426 3.26063C337.837 3.93502 338.159 4.66805 338.365 5.45973Z" fill="black"/>
</svg>
