<svg width="644" height="28" viewBox="0 0 644 28" fill="none" xmlns="http://www.w3.org/2000/svg">
<path d="M25.729 1.3085L19.8726 16.2562L13.9846 0.270142L7.74444 16.2204L2.42184 1.3085H0L7.6494 22.2504L13.9258 6.29977L19.8074 22.268L28.15 1.3085H25.729Z" fill="#FF7300"/>
<path d="M37.5107 11.9483C36.5339 11.15 31.4174 8.49184 30.7592 8.03229C30.1032 7.57424 29.7737 6.90673 29.7737 6.0305C29.7737 5.15315 30.108 4.44091 30.7748 3.89378C31.4416 3.34329 32.2533 3.07159 33.2093 3.07159C33.8258 3.07159 34.3524 3.19011 34.7918 3.43088C35.2298 3.67053 35.6483 4.05963 36.0456 4.59744L36.2562 4.92393C36.3147 4.96605 36.3963 5.06556 36.4958 5.22247L38.2584 4.0887C37.6807 3.07233 36.9591 2.30083 36.0915 1.77197C35.2264 1.24496 34.2943 0.980713 33.3003 0.980713C31.6067 0.980713 30.221 1.4574 29.1453 2.41414C28.0712 3.37012 27.5341 4.59744 27.5341 6.09199C27.5341 7.50454 28.0198 8.59583 28.9959 9.36173C29.9731 10.128 34.8418 12.6553 35.5984 13.1734C36.3557 13.6903 36.7325 14.457 36.7325 15.4734C36.7325 16.6287 36.352 17.5881 35.5838 18.3536C34.8164 19.1225 33.8448 19.5045 32.6719 19.5045C31.6369 19.5045 30.7804 19.1862 30.1039 18.5478C29.4264 17.9097 28.9471 16.997 28.6687 15.8013L26.517 16.4595C26.7045 17.2661 26.9784 17.9846 27.3325 18.6104C27.6966 19.2492 28.1469 19.7911 28.6839 20.2362C29.7488 21.1239 31.0983 21.5678 32.7326 21.5678C34.465 21.5678 35.9372 20.9734 37.1537 19.7893C38.3672 18.6041 38.9747 17.1554 38.9747 15.4413C38.9747 13.9091 38.4872 12.7433 37.5107 11.9483Z" fill="#FF7300"/>
<path d="M62.5951 10.5778C63.0971 10.4351 63.6301 10.3632 64.1999 10.3632C65.7176 10.3632 66.9468 10.8544 67.8834 11.8357C68.8234 12.8133 69.2948 13.9687 69.2948 15.2996C69.2948 16.2351 69.0697 17.1117 68.6191 17.9309C68.1719 18.7494 67.2997 19.8616 66.0038 21.2581L61.897 25.6903H69.5162V27.2843H58.3075L64.6144 20.4739C65.892 19.102 66.725 18.0867 67.1111 17.4248C67.4976 16.7647 67.6896 16.0663 67.6896 15.3354C67.6896 14.407 67.3441 13.6072 66.6497 12.9389C65.9587 12.271 65.1108 11.9349 64.1071 11.9349C63.5332 11.9349 63.0129 12.0392 62.5429 12.2468C62.585 11.8465 62.6003 10.7269 62.5951 10.5778Z" fill="black"/>
<path d="M50.5384 20.4433C55.5519 20.4433 59.616 16.3357 59.616 11.2687C59.616 6.20181 55.5519 2.09424 50.5384 2.09424C45.525 2.09424 41.4608 6.20181 41.4608 11.2687C41.4608 16.3357 45.525 20.4433 50.5384 20.4433Z" fill="#FF7300"/>
<path d="M50.5388 0C44.2979 0 39.2388 5.04531 39.2388 11.2687C39.2388 17.4922 44.2979 22.5375 50.5388 22.5375C56.7794 22.5375 61.8389 17.4922 61.8389 11.2687C61.8389 5.04531 56.7794 0 50.5388 0ZM50.5388 20.4433C45.5256 20.4433 41.4612 16.3357 41.4612 11.2687C41.4612 6.20182 45.5256 2.09423 50.5388 2.09423C55.5521 2.09423 59.6164 6.20182 59.6164 11.2687C59.6164 16.3357 55.5521 20.4433 50.5388 20.4433Z" fill="black"/>
<path d="M59.586 10.5537L56.2965 10.5616L54.6566 13.5126L50.5643 3.53644L46.8827 11.7315L41.4722 11.7199C41.4938 12.1713 41.5486 12.614 41.6328 13.046L47.7396 13.0591L50.5088 6.89451L54.4762 16.5658L57.0773 11.8854L59.5939 11.8794C59.6069 11.6774 59.6162 11.4739 59.6162 11.2686C59.6162 11.0278 59.6039 10.79 59.586 10.5537Z" fill="white"/>
<path d="M83.1166 17.9799H92.9685V21H79.9206V0.475114H92.7926V3.49521H83.1166V8.861H90.7108V11.7052H83.1166V17.9799ZM108.889 0.475114H112.056L111.968 20.9414H109.065L102.233 10.5616C101.852 10.0045 101.471 9.44742 101.119 8.89032C100.767 8.33321 100.444 7.83475 100.151 7.39493C99.8579 6.95511 99.6233 6.60326 99.4474 6.33937L99.1835 5.92887H99.1248L99.1542 6.39801C99.1835 6.72054 99.1835 7.16036 99.2128 7.71747C99.2421 8.27457 99.2714 8.94896 99.3008 9.71131C99.3301 10.4737 99.3301 11.2947 99.3301 12.2036V20.912H96.1634V0.387151H99.0662L106.015 10.8842C106.338 11.3533 106.66 11.8518 107.012 12.3795C107.364 12.9073 107.687 13.3765 107.98 13.8163C108.273 14.2561 108.478 14.6373 108.684 14.9012L108.977 15.3117H109.035V14.8132C109.035 14.4907 109.035 14.0509 109.006 13.4938C108.977 12.9367 108.947 12.2916 108.918 11.5586C108.889 10.8255 108.889 10.0338 108.889 9.21285V0.475114ZM114.081 0.475114H129.416V3.49521H123.317V21H120.121V3.49521H114.081V0.475114ZM134.625 17.9799H144.477V21H131.429V0.475114H144.301V3.49521H134.625V8.861H142.219V11.7052H134.625V17.9799ZM162.039 20.9707H158.462L154.474 13.5524C154.386 13.5817 154.298 13.5817 154.181 13.5817H153.888H150.897V20.9414H147.701V0.416472H153.888C155.031 0.416472 156.057 0.563078 156.966 0.885611C157.875 1.20815 158.667 1.64796 159.312 2.23439C159.957 2.82082 160.456 3.52453 160.807 4.34552C161.159 5.16652 161.335 6.07548 161.335 7.10172C161.335 8.53846 161.013 9.74063 160.338 10.7376C159.664 11.7345 158.726 12.4675 157.523 12.966L162.039 20.9707ZM150.897 10.8255H154.151V10.7962C155.412 10.7962 156.38 10.4443 157.054 9.74063C157.729 9.03692 158.051 8.15729 158.051 7.13104C158.051 6.04615 157.729 5.16652 157.054 4.49213C156.38 3.81774 155.412 3.46588 154.151 3.46588H150.897V10.8255ZM164.603 0.475114H170.79L170.76 0.504435C171.904 0.504435 172.93 0.651042 173.839 0.973576C174.748 1.29611 175.54 1.73593 176.185 2.32235C176.83 2.90878 177.328 3.61249 177.68 4.43349C178.032 5.25448 178.208 6.19276 178.208 7.219C178.208 8.24525 178.032 9.18353 177.68 10.0045C177.328 10.8255 176.83 11.5292 176.185 12.1157C175.54 12.7021 174.777 13.1419 173.868 13.4351C172.959 13.7283 171.933 13.8749 170.79 13.8749H167.799V21H164.603V0.475114ZM167.799 10.8842H170.76C172.08 10.8842 173.106 10.5616 173.81 9.91656C174.513 9.27149 174.865 8.36253 174.865 7.219C174.865 6.01683 174.484 5.07855 173.751 4.43349C173.018 3.78842 172.021 3.46588 170.76 3.46588H167.799V10.8842ZM194.784 20.9707H191.206L187.219 13.5524C187.131 13.5817 187.043 13.5817 186.926 13.5817H186.632H183.642V20.9414H180.446V0.416472H186.632C187.776 0.416472 188.802 0.563078 189.711 0.885611C190.62 1.20815 191.412 1.64796 192.057 2.23439C192.702 2.82082 193.2 3.52453 193.552 4.34552C193.904 5.16652 194.08 6.07548 194.08 7.10172C194.08 8.53846 193.757 9.74063 193.083 10.7376C192.409 11.7345 191.47 12.4675 190.268 12.966L194.784 20.9707ZM183.642 10.8255H186.896V10.7962C188.157 10.7962 189.125 10.4443 189.799 9.74063C190.473 9.03692 190.796 8.15729 190.796 7.13104C190.796 6.04615 190.473 5.16652 189.799 4.49213C189.125 3.81774 188.157 3.46588 186.896 3.46588H183.642V10.8255ZM200.544 21H197.348V0.475114H200.544V21ZM217.387 5.45973L214.396 6.28072L214.337 6.54462C214.074 5.43041 213.575 4.58009 212.813 3.99367C212.05 3.40724 211.171 3.11403 210.145 3.11403C209.118 3.11403 208.297 3.3486 207.682 3.84706C207.066 4.34552 206.743 4.99059 206.743 5.78226C206.743 6.22208 206.89 6.60326 207.154 6.95511C207.418 7.30697 207.77 7.6295 208.209 7.92272C208.649 8.21593 209.177 8.47982 209.763 8.71439C210.35 8.94896 210.966 9.18353 211.581 9.44742C212.256 9.71131 212.959 10.0338 213.663 10.3857C214.367 10.7376 215.012 11.1481 215.598 11.6172C216.185 12.0863 216.654 12.6434 217.035 13.2885C217.416 13.9336 217.592 14.6959 217.592 15.6049C217.592 16.4552 217.416 17.2469 217.064 17.9799C216.713 18.7129 216.243 19.358 215.628 19.8858C215.012 20.4136 214.25 20.8241 213.37 21.088C212.49 21.3812 211.523 21.5278 210.467 21.5278C209.412 21.5278 208.473 21.3812 207.623 21.088C206.773 20.8241 206.04 20.4136 205.394 19.8858C204.749 19.358 204.222 18.7129 203.811 17.9799C203.401 17.2469 203.107 16.4259 202.902 15.5462L205.922 14.7252C206.01 15.253 206.186 15.7515 206.45 16.2206C206.714 16.6898 207.036 17.1003 207.418 17.4521C207.799 17.804 208.268 18.0972 208.796 18.3024C209.324 18.5077 209.91 18.5957 210.584 18.5957C211.757 18.5957 212.666 18.3024 213.311 17.7453C213.956 17.1882 214.279 16.4845 214.279 15.6342C214.279 15.0478 214.132 14.5493 213.81 14.1681C213.487 13.787 213.077 13.4351 212.578 13.1419C212.08 12.8487 211.493 12.5555 210.848 12.2916C210.203 12.0277 209.529 11.7638 208.854 11.4706C208.239 11.2067 207.623 10.9135 206.978 10.591C206.333 10.2684 205.746 9.88724 205.219 9.44742C204.691 9.0076 204.251 8.47982 203.928 7.86407C203.606 7.24833 203.43 6.51529 203.43 5.66498C203.43 4.90263 203.606 4.16959 203.928 3.49521C204.251 2.82082 204.72 2.23439 205.307 1.73593C205.893 1.23747 206.626 0.826969 207.476 0.533757C208.327 0.240545 209.265 0.0939368 210.291 0.0939368C211.2 0.0939368 212.05 0.211222 212.813 0.475114C213.575 0.739005 214.279 1.09086 214.895 1.56C215.51 2.02914 216.038 2.58625 216.449 3.26063C216.859 3.93502 217.182 4.66805 217.387 5.45973ZM223.238 17.9799H233.09V21H220.042V0.475114H232.914V3.49521H223.238V8.861H230.832V11.7052H223.238V17.9799ZM245.474 21H242.278V0.475114H245.474V21ZM262.112 0.475114H265.279L265.191 20.9414H262.288L255.456 10.5616C255.075 10.0045 254.694 9.44742 254.342 8.89032C253.99 8.33321 253.667 7.83475 253.374 7.39493C253.081 6.95511 252.846 6.60326 252.67 6.33937L252.407 5.92887H252.348L252.377 6.39801C252.407 6.72054 252.407 7.16036 252.436 7.71747C252.465 8.27457 252.495 8.94896 252.524 9.71131C252.553 10.4737 252.553 11.2947 252.553 12.2036V20.912H249.386V0.387151H252.289L259.238 10.8842C259.561 11.3533 259.883 11.8518 260.235 12.3795C260.587 12.9073 260.91 13.3765 261.203 13.8163C261.496 14.2561 261.701 14.6373 261.907 14.9012L262.2 15.3117H262.259V14.8132C262.259 14.4907 262.259 14.0509 262.229 13.4938C262.2 12.9367 262.171 12.2916 262.141 11.5586C262.112 10.8255 262.112 10.0338 262.112 9.21285V0.475114ZM267.304 0.475114H282.639V3.49521H276.54V21H273.344V3.49521H267.304V0.475114ZM287.848 17.9799H297.7V21H284.652V0.475114H297.524V3.49521H287.848V8.861H295.442V11.7052H287.848V17.9799ZM315.174 18.537H315.145H315.115C314.91 18.8302 314.617 19.1528 314.236 19.4753C313.855 19.7978 313.415 20.091 312.887 20.3843C312.359 20.6775 311.773 20.912 311.128 21.0586C310.483 21.2346 309.808 21.3225 309.075 21.3225C307.726 21.3225 306.466 21.0586 305.322 20.5895C304.179 20.091 303.182 19.3873 302.331 18.4784C301.481 17.5694 300.836 16.4552 300.367 15.1357C299.898 13.8163 299.663 12.3502 299.663 10.7376C299.663 9.12489 299.898 7.65882 300.367 6.33937C300.836 5.01991 301.51 3.9057 302.361 2.96742C303.211 2.02914 304.208 1.32543 305.351 0.826969C306.495 0.328507 307.756 0.064616 309.134 0.064616C311.098 0.0939368 312.799 0.592399 314.236 1.53068C315.672 2.46896 316.787 3.78842 317.549 5.45973L314.382 6.31005C313.855 5.2838 313.122 4.49213 312.213 3.96434C311.304 3.43656 310.277 3.17267 309.163 3.17267C308.225 3.17267 307.375 3.3486 306.612 3.70045C305.85 4.05231 305.205 4.55077 304.648 5.19584C304.091 5.84091 303.68 6.63258 303.387 7.57086C303.094 8.50914 302.947 9.56471 302.947 10.7376C302.947 11.9397 303.123 12.9953 303.445 13.9336C303.768 14.8719 304.208 15.6635 304.765 16.3086C305.322 16.9537 305.996 17.4521 306.788 17.804C307.58 18.1558 308.459 18.3318 309.398 18.3318C310.219 18.3318 310.952 18.2145 311.597 17.9799C312.242 17.7453 312.799 17.4521 313.268 17.1003C313.737 16.7484 314.148 16.3379 314.47 15.8981C314.793 15.4583 315.027 15.0185 315.174 14.5786V12.5555H309.867V9.94588H317.901V21H315.174C315.174 20.0324 315.174 19.3873 315.174 19.0648C315.174 18.7423 315.174 18.5663 315.174 18.537ZM335.342 20.9707H331.765L327.778 13.5524C327.69 13.5817 327.602 13.5817 327.484 13.5817H327.191H324.2V20.9414H321.004V0.416472H327.191C328.335 0.416472 329.361 0.563078 330.27 0.885611C331.179 1.20815 331.97 1.64796 332.616 2.23439C333.261 2.82082 333.759 3.52453 334.111 4.34552C334.463 5.16652 334.639 6.07548 334.639 7.10172C334.639 8.53846 334.316 9.74063 333.642 10.7376C332.967 11.7345 332.029 12.4675 330.827 12.966L335.342 20.9707ZM324.2 10.8255H327.455V10.7962C328.716 10.7962 329.683 10.4443 330.358 9.74063C331.032 9.03692 331.355 8.15729 331.355 7.13104C331.355 6.04615 331.032 5.16652 330.358 4.49213C329.683 3.81774 328.716 3.46588 327.455 3.46588H324.2V10.8255ZM351.218 21L349.547 16.3379H340.927L339.255 21H335.883L343.624 0.475114H346.82L354.59 21H351.218ZM341.982 13.4938H348.55L346.087 6.77919C345.97 6.45665 345.853 6.13412 345.765 5.81158C345.677 5.48905 345.589 5.19584 345.53 4.96127C345.471 4.7267 345.413 4.52145 345.354 4.37484L345.295 4.14027H345.237L345.178 4.37484C345.119 4.52145 345.061 4.7267 344.973 4.96127C344.885 5.19584 344.797 5.48905 344.709 5.81158C344.621 6.13412 344.504 6.45665 344.386 6.77919L341.982 13.4938ZM354.649 0.475114H369.984V3.49521H363.886V21H360.69V3.49521H354.649V0.475114ZM370.678 10.7669V10.8255C370.678 9.21285 370.912 7.74679 371.381 6.42733C371.85 5.10787 372.525 3.99367 373.375 3.05538C374.225 2.1171 375.222 1.41339 376.366 0.914932C377.509 0.416472 378.77 0.15258 380.148 0.15258C381.526 0.15258 382.787 0.416472 383.96 0.914932C385.133 1.41339 386.159 2.1171 387.009 3.05538C387.86 3.99367 388.534 5.10787 389.003 6.42733C389.472 7.74679 389.707 9.21285 389.707 10.8255C389.707 12.4382 389.472 13.9043 389.003 15.2237C388.534 16.5432 387.86 17.6574 387.009 18.5957C386.159 19.5339 385.162 20.2376 383.989 20.7361C382.817 21.2052 381.556 21.4398 380.178 21.4398C378.8 21.4398 377.539 21.1759 376.366 20.7068C375.193 20.2083 374.196 19.4753 373.346 18.537C372.495 17.5987 371.85 16.4845 371.381 15.1651C370.912 13.8456 370.678 12.3795 370.678 10.7669ZM374.02 10.7376L373.962 10.7669C373.962 11.9397 374.108 12.9953 374.401 13.9336C374.695 14.8719 375.134 15.6635 375.691 16.3086C376.249 16.9537 376.894 17.4521 377.656 17.804C378.418 18.1558 379.269 18.3318 380.178 18.3318C381.116 18.3318 381.966 18.1558 382.729 17.804C383.491 17.4521 384.165 16.9537 384.722 16.3086C385.28 15.6635 385.719 14.8719 386.013 13.9336C386.306 12.9953 386.452 11.9397 386.452 10.7669C386.452 9.56471 386.306 8.50914 386.013 7.57086C385.719 6.63258 385.28 5.84091 384.722 5.19584C384.165 4.55077 383.52 4.05231 382.758 3.70045C381.996 3.3486 381.145 3.17267 380.207 3.17267C379.298 3.17267 378.448 3.3486 377.685 3.70045C376.923 4.05231 376.278 4.55077 375.721 5.19584C375.164 5.84091 374.753 6.63258 374.46 7.57086C374.167 8.50914 374.02 9.56471 374.02 10.7376ZM406.788 20.9707H403.211L399.223 13.5524C399.135 13.5817 399.047 13.5817 398.93 13.5817H398.637H395.646V20.9414H392.45V0.416472H398.637C399.78 0.416472 400.806 0.563078 401.715 0.885611C402.624 1.20815 403.416 1.64796 404.061 2.23439C404.706 2.82082 405.204 3.52453 405.556 4.34552C405.908 5.16652 406.084 6.07548 406.084 7.10172C406.084 8.53846 405.762 9.74063 405.087 10.7376C404.413 11.7345 403.475 12.4675 402.272 12.966L406.788 20.9707ZM395.646 10.8255H398.9V10.7962C400.161 10.7962 401.129 10.4443 401.803 9.74063C402.478 9.03692 402.8 8.15729 402.8 7.13104C402.8 6.04615 402.478 5.16652 401.803 4.49213C401.129 3.81774 400.161 3.46588 398.9 3.46588H395.646V10.8255ZM430.27 0.475114H433.231L433.084 21.088H430.006V13.3178C430.006 12.2916 430.006 11.324 430.035 10.415C430.064 9.50606 430.094 8.71439 430.123 8.04C430.152 7.36561 430.182 6.83783 430.211 6.45665L430.24 5.87023H430.182L430.006 6.19276C429.888 6.42733 429.742 6.69122 429.566 7.01376C429.39 7.33629 429.214 7.68815 429.038 8.04C428.862 8.39186 428.716 8.71439 428.569 9.0076L424.962 15.8395H423.35L419.743 9.0076C419.597 8.71439 419.45 8.39186 419.274 8.04C419.098 7.68815 418.922 7.33629 418.746 7.01376C418.57 6.69122 418.424 6.39801 418.306 6.16344L418.131 5.81158H418.101L418.131 6.36869C418.16 6.74986 418.189 7.27765 418.219 7.95204C418.248 8.62643 418.277 9.4181 418.306 10.3271C418.336 11.236 418.336 12.2036 418.336 13.2299V21H415.228V0.504435H418.219L422.499 8.47982C422.851 9.12489 423.145 9.65267 423.35 10.0925C423.555 10.5323 423.731 10.8842 423.848 11.1481C423.966 11.4119 424.053 11.5879 424.112 11.7052L424.2 11.8811H424.229L424.317 11.7052C424.376 11.5879 424.464 11.3826 424.581 11.1187C424.699 10.8548 424.874 10.503 425.109 10.0632C425.344 9.62335 425.637 9.09557 425.989 8.4505L430.27 0.475114ZM440.396 21H437.2V0.475114H440.396V21ZM458.588 18.537H458.559H458.53C458.324 18.8302 458.031 19.1528 457.65 19.4753C457.269 19.7978 456.829 20.091 456.301 20.3843C455.773 20.6775 455.187 20.912 454.542 21.0586C453.897 21.2346 453.222 21.3225 452.489 21.3225C451.141 21.3225 449.88 21.0586 448.736 20.5895C447.593 20.091 446.596 19.3873 445.745 18.4784C444.895 17.5694 444.25 16.4552 443.781 15.1357C443.312 13.8163 443.077 12.3502 443.077 10.7376C443.077 9.12489 443.312 7.65882 443.781 6.33937C444.25 5.01991 444.924 3.9057 445.775 2.96742C446.625 2.02914 447.622 1.32543 448.766 0.826969C449.909 0.328507 451.17 0.064616 452.548 0.064616C454.513 0.0939368 456.213 0.592399 457.65 1.53068C459.087 2.46896 460.201 3.78842 460.963 5.45973L457.797 6.31005C457.269 5.2838 456.536 4.49213 455.627 3.96434C454.718 3.43656 453.692 3.17267 452.577 3.17267C451.639 3.17267 450.789 3.3486 450.026 3.70045C449.264 4.05231 448.619 4.55077 448.062 5.19584C447.505 5.84091 447.094 6.63258 446.801 7.57086C446.508 8.50914 446.361 9.56471 446.361 10.7376C446.361 11.9397 446.537 12.9953 446.86 13.9336C447.182 14.8719 447.622 15.6635 448.179 16.3086C448.736 16.9537 449.411 17.4521 450.202 17.804C450.994 18.1558 451.874 18.3318 452.812 18.3318C453.633 18.3318 454.366 18.2145 455.011 17.9799C455.656 17.7453 456.213 17.4521 456.682 17.1003C457.151 16.7484 457.562 16.3379 457.884 15.8981C458.207 15.4583 458.442 15.0185 458.588 14.5786V12.5555H453.281V9.94588H461.315V21H458.588C458.588 20.0324 458.588 19.3873 458.588 19.0648C458.588 18.7423 458.588 18.5663 458.588 18.537ZM478.757 20.9707H475.179L471.192 13.5524C471.104 13.5817 471.016 13.5817 470.899 13.5817H470.605H467.615V20.9414H464.419V0.416472H470.605C471.749 0.416472 472.775 0.563078 473.684 0.885611C474.593 1.20815 475.385 1.64796 476.03 2.23439C476.675 2.82082 477.173 3.52453 477.525 4.34552C477.877 5.16652 478.053 6.07548 478.053 7.10172C478.053 8.53846 477.73 9.74063 477.056 10.7376C476.382 11.7345 475.443 12.4675 474.241 12.966L478.757 20.9707ZM467.615 10.8255H470.869V10.7962C472.13 10.7962 473.098 10.4443 473.772 9.74063C474.446 9.03692 474.769 8.15729 474.769 7.13104C474.769 6.04615 474.446 5.16652 473.772 4.49213C473.098 3.81774 472.13 3.46588 470.869 3.46588H467.615V10.8255ZM494.632 21L492.961 16.3379H484.341L482.669 21H479.297L487.038 0.475114H490.234L498.004 21H494.632ZM485.396 13.4938H491.964L489.501 6.77919C489.384 6.45665 489.267 6.13412 489.179 5.81158C489.091 5.48905 489.003 5.19584 488.944 4.96127C488.886 4.7267 488.827 4.52145 488.768 4.37484L488.71 4.14027H488.651L488.592 4.37484C488.534 4.52145 488.475 4.7267 488.387 4.96127C488.299 5.19584 488.211 5.48905 488.123 5.81158C488.035 6.13412 487.918 6.45665 487.801 6.77919L485.396 13.4938ZM498.064 0.475114H513.399V3.49521H507.3V21H504.104V3.49521H498.064V0.475114ZM518.607 21H515.411V0.475114H518.607V21ZM521.23 10.7669V10.8255C521.23 9.21285 521.464 7.74679 521.933 6.42733C522.402 5.10787 523.077 3.99367 523.927 3.05538C524.778 2.1171 525.774 1.41339 526.918 0.914932C528.061 0.416472 529.322 0.15258 530.7 0.15258C532.079 0.15258 533.339 0.416472 534.512 0.914932C535.685 1.41339 536.711 2.1171 537.562 3.05538C538.412 3.99367 539.086 5.10787 539.555 6.42733C540.025 7.74679 540.259 9.21285 540.259 10.8255C540.259 12.4382 540.025 13.9043 539.555 15.2237C539.086 16.5432 538.412 17.6574 537.562 18.5957C536.711 19.5339 535.714 20.2376 534.541 20.7361C533.369 21.2052 532.108 21.4398 530.73 21.4398C529.352 21.4398 528.091 21.1759 526.918 20.7068C525.745 20.2083 524.748 19.4753 523.898 18.537C523.048 17.5987 522.402 16.4845 521.933 15.1651C521.464 13.8456 521.23 12.3795 521.23 10.7669ZM524.572 10.7376L524.514 10.7669C524.514 11.9397 524.66 12.9953 524.953 13.9336C525.247 14.8719 525.686 15.6635 526.244 16.3086C526.801 16.9537 527.446 17.4521 528.208 17.804C528.97 18.1558 529.821 18.3318 530.73 18.3318C531.668 18.3318 532.518 18.1558 533.281 17.804C534.043 17.4521 534.717 16.9537 535.275 16.3086C535.832 15.6635 536.271 14.8719 536.565 13.9336C536.858 12.9953 537.004 11.9397 537.004 10.7669C537.004 9.56471 536.858 8.50914 536.565 7.57086C536.271 6.63258 535.832 5.84091 535.275 5.19584C534.717 4.55077 534.072 4.05231 533.31 3.70045C532.548 3.3486 531.697 3.17267 530.759 3.17267C529.85 3.17267 529 3.3486 528.237 3.70045C527.475 4.05231 526.83 4.55077 526.273 5.19584C525.716 5.84091 525.305 6.63258 525.012 7.57086C524.719 8.50914 524.572 9.56471 524.572 10.7376ZM555.698 0.475114H558.865L558.777 20.9414H555.874L549.042 10.5616C548.661 10.0045 548.28 9.44742 547.928 8.89032C547.576 8.33321 547.253 7.83475 546.96 7.39493C546.667 6.95511 546.432 6.60326 546.256 6.33937L545.993 5.92887H545.934L545.963 6.39801C545.993 6.72054 545.993 7.16036 546.022 7.71747C546.051 8.27457 546.081 8.94896 546.11 9.71131C546.139 10.4737 546.139 11.2947 546.139 12.2036V20.912H542.973V0.387151H545.875L552.824 10.8842C553.147 11.3533 553.47 11.8518 553.821 12.3795C554.173 12.9073 554.496 13.3765 554.789 13.8163C555.082 14.2561 555.287 14.6373 555.493 14.9012L555.786 15.3117H555.845V14.8132C555.845 14.4907 555.845 14.0509 555.815 13.4938C555.786 12.9367 555.757 12.2916 555.727 11.5586C555.698 10.8255 555.698 10.0338 555.698 9.21285V0.475114ZM568.731 0.475114H576.207L576.149 0.533757C577.586 0.533757 578.934 0.768326 580.166 1.26679C581.397 1.76525 582.453 2.46896 583.333 3.37792C584.212 4.28688 584.916 5.37176 585.414 6.63258C585.913 7.89339 586.177 9.30082 586.177 10.8548C586.177 12.4089 585.942 13.8163 585.444 15.0771C584.945 16.3379 584.271 17.3935 583.391 18.2731C582.512 19.1528 581.485 19.8271 580.283 20.2963C579.081 20.7654 577.791 21 576.383 21H568.731V0.475114ZM571.956 18.0092H576.53H576.501C577.41 18.0092 578.26 17.8333 579.052 17.5108C579.843 17.1882 580.518 16.7191 581.104 16.1033C581.691 15.4876 582.13 14.7252 582.453 13.8456C582.775 12.966 582.951 11.9397 582.951 10.7962C582.951 9.62335 582.775 8.56778 582.453 7.65882C582.13 6.74986 581.661 5.98751 581.075 5.37176C580.488 4.75602 579.785 4.28688 578.993 3.96434C578.201 3.64181 577.322 3.46588 576.383 3.46588H571.956V18.0092ZM587.55 10.7669V10.8255C587.55 9.21285 587.784 7.74679 588.253 6.42733C588.722 5.10787 589.397 3.99367 590.247 3.05538C591.097 2.1171 592.094 1.41339 593.238 0.914932C594.381 0.416472 595.642 0.15258 597.02 0.15258C598.398 0.15258 599.659 0.416472 600.832 0.914932C602.005 1.41339 603.031 2.1171 603.881 3.05538C604.732 3.99367 605.406 5.10787 605.875 6.42733C606.344 7.74679 606.579 9.21285 606.579 10.8255C606.579 12.4382 606.344 13.9043 605.875 15.2237C605.406 16.5432 604.732 17.6574 603.881 18.5957C603.031 19.5339 602.034 20.2376 600.861 20.7361C599.689 21.2052 598.428 21.4398 597.05 21.4398C595.672 21.4398 594.411 21.1759 593.238 20.7068C592.065 20.2083 591.068 19.4753 590.218 18.537C589.367 17.5987 588.722 16.4845 588.253 15.1651C587.784 13.8456 587.55 12.3795 587.55 10.7669ZM590.892 10.7376L590.834 10.7669C590.834 11.9397 590.98 12.9953 591.273 13.9336C591.567 14.8719 592.006 15.6635 592.563 16.3086C593.121 16.9537 593.766 17.4521 594.528 17.804C595.29 18.1558 596.141 18.3318 597.05 18.3318C597.988 18.3318 598.838 18.1558 599.601 17.804C600.363 17.4521 601.037 16.9537 601.594 16.3086C602.152 15.6635 602.591 14.8719 602.885 13.9336C603.178 12.9953 603.324 11.9397 603.324 10.7669C603.324 9.56471 603.178 8.50914 602.885 7.57086C602.591 6.63258 602.152 5.84091 601.594 5.19584C601.037 4.55077 600.392 4.05231 599.63 3.70045C598.868 3.3486 598.017 3.17267 597.079 3.17267C596.17 3.17267 595.32 3.3486 594.557 3.70045C593.795 4.05231 593.15 4.55077 592.593 5.19584C592.036 5.84091 591.625 6.63258 591.332 7.57086C591.039 8.50914 590.892 9.56471 590.892 10.7376ZM625.947 5.45973L622.78 6.31005L622.663 6.39801C622.135 5.37176 621.402 4.58009 620.493 4.05231C619.584 3.52453 618.558 3.26063 617.444 3.26063C616.505 3.26063 615.655 3.43656 614.893 3.78842C614.13 4.14027 613.485 4.63873 612.958 5.2838C612.43 5.92887 612.019 6.72054 611.726 7.65882C611.433 8.5971 611.286 9.65267 611.286 10.8255C611.286 11.9984 611.433 13.0539 611.755 13.9922C612.078 14.9305 612.518 15.7222 613.075 16.3672C613.632 17.0123 614.277 17.5108 615.039 17.8626C615.802 18.2145 616.652 18.3904 617.561 18.3904C618.793 18.3904 619.907 18.0679 620.904 17.4228C621.901 16.7777 622.634 15.8688 623.132 14.6959L626.269 15.5169C625.536 17.3642 624.393 18.8302 622.868 19.8858C621.343 20.9414 619.584 21.4398 617.561 21.4398C616.183 21.4398 614.922 21.1759 613.749 20.7068C612.576 20.2083 611.579 19.4753 610.729 18.537C609.879 17.5987 609.234 16.4845 608.765 15.1651C608.295 13.8456 608.061 12.3795 608.061 10.7669C608.061 9.15421 608.295 7.68815 608.765 6.36869C609.234 5.04923 609.908 3.93502 610.758 2.99674C611.609 2.05846 612.606 1.35475 613.749 0.85629C614.893 0.357828 616.154 0.0939368 617.532 0.0939368C619.438 0.0939368 621.109 0.563078 622.575 1.50136C624.041 2.43964 625.155 3.7591 625.947 5.45973ZM641.416 5.45973L638.425 6.28072L638.366 6.54462C638.103 5.43041 637.604 4.58009 636.842 3.99367C636.079 3.40724 635.2 3.11403 634.174 3.11403C633.147 3.11403 632.326 3.3486 631.711 3.84706C631.095 4.34552 630.772 4.99059 630.772 5.78226C630.772 6.22208 630.919 6.60326 631.183 6.95511C631.447 7.30697 631.799 7.6295 632.238 7.92272C632.678 8.21593 633.206 8.47982 633.792 8.71439C634.379 8.94896 634.995 9.18353 635.61 9.44742C636.285 9.71131 636.988 10.0338 637.692 10.3857C638.396 10.7376 639.041 11.1481 639.627 11.6172C640.214 12.0863 640.683 12.6434 641.064 13.2885C641.445 13.9336 641.621 14.6959 641.621 15.6049C641.621 16.4552 641.445 17.2469 641.093 17.9799C640.742 18.7129 640.272 19.358 639.657 19.8858C639.041 20.4136 638.279 20.8241 637.399 21.088C636.519 21.3812 635.552 21.5278 634.496 21.5278C633.441 21.5278 632.502 21.3812 631.652 21.088C630.802 20.8241 630.069 20.4136 629.424 19.8858C628.778 19.358 628.251 18.7129 627.84 17.9799C627.43 17.2469 627.136 16.4259 626.931 15.5462L629.951 14.7252C630.039 15.253 630.215 15.7515 630.479 16.2206C630.743 16.6898 631.066 17.1003 631.447 17.4521C631.828 17.804 632.297 18.0972 632.825 18.3024C633.353 18.5077 633.939 18.5957 634.613 18.5957C635.786 18.5957 636.695 18.3024 637.34 17.7453C637.985 17.1882 638.308 16.4845 638.308 15.6342C638.308 15.0478 638.161 14.5493 637.839 14.1681C637.516 13.787 637.106 13.4351 636.607 13.1419C636.109 12.8487 635.522 12.5555 634.877 12.2916C634.232 12.0277 633.558 11.7638 632.883 11.4706C632.268 11.2067 631.652 10.9135 631.007 10.591C630.362 10.2684 629.775 9.88724 629.248 9.44742C628.72 9.0076 628.28 8.47982 627.957 7.86407C627.635 7.24833 627.459 6.51529 627.459 5.66498C627.459 4.90263 627.635 4.16959 627.957 3.49521C628.28 2.82082 628.749 2.23439 629.336 1.73593C629.922 1.23747 630.655 0.826969 631.505 0.533757C632.356 0.240545 633.294 0.0939368 634.32 0.0939368C635.229 0.0939368 636.079 0.211222 636.842 0.475114C637.604 0.739005 638.308 1.09086 638.924 1.56C639.539 2.02914 640.067 2.58625 640.478 3.26063C640.888 3.93502 641.211 4.66805 641.416 5.45973Z" fill="black"/>
</svg>
