<svg width="388" height="28" viewBox="0 0 388 28" fill="none" xmlns="http://www.w3.org/2000/svg">
<path d="M25.729 1.30851L19.8726 16.2562L13.9846 0.270149L7.74444 16.2204L2.42184 1.30851H0L7.6494 22.2504L13.9258 6.29977L19.8074 22.268L28.15 1.30851H25.729Z" fill="#FF7300"/>
<path d="M37.5107 11.9483C36.5339 11.15 31.4174 8.49186 30.7592 8.03232C30.1032 7.57426 29.7737 6.90675 29.7737 6.03052C29.7737 5.15317 30.108 4.44093 30.7748 3.8938C31.4416 3.34331 32.2533 3.07161 33.2093 3.07161C33.8258 3.07161 34.3524 3.19013 34.7918 3.4309C35.2298 3.67055 35.6483 4.05965 36.0456 4.59747L36.2562 4.92396C36.3147 4.96607 36.3963 5.06558 36.4958 5.22249L38.2584 4.08872C37.6807 3.07236 36.9591 2.30086 36.0915 1.77199C35.2264 1.24498 34.2943 0.980736 33.3003 0.980736C31.6067 0.980736 30.221 1.45742 29.1453 2.41416C28.0712 3.37015 27.5341 4.59747 27.5341 6.09201C27.5341 7.50457 28.0198 8.59585 28.9959 9.36176C29.9731 10.128 34.8418 12.6554 35.5984 13.1734C36.3557 13.6904 36.7325 14.457 36.7325 15.4734C36.7325 16.6288 36.352 17.5881 35.5838 18.3536C34.8164 19.1225 33.8448 19.5046 32.6719 19.5046C31.6369 19.5046 30.7804 19.1863 30.1039 18.5478C29.4264 17.9097 28.9471 16.997 28.6687 15.8014L26.517 16.4596C26.7045 17.2661 26.9784 17.9847 27.3325 18.6104C27.6966 19.2493 28.1469 19.7912 28.6839 20.2362C29.7488 21.124 31.0983 21.5679 32.7326 21.5679C34.465 21.5679 35.9372 20.9734 37.1537 19.7893C38.3672 18.6041 38.9747 17.1554 38.9747 15.4413C38.9747 13.9091 38.4872 12.7433 37.5107 11.9483Z" fill="#FF7300"/>
<path d="M62.5951 10.5778C63.0971 10.4351 63.6301 10.3631 64.1999 10.3631C65.7176 10.3631 66.9468 10.8544 67.8834 11.8357C68.8234 12.8133 69.2948 13.9687 69.2948 15.2996C69.2948 16.2351 69.0697 17.1117 68.6191 17.9309C68.1719 18.7494 67.2997 19.8615 66.0038 21.2581L61.897 25.6903H69.5162V27.2843H58.3075L64.6144 20.4739C65.892 19.102 66.725 18.0867 67.1111 17.4248C67.4976 16.7647 67.6896 16.0663 67.6896 15.3354C67.6896 14.407 67.3441 13.6072 66.6497 12.9389C65.9587 12.271 65.1108 11.9348 64.1071 11.9348C63.5332 11.9348 63.0129 12.0392 62.5429 12.2468C62.585 11.8465 62.6003 10.7269 62.5951 10.5778Z" fill="black"/>
<path d="M50.5384 20.4433C55.5519 20.4433 59.616 16.3357 59.616 11.2688C59.616 6.20182 55.5519 2.09425 50.5384 2.09425C45.525 2.09425 41.4608 6.20182 41.4608 11.2688C41.4608 16.3357 45.525 20.4433 50.5384 20.4433Z" fill="#FF7300"/>
<path d="M50.5388 0C44.2979 0 39.2388 5.04531 39.2388 11.2687C39.2388 17.4922 44.2979 22.5375 50.5388 22.5375C56.7794 22.5375 61.8389 17.4922 61.8389 11.2687C61.8389 5.04531 56.7794 0 50.5388 0ZM50.5388 20.4433C45.5256 20.4433 41.4612 16.3357 41.4612 11.2687C41.4612 6.20182 45.5256 2.09423 50.5388 2.09423C55.5521 2.09423 59.6164 6.20182 59.6164 11.2687C59.6164 16.3357 55.5521 20.4433 50.5388 20.4433Z" fill="black"/>
<path d="M59.586 10.5537L56.2965 10.5616L54.6566 13.5126L50.5643 3.53644L46.8827 11.7315L41.4722 11.7199C41.4938 12.1713 41.5486 12.614 41.6328 13.046L47.7396 13.0591L50.5088 6.89451L54.4762 16.5658L57.0773 11.8854L59.5939 11.8794C59.6069 11.6774 59.6162 11.4739 59.6162 11.2686C59.6162 11.0278 59.6039 10.79 59.586 10.5537Z" fill="white"/>
<path d="M83.1166 21H79.9206V0.475114H83.1166V21ZM87.0291 0.475114H94.5061L94.4474 0.533757C95.8842 0.533757 97.2329 0.768326 98.4644 1.26679C99.6959 1.76525 100.751 2.46896 101.631 3.37792C102.511 4.28688 103.214 5.37176 103.713 6.63258C104.211 7.89339 104.475 9.30082 104.475 10.8548C104.475 12.4089 104.241 13.8163 103.742 15.0771C103.244 16.3379 102.569 17.3935 101.69 18.2731C100.81 19.1528 99.7839 19.8271 98.5817 20.2963C97.3795 20.7654 96.0894 21 94.682 21H87.0291V0.475114ZM90.2545 18.0092H94.8286H94.7993C95.7082 18.0092 96.5585 17.8333 97.3502 17.5108C98.1419 17.1882 98.8163 16.7191 99.4027 16.1033C99.9891 15.4876 100.429 14.7252 100.751 13.8456C101.074 12.966 101.25 11.9397 101.25 10.7962C101.25 9.62335 101.074 8.56778 100.751 7.65882C100.429 6.74986 99.9598 5.98751 99.3734 5.37176C98.787 4.75602 98.0832 4.28688 97.2916 3.96434C96.4999 3.64181 95.6203 3.46588 94.682 3.46588H90.2545V18.0092ZM110.364 17.9799H120.216V21H107.168V0.475114H120.04V3.49521H110.364V8.861H117.958V11.7052H110.364V17.9799ZM136.136 0.475114H139.303L139.215 20.9414H136.312L129.48 10.5616C129.099 10.0045 128.718 9.44742 128.366 8.89032C128.014 8.33321 127.691 7.83475 127.398 7.39493C127.105 6.95511 126.87 6.60326 126.694 6.33937L126.43 5.92887H126.372L126.401 6.39801C126.43 6.72054 126.43 7.16036 126.46 7.71747C126.489 8.27457 126.518 8.94896 126.548 9.71131C126.577 10.4737 126.577 11.2947 126.577 12.2036V20.912H123.41V0.387151H126.313L133.262 10.8842C133.585 11.3533 133.907 11.8518 134.259 12.3795C134.611 12.9073 134.934 13.3765 135.227 13.8163C135.52 14.2561 135.725 14.6373 135.931 14.9012L136.224 15.3117H136.282V14.8132C136.282 14.4907 136.282 14.0509 136.253 13.4938C136.224 12.9367 136.194 12.2916 136.165 11.5586C136.136 10.8255 136.136 10.0338 136.136 9.21285V0.475114ZM141.328 0.475114H156.663V3.49521H150.564V21H147.368V3.49521H141.328V0.475114ZM161.872 21H158.676V0.475114H161.872V21ZM163.908 0.475114H179.243V3.49521H173.144V21H169.948V3.49521H163.908V0.475114ZM193.453 0.475114H196.942L189.671 11.5879V21H186.533V11.5879L179.261 0.504435H182.751L186.973 6.83783C187.295 7.30697 187.53 7.77611 187.735 8.15729C187.941 8.53846 188.058 8.71439 188.087 8.71439H188.146C188.175 8.71439 188.292 8.50914 188.498 8.12796C188.703 7.74679 188.937 7.27765 189.26 6.80851L193.453 0.475114ZM217.739 5.45973L214.748 6.28072L214.689 6.54462C214.425 5.43041 213.927 4.58009 213.164 3.99367C212.402 3.40724 211.522 3.11403 210.496 3.11403C209.47 3.11403 208.649 3.3486 208.033 3.84706C207.417 4.34552 207.095 4.99059 207.095 5.78226C207.095 6.22208 207.242 6.60326 207.505 6.95511C207.769 7.30697 208.121 7.6295 208.561 7.92272C209.001 8.21593 209.529 8.47982 210.115 8.71439C210.701 8.94896 211.317 9.18353 211.933 9.44742C212.607 9.71131 213.311 10.0338 214.015 10.3857C214.718 10.7376 215.363 11.1481 215.95 11.6172C216.536 12.0863 217.005 12.6434 217.387 13.2885C217.768 13.9336 217.944 14.6959 217.944 15.6049C217.944 16.4552 217.768 17.2469 217.416 17.9799C217.064 18.7129 216.595 19.358 215.979 19.8858C215.363 20.4136 214.601 20.8241 213.722 21.088C212.842 21.3812 211.874 21.5278 210.819 21.5278C209.763 21.5278 208.825 21.3812 207.975 21.088C207.124 20.8241 206.391 20.4136 205.746 19.8858C205.101 19.358 204.573 18.7129 204.163 17.9799C203.752 17.2469 203.459 16.4259 203.254 15.5462L206.274 14.7252C206.362 15.253 206.538 15.7515 206.802 16.2206C207.066 16.6898 207.388 17.1003 207.769 17.4521C208.15 17.804 208.62 18.0972 209.147 18.3024C209.675 18.5077 210.262 18.5957 210.936 18.5957C212.109 18.5957 213.018 18.3024 213.663 17.7453C214.308 17.1882 214.63 16.4845 214.63 15.6342C214.63 15.0478 214.484 14.5493 214.161 14.1681C213.839 13.787 213.428 13.4351 212.93 13.1419C212.431 12.8487 211.845 12.5555 211.2 12.2916C210.555 12.0277 209.88 11.7638 209.206 11.4706C208.59 11.2067 207.975 10.9135 207.329 10.591C206.684 10.2684 206.098 9.88724 205.57 9.44742C205.042 9.0076 204.603 8.47982 204.28 7.86407C203.958 7.24833 203.782 6.51529 203.782 5.66498C203.782 4.90263 203.958 4.16959 204.28 3.49521C204.603 2.82082 205.072 2.23439 205.658 1.73593C206.245 1.23747 206.978 0.826969 207.828 0.533757C208.678 0.240545 209.617 0.0939368 210.643 0.0939368C211.552 0.0939368 212.402 0.211222 213.164 0.475114C213.927 0.739005 214.63 1.09086 215.246 1.56C215.862 2.02914 216.39 2.58625 216.8 3.26063C217.211 3.93502 217.533 4.66805 217.739 5.45973ZM223.589 17.9799H233.441V21H220.393V0.475114H233.266V3.49521H223.589V8.861H231.184V11.7052H223.589V17.9799ZM251.004 20.9707H247.427L243.439 13.5524C243.351 13.5817 243.263 13.5817 243.146 13.5817H242.852H239.862V20.9414H236.666V0.416472H242.852C243.996 0.416472 245.022 0.563078 245.931 0.885611C246.84 1.20815 247.632 1.64796 248.277 2.23439C248.922 2.82082 249.42 3.52453 249.772 4.34552C250.124 5.16652 250.3 6.07548 250.3 7.10172C250.3 8.53846 249.977 9.74063 249.303 10.7376C248.629 11.7345 247.69 12.4675 246.488 12.966L251.004 20.9707ZM239.862 10.8255H243.116V10.7962C244.377 10.7962 245.345 10.4443 246.019 9.74063C246.694 9.03692 247.016 8.15729 247.016 7.13104C247.016 6.04615 246.694 5.16652 246.019 4.49213C245.345 3.81774 244.377 3.46588 243.116 3.46588H239.862V10.8255ZM266.762 0.475114H270.193L262.628 21H259.139L251.574 0.475114H254.975L259.813 14.0509C259.989 14.52 260.106 14.9598 260.224 15.3703C260.341 15.7808 260.458 16.162 260.546 16.4845C260.634 16.8071 260.722 17.071 260.781 17.2762L260.869 17.5694H260.898L260.986 17.2762C261.045 17.071 261.133 16.8071 261.221 16.4845C261.309 16.162 261.426 15.7808 261.543 15.3703C261.66 14.9598 261.778 14.52 261.954 14.0509L266.762 0.475114ZM275.327 17.9799H285.179V21H272.131V0.475114H285.003V3.49521H275.327V8.861H282.921V11.7052H275.327V17.9799ZM302.741 20.9707H299.164L295.176 13.5524C295.088 13.5817 295 13.5817 294.883 13.5817H294.59H291.599V20.9414H288.403V0.416472H294.59C295.733 0.416472 296.759 0.563078 297.668 0.885611C298.577 1.20815 299.369 1.64796 300.014 2.23439C300.659 2.82082 301.158 3.52453 301.509 4.34552C301.861 5.16652 302.037 6.07548 302.037 7.10172C302.037 8.53846 301.715 9.74063 301.04 10.7376C300.366 11.7345 299.428 12.4675 298.225 12.966L302.741 20.9707ZM291.599 10.8255H294.853V10.7962C296.114 10.7962 297.082 10.4443 297.756 9.74063C298.431 9.03692 298.753 8.15729 298.753 7.13104C298.753 6.04615 298.431 5.16652 297.756 4.49213C297.082 3.81774 296.114 3.46588 294.853 3.46588H291.599V10.8255ZM311.239 0.475114H318.716L318.658 0.533757C320.094 0.533757 321.443 0.768326 322.675 1.26679C323.906 1.76525 324.962 2.46896 325.841 3.37792C326.721 4.28688 327.425 5.37176 327.923 6.63258C328.422 7.89339 328.686 9.30082 328.686 10.8548C328.686 12.4089 328.451 13.8163 327.953 15.0771C327.454 16.3379 326.78 17.3935 325.9 18.2731C325.02 19.1528 323.994 19.8271 322.792 20.2963C321.59 20.7654 320.3 21 318.892 21H311.239V0.475114ZM314.465 18.0092H319.039H319.01C319.919 18.0092 320.769 17.8333 321.561 17.5108C322.352 17.1882 323.027 16.7191 323.613 16.1033C324.199 15.4876 324.639 14.7252 324.962 13.8456C325.284 12.966 325.46 11.9397 325.46 10.7962C325.46 9.62335 325.284 8.56778 324.962 7.65882C324.639 6.74986 324.17 5.98751 323.584 5.37176C322.997 4.75602 322.294 4.28688 321.502 3.96434C320.71 3.64181 319.831 3.46588 318.892 3.46588H314.465V18.0092ZM330.058 10.7669V10.8255C330.058 9.21285 330.293 7.74679 330.762 6.42733C331.231 5.10787 331.906 3.99367 332.756 3.05538C333.606 2.1171 334.603 1.41339 335.747 0.914932C336.89 0.416472 338.151 0.15258 339.529 0.15258C340.907 0.15258 342.168 0.416472 343.341 0.914932C344.514 1.41339 345.54 2.1171 346.39 3.05538C347.241 3.99367 347.915 5.10787 348.384 6.42733C348.853 7.74679 349.088 9.21285 349.088 10.8255C349.088 12.4382 348.853 13.9043 348.384 15.2237C347.915 16.5432 347.241 17.6574 346.39 18.5957C345.54 19.5339 344.543 20.2376 343.37 20.7361C342.197 21.2052 340.937 21.4398 339.559 21.4398C338.18 21.4398 336.92 21.1759 335.747 20.7068C334.574 20.2083 333.577 19.4753 332.727 18.537C331.876 17.5987 331.231 16.4845 330.762 15.1651C330.293 13.8456 330.058 12.3795 330.058 10.7669ZM333.401 10.7376L333.342 10.7669C333.342 11.9397 333.489 12.9953 333.782 13.9336C334.075 14.8719 334.515 15.6635 335.072 16.3086C335.629 16.9537 336.275 17.4521 337.037 17.804C337.799 18.1558 338.65 18.3318 339.559 18.3318C340.497 18.3318 341.347 18.1558 342.109 17.804C342.872 17.4521 343.546 16.9537 344.103 16.3086C344.66 15.6635 345.1 14.8719 345.393 13.9336C345.687 12.9953 345.833 11.9397 345.833 10.7669C345.833 9.56471 345.687 8.50914 345.393 7.57086C345.1 6.63258 344.66 5.84091 344.103 5.19584C343.546 4.55077 342.901 4.05231 342.139 3.70045C341.376 3.3486 340.526 3.17267 339.588 3.17267C338.679 3.17267 337.829 3.3486 337.066 3.70045C336.304 4.05231 335.659 4.55077 335.102 5.19584C334.545 5.84091 334.134 6.63258 333.841 7.57086C333.548 8.50914 333.401 9.56471 333.401 10.7376ZM368.456 5.45973L365.289 6.31005L365.172 6.39801C364.644 5.37176 363.911 4.58009 363.002 4.05231C362.093 3.52453 361.067 3.26063 359.953 3.26063C359.014 3.26063 358.164 3.43656 357.402 3.78842C356.639 4.14027 355.994 4.63873 355.466 5.2838C354.939 5.92887 354.528 6.72054 354.235 7.65882C353.942 8.5971 353.795 9.65267 353.795 10.8255C353.795 11.9984 353.942 13.0539 354.264 13.9922C354.587 14.9305 355.027 15.7222 355.584 16.3672C356.141 17.0123 356.786 17.5108 357.548 17.8626C358.311 18.2145 359.161 18.3904 360.07 18.3904C361.301 18.3904 362.416 18.0679 363.413 17.4228C364.409 16.7777 365.142 15.8688 365.641 14.6959L368.778 15.5169C368.045 17.3642 366.902 18.8302 365.377 19.8858C363.852 20.9414 362.093 21.4398 360.07 21.4398C358.692 21.4398 357.431 21.1759 356.258 20.7068C355.085 20.2083 354.088 19.4753 353.238 18.537C352.388 17.5987 351.743 16.4845 351.274 15.1651C350.804 13.8456 350.57 12.3795 350.57 10.7669C350.57 9.15421 350.804 7.68815 351.274 6.36869C351.743 5.04923 352.417 3.93502 353.267 2.99674C354.118 2.05846 355.115 1.35475 356.258 0.85629C357.402 0.357828 358.662 0.0939368 360.041 0.0939368C361.946 0.0939368 363.618 0.563078 365.084 1.50136C366.55 2.43964 367.664 3.7591 368.456 5.45973ZM383.925 5.45973L380.934 6.28072L380.875 6.54462C380.612 5.43041 380.113 4.58009 379.351 3.99367C378.588 3.40724 377.709 3.11403 376.682 3.11403C375.656 3.11403 374.835 3.3486 374.219 3.84706C373.604 4.34552 373.281 4.99059 373.281 5.78226C373.281 6.22208 373.428 6.60326 373.692 6.95511C373.956 7.30697 374.307 7.6295 374.747 7.92272C375.187 8.21593 375.715 8.47982 376.301 8.71439C376.888 8.94896 377.503 9.18353 378.119 9.44742C378.794 9.71131 379.497 10.0338 380.201 10.3857C380.905 10.7376 381.55 11.1481 382.136 11.6172C382.723 12.0863 383.192 12.6434 383.573 13.2885C383.954 13.9336 384.13 14.6959 384.13 15.6049C384.13 16.4552 383.954 17.2469 383.602 17.9799C383.25 18.7129 382.781 19.358 382.166 19.8858C381.55 20.4136 380.787 20.8241 379.908 21.088C379.028 21.3812 378.061 21.5278 377.005 21.5278C375.949 21.5278 375.011 21.3812 374.161 21.088C373.311 20.8241 372.577 20.4136 371.932 19.8858C371.287 19.358 370.76 18.7129 370.349 17.9799C369.939 17.2469 369.645 16.4259 369.44 15.5462L372.46 14.7252C372.548 15.253 372.724 15.7515 372.988 16.2206C373.252 16.6898 373.574 17.1003 373.956 17.4521C374.337 17.804 374.806 18.0972 375.334 18.3024C375.861 18.5077 376.448 18.5957 377.122 18.5957C378.295 18.5957 379.204 18.3024 379.849 17.7453C380.494 17.1882 380.817 16.4845 380.817 15.6342C380.817 15.0478 380.67 14.5493 380.348 14.1681C380.025 13.787 379.615 13.4351 379.116 13.1419C378.618 12.8487 378.031 12.5555 377.386 12.2916C376.741 12.0277 376.067 11.7638 375.392 11.4706C374.777 11.2067 374.161 10.9135 373.516 10.591C372.871 10.2684 372.284 9.88724 371.756 9.44742C371.229 9.0076 370.789 8.47982 370.466 7.86407C370.144 7.24833 369.968 6.51529 369.968 5.66498C369.968 4.90263 370.144 4.16959 370.466 3.49521C370.789 2.82082 371.258 2.23439 371.844 1.73593C372.431 1.23747 373.164 0.826969 374.014 0.533757C374.865 0.240545 375.803 0.0939368 376.829 0.0939368C377.738 0.0939368 378.588 0.211222 379.351 0.475114C380.113 0.739005 380.817 1.09086 381.433 1.56C382.048 2.02914 382.576 2.58625 382.987 3.26063C383.397 3.93502 383.72 4.66805 383.925 5.45973Z" fill="black"/>
</svg>
