<svg width="386" height="28" viewBox="0 0 386 28" fill="none" xmlns="http://www.w3.org/2000/svg">
<path d="M25.7308 1.30788L19.874 16.2535L13.9856 0.269665L7.74499 16.2178L2.42201 1.30788H0L7.64994 22.2469L13.9267 6.29845L19.8088 22.2644L28.152 1.30788H25.7308Z" fill="#FF7300"/>
<path d="M37.514 11.9465C36.5371 11.1483 31.4202 8.49049 30.762 8.03101C30.106 7.57302 29.7765 6.90559 29.7765 6.02948C29.7765 5.15226 30.1108 4.44012 30.7776 3.89306C31.4444 3.34265 32.2562 3.07099 33.2123 3.07099C33.8288 3.07099 34.3555 3.18949 34.7949 3.43023C35.2329 3.66984 35.6514 4.05889 36.0488 4.59663L36.2594 4.92308C36.3179 4.96519 36.3995 5.06468 36.499 5.22157L38.2617 4.08796C37.684 3.07173 36.9623 2.30034 36.0946 1.77154C35.2295 1.24461 34.2973 0.9804 33.3032 0.9804C31.6096 0.9804 30.2237 1.45702 29.148 2.41363C28.0738 3.36948 27.5367 4.59663 27.5367 6.09097C27.5367 7.50333 28.0224 8.59446 28.9986 9.36026C29.9759 10.1264 34.8449 12.6534 35.6015 13.1714C36.3589 13.6883 36.7357 14.4548 36.7357 15.471C36.7357 16.6263 36.3552 17.5855 35.587 18.3509C34.8195 19.1197 33.8478 19.5017 32.6748 19.5017C31.6397 19.5017 30.7832 19.1834 30.1067 18.5451C29.4291 17.9071 28.9497 16.9944 28.6713 15.799L26.5195 16.4571C26.707 17.2635 26.981 17.982 27.3351 18.6077C27.6992 19.2464 28.1495 19.7882 28.6866 20.2332C29.7515 21.1208 31.1011 21.5647 32.7356 21.5647C34.468 21.5647 35.9403 20.9703 37.1569 19.7864C38.3705 18.6013 38.9781 17.1528 38.9781 15.439C38.9781 13.907 38.4905 12.7413 37.514 11.9465Z" fill="#FF7300"/>
<path d="M62.6004 10.5758C63.1025 10.4331 63.6355 10.3612 64.2054 10.3612C65.7231 10.3612 66.9524 10.8523 67.8891 11.8335C68.8291 12.811 69.3006 13.9662 69.3006 15.297C69.3006 16.2323 69.0755 17.1088 68.6249 17.9279C68.1776 18.7462 67.3054 19.8582 66.0094 21.2546L61.9023 25.6862H69.522V27.28H58.3125L64.6199 20.4705C65.8976 19.0988 66.7306 18.0837 67.1168 17.4218C67.5033 16.7619 67.6953 16.0635 67.6953 15.3327C67.6953 14.4044 67.3497 13.6047 66.6553 12.9366C65.9643 12.2688 65.1163 11.9326 64.1126 11.9326C63.5386 11.9326 63.0182 12.037 62.5482 12.2445C62.5903 11.8443 62.6056 10.7249 62.6004 10.5758Z" fill="white"/>
<path d="M50.5431 20.4405C55.5569 20.4405 59.6213 16.3335 59.6213 11.2672C59.6213 6.20099 55.5569 2.09399 50.5431 2.09399C45.5293 2.09399 41.4648 6.20099 41.4648 11.2672C41.4648 16.3335 45.5293 20.4405 50.5431 20.4405Z" fill="#FF7300"/>
<path d="M50.543 0C44.3016 0 39.2422 5.04461 39.2422 11.2672C39.2422 17.4898 44.3016 22.5344 50.543 22.5344C56.784 22.5344 61.8439 17.4898 61.8439 11.2672C61.8439 5.04461 56.784 0 50.543 0ZM50.543 20.4404C45.5294 20.4404 41.4648 16.3334 41.4648 11.2672C41.4648 6.20096 45.529 2.09394 50.543 2.09394C55.557 2.09394 59.6213 6.20096 59.6213 11.2672C59.6213 16.3334 55.5566 20.4404 50.543 20.4404Z" fill="white"/>
<path d="M59.5917 10.5525L56.302 10.5604L54.6619 13.511L50.5693 3.53621L46.8875 11.7301L41.4766 11.7186C41.4982 12.1698 41.553 12.6126 41.6372 13.0445L47.7444 13.0575L50.5138 6.89381L54.4815 16.5642L57.0828 11.8844L59.5995 11.8784C59.6126 11.6764 59.6219 11.473 59.6219 11.2676C59.6219 11.0265 59.6096 10.7888 59.5917 10.5525Z" fill="black"/>
<path d="M83.1224 21H79.9264V0.475114H83.1224V21ZM87.0349 0.475114H94.5119L94.4532 0.533757C95.89 0.533757 97.2387 0.768326 98.4702 1.26679C99.7017 1.76525 100.757 2.46896 101.637 3.37792C102.517 4.28688 103.22 5.37176 103.719 6.63258C104.217 7.89339 104.481 9.30082 104.481 10.8548C104.481 12.4089 104.247 13.8163 103.748 15.0771C103.25 16.3379 102.575 17.3935 101.696 18.2731C100.816 19.1528 99.7897 19.8271 98.5875 20.2963C97.3854 20.7654 96.0952 21 94.6878 21H87.0349V0.475114ZM90.2603 18.0092H94.8344H94.8051C95.714 18.0092 96.5644 17.8333 97.356 17.5108C98.1477 17.1882 98.8221 16.7191 99.4085 16.1033C99.9949 15.4876 100.435 14.7252 100.757 13.8456C101.08 12.966 101.256 11.9397 101.256 10.7962C101.256 9.62335 101.08 8.56778 100.757 7.65882C100.435 6.74986 99.9656 5.98751 99.3792 5.37176C98.7928 4.75602 98.0891 4.28688 97.2974 3.96434C96.5057 3.64181 95.6261 3.46588 94.6878 3.46588H90.2603V18.0092ZM110.369 17.9799H120.221V21H107.173V0.475114H120.045V3.49521H110.369V8.861H117.964V11.7052H110.369V17.9799ZM136.142 0.475114H139.308L139.22 20.9414H136.318L129.486 10.5616C129.105 10.0045 128.723 9.44742 128.372 8.89032C128.02 8.33321 127.697 7.83475 127.404 7.39493C127.111 6.95511 126.876 6.60326 126.7 6.33937L126.436 5.92887H126.378L126.407 6.39801C126.436 6.72054 126.436 7.16036 126.466 7.71747C126.495 8.27457 126.524 8.94896 126.554 9.71131C126.583 10.4737 126.583 11.2947 126.583 12.2036V20.912H123.416V0.387151H126.319L133.268 10.8842C133.591 11.3533 133.913 11.8518 134.265 12.3795C134.617 12.9073 134.939 13.3765 135.233 13.8163C135.526 14.2561 135.731 14.6373 135.936 14.9012L136.23 15.3117H136.288V14.8132C136.288 14.4907 136.288 14.0509 136.259 13.4938C136.23 12.9367 136.2 12.2916 136.171 11.5586C136.142 10.8255 136.142 10.0338 136.142 9.21285V0.475114ZM141.334 0.475114H156.669V3.49521H150.57V21H147.374V3.49521H141.334V0.475114ZM161.877 21H158.681V0.475114H161.877V21ZM163.913 0.475114H179.248V3.49521H173.15V21H169.954V3.49521H163.913V0.475114ZM193.459 0.475114H196.948L189.676 11.5879V21H186.539V11.5879L179.267 0.504435H182.757L186.979 6.83783C187.301 7.30697 187.536 7.77611 187.741 8.15729C187.946 8.53846 188.064 8.71439 188.093 8.71439H188.152C188.181 8.71439 188.298 8.50914 188.503 8.12796C188.709 7.74679 188.943 7.27765 189.266 6.80851L193.459 0.475114ZM217.744 5.45973L214.754 6.28072L214.695 6.54462C214.431 5.43041 213.933 4.58009 213.17 3.99367C212.408 3.40724 211.528 3.11403 210.502 3.11403C209.476 3.11403 208.655 3.3486 208.039 3.84706C207.423 4.34552 207.101 4.99059 207.101 5.78226C207.101 6.22208 207.247 6.60326 207.511 6.95511C207.775 7.30697 208.127 7.6295 208.567 7.92272C209.007 8.21593 209.534 8.47982 210.121 8.71439C210.707 8.94896 211.323 9.18353 211.939 9.44742C212.613 9.71131 213.317 10.0338 214.021 10.3857C214.724 10.7376 215.369 11.1481 215.956 11.6172C216.542 12.0863 217.011 12.6434 217.392 13.2885C217.774 13.9336 217.95 14.6959 217.95 15.6049C217.95 16.4552 217.774 17.2469 217.422 17.9799C217.07 18.7129 216.601 19.358 215.985 19.8858C215.369 20.4136 214.607 20.8241 213.727 21.088C212.848 21.3812 211.88 21.5278 210.825 21.5278C209.769 21.5278 208.831 21.3812 207.98 21.088C207.13 20.8241 206.397 20.4136 205.752 19.8858C205.107 19.358 204.579 18.7129 204.169 17.9799C203.758 17.2469 203.465 16.4259 203.26 15.5462L206.28 14.7252C206.368 15.253 206.544 15.7515 206.807 16.2206C207.071 16.6898 207.394 17.1003 207.775 17.4521C208.156 17.804 208.625 18.0972 209.153 18.3024C209.681 18.5077 210.267 18.5957 210.942 18.5957C212.115 18.5957 213.024 18.3024 213.669 17.7453C214.314 17.1882 214.636 16.4845 214.636 15.6342C214.636 15.0478 214.49 14.5493 214.167 14.1681C213.845 13.787 213.434 13.4351 212.936 13.1419C212.437 12.8487 211.851 12.5555 211.206 12.2916C210.561 12.0277 209.886 11.7638 209.212 11.4706C208.596 11.2067 207.98 10.9135 207.335 10.591C206.69 10.2684 206.104 9.88724 205.576 9.44742C205.048 9.0076 204.608 8.47982 204.286 7.86407C203.963 7.24833 203.787 6.51529 203.787 5.66498C203.787 4.90263 203.963 4.16959 204.286 3.49521C204.608 2.82082 205.078 2.23439 205.664 1.73593C206.25 1.23747 206.983 0.826969 207.834 0.533757C208.684 0.240545 209.622 0.0939368 210.649 0.0939368C211.558 0.0939368 212.408 0.211222 213.17 0.475114C213.933 0.739005 214.636 1.09086 215.252 1.56C215.868 2.02914 216.396 2.58625 216.806 3.26063C217.217 3.93502 217.539 4.66805 217.744 5.45973ZM223.595 17.9799H233.447V21H220.399V0.475114H233.271V3.49521H223.595V8.861H231.19V11.7052H223.595V17.9799ZM251.01 20.9707H247.432L243.445 13.5524C243.357 13.5817 243.269 13.5817 243.151 13.5817H242.858H239.867V20.9414H236.671V0.416472H242.858C244.002 0.416472 245.028 0.563078 245.937 0.885611C246.846 1.20815 247.638 1.64796 248.283 2.23439C248.928 2.82082 249.426 3.52453 249.778 4.34552C250.13 5.16652 250.306 6.07548 250.306 7.10172C250.306 8.53846 249.983 9.74063 249.309 10.7376C248.635 11.7345 247.696 12.4675 246.494 12.966L251.01 20.9707ZM239.867 10.8255H243.122V10.7962C244.383 10.7962 245.351 10.4443 246.025 9.74063C246.699 9.03692 247.022 8.15729 247.022 7.13104C247.022 6.04615 246.699 5.16652 246.025 4.49213C245.351 3.81774 244.383 3.46588 243.122 3.46588H239.867V10.8255ZM266.768 0.475114H270.199L262.634 21H259.145L251.58 0.475114H254.981L259.819 14.0509C259.995 14.52 260.112 14.9598 260.229 15.3703C260.347 15.7808 260.464 16.162 260.552 16.4845C260.64 16.8071 260.728 17.071 260.787 17.2762L260.875 17.5694H260.904L260.992 17.2762C261.05 17.071 261.138 16.8071 261.226 16.4845C261.314 16.162 261.432 15.7808 261.549 15.3703C261.666 14.9598 261.783 14.52 261.959 14.0509L266.768 0.475114ZM275.332 17.9799H285.184V21H272.136V0.475114H285.008V3.49521H275.332V8.861H282.927V11.7052H275.332V17.9799ZM302.747 20.9707H299.169L295.182 13.5524C295.094 13.5817 295.006 13.5817 294.889 13.5817H294.595H291.605V20.9414H288.409V0.416472H294.595C295.739 0.416472 296.765 0.563078 297.674 0.885611C298.583 1.20815 299.375 1.64796 300.02 2.23439C300.665 2.82082 301.163 3.52453 301.515 4.34552C301.867 5.16652 302.043 6.07548 302.043 7.10172C302.043 8.53846 301.72 9.74063 301.046 10.7376C300.372 11.7345 299.433 12.4675 298.231 12.966L302.747 20.9707ZM291.605 10.8255H294.859V10.7962C296.12 10.7962 297.088 10.4443 297.762 9.74063C298.436 9.03692 298.759 8.15729 298.759 7.13104C298.759 6.04615 298.436 5.16652 297.762 4.49213C297.088 3.81774 296.12 3.46588 294.859 3.46588H291.605V10.8255ZM311.245 0.475114H318.722L318.664 0.533757C320.1 0.533757 321.449 0.768326 322.681 1.26679C323.912 1.76525 324.968 2.46896 325.847 3.37792C326.727 4.28688 327.431 5.37176 327.929 6.63258C328.428 7.89339 328.691 9.30082 328.691 10.8548C328.691 12.4089 328.457 13.8163 327.958 15.0771C327.46 16.3379 326.786 17.3935 325.906 18.2731C325.026 19.1528 324 19.8271 322.798 20.2963C321.596 20.7654 320.306 21 318.898 21H311.245V0.475114ZM314.471 18.0092H319.045H319.015C319.924 18.0092 320.775 17.8333 321.566 17.5108C322.358 17.1882 323.032 16.7191 323.619 16.1033C324.205 15.4876 324.645 14.7252 324.968 13.8456C325.29 12.966 325.466 11.9397 325.466 10.7962C325.466 9.62335 325.29 8.56778 324.968 7.65882C324.645 6.74986 324.176 5.98751 323.59 5.37176C323.003 4.75602 322.299 4.28688 321.508 3.96434C320.716 3.64181 319.836 3.46588 318.898 3.46588H314.471V18.0092ZM330.064 10.7669V10.8255C330.064 9.21285 330.299 7.74679 330.768 6.42733C331.237 5.10787 331.911 3.99367 332.762 3.05538C333.612 2.1171 334.609 1.41339 335.753 0.914932C336.896 0.416472 338.157 0.15258 339.535 0.15258C340.913 0.15258 342.174 0.416472 343.347 0.914932C344.52 1.41339 345.546 2.1171 346.396 3.05538C347.247 3.99367 347.921 5.10787 348.39 6.42733C348.859 7.74679 349.094 9.21285 349.094 10.8255C349.094 12.4382 348.859 13.9043 348.39 15.2237C347.921 16.5432 347.247 17.6574 346.396 18.5957C345.546 19.5339 344.549 20.2376 343.376 20.7361C342.203 21.2052 340.942 21.4398 339.564 21.4398C338.186 21.4398 336.925 21.1759 335.753 20.7068C334.58 20.2083 333.583 19.4753 332.732 18.537C331.882 17.5987 331.237 16.4845 330.768 15.1651C330.299 13.8456 330.064 12.3795 330.064 10.7669ZM333.407 10.7376L333.348 10.7669C333.348 11.9397 333.495 12.9953 333.788 13.9336C334.081 14.8719 334.521 15.6635 335.078 16.3086C335.635 16.9537 336.28 17.4521 337.043 17.804C337.805 18.1558 338.655 18.3318 339.564 18.3318C340.503 18.3318 341.353 18.1558 342.115 17.804C342.878 17.4521 343.552 16.9537 344.109 16.3086C344.666 15.6635 345.106 14.8719 345.399 13.9336C345.692 12.9953 345.839 11.9397 345.839 10.7669C345.839 9.56471 345.692 8.50914 345.399 7.57086C345.106 6.63258 344.666 5.84091 344.109 5.19584C343.552 4.55077 342.907 4.05231 342.145 3.70045C341.382 3.3486 340.532 3.17267 339.594 3.17267C338.685 3.17267 337.834 3.3486 337.072 3.70045C336.31 4.05231 335.665 4.55077 335.108 5.19584C334.55 5.84091 334.14 6.63258 333.847 7.57086C333.553 8.50914 333.407 9.56471 333.407 10.7376ZM368.462 5.45973L365.295 6.31005L365.178 6.39801C364.65 5.37176 363.917 4.58009 363.008 4.05231C362.099 3.52453 361.073 3.26063 359.958 3.26063C359.02 3.26063 358.17 3.43656 357.407 3.78842C356.645 4.14027 356 4.63873 355.472 5.2838C354.944 5.92887 354.534 6.72054 354.241 7.65882C353.948 8.5971 353.801 9.65267 353.801 10.8255C353.801 11.9984 353.948 13.0539 354.27 13.9922C354.593 14.9305 355.032 15.7222 355.59 16.3672C356.147 17.0123 356.792 17.5108 357.554 17.8626C358.316 18.2145 359.167 18.3904 360.076 18.3904C361.307 18.3904 362.421 18.0679 363.418 17.4228C364.415 16.7777 365.148 15.8688 365.647 14.6959L368.784 15.5169C368.051 17.3642 366.908 18.8302 365.383 19.8858C363.858 20.9414 362.099 21.4398 360.076 21.4398C358.698 21.4398 357.437 21.1759 356.264 20.7068C355.091 20.2083 354.094 19.4753 353.244 18.537C352.394 17.5987 351.748 16.4845 351.279 15.1651C350.81 13.8456 350.576 12.3795 350.576 10.7669C350.576 9.15421 350.81 7.68815 351.279 6.36869C351.748 5.04923 352.423 3.93502 353.273 2.99674C354.123 2.05846 355.12 1.35475 356.264 0.85629C357.407 0.357828 358.668 0.0939368 360.046 0.0939368C361.952 0.0939368 363.624 0.563078 365.09 1.50136C366.556 2.43964 367.67 3.7591 368.462 5.45973ZM383.931 5.45973L380.94 6.28072L380.881 6.54462C380.617 5.43041 380.119 4.58009 379.357 3.99367C378.594 3.40724 377.715 3.11403 376.688 3.11403C375.662 3.11403 374.841 3.3486 374.225 3.84706C373.61 4.34552 373.287 4.99059 373.287 5.78226C373.287 6.22208 373.434 6.60326 373.698 6.95511C373.961 7.30697 374.313 7.6295 374.753 7.92272C375.193 8.21593 375.721 8.47982 376.307 8.71439C376.894 8.94896 377.509 9.18353 378.125 9.44742C378.799 9.71131 379.503 10.0338 380.207 10.3857C380.911 10.7376 381.556 11.1481 382.142 11.6172C382.728 12.0863 383.198 12.6434 383.579 13.2885C383.96 13.9336 384.136 14.6959 384.136 15.6049C384.136 16.4552 383.96 17.2469 383.608 17.9799C383.256 18.7129 382.787 19.358 382.171 19.8858C381.556 20.4136 380.793 20.8241 379.914 21.088C379.034 21.3812 378.066 21.5278 377.011 21.5278C375.955 21.5278 375.017 21.3812 374.167 21.088C373.316 20.8241 372.583 20.4136 371.938 19.8858C371.293 19.358 370.765 18.7129 370.355 17.9799C369.944 17.2469 369.651 16.4259 369.446 15.5462L372.466 14.7252C372.554 15.253 372.73 15.7515 372.994 16.2206C373.258 16.6898 373.58 17.1003 373.961 17.4521C374.343 17.804 374.812 18.0972 375.34 18.3024C375.867 18.5077 376.454 18.5957 377.128 18.5957C378.301 18.5957 379.21 18.3024 379.855 17.7453C380.5 17.1882 380.823 16.4845 380.823 15.6342C380.823 15.0478 380.676 14.5493 380.353 14.1681C380.031 13.787 379.62 13.4351 379.122 13.1419C378.623 12.8487 378.037 12.5555 377.392 12.2916C376.747 12.0277 376.073 11.7638 375.398 11.4706C374.782 11.2067 374.167 10.9135 373.522 10.591C372.877 10.2684 372.29 9.88724 371.762 9.44742C371.235 9.0076 370.795 8.47982 370.472 7.86407C370.15 7.24833 369.974 6.51529 369.974 5.66498C369.974 4.90263 370.15 4.16959 370.472 3.49521C370.795 2.82082 371.264 2.23439 371.85 1.73593C372.437 1.23747 373.17 0.826969 374.02 0.533757C374.87 0.240545 375.809 0.0939368 376.835 0.0939368C377.744 0.0939368 378.594 0.211222 379.357 0.475114C380.119 0.739005 380.823 1.09086 381.438 1.56C382.054 2.02914 382.582 2.58625 382.992 3.26063C383.403 3.93502 383.725 4.66805 383.931 5.45973Z" fill="white"/>
</svg>
