<svg width="388" height="28" viewBox="0 0 388 28" fill="none" xmlns="http://www.w3.org/2000/svg">
<path d="M25.729 1.30851L19.8726 16.2562L13.9846 0.270157L7.74444 16.2204L2.42184 1.30851H0L7.6494 22.2504L13.9258 6.29978L19.8074 22.268L28.1501 1.30851H25.729Z" fill="#FF7300"/>
<path d="M37.5107 11.9483C36.5339 11.15 31.4174 8.49186 30.7592 8.03231C30.1032 7.57426 29.7737 6.90674 29.7737 6.03051C29.7737 5.15316 30.108 4.44092 30.7748 3.89379C31.4416 3.34331 32.2533 3.0716 33.2093 3.0716C33.8258 3.0716 34.3524 3.19012 34.7918 3.43089C35.2298 3.67054 35.6483 4.05965 36.0456 4.59746L36.2562 4.92395C36.3147 4.96606 36.3963 5.06558 36.4958 5.22248L38.2584 4.08872C37.6807 3.07235 36.9591 2.30085 36.0915 1.77198C35.2264 1.24498 34.2943 0.980728 33.3003 0.980728C31.6067 0.980728 30.221 1.45742 29.1453 2.41415C28.0712 3.37014 27.5341 4.59746 27.5341 6.09201C27.5341 7.50456 28.0198 8.59584 28.9959 9.36175C29.9731 10.128 34.8418 12.6553 35.5984 13.1734C36.3557 13.6903 36.7325 14.457 36.7325 15.4734C36.7325 16.6288 36.352 17.5881 35.5838 18.3536C34.8164 19.1225 33.8448 19.5045 32.6719 19.5045C31.6369 19.5045 30.7804 19.1863 30.1039 18.5478C29.4264 17.9097 28.9471 16.997 28.6687 15.8013L26.517 16.4595C26.7045 17.2661 26.9784 17.9847 27.3325 18.6104C27.6966 19.2492 28.1469 19.7912 28.6839 20.2362C29.7488 21.124 31.0983 21.5678 32.7326 21.5678C34.465 21.5678 35.9372 20.9734 37.1537 19.7893C38.3672 18.6041 38.9747 17.1554 38.9747 15.4413C38.9747 13.9091 38.4872 12.7433 37.5107 11.9483Z" fill="#FF7300"/>
<path d="M62.5951 10.5778C63.0971 10.4351 63.6301 10.3631 64.1999 10.3631C65.7176 10.3631 66.9468 10.8544 67.8834 11.8357C68.8234 12.8133 69.2948 13.9687 69.2948 15.2996C69.2948 16.2351 69.0697 17.1117 68.6191 17.9309C68.1719 18.7494 67.2997 19.8615 66.0038 21.2581L61.897 25.6903H69.5162V27.2843H58.3075L64.6144 20.4739C65.892 19.102 66.725 18.0867 67.1111 17.4248C67.4976 16.7647 67.6896 16.0663 67.6896 15.3354C67.6896 14.407 67.3441 13.6072 66.6497 12.9389C65.9587 12.271 65.1108 11.9348 64.1071 11.9348C63.5332 11.9348 63.0129 12.0392 62.5429 12.2468C62.585 11.8465 62.6003 10.7269 62.5951 10.5778Z" fill="black"/>
<path d="M50.5384 20.4433C55.5519 20.4433 59.616 16.3357 59.616 11.2688C59.616 6.20182 55.5519 2.09425 50.5384 2.09425C45.525 2.09425 41.4608 6.20182 41.4608 11.2688C41.4608 16.3357 45.525 20.4433 50.5384 20.4433Z" fill="#FF7300"/>
<path d="M50.5388 0C44.2979 0 39.2388 5.04531 39.2388 11.2687C39.2388 17.4922 44.2979 22.5375 50.5388 22.5375C56.7794 22.5375 61.8389 17.4922 61.8389 11.2687C61.8389 5.04531 56.7794 0 50.5388 0ZM50.5388 20.4433C45.5256 20.4433 41.4612 16.3357 41.4612 11.2687C41.4612 6.20182 45.5256 2.09423 50.5388 2.09423C55.5521 2.09423 59.6164 6.20182 59.6164 11.2687C59.6164 16.3357 55.5521 20.4433 50.5388 20.4433Z" fill="black"/>
<path d="M59.586 10.5537L56.2965 10.5616L54.6566 13.5126L50.5643 3.53644L46.8827 11.7315L41.4722 11.7199C41.4938 12.1713 41.5486 12.614 41.6328 13.046L47.7396 13.0591L50.5088 6.89451L54.4762 16.5658L57.0773 11.8854L59.5939 11.8794C59.6069 11.6774 59.6162 11.4739 59.6162 11.2686C59.6162 11.0278 59.6039 10.79 59.586 10.5537Z" fill="white"/>
<path d="M78.6011 10.7669V10.8255C78.6011 9.21285 78.8357 7.74679 79.3048 6.42733C79.774 5.10787 80.4483 3.99367 81.2987 3.05538C82.149 2.1171 83.1459 1.41339 84.2894 0.914932C85.433 0.416472 86.6938 0.15258 88.0719 0.15258C89.45 0.15258 90.7108 0.416472 91.8836 0.914932C93.0565 1.41339 94.0827 2.1171 94.933 3.05538C95.7834 3.99367 96.4577 5.10787 96.9269 6.42733C97.396 7.74679 97.6306 9.21285 97.6306 10.8255C97.6306 12.4382 97.396 13.9043 96.9269 15.2237C96.4577 16.5432 95.7834 17.6574 94.933 18.5957C94.0827 19.5339 93.0858 20.2376 91.913 20.7361C90.7401 21.2052 89.4793 21.4398 88.1012 21.4398C86.7231 21.4398 85.4623 21.1759 84.2894 20.7068C83.1166 20.2083 82.1197 19.4753 81.2693 18.537C80.419 17.5987 79.774 16.4845 79.3048 15.1651C78.8357 13.8456 78.6011 12.3795 78.6011 10.7669ZM81.9437 10.7376L81.8851 10.7669C81.8851 11.9397 82.0317 12.9953 82.3249 13.9336C82.6181 14.8719 83.0579 15.6635 83.615 16.3086C84.1721 16.9537 84.8172 17.4521 85.5796 17.804C86.3419 18.1558 87.1922 18.3318 88.1012 18.3318C89.0395 18.3318 89.8898 18.1558 90.6521 17.804C91.4145 17.4521 92.0889 16.9537 92.646 16.3086C93.2031 15.6635 93.6429 14.8719 93.9361 13.9336C94.2293 12.9953 94.3759 11.9397 94.3759 10.7669C94.3759 9.56471 94.2293 8.50914 93.9361 7.57086C93.6429 6.63258 93.2031 5.84091 92.646 5.19584C92.0889 4.55077 91.4438 4.05231 90.6815 3.70045C89.9191 3.3486 89.0688 3.17267 88.1305 3.17267C87.2216 3.17267 86.3712 3.3486 85.6089 3.70045C84.8465 4.05231 84.2015 4.55077 83.6444 5.19584C83.0873 5.84091 82.6768 6.63258 82.3835 7.57086C82.0903 8.50914 81.9437 9.56471 81.9437 10.7376ZM100.373 0.475114H106.56L106.531 0.504435C107.674 0.504435 108.701 0.651042 109.609 0.973576C110.518 1.29611 111.31 1.73593 111.955 2.32235C112.6 2.90878 113.099 3.61249 113.451 4.43349C113.802 5.25448 113.978 6.19276 113.978 7.219C113.978 8.24525 113.802 9.18353 113.451 10.0045C113.099 10.8255 112.6 11.5292 111.955 12.1157C111.31 12.7021 110.548 13.1419 109.639 13.4351C108.73 13.7283 107.704 13.8749 106.56 13.8749H103.569V21H100.373V0.475114ZM103.569 10.8842H106.531C107.85 10.8842 108.876 10.5616 109.58 9.91656C110.284 9.27149 110.636 8.36253 110.636 7.219C110.636 6.01683 110.255 5.07855 109.522 4.43349C108.788 3.78842 107.792 3.46588 106.531 3.46588H103.569V10.8842ZM119.412 17.9799H129.264V21H116.216V0.475114H129.088V3.49521H119.412V8.861H127.006V11.7052H119.412V17.9799ZM145.184 0.475114H148.351L148.263 20.9414H145.36L138.528 10.5616C138.147 10.0045 137.766 9.44742 137.414 8.89032C137.062 8.33321 136.74 7.83475 136.446 7.39493C136.153 6.95511 135.919 6.60326 135.743 6.33937L135.479 5.92887H135.42L135.45 6.39801C135.479 6.72054 135.479 7.16036 135.508 7.71747C135.537 8.27457 135.567 8.94896 135.596 9.71131C135.625 10.4737 135.625 11.2947 135.625 12.2036V20.912H132.459V0.387151H135.362L142.311 10.8842C142.633 11.3533 142.956 11.8518 143.308 12.3795C143.659 12.9073 143.982 13.3765 144.275 13.8163C144.568 14.2561 144.774 14.6373 144.979 14.9012L145.272 15.3117H145.331V14.8132C145.331 14.4907 145.331 14.0509 145.301 13.4938C145.272 12.9367 145.243 12.2916 145.214 11.5586C145.184 10.8255 145.184 10.0338 145.184 9.21285V0.475114ZM158.246 0.504435H165.43L165.313 0.533757C166.192 0.533757 167.013 0.651042 167.746 0.914932C168.479 1.17882 169.095 1.53068 169.623 1.99982C170.151 2.46896 170.561 3.02606 170.854 3.67113C171.147 4.3162 171.294 4.99059 171.294 5.72362C171.294 6.28072 171.206 6.80851 171.001 7.27765C170.796 7.74679 170.561 8.15729 170.268 8.50914C169.975 8.861 169.652 9.15421 169.3 9.38878C168.948 9.62335 168.597 9.76996 168.274 9.85792V9.88724C168.714 9.9752 169.183 10.1511 169.681 10.415C170.18 10.6789 170.649 11.0308 171.06 11.4706C171.47 11.9104 171.822 12.4382 172.086 13.0246C172.35 13.611 172.496 14.2561 172.496 14.9891C172.496 15.8981 172.35 16.7191 172.056 17.4521C171.763 18.1852 171.323 18.8302 170.737 19.358C170.151 19.8858 169.447 20.2963 168.597 20.5895C167.746 20.8827 166.779 21 165.664 21H158.246V0.504435ZM161.442 8.83167H164.99C165.958 8.83167 166.749 8.56778 167.336 8.04C167.922 7.51222 168.215 6.83783 168.215 6.01683C168.215 5.16652 167.922 4.49213 167.336 3.99367C166.749 3.49521 165.958 3.23131 164.961 3.23131H161.442V8.83167ZM161.442 18.2731H165.518V18.3024C166.603 18.3024 167.512 17.9799 168.215 17.3642C168.919 16.7484 169.271 15.8981 169.271 14.8425C169.271 14.3148 169.183 13.8456 168.978 13.4351C168.772 13.0246 168.509 12.6434 168.157 12.3209C167.805 11.9984 167.394 11.7638 166.925 11.5879C166.456 11.4119 165.958 11.324 165.43 11.324H161.442V18.2731ZM188.346 21L186.674 16.3379H178.054L176.382 21H173.011L180.751 0.475114H183.947L191.718 21H188.346ZM179.109 13.4938H185.677L183.214 6.77919C183.097 6.45665 182.98 6.13412 182.892 5.81158C182.804 5.48905 182.716 5.19584 182.657 4.96127C182.599 4.7267 182.54 4.52145 182.481 4.37484L182.423 4.14027H182.364L182.305 4.37484C182.247 4.52145 182.188 4.7267 182.1 4.96127C182.012 5.19584 181.924 5.48905 181.836 5.81158C181.748 6.13412 181.631 6.45665 181.514 6.77919L179.109 13.4938ZM206.379 0.475114H209.545L209.457 20.9414H206.555L199.723 10.5616C199.341 10.0045 198.96 9.44742 198.608 8.89032C198.257 8.33321 197.934 7.83475 197.641 7.39493C197.348 6.95511 197.113 6.60326 196.937 6.33937L196.673 5.92887H196.615L196.644 6.39801C196.673 6.72054 196.673 7.16036 196.703 7.71747C196.732 8.27457 196.761 8.94896 196.791 9.71131C196.82 10.4737 196.82 11.2947 196.82 12.2036V20.912H193.653V0.387151H196.556L203.505 10.8842C203.828 11.3533 204.15 11.8518 204.502 12.3795C204.854 12.9073 205.176 13.3765 205.47 13.8163C205.763 14.2561 205.968 14.6373 206.173 14.9012L206.467 15.3117H206.525V14.8132C206.525 14.4907 206.525 14.0509 206.496 13.4938C206.467 12.9367 206.437 12.2916 206.408 11.5586C206.379 10.8255 206.379 10.0338 206.379 9.21285V0.475114ZM229.545 21H225.821L218.989 11.2653L216.614 13.8163V21.0586H213.418V0.563078H216.614V5.34244C216.614 6.83783 216.614 7.95204 216.585 8.71439C216.555 9.47674 216.555 9.85792 216.585 9.85792H216.614L216.849 9.59403C216.995 9.4181 217.2 9.18353 217.464 8.89032C217.728 8.5971 218.021 8.27457 218.373 7.89339C218.725 7.51222 219.077 7.10172 219.487 6.6619L225.264 0.475114H229.105L221.129 8.94896L229.545 21ZM235.006 21H231.81V0.475114H235.006V21ZM251.644 0.475114H254.811L254.723 20.9414H251.82L244.989 10.5616C244.607 10.0045 244.226 9.44742 243.874 8.89032C243.522 8.33321 243.2 7.83475 242.907 7.39493C242.613 6.95511 242.379 6.60326 242.203 6.33937L241.939 5.92887H241.88L241.91 6.39801C241.939 6.72054 241.939 7.16036 241.968 7.71747C241.998 8.27457 242.027 8.94896 242.056 9.71131C242.086 10.4737 242.086 11.2947 242.086 12.2036V20.912H238.919V0.387151H241.822L248.771 10.8842C249.093 11.3533 249.416 11.8518 249.768 12.3795C250.12 12.9073 250.442 13.3765 250.735 13.8163C251.029 14.2561 251.234 14.6373 251.439 14.9012L251.732 15.3117H251.791V14.8132C251.791 14.4907 251.791 14.0509 251.762 13.4938C251.732 12.9367 251.703 12.2916 251.674 11.5586C251.644 10.8255 251.644 10.0338 251.644 9.21285V0.475114ZM272.993 18.537H272.963H272.934C272.729 18.8302 272.436 19.1528 272.054 19.4753C271.673 19.7978 271.233 20.091 270.706 20.3843C270.178 20.6775 269.591 20.912 268.946 21.0586C268.301 21.2346 267.627 21.3225 266.894 21.3225C265.545 21.3225 264.284 21.0586 263.141 20.5895C261.997 20.091 261 19.3873 260.15 18.4784C259.3 17.5694 258.655 16.4552 258.185 15.1357C257.716 13.8163 257.482 12.3502 257.482 10.7376C257.482 9.12489 257.716 7.65882 258.185 6.33937C258.655 5.01991 259.329 3.9057 260.179 2.96742C261.03 2.02914 262.026 1.32543 263.17 0.826969C264.314 0.328507 265.574 0.064616 266.952 0.064616C268.917 0.0939368 270.618 0.592399 272.054 1.53068C273.491 2.46896 274.605 3.78842 275.368 5.45973L272.201 6.31005C271.673 5.2838 270.94 4.49213 270.031 3.96434C269.122 3.43656 268.096 3.17267 266.982 3.17267C266.043 3.17267 265.193 3.3486 264.431 3.70045C263.668 4.05231 263.023 4.55077 262.466 5.19584C261.909 5.84091 261.499 6.63258 261.205 7.57086C260.912 8.50914 260.766 9.56471 260.766 10.7376C260.766 11.9397 260.942 12.9953 261.264 13.9336C261.587 14.8719 262.026 15.6635 262.584 16.3086C263.141 16.9537 263.815 17.4521 264.607 17.804C265.398 18.1558 266.278 18.3318 267.216 18.3318C268.037 18.3318 268.77 18.2145 269.415 17.9799C270.06 17.7453 270.618 17.4521 271.087 17.1003C271.556 16.7484 271.966 16.3379 272.289 15.8981C272.611 15.4583 272.846 15.0185 272.993 14.5786V12.5555H267.685V9.94588H275.719V21H272.993C272.993 20.0324 272.993 19.3873 272.993 19.0648C272.993 18.7423 272.993 18.5663 272.993 18.537ZM284.758 0.475114H292.234L292.176 0.533757C293.613 0.533757 294.961 0.768326 296.193 1.26679C297.424 1.76525 298.48 2.46896 299.36 3.37792C300.239 4.28688 300.943 5.37176 301.441 6.63258C301.94 7.89339 302.204 9.30082 302.204 10.8548C302.204 12.4089 301.969 13.8163 301.471 15.0771C300.972 16.3379 300.298 17.3935 299.418 18.2731C298.539 19.1528 297.512 19.8271 296.31 20.2963C295.108 20.7654 293.818 21 292.41 21H284.758V0.475114ZM287.983 18.0092H292.557H292.528C293.437 18.0092 294.287 17.8333 295.079 17.5108C295.87 17.1882 296.545 16.7191 297.131 16.1033C297.718 15.4876 298.157 14.7252 298.48 13.8456C298.802 12.966 298.978 11.9397 298.978 10.7962C298.978 9.62335 298.802 8.56778 298.48 7.65882C298.157 6.74986 297.688 5.98751 297.102 5.37176C296.515 4.75602 295.812 4.28688 295.02 3.96434C294.228 3.64181 293.349 3.46588 292.41 3.46588H287.983V18.0092ZM303.577 10.7669V10.8255C303.577 9.21285 303.811 7.74679 304.28 6.42733C304.749 5.10787 305.424 3.99367 306.274 3.05538C307.124 2.1171 308.121 1.41339 309.265 0.914932C310.408 0.416472 311.669 0.15258 313.047 0.15258C314.425 0.15258 315.686 0.416472 316.859 0.914932C318.032 1.41339 319.058 2.1171 319.908 3.05538C320.759 3.99367 321.433 5.10787 321.902 6.42733C322.371 7.74679 322.606 9.21285 322.606 10.8255C322.606 12.4382 322.371 13.9043 321.902 15.2237C321.433 16.5432 320.759 17.6574 319.908 18.5957C319.058 19.5339 318.061 20.2376 316.888 20.7361C315.716 21.2052 314.455 21.4398 313.077 21.4398C311.699 21.4398 310.438 21.1759 309.265 20.7068C308.092 20.2083 307.095 19.4753 306.245 18.537C305.394 17.5987 304.749 16.4845 304.28 15.1651C303.811 13.8456 303.577 12.3795 303.577 10.7669ZM306.919 10.7376L306.86 10.7669C306.86 11.9397 307.007 12.9953 307.3 13.9336C307.594 14.8719 308.033 15.6635 308.59 16.3086C309.148 16.9537 309.793 17.4521 310.555 17.804C311.317 18.1558 312.168 18.3318 313.077 18.3318C314.015 18.3318 314.865 18.1558 315.628 17.804C316.39 17.4521 317.064 16.9537 317.621 16.3086C318.179 15.6635 318.618 14.8719 318.912 13.9336C319.205 12.9953 319.351 11.9397 319.351 10.7669C319.351 9.56471 319.205 8.50914 318.912 7.57086C318.618 6.63258 318.179 5.84091 317.621 5.19584C317.064 4.55077 316.419 4.05231 315.657 3.70045C314.895 3.3486 314.044 3.17267 313.106 3.17267C312.197 3.17267 311.347 3.3486 310.584 3.70045C309.822 4.05231 309.177 4.55077 308.62 5.19584C308.063 5.84091 307.652 6.63258 307.359 7.57086C307.066 8.50914 306.919 9.56471 306.919 10.7376ZM341.974 5.45973L338.807 6.31005L338.69 6.39801C338.162 5.37176 337.429 4.58009 336.52 4.05231C335.611 3.52453 334.585 3.26063 333.471 3.26063C332.532 3.26063 331.682 3.43656 330.92 3.78842C330.157 4.14027 329.512 4.63873 328.985 5.2838C328.457 5.92887 328.046 6.72054 327.753 7.65882C327.46 8.5971 327.313 9.65267 327.313 10.8255C327.313 11.9984 327.46 13.0539 327.782 13.9922C328.105 14.9305 328.545 15.7222 329.102 16.3672C329.659 17.0123 330.304 17.5108 331.066 17.8626C331.829 18.2145 332.679 18.3904 333.588 18.3904C334.819 18.3904 335.934 18.0679 336.931 17.4228C337.928 16.7777 338.661 15.8688 339.159 14.6959L342.296 15.5169C341.563 17.3642 340.42 18.8302 338.895 19.8858C337.37 20.9414 335.611 21.4398 333.588 21.4398C332.21 21.4398 330.949 21.1759 329.776 20.7068C328.603 20.2083 327.606 19.4753 326.756 18.537C325.906 17.5987 325.261 16.4845 324.792 15.1651C324.322 13.8456 324.088 12.3795 324.088 10.7669C324.088 9.15421 324.322 7.68815 324.792 6.36869C325.261 5.04923 325.935 3.93502 326.785 2.99674C327.636 2.05846 328.633 1.35475 329.776 0.85629C330.92 0.357828 332.181 0.0939368 333.559 0.0939368C335.465 0.0939368 337.136 0.563078 338.602 1.50136C340.068 2.43964 341.182 3.7591 341.974 5.45973ZM357.443 5.45973L354.452 6.28072L354.393 6.54462C354.13 5.43041 353.631 4.58009 352.869 3.99367C352.106 3.40724 351.227 3.11403 350.201 3.11403C349.174 3.11403 348.353 3.3486 347.738 3.84706C347.122 4.34552 346.799 4.99059 346.799 5.78226C346.799 6.22208 346.946 6.60326 347.21 6.95511C347.474 7.30697 347.826 7.6295 348.265 7.92272C348.705 8.21593 349.233 8.47982 349.819 8.71439C350.406 8.94896 351.022 9.18353 351.637 9.44742C352.312 9.71131 353.015 10.0338 353.719 10.3857C354.423 10.7376 355.068 11.1481 355.654 11.6172C356.241 12.0863 356.71 12.6434 357.091 13.2885C357.472 13.9336 357.648 14.6959 357.648 15.6049C357.648 16.4552 357.472 17.2469 357.12 17.9799C356.768 18.7129 356.299 19.358 355.684 19.8858C355.068 20.4136 354.306 20.8241 353.426 21.088C352.546 21.3812 351.579 21.5278 350.523 21.5278C349.468 21.5278 348.529 21.3812 347.679 21.088C346.829 20.8241 346.096 20.4136 345.45 19.8858C344.805 19.358 344.278 18.7129 343.867 17.9799C343.457 17.2469 343.163 16.4259 342.958 15.5462L345.978 14.7252C346.066 15.253 346.242 15.7515 346.506 16.2206C346.77 16.6898 347.092 17.1003 347.474 17.4521C347.855 17.804 348.324 18.0972 348.852 18.3024C349.38 18.5077 349.966 18.5957 350.64 18.5957C351.813 18.5957 352.722 18.3024 353.367 17.7453C354.012 17.1882 354.335 16.4845 354.335 15.6342C354.335 15.0478 354.188 14.5493 353.866 14.1681C353.543 13.787 353.133 13.4351 352.634 13.1419C352.136 12.8487 351.549 12.5555 350.904 12.2916C350.259 12.0277 349.585 11.7638 348.91 11.4706C348.295 11.2067 347.679 10.9135 347.034 10.591C346.389 10.2684 345.802 9.88724 345.275 9.44742C344.747 9.0076 344.307 8.47982 343.984 7.86407C343.662 7.24833 343.486 6.51529 343.486 5.66498C343.486 4.90263 343.662 4.16959 343.984 3.49521C344.307 2.82082 344.776 2.23439 345.363 1.73593C345.949 1.23747 346.682 0.826969 347.532 0.533757C348.383 0.240545 349.321 0.0939368 350.347 0.0939368C351.256 0.0939368 352.106 0.211222 352.869 0.475114C353.631 0.739005 354.335 1.09086 354.951 1.56C355.566 2.02914 356.094 2.58625 356.505 3.26063C356.915 3.93502 357.238 4.66805 357.443 5.45973Z" fill="black"/>
</svg>
