<svg width="494" height="28" viewBox="0 0 494 28" fill="none" xmlns="http://www.w3.org/2000/svg">
<path d="M25.7308 1.30787L19.874 16.2535L13.9856 0.269653L7.74499 16.2177L2.42201 1.30787H0L7.64994 22.2469L13.9267 6.29844L19.8088 22.2644L28.152 1.30787H25.7308Z" fill="#FF7300"/>
<path d="M37.514 11.9465C36.5371 11.1483 31.4202 8.4905 30.762 8.03101C30.106 7.57302 29.7765 6.9056 29.7765 6.02949C29.7765 5.15226 30.1108 4.44012 30.7776 3.89307C31.4444 3.34266 32.2562 3.07099 33.2123 3.07099C33.8288 3.07099 34.3555 3.1895 34.7949 3.43023C35.2329 3.66985 35.6514 4.0589 36.0488 4.59664L36.2594 4.92308C36.3179 4.96519 36.3995 5.06469 36.499 5.22158L38.2617 4.08797C37.684 3.07174 36.9623 2.30035 36.0946 1.77155C35.2295 1.24462 34.2973 0.980408 33.3032 0.980408C31.6096 0.980408 30.2237 1.45703 29.148 2.41363C28.0738 3.36949 27.5367 4.59664 27.5367 6.09098C27.5367 7.50334 28.0224 8.59447 28.9986 9.36027C29.9759 10.1264 34.8449 12.6534 35.6015 13.1714C36.3589 13.6883 36.7357 14.4548 36.7357 15.471C36.7357 16.6263 36.3552 17.5855 35.587 18.3509C34.8195 19.1197 33.8478 19.5017 32.6748 19.5017C31.6397 19.5017 30.7832 19.1834 30.1067 18.5451C29.4291 17.9071 28.9497 16.9945 28.6713 15.799L26.5195 16.4571C26.707 17.2635 26.981 17.982 27.3351 18.6077C27.6992 19.2464 28.1495 19.7882 28.6866 20.2332C29.7515 21.1208 31.1011 21.5647 32.7356 21.5647C34.468 21.5647 35.9403 20.9703 37.1569 19.7864C38.3705 18.6013 38.9781 17.1528 38.9781 15.439C38.9781 13.907 38.4905 12.7414 37.514 11.9465Z" fill="#FF7300"/>
<path d="M62.6004 10.5758C63.1025 10.4331 63.6355 10.3611 64.2054 10.3611C65.7231 10.3611 66.9524 10.8523 67.8891 11.8335C68.8291 12.811 69.3006 13.9662 69.3006 15.2969C69.3006 16.2323 69.0755 17.1088 68.6249 17.9279C68.1776 18.7462 67.3054 19.8582 66.0094 21.2546L61.9023 25.6862H69.522V27.28H58.3125L64.6199 20.4705C65.8976 19.0988 66.7306 18.0836 67.1168 17.4218C67.5033 16.7618 67.6953 16.0635 67.6953 15.3327C67.6953 14.4044 67.3497 13.6047 66.6553 12.9366C65.9643 12.2688 65.1163 11.9326 64.1126 11.9326C63.5386 11.9326 63.0182 12.037 62.5482 12.2445C62.5903 11.8443 62.6056 10.7249 62.6004 10.5758Z" fill="white"/>
<path d="M50.5431 20.4405C55.5569 20.4405 59.6213 16.3335 59.6213 11.2672C59.6213 6.20099 55.5569 2.09399 50.5431 2.09399C45.5293 2.09399 41.4648 6.20099 41.4648 11.2672C41.4648 16.3335 45.5293 20.4405 50.5431 20.4405Z" fill="#FF7300"/>
<path d="M50.543 0C44.3016 0 39.2422 5.04461 39.2422 11.2672C39.2422 17.4898 44.3016 22.5344 50.543 22.5344C56.784 22.5344 61.8439 17.4898 61.8439 11.2672C61.8439 5.04461 56.784 0 50.543 0ZM50.543 20.4404C45.5294 20.4404 41.4648 16.3334 41.4648 11.2672C41.4648 6.20096 45.529 2.09394 50.543 2.09394C55.557 2.09394 59.6213 6.20096 59.6213 11.2672C59.6213 16.3334 55.5566 20.4404 50.543 20.4404Z" fill="white"/>
<path d="M59.5917 10.5525L56.302 10.5603L54.6619 13.511L50.5693 3.53619L46.8875 11.7301L41.4766 11.7185C41.4982 12.1698 41.553 12.6125 41.6372 13.0445L47.7444 13.0575L50.5138 6.8938L54.4815 16.5642L57.0828 11.8844L59.5995 11.8784C59.6126 11.6764 59.6219 11.473 59.6219 11.2676C59.6219 11.0265 59.6096 10.7888 59.5917 10.5525Z" fill="black"/>
<path d="M93.2382 21L91.5669 16.3379H82.9465L81.2751 21H77.9032L85.644 0.475114H88.84L96.6102 21H93.2382ZM84.002 13.4938H90.57L88.107 6.77919C87.9897 6.45665 87.8724 6.13412 87.7845 5.81158C87.6965 5.48905 87.6085 5.19584 87.5499 4.96127C87.4913 4.7267 87.4326 4.52145 87.374 4.37484L87.3153 4.14027H87.2567L87.198 4.37484C87.1394 4.52145 87.0808 4.7267 86.9928 4.96127C86.9048 5.19584 86.8169 5.48905 86.7289 5.81158C86.6409 6.13412 86.5237 6.45665 86.4064 6.77919L84.002 13.4938ZM98.5752 0.475114H104.762L104.733 0.504435C105.876 0.504435 106.902 0.651042 107.811 0.973576C108.72 1.29611 109.512 1.73593 110.157 2.32235C110.802 2.90878 111.301 3.61249 111.652 4.43349C112.004 5.25448 112.18 6.19276 112.18 7.219C112.18 8.24525 112.004 9.18353 111.652 10.0045C111.301 10.8255 110.802 11.5292 110.157 12.1157C109.512 12.7021 108.75 13.1419 107.841 13.4351C106.932 13.7283 105.905 13.8749 104.762 13.8749H101.771V21H98.5752V0.475114ZM101.771 10.8842H104.733C106.052 10.8842 107.078 10.5616 107.782 9.91656C108.486 9.27149 108.838 8.36253 108.838 7.219C108.838 6.01683 108.456 5.07855 107.723 4.43349C106.99 3.78842 105.993 3.46588 104.733 3.46588H101.771V10.8842ZM117.614 21H114.418V0.475114H117.614V21ZM142.473 0.475114H145.435L145.288 21.088H142.21V13.3178C142.21 12.2916 142.21 11.324 142.239 10.415C142.268 9.50606 142.298 8.71439 142.327 8.04C142.356 7.36561 142.385 6.83783 142.415 6.45665L142.444 5.87023H142.385L142.21 6.19276C142.092 6.42733 141.946 6.69122 141.77 7.01376C141.594 7.33629 141.418 7.68815 141.242 8.04C141.066 8.39186 140.919 8.71439 140.773 9.0076L137.166 15.8395H135.554L131.947 9.0076C131.8 8.71439 131.654 8.39186 131.478 8.04C131.302 7.68815 131.126 7.33629 130.95 7.01376C130.774 6.69122 130.628 6.39801 130.51 6.16344L130.334 5.81158H130.305L130.334 6.36869C130.364 6.74986 130.393 7.27765 130.422 7.95204C130.452 8.62643 130.481 9.4181 130.51 10.3271C130.54 11.236 130.54 12.2036 130.54 13.2299V21H127.432V0.504435H130.422L134.703 8.47982C135.055 9.12489 135.348 9.65267 135.554 10.0925C135.759 10.5323 135.935 10.8842 136.052 11.1481C136.169 11.4119 136.257 11.5879 136.316 11.7052L136.404 11.8811H136.433L136.521 11.7052C136.58 11.5879 136.668 11.3826 136.785 11.1187C136.902 10.8548 137.078 10.503 137.313 10.0632C137.547 9.62335 137.841 9.09557 138.193 8.4505L142.473 0.475114ZM162.716 21L161.045 16.3379H152.424L150.753 21H147.381L155.122 0.475114H158.318L166.088 21H162.716ZM153.48 13.4938H160.048L157.585 6.77919C157.467 6.45665 157.35 6.13412 157.262 5.81158C157.174 5.48905 157.086 5.19584 157.028 4.96127C156.969 4.7267 156.91 4.52145 156.852 4.37484L156.793 4.14027H156.734L156.676 4.37484C156.617 4.52145 156.558 4.7267 156.47 4.96127C156.382 5.19584 156.295 5.48905 156.207 5.81158C156.119 6.13412 156.001 6.45665 155.884 6.77919L153.48 13.4938ZM180.749 0.475114H183.916L183.828 20.9414H180.925L174.093 10.5616C173.712 10.0045 173.331 9.44742 172.979 8.89032C172.627 8.33321 172.304 7.83475 172.011 7.39493C171.718 6.95511 171.483 6.60326 171.307 6.33937L171.044 5.92887H170.985L171.014 6.39801C171.044 6.72054 171.044 7.16036 171.073 7.71747C171.102 8.27457 171.132 8.94896 171.161 9.71131C171.19 10.4737 171.19 11.2947 171.19 12.2036V20.912H168.023V0.387151H170.926L177.875 10.8842C178.198 11.3533 178.52 11.8518 178.872 12.3795C179.224 12.9073 179.547 13.3765 179.84 13.8163C180.133 14.2561 180.338 14.6373 180.544 14.9012L180.837 15.3117H180.896V14.8132C180.896 14.4907 180.896 14.0509 180.866 13.4938C180.837 12.9367 180.808 12.2916 180.778 11.5586C180.749 10.8255 180.749 10.0338 180.749 9.21285V0.475114ZM201.159 21L199.487 16.3379H190.867L189.196 21H185.824L193.565 0.475114H196.761L204.531 21H201.159ZM191.923 13.4938H198.491L196.028 6.77919C195.91 6.45665 195.793 6.13412 195.705 5.81158C195.617 5.48905 195.529 5.19584 195.47 4.96127C195.412 4.7267 195.353 4.52145 195.295 4.37484L195.236 4.14027H195.177L195.119 4.37484C195.06 4.52145 195.001 4.7267 194.913 4.96127C194.825 5.19584 194.737 5.48905 194.649 5.81158C194.562 6.13412 194.444 6.45665 194.327 6.77919L191.923 13.4938ZM220.746 18.537H220.717H220.687C220.482 18.8302 220.189 19.1528 219.808 19.4753C219.426 19.7978 218.987 20.091 218.459 20.3843C217.931 20.6775 217.345 20.912 216.7 21.0586C216.054 21.2346 215.38 21.3225 214.647 21.3225C213.298 21.3225 212.037 21.0586 210.894 20.5895C209.75 20.091 208.753 19.3873 207.903 18.4784C207.053 17.5694 206.408 16.4552 205.939 15.1357C205.469 13.8163 205.235 12.3502 205.235 10.7376C205.235 9.12489 205.469 7.65882 205.939 6.33937C206.408 5.01991 207.082 3.9057 207.932 2.96742C208.783 2.02914 209.78 1.32543 210.923 0.826969C212.067 0.328507 213.328 0.064616 214.706 0.064616C216.67 0.0939368 218.371 0.592399 219.808 1.53068C221.244 2.46896 222.359 3.78842 223.121 5.45973L219.954 6.31005C219.426 5.2838 218.693 4.49213 217.784 3.96434C216.875 3.43656 215.849 3.17267 214.735 3.17267C213.797 3.17267 212.946 3.3486 212.184 3.70045C211.422 4.05231 210.777 4.55077 210.22 5.19584C209.662 5.84091 209.252 6.63258 208.959 7.57086C208.666 8.50914 208.519 9.56471 208.519 10.7376C208.519 11.9397 208.695 12.9953 209.017 13.9336C209.34 14.8719 209.78 15.6635 210.337 16.3086C210.894 16.9537 211.568 17.4521 212.36 17.804C213.152 18.1558 214.031 18.3318 214.97 18.3318C215.791 18.3318 216.524 18.2145 217.169 17.9799C217.814 17.7453 218.371 17.4521 218.84 17.1003C219.309 16.7484 219.72 16.3379 220.042 15.8981C220.365 15.4583 220.599 15.0185 220.746 14.5786V12.5555H215.439V9.94588H223.473V21H220.746C220.746 20.0324 220.746 19.3873 220.746 19.0648C220.746 18.7423 220.746 18.5663 220.746 18.537ZM229.772 17.9799H239.624V21H226.576V0.475114H239.448V3.49521H229.772V8.861H237.366V11.7052H229.772V17.9799ZM257.186 20.9707H253.609L249.622 13.5524C249.534 13.5817 249.446 13.5817 249.328 13.5817H249.035H246.044V20.9414H242.848V0.416472H249.035C250.179 0.416472 251.205 0.563078 252.114 0.885611C253.023 1.20815 253.815 1.64796 254.46 2.23439C255.105 2.82082 255.603 3.52453 255.955 4.34552C256.307 5.16652 256.483 6.07548 256.483 7.10172C256.483 8.53846 256.16 9.74063 255.486 10.7376C254.811 11.7345 253.873 12.4675 252.671 12.966L257.186 20.9707ZM246.044 10.8255H249.299V10.7962C250.56 10.7962 251.527 10.4443 252.202 9.74063C252.876 9.03692 253.199 8.15729 253.199 7.13104C253.199 6.04615 252.876 5.16652 252.202 4.49213C251.527 3.81774 250.56 3.46588 249.299 3.46588H246.044V10.8255ZM280.668 0.475114H283.63L283.483 21.088H280.404V13.3178C280.404 12.2916 280.404 11.324 280.434 10.415C280.463 9.50606 280.492 8.71439 280.522 8.04C280.551 7.36561 280.58 6.83783 280.61 6.45665L280.639 5.87023H280.58L280.404 6.19276C280.287 6.42733 280.14 6.69122 279.965 7.01376C279.789 7.33629 279.613 7.68815 279.437 8.04C279.261 8.39186 279.114 8.71439 278.968 9.0076L275.361 15.8395H273.748L270.142 9.0076C269.995 8.71439 269.849 8.39186 269.673 8.04C269.497 7.68815 269.321 7.33629 269.145 7.01376C268.969 6.69122 268.822 6.39801 268.705 6.16344L268.529 5.81158H268.5L268.529 6.36869C268.559 6.74986 268.588 7.27765 268.617 7.95204C268.647 8.62643 268.676 9.4181 268.705 10.3271C268.734 11.236 268.734 12.2036 268.734 13.2299V21H265.626V0.504435H268.617L272.898 8.47982C273.25 9.12489 273.543 9.65267 273.748 10.0925C273.954 10.5323 274.13 10.8842 274.247 11.1481C274.364 11.4119 274.452 11.5879 274.511 11.7052L274.599 11.8811H274.628L274.716 11.7052C274.775 11.5879 274.863 11.3826 274.98 11.1187C275.097 10.8548 275.273 10.503 275.508 10.0632C275.742 9.62335 276.035 9.09557 276.387 8.4505L280.668 0.475114ZM290.795 21H287.599V0.475114H290.795V21ZM308.987 18.537H308.958H308.928C308.723 18.8302 308.43 19.1528 308.049 19.4753C307.667 19.7978 307.228 20.091 306.7 20.3843C306.172 20.6775 305.586 20.912 304.941 21.0586C304.295 21.2346 303.621 21.3225 302.888 21.3225C301.539 21.3225 300.278 21.0586 299.135 20.5895C297.991 20.091 296.994 19.3873 296.144 18.4784C295.294 17.5694 294.649 16.4552 294.18 15.1357C293.71 13.8163 293.476 12.3502 293.476 10.7376C293.476 9.12489 293.71 7.65882 294.18 6.33937C294.649 5.01991 295.323 3.9057 296.173 2.96742C297.024 2.02914 298.021 1.32543 299.164 0.826969C300.308 0.328507 301.569 0.064616 302.947 0.064616C304.911 0.0939368 306.612 0.592399 308.049 1.53068C309.485 2.46896 310.6 3.78842 311.362 5.45973L308.195 6.31005C307.667 5.2838 306.934 4.49213 306.025 3.96434C305.116 3.43656 304.09 3.17267 302.976 3.17267C302.038 3.17267 301.187 3.3486 300.425 3.70045C299.663 4.05231 299.018 4.55077 298.461 5.19584C297.903 5.84091 297.493 6.63258 297.2 7.57086C296.906 8.50914 296.76 9.56471 296.76 10.7376C296.76 11.9397 296.936 12.9953 297.258 13.9336C297.581 14.8719 298.021 15.6635 298.578 16.3086C299.135 16.9537 299.809 17.4521 300.601 17.804C301.393 18.1558 302.272 18.3318 303.211 18.3318C304.032 18.3318 304.765 18.2145 305.41 17.9799C306.055 17.7453 306.612 17.4521 307.081 17.1003C307.55 16.7484 307.961 16.3379 308.283 15.8981C308.606 15.4583 308.84 15.0185 308.987 14.5786V12.5555H303.68V9.94588H311.714V21H308.987C308.987 20.0324 308.987 19.3873 308.987 19.0648C308.987 18.7423 308.987 18.5663 308.987 18.537ZM329.155 20.9707H325.578L321.59 13.5524C321.502 13.5817 321.414 13.5817 321.297 13.5817H321.004H318.013V20.9414H314.817V0.416472H321.004C322.147 0.416472 323.174 0.563078 324.083 0.885611C324.992 1.20815 325.783 1.64796 326.428 2.23439C327.073 2.82082 327.572 3.52453 327.924 4.34552C328.276 5.16652 328.452 6.07548 328.452 7.10172C328.452 8.53846 328.129 9.74063 327.455 10.7376C326.78 11.7345 325.842 12.4675 324.64 12.966L329.155 20.9707ZM318.013 10.8255H321.268V10.7962C322.529 10.7962 323.496 10.4443 324.171 9.74063C324.845 9.03692 325.168 8.15729 325.168 7.13104C325.168 6.04615 324.845 5.16652 324.171 4.49213C323.496 3.81774 322.529 3.46588 321.268 3.46588H318.013V10.8255ZM345.031 21L343.36 16.3379H334.739L333.068 21H329.696L337.437 0.475114H340.633L348.403 21H345.031ZM335.795 13.4938H342.363L339.9 6.77919C339.783 6.45665 339.665 6.13412 339.577 5.81158C339.489 5.48905 339.401 5.19584 339.343 4.96127C339.284 4.7267 339.226 4.52145 339.167 4.37484L339.108 4.14027H339.05L338.991 4.37484C338.932 4.52145 338.874 4.7267 338.786 4.96127C338.698 5.19584 338.61 5.48905 338.522 5.81158C338.434 6.13412 338.317 6.45665 338.199 6.77919L335.795 13.4938ZM348.462 0.475114H363.797V3.49521H357.698V21H354.502V3.49521H348.462V0.475114ZM369.006 21H365.81V0.475114H369.006V21ZM371.628 10.7669V10.8255C371.628 9.21285 371.863 7.74679 372.332 6.42733C372.801 5.10787 373.476 3.99367 374.326 3.05538C375.176 2.1171 376.173 1.41339 377.317 0.914932C378.46 0.416472 379.721 0.15258 381.099 0.15258C382.477 0.15258 383.738 0.416472 384.911 0.914932C386.084 1.41339 387.11 2.1171 387.96 3.05538C388.811 3.99367 389.485 5.10787 389.954 6.42733C390.423 7.74679 390.658 9.21285 390.658 10.8255C390.658 12.4382 390.423 13.9043 389.954 15.2237C389.485 16.5432 388.811 17.6574 387.96 18.5957C387.11 19.5339 386.113 20.2376 384.94 20.7361C383.767 21.2052 382.506 21.4398 381.128 21.4398C379.75 21.4398 378.489 21.1759 377.317 20.7068C376.144 20.2083 375.147 19.4753 374.297 18.537C373.446 17.5987 372.801 16.4845 372.332 15.1651C371.863 13.8456 371.628 12.3795 371.628 10.7669ZM374.971 10.7376L374.912 10.7669C374.912 11.9397 375.059 12.9953 375.352 13.9336C375.645 14.8719 376.085 15.6635 376.642 16.3086C377.199 16.9537 377.844 17.4521 378.607 17.804C379.369 18.1558 380.219 18.3318 381.128 18.3318C382.067 18.3318 382.917 18.1558 383.679 17.804C384.442 17.4521 385.116 16.9537 385.673 16.3086C386.23 15.6635 386.67 14.8719 386.963 13.9336C387.257 12.9953 387.403 11.9397 387.403 10.7669C387.403 9.56471 387.257 8.50914 386.963 7.57086C386.67 6.63258 386.23 5.84091 385.673 5.19584C385.116 4.55077 384.471 4.05231 383.709 3.70045C382.946 3.3486 382.096 3.17267 381.158 3.17267C380.249 3.17267 379.398 3.3486 378.636 3.70045C377.874 4.05231 377.229 4.55077 376.672 5.19584C376.114 5.84091 375.704 6.63258 375.411 7.57086C375.118 8.50914 374.971 9.56471 374.971 10.7376ZM406.097 0.475114H409.263L409.175 20.9414H406.272L399.441 10.5616C399.059 10.0045 398.678 9.44742 398.326 8.89032C397.975 8.33321 397.652 7.83475 397.359 7.39493C397.066 6.95511 396.831 6.60326 396.655 6.33937L396.391 5.92887H396.333L396.362 6.39801C396.391 6.72054 396.391 7.16036 396.421 7.71747C396.45 8.27457 396.479 8.94896 396.509 9.71131C396.538 10.4737 396.538 11.2947 396.538 12.2036V20.912H393.371V0.387151H396.274L403.223 10.8842C403.546 11.3533 403.868 11.8518 404.22 12.3795C404.572 12.9073 404.894 13.3765 405.188 13.8163C405.481 14.2561 405.686 14.6373 405.891 14.9012L406.185 15.3117H406.243V14.8132C406.243 14.4907 406.243 14.0509 406.214 13.4938C406.185 12.9367 406.155 12.2916 406.126 11.5586C406.097 10.8255 406.097 10.0338 406.097 9.21285V0.475114ZM419.129 0.475114H426.606L426.547 0.533757C427.984 0.533757 429.333 0.768326 430.564 1.26679C431.796 1.76525 432.852 2.46896 433.731 3.37792C434.611 4.28688 435.315 5.37176 435.813 6.63258C436.311 7.89339 436.575 9.30082 436.575 10.8548C436.575 12.4089 436.341 13.8163 435.842 15.0771C435.344 16.3379 434.669 17.3935 433.79 18.2731C432.91 19.1528 431.884 19.8271 430.682 20.2963C429.48 20.7654 428.189 21 426.782 21H419.129V0.475114ZM422.355 18.0092H426.929H426.899C427.808 18.0092 428.659 17.8333 429.45 17.5108C430.242 17.1882 430.916 16.7191 431.503 16.1033C432.089 15.4876 432.529 14.7252 432.852 13.8456C433.174 12.966 433.35 11.9397 433.35 10.7962C433.35 9.62335 433.174 8.56778 432.852 7.65882C432.529 6.74986 432.06 5.98751 431.473 5.37176C430.887 4.75602 430.183 4.28688 429.392 3.96434C428.6 3.64181 427.72 3.46588 426.782 3.46588H422.355V18.0092ZM437.948 10.7669V10.8255C437.948 9.21285 438.183 7.74679 438.652 6.42733C439.121 5.10787 439.795 3.99367 440.646 3.05538C441.496 2.1171 442.493 1.41339 443.636 0.914932C444.78 0.416472 446.041 0.15258 447.419 0.15258C448.797 0.15258 450.058 0.416472 451.231 0.914932C452.404 1.41339 453.43 2.1171 454.28 3.05538C455.13 3.99367 455.805 5.10787 456.274 6.42733C456.743 7.74679 456.978 9.21285 456.978 10.8255C456.978 12.4382 456.743 13.9043 456.274 15.2237C455.805 16.5432 455.13 17.6574 454.28 18.5957C453.43 19.5339 452.433 20.2376 451.26 20.7361C450.087 21.2052 448.826 21.4398 447.448 21.4398C446.07 21.4398 444.809 21.1759 443.636 20.7068C442.464 20.2083 441.467 19.4753 440.616 18.537C439.766 17.5987 439.121 16.4845 438.652 15.1651C438.183 13.8456 437.948 12.3795 437.948 10.7669ZM441.291 10.7376L441.232 10.7669C441.232 11.9397 441.379 12.9953 441.672 13.9336C441.965 14.8719 442.405 15.6635 442.962 16.3086C443.519 16.9537 444.164 17.4521 444.927 17.804C445.689 18.1558 446.539 18.3318 447.448 18.3318C448.387 18.3318 449.237 18.1558 449.999 17.804C450.762 17.4521 451.436 16.9537 451.993 16.3086C452.55 15.6635 452.99 14.8719 453.283 13.9336C453.576 12.9953 453.723 11.9397 453.723 10.7669C453.723 9.56471 453.576 8.50914 453.283 7.57086C452.99 6.63258 452.55 5.84091 451.993 5.19584C451.436 4.55077 450.791 4.05231 450.029 3.70045C449.266 3.3486 448.416 3.17267 447.478 3.17267C446.569 3.17267 445.718 3.3486 444.956 3.70045C444.194 4.05231 443.549 4.55077 442.991 5.19584C442.434 5.84091 442.024 6.63258 441.731 7.57086C441.437 8.50914 441.291 9.56471 441.291 10.7376ZM476.346 5.45973L473.179 6.31005L473.062 6.39801C472.534 5.37176 471.801 4.58009 470.892 4.05231C469.983 3.52453 468.957 3.26063 467.842 3.26063C466.904 3.26063 466.054 3.43656 465.291 3.78842C464.529 4.14027 463.884 4.63873 463.356 5.2838C462.828 5.92887 462.418 6.72054 462.125 7.65882C461.831 8.5971 461.685 9.65267 461.685 10.8255C461.685 11.9984 461.831 13.0539 462.154 13.9922C462.477 14.9305 462.916 15.7222 463.473 16.3672C464.031 17.0123 464.676 17.5108 465.438 17.8626C466.2 18.2145 467.051 18.3904 467.96 18.3904C469.191 18.3904 470.305 18.0679 471.302 17.4228C472.299 16.7777 473.032 15.8688 473.531 14.6959L476.668 15.5169C475.935 17.3642 474.791 18.8302 473.267 19.8858C471.742 20.9414 469.983 21.4398 467.96 21.4398C466.582 21.4398 465.321 21.1759 464.148 20.7068C462.975 20.2083 461.978 19.4753 461.128 18.537C460.277 17.5987 459.632 16.4845 459.163 15.1651C458.694 13.8456 458.46 12.3795 458.46 10.7669C458.46 9.15421 458.694 7.68815 459.163 6.36869C459.632 5.04923 460.307 3.93502 461.157 2.99674C462.007 2.05846 463.004 1.35475 464.148 0.85629C465.291 0.357828 466.552 0.0939368 467.93 0.0939368C469.836 0.0939368 471.507 0.563078 472.974 1.50136C474.44 2.43964 475.554 3.7591 476.346 5.45973ZM491.815 5.45973L488.824 6.28072L488.765 6.54462C488.501 5.43041 488.003 4.58009 487.24 3.99367C486.478 3.40724 485.598 3.11403 484.572 3.11403C483.546 3.11403 482.725 3.3486 482.109 3.84706C481.493 4.34552 481.171 4.99059 481.171 5.78226C481.171 6.22208 481.318 6.60326 481.581 6.95511C481.845 7.30697 482.197 7.6295 482.637 7.92272C483.077 8.21593 483.605 8.47982 484.191 8.71439C484.777 8.94896 485.393 9.18353 486.009 9.44742C486.683 9.71131 487.387 10.0338 488.091 10.3857C488.794 10.7376 489.44 11.1481 490.026 11.6172C490.612 12.0863 491.082 12.6434 491.463 13.2885C491.844 13.9336 492.02 14.6959 492.02 15.6049C492.02 16.4552 491.844 17.2469 491.492 17.9799C491.14 18.7129 490.671 19.358 490.055 19.8858C489.44 20.4136 488.677 20.8241 487.798 21.088C486.918 21.3812 485.95 21.5278 484.895 21.5278C483.839 21.5278 482.901 21.3812 482.051 21.088C481.2 20.8241 480.467 20.4136 479.822 19.8858C479.177 19.358 478.649 18.7129 478.239 17.9799C477.828 17.2469 477.535 16.4259 477.33 15.5462L480.35 14.7252C480.438 15.253 480.614 15.7515 480.878 16.2206C481.142 16.6898 481.464 17.1003 481.845 17.4521C482.226 17.804 482.696 18.0972 483.223 18.3024C483.751 18.5077 484.338 18.5957 485.012 18.5957C486.185 18.5957 487.094 18.3024 487.739 17.7453C488.384 17.1882 488.706 16.4845 488.706 15.6342C488.706 15.0478 488.56 14.5493 488.237 14.1681C487.915 13.787 487.504 13.4351 487.006 13.1419C486.507 12.8487 485.921 12.5555 485.276 12.2916C484.631 12.0277 483.956 11.7638 483.282 11.4706C482.666 11.2067 482.051 10.9135 481.405 10.591C480.76 10.2684 480.174 9.88724 479.646 9.44742C479.118 9.0076 478.679 8.47982 478.356 7.86407C478.034 7.24833 477.858 6.51529 477.858 5.66498C477.858 4.90263 478.034 4.16959 478.356 3.49521C478.679 2.82082 479.148 2.23439 479.734 1.73593C480.321 1.23747 481.054 0.826969 481.904 0.533757C482.754 0.240545 483.693 0.0939368 484.719 0.0939368C485.628 0.0939368 486.478 0.211222 487.24 0.475114C488.003 0.739005 488.706 1.09086 489.322 1.56C489.938 2.02914 490.466 2.58625 490.876 3.26063C491.287 3.93502 491.609 4.66805 491.815 5.45973Z" fill="white"/>
</svg>
