<svg xmlns="http://www.w3.org/2000/svg" version="1.0" width="1739.000000pt" height="196.000000pt" viewBox="0 0 1739.000000 196.000000" preserveAspectRatio="xMidYMid meet">

<g transform="translate(0.000000,196.000000) scale(0.100000,-0.100000)" fill="#ffffff" stroke="none">
<path d="M3481 1950 c-320 -67 -559 -293 -642 -605 -29 -111 -29 -279 0 -390 41 -154 113 -276 227 -385 83 -79 109 -98 200 -144 400 -201 894 -33 1089 369 66 135 79 197 80 355 0 111 -4 149 -23 213 -80 279 -299 496 -577 573 -70 19 -288 28 -354 14z m321 -166 c180 -54 324 -177 411 -350 29 -58 57 -157 57 -203 l0 -31 -117 0 -118 0 -54 -101 c-36 -66 -57 -95 -62 -87 -5 7 -70 165 -146 350 -76 186 -140 338 -144 338 -3 0 -63 -130 -135 -290 l-129 -290 -192 0 -193 0 0 58 c0 80 32 199 77 285 56 108 174 223 284 275 46 22 109 45 139 51 30 6 64 13 75 15 37 9 193 -4 247 -20z m-37 -664 c75 -184 140 -338 143 -342 4 -3 48 67 97 158 l90 164 88 0 87 0 0 -34 c0 -19 -11 -70 -25 -113 -62 -197 -206 -347 -403 -421 -91 -34 -275 -42 -372 -17 -86 22 -202 83 -268 141 -90 79 -180 226 -206 337 l-6 27 219 0 218 0 99 219 c54 121 99 219 100 218 1 -1 64 -153 139 -337z" fill="#ffffff"/>
<path d="M933 1764 c-39 -99 -137 -350 -218 -559 -82 -209 -151 -384 -155 -388 -4 -4 -89 223 -190 505 -100 282 -187 521 -192 531 -7 14 -23 17 -94 17 -65 0 -85 -3 -82 -12 102 -287 544 -1488 548 -1488 3 0 104 252 225 560 120 308 222 560 225 560 3 0 97 -251 209 -558 113 -306 206 -561 209 -565 3 -7 574 1413 598 1486 5 16 -2 18 -83 15 l-88 -3 -207 -525 c-114 -289 -208 -528 -210 -532 -2 -4 -95 243 -207 550 -112 306 -207 563 -211 571 -5 8 -35 -57 -77 -165z" fill="#ffffff"/>
<path d="M2260 1876 c-107 -31 -204 -104 -245 -186 -50 -99 -53 -227 -6 -317 35 -69 80 -102 346 -248 210 -115 233 -132 256 -176 28 -56 26 -159 -5 -224 -26 -56 -89 -119 -145 -143 -56 -25 -185 -22 -237 6 -60 31 -119 103 -145 176 l-23 63 -74 -23 c-40 -12 -76 -24 -78 -27 -5 -5 29 -104 51 -147 27 -52 115 -140 167 -166 138 -70 307 -71 441 -3 58 30 159 130 186 185 72 144 65 319 -16 414 -46 53 -84 79 -293 195 -96 53 -194 109 -218 124 -115 71 -108 237 12 315 119 77 265 52 344 -58 18 -25 38 -46 43 -46 5 0 37 17 70 38 l60 38 -44 60 c-47 64 -93 100 -172 135 -61 28 -205 36 -275 15z" fill="#ffffff"/>
<path d="M6316 1808 c-39 -92 -520 -1356 -524 -1376 -4 -22 -3 -22 91 -22 l95 0 68 190 68 190 295 -2 295 -3 26 -70 c15 -38 46 -123 69 -187 l43 -118 94 0 c69 0 94 3 94 13 -1 6 -122 327 -269 712 l-268 700 -82 3 -82 3 -13 -33z m213 -538 c61 -168 111 -310 111 -317 0 -10 -52 -13 -235 -13 l-235 0 35 98 c152 421 201 550 207 544 3 -4 56 -144 117 -312z" fill="#ffffff"/>
<path d="M7242 1129 l3 -714 93 -3 92 -3 0 280 0 279 243 4 c213 4 250 7 307 26 163 53 254 161 280 330 29 187 -56 369 -208 446 -106 54 -142 58 -490 63 l-322 5 2 -713z m684 519 c62 -32 116 -93 132 -147 7 -21 12 -72 12 -112 0 -90 -21 -139 -78 -191 -65 -59 -113 -68 -354 -68 l-208 0 0 276 0 276 223 -4 c219 -3 223 -4 273 -30z" fill="#ffffff"/>
<path d="M8535 1798 c-3 -24 -5 -344 -3 -713 l3 -670 95 0 95 0 3 670 c2 369 0 689 -3 713 l-6 42 -89 0 -89 0 -6 -42z" fill="#ffffff"/>
<path d="M9600 1125 l0 -716 93 3 92 3 3 240 c2 132 -2 384 -8 559 -5 176 -9 320 -7 322 1 2 105 -251 231 -562 l229 -564 68 0 c60 0 70 3 80 22 7 12 112 270 235 573 l224 550 -7 -155 c-4 -85 -7 -342 -7 -570 l-1 -415 93 -3 92 -3 0 716 0 716 -122 -3 -122 -3 -229 -573 c-126 -315 -231 -571 -233 -569 -2 2 -107 260 -233 573 l-228 569 -122 3 -121 3 0 -716z" fill="#ffffff"/>
<path d="M11601 1474 c-120 -32 -233 -126 -265 -220 -26 -76 -27 -74 78 -74 l94 0 6 32 c8 41 71 100 123 116 22 7 68 12 102 12 140 0 211 -70 211 -208 l0 -69 -157 -6 c-212 -8 -309 -36 -396 -116 -66 -61 -92 -126 -92 -231 0 -73 4 -92 27 -135 33 -63 78 -106 148 -141 47 -24 70 -29 155 -32 120 -4 188 16 270 77 l53 40 6 -42 c10 -63 17 -67 117 -67 98 0 104 5 77 67 -8 19 -14 141 -18 388 -6 344 -7 363 -29 417 -38 97 -129 171 -243 198 -62 14 -204 11 -267 -6z m349 -659 l0 -115 -37 -42 c-112 -123 -323 -133 -400 -19 -31 46 -32 139 -2 187 41 68 151 100 352 103 l87 1 0 -115z" fill="#ffffff"/>
<path d="M12797 1471 c-60 -20 -167 -93 -167 -114 0 -8 -4 -6 -10 3 -5 8 -10 36 -10 63 l0 47 -85 0 -85 0 0 -530 0 -530 90 0 90 0 0 383 0 382 35 47 c101 138 333 152 403 25 15 -28 18 -77 22 -432 l5 -400 90 0 90 0 3 375 c1 220 -2 396 -8 429 -22 117 -83 205 -170 245 -65 29 -215 33 -293 7z" fill="#ffffff"/>
<path d="M13833 1475 c-153 -42 -261 -144 -280 -261 l-6 -34 89 0 89 0 25 53 c21 43 34 56 79 79 72 38 185 40 252 5 61 -32 99 -105 99 -194 l0 -63 -122 0 c-220 -1 -350 -39 -441 -128 -61 -60 -87 -127 -87 -225 0 -91 28 -154 96 -218 72 -67 125 -84 259 -84 98 0 116 3 165 26 31 14 72 41 93 58 l36 32 7 -28 c18 -83 10 -78 119 -81 110 -3 102 -12 75 83 -8 25 -15 173 -19 395 -6 345 -7 357 -30 408 -30 67 -104 134 -179 163 -73 29 -241 36 -319 14z m347 -654 c0 -126 -12 -154 -93 -208 -60 -40 -104 -53 -183 -53 -121 0 -200 76 -192 186 10 126 118 179 376 183 l92 1 0 -109z" fill="#ffffff"/>
<path d="M14910 1472 c-73 -27 -103 -47 -153 -101 -99 -106 -143 -259 -134 -466 8 -190 59 -319 163 -415 76 -70 121 -85 254 -85 127 0 173 14 251 76 l39 31 0 -59 c0 -129 -45 -221 -133 -269 -46 -26 -62 -29 -142 -29 -78 0 -97 4 -147 28 -31 15 -75 45 -97 67 -23 22 -43 40 -45 40 -2 0 -25 -25 -50 -55 l-47 -54 45 -45 c91 -91 238 -142 386 -133 200 12 337 112 390 285 19 61 20 95 20 623 l0 559 -85 0 -85 0 0 -56 0 -56 -51 46 c-89 80 -263 111 -379 68z m300 -170 c33 -17 67 -44 87 -70 l33 -44 0 -242 0 -243 -30 -41 c-96 -132 -306 -148 -405 -30 -71 84 -103 230 -85 388 5 48 16 105 24 128 59 166 218 231 376 154z" fill="#ffffff"/>
<path d="M16083 1470 c-128 -42 -246 -164 -292 -302 -45 -136 -47 -326 -4 -458 41 -129 158 -246 286 -288 124 -40 298 -28 412 31 38 19 156 129 155 145 -1 4 -25 25 -55 48 l-55 41 -45 -43 c-68 -66 -116 -87 -213 -92 -64 -3 -93 0 -129 13 -100 38 -183 152 -199 273 l-7 52 357 0 356 0 0 98 c0 114 -25 226 -67 304 -37 68 -120 142 -191 169 -83 32 -225 36 -309 9z m263 -166 c39 -24 56 -43 81 -94 18 -36 36 -89 39 -117 l7 -53 -263 0 -263 0 7 46 c7 54 47 137 84 178 76 81 213 99 308 40z" fill="#ffffff"/>
<path d="M17220 1481 c-48 -15 -87 -40 -123 -80 l-37 -41 0 55 0 55 -90 0 -90 0 0 -530 0 -530 90 0 90 0 0 378 0 378 29 46 c43 68 110 98 218 98 l83 0 0 84 c0 67 -3 85 -16 90 -21 8 -123 6 -154 -3z" fill="#ffffff"/>
<path d="M4525 1211 c-29 -6 -30 -8 -33 -68 l-3 -62 38 11 c21 6 66 8 100 5 184 -14 283 -201 196 -371 -31 -60 -103 -144 -367 -429 -146 -157 -266 -289 -266 -292 0 -3 180 -5 400 -5 l400 0 0 60 0 60 -271 0 -271 0 110 118 c369 394 415 463 415 622 0 171 -107 308 -272 346 -58 14 -125 16 -176 5z" fill="#ffffff"/>
</g>
</svg>