<svg width="576" height="28" viewBox="0 0 576 28" fill="none" xmlns="http://www.w3.org/2000/svg">
<path d="M25.729 1.30851L19.8726 16.2562L13.9846 0.270149L7.74444 16.2204L2.42184 1.30851H0L7.6494 22.2504L13.9258 6.29977L19.8074 22.268L28.15 1.30851H25.729Z" fill="#FF7300"/>
<path d="M37.5107 11.9483C36.5339 11.15 31.4174 8.49186 30.7592 8.03232C30.1032 7.57426 29.7737 6.90675 29.7737 6.03052C29.7737 5.15317 30.108 4.44093 30.7748 3.8938C31.4416 3.34331 32.2533 3.07161 33.2093 3.07161C33.8258 3.07161 34.3524 3.19013 34.7918 3.4309C35.2298 3.67055 35.6483 4.05965 36.0456 4.59747L36.2562 4.92396C36.3147 4.96607 36.3963 5.06558 36.4958 5.22249L38.2584 4.08872C37.6807 3.07236 36.9591 2.30086 36.0915 1.77199C35.2264 1.24498 34.2943 0.980736 33.3003 0.980736C31.6067 0.980736 30.221 1.45742 29.1453 2.41416C28.0712 3.37015 27.5341 4.59747 27.5341 6.09201C27.5341 7.50457 28.0198 8.59585 28.9959 9.36176C29.9731 10.128 34.8418 12.6554 35.5984 13.1734C36.3557 13.6904 36.7325 14.457 36.7325 15.4734C36.7325 16.6288 36.352 17.5881 35.5838 18.3536C34.8164 19.1225 33.8448 19.5046 32.6719 19.5046C31.6369 19.5046 30.7804 19.1863 30.1039 18.5478C29.4264 17.9097 28.9471 16.997 28.6687 15.8014L26.517 16.4596C26.7045 17.2661 26.9784 17.9847 27.3325 18.6104C27.6966 19.2493 28.1469 19.7912 28.6839 20.2362C29.7488 21.124 31.0983 21.5679 32.7326 21.5679C34.465 21.5679 35.9372 20.9734 37.1537 19.7893C38.3672 18.6041 38.9747 17.1554 38.9747 15.4413C38.9747 13.9091 38.4872 12.7433 37.5107 11.9483Z" fill="#FF7300"/>
<path d="M62.5951 10.5778C63.0971 10.4351 63.6301 10.3631 64.1999 10.3631C65.7176 10.3631 66.9468 10.8544 67.8834 11.8357C68.8234 12.8133 69.2948 13.9687 69.2948 15.2996C69.2948 16.2351 69.0697 17.1117 68.6191 17.9309C68.1719 18.7494 67.2997 19.8615 66.0038 21.2581L61.897 25.6903H69.5162V27.2843H58.3075L64.6144 20.4739C65.892 19.102 66.725 18.0867 67.1111 17.4248C67.4976 16.7647 67.6896 16.0663 67.6896 15.3354C67.6896 14.407 67.3441 13.6072 66.6497 12.9389C65.9587 12.271 65.1108 11.9348 64.1071 11.9348C63.5332 11.9348 63.0129 12.0392 62.5429 12.2468C62.585 11.8465 62.6003 10.7269 62.5951 10.5778Z" fill="black"/>
<path d="M50.5384 20.4433C55.5519 20.4433 59.616 16.3357 59.616 11.2688C59.616 6.20182 55.5519 2.09425 50.5384 2.09425C45.525 2.09425 41.4608 6.20182 41.4608 11.2688C41.4608 16.3357 45.525 20.4433 50.5384 20.4433Z" fill="#FF7300"/>
<path d="M50.5388 0C44.2979 0 39.2388 5.04531 39.2388 11.2687C39.2388 17.4922 44.2979 22.5375 50.5388 22.5375C56.7794 22.5375 61.8389 17.4922 61.8389 11.2687C61.8389 5.04531 56.7794 0 50.5388 0ZM50.5388 20.4433C45.5256 20.4433 41.4612 16.3357 41.4612 11.2687C41.4612 6.20182 45.5256 2.09423 50.5388 2.09423C55.5521 2.09423 59.6164 6.20182 59.6164 11.2687C59.6164 16.3357 55.5521 20.4433 50.5388 20.4433Z" fill="black"/>
<path d="M59.586 10.5537L56.2965 10.5616L54.6566 13.5126L50.5643 3.53644L46.8827 11.7315L41.4722 11.7199C41.4938 12.1713 41.5486 12.614 41.6328 13.046L47.7396 13.0591L50.5088 6.89451L54.4762 16.5658L57.0773 11.8854L59.5939 11.8794C59.6069 11.6774 59.6162 11.4739 59.6162 11.2686C59.6162 11.0278 59.6039 10.79 59.586 10.5537Z" fill="white"/>
<path d="M83.1166 21H79.9206V0.475114H83.1166V21ZM87.0291 0.475114H94.5061L94.4474 0.533757C95.8842 0.533757 97.2329 0.768326 98.4644 1.26679C99.6959 1.76525 100.751 2.46896 101.631 3.37792C102.511 4.28688 103.214 5.37176 103.713 6.63258C104.211 7.89339 104.475 9.30082 104.475 10.8548C104.475 12.4089 104.241 13.8163 103.742 15.0771C103.244 16.3379 102.569 17.3935 101.69 18.2731C100.81 19.1528 99.7839 19.8271 98.5817 20.2963C97.3795 20.7654 96.0894 21 94.682 21H87.0291V0.475114ZM90.2545 18.0092H94.8286H94.7993C95.7082 18.0092 96.5585 17.8333 97.3502 17.5108C98.1419 17.1882 98.8163 16.7191 99.4027 16.1033C99.9891 15.4876 100.429 14.7252 100.751 13.8456C101.074 12.966 101.25 11.9397 101.25 10.7962C101.25 9.62335 101.074 8.56778 100.751 7.65882C100.429 6.74986 99.9598 5.98751 99.3734 5.37176C98.787 4.75602 98.0832 4.28688 97.2916 3.96434C96.4999 3.64181 95.6203 3.46588 94.682 3.46588H90.2545V18.0092ZM110.364 17.9799H120.216V21H107.168V0.475114H120.04V3.49521H110.364V8.861H117.958V11.7052H110.364V17.9799ZM136.136 0.475114H139.303L139.215 20.9414H136.312L129.48 10.5616C129.099 10.0045 128.718 9.44742 128.366 8.89032C128.014 8.33321 127.691 7.83475 127.398 7.39493C127.105 6.95511 126.87 6.60326 126.694 6.33937L126.43 5.92887H126.372L126.401 6.39801C126.43 6.72054 126.43 7.16036 126.46 7.71747C126.489 8.27457 126.518 8.94896 126.548 9.71131C126.577 10.4737 126.577 11.2947 126.577 12.2036V20.912H123.41V0.387151H126.313L133.262 10.8842C133.585 11.3533 133.907 11.8518 134.259 12.3795C134.611 12.9073 134.934 13.3765 135.227 13.8163C135.52 14.2561 135.725 14.6373 135.931 14.9012L136.224 15.3117H136.282V14.8132C136.282 14.4907 136.282 14.0509 136.253 13.4938C136.224 12.9367 136.194 12.2916 136.165 11.5586C136.136 10.8255 136.136 10.0338 136.136 9.21285V0.475114ZM141.328 0.475114H156.663V3.49521H150.564V21H147.368V3.49521H141.328V0.475114ZM161.872 21H158.676V0.475114H161.872V21ZM163.908 0.475114H179.243V3.49521H173.144V21H169.948V3.49521H163.908V0.475114ZM193.453 0.475114H196.942L189.671 11.5879V21H186.533V11.5879L179.261 0.504435H182.751L186.973 6.83783C187.295 7.30697 187.53 7.77611 187.735 8.15729C187.941 8.53846 188.058 8.71439 188.087 8.71439H188.146C188.175 8.71439 188.292 8.50914 188.498 8.12796C188.703 7.74679 188.937 7.27765 189.26 6.80851L193.453 0.475114ZM217.739 5.45973L214.748 6.28072L214.689 6.54462C214.425 5.43041 213.927 4.58009 213.164 3.99367C212.402 3.40724 211.522 3.11403 210.496 3.11403C209.47 3.11403 208.649 3.3486 208.033 3.84706C207.417 4.34552 207.095 4.99059 207.095 5.78226C207.095 6.22208 207.242 6.60326 207.505 6.95511C207.769 7.30697 208.121 7.6295 208.561 7.92272C209.001 8.21593 209.529 8.47982 210.115 8.71439C210.701 8.94896 211.317 9.18353 211.933 9.44742C212.607 9.71131 213.311 10.0338 214.015 10.3857C214.718 10.7376 215.363 11.1481 215.95 11.6172C216.536 12.0863 217.005 12.6434 217.387 13.2885C217.768 13.9336 217.944 14.6959 217.944 15.6049C217.944 16.4552 217.768 17.2469 217.416 17.9799C217.064 18.7129 216.595 19.358 215.979 19.8858C215.363 20.4136 214.601 20.8241 213.722 21.088C212.842 21.3812 211.874 21.5278 210.819 21.5278C209.763 21.5278 208.825 21.3812 207.975 21.088C207.124 20.8241 206.391 20.4136 205.746 19.8858C205.101 19.358 204.573 18.7129 204.163 17.9799C203.752 17.2469 203.459 16.4259 203.254 15.5462L206.274 14.7252C206.362 15.253 206.538 15.7515 206.802 16.2206C207.066 16.6898 207.388 17.1003 207.769 17.4521C208.15 17.804 208.62 18.0972 209.147 18.3024C209.675 18.5077 210.262 18.5957 210.936 18.5957C212.109 18.5957 213.018 18.3024 213.663 17.7453C214.308 17.1882 214.63 16.4845 214.63 15.6342C214.63 15.0478 214.484 14.5493 214.161 14.1681C213.839 13.787 213.428 13.4351 212.93 13.1419C212.431 12.8487 211.845 12.5555 211.2 12.2916C210.555 12.0277 209.88 11.7638 209.206 11.4706C208.59 11.2067 207.975 10.9135 207.329 10.591C206.684 10.2684 206.098 9.88724 205.57 9.44742C205.042 9.0076 204.603 8.47982 204.28 7.86407C203.958 7.24833 203.782 6.51529 203.782 5.66498C203.782 4.90263 203.958 4.16959 204.28 3.49521C204.603 2.82082 205.072 2.23439 205.658 1.73593C206.245 1.23747 206.978 0.826969 207.828 0.533757C208.678 0.240545 209.617 0.0939368 210.643 0.0939368C211.552 0.0939368 212.402 0.211222 213.164 0.475114C213.927 0.739005 214.63 1.09086 215.246 1.56C215.862 2.02914 216.39 2.58625 216.8 3.26063C217.211 3.93502 217.533 4.66805 217.739 5.45973ZM223.589 17.9799H233.441V21H220.393V0.475114H233.266V3.49521H223.589V8.861H231.184V11.7052H223.589V17.9799ZM251.004 20.9707H247.427L243.439 13.5524C243.351 13.5817 243.263 13.5817 243.146 13.5817H242.852H239.862V20.9414H236.666V0.416472H242.852C243.996 0.416472 245.022 0.563078 245.931 0.885611C246.84 1.20815 247.632 1.64796 248.277 2.23439C248.922 2.82082 249.42 3.52453 249.772 4.34552C250.124 5.16652 250.3 6.07548 250.3 7.10172C250.3 8.53846 249.977 9.74063 249.303 10.7376C248.629 11.7345 247.69 12.4675 246.488 12.966L251.004 20.9707ZM239.862 10.8255H243.116V10.7962C244.377 10.7962 245.345 10.4443 246.019 9.74063C246.694 9.03692 247.016 8.15729 247.016 7.13104C247.016 6.04615 246.694 5.16652 246.019 4.49213C245.345 3.81774 244.377 3.46588 243.116 3.46588H239.862V10.8255ZM266.762 0.475114H270.193L262.628 21H259.139L251.574 0.475114H254.975L259.813 14.0509C259.989 14.52 260.106 14.9598 260.224 15.3703C260.341 15.7808 260.458 16.162 260.546 16.4845C260.634 16.8071 260.722 17.071 260.781 17.2762L260.869 17.5694H260.898L260.986 17.2762C261.045 17.071 261.133 16.8071 261.221 16.4845C261.309 16.162 261.426 15.7808 261.543 15.3703C261.66 14.9598 261.778 14.52 261.954 14.0509L266.762 0.475114ZM275.327 17.9799H285.179V21H272.131V0.475114H285.003V3.49521H275.327V8.861H282.921V11.7052H275.327V17.9799ZM302.741 20.9707H299.164L295.176 13.5524C295.088 13.5817 295 13.5817 294.883 13.5817H294.59H291.599V20.9414H288.403V0.416472H294.59C295.733 0.416472 296.759 0.563078 297.668 0.885611C298.577 1.20815 299.369 1.64796 300.014 2.23439C300.659 2.82082 301.158 3.52453 301.509 4.34552C301.861 5.16652 302.037 6.07548 302.037 7.10172C302.037 8.53846 301.715 9.74063 301.04 10.7376C300.366 11.7345 299.428 12.4675 298.225 12.966L302.741 20.9707ZM291.599 10.8255H294.853V10.7962C296.114 10.7962 297.082 10.4443 297.756 9.74063C298.431 9.03692 298.753 8.15729 298.753 7.13104C298.753 6.04615 298.431 5.16652 297.756 4.49213C297.082 3.81774 296.114 3.46588 294.853 3.46588H291.599V10.8255ZM326.223 0.475114H329.184L329.037 21.088H325.959V13.3178C325.959 12.2916 325.959 11.324 325.988 10.415C326.017 9.50606 326.047 8.71439 326.076 8.04C326.105 7.36561 326.135 6.83783 326.164 6.45665L326.193 5.87023H326.135L325.959 6.19276C325.841 6.42733 325.695 6.69122 325.519 7.01376C325.343 7.33629 325.167 7.68815 324.991 8.04C324.815 8.39186 324.669 8.71439 324.522 9.0076L320.915 15.8395H319.303L315.696 9.0076C315.55 8.71439 315.403 8.39186 315.227 8.04C315.051 7.68815 314.875 7.33629 314.699 7.01376C314.523 6.69122 314.377 6.39801 314.26 6.16344L314.084 5.81158H314.054L314.084 6.36869C314.113 6.74986 314.142 7.27765 314.172 7.95204C314.201 8.62643 314.23 9.4181 314.26 10.3271C314.289 11.236 314.289 12.2036 314.289 13.2299V21H311.181V0.504435H314.172L318.452 8.47982C318.804 9.12489 319.098 9.65267 319.303 10.0925C319.508 10.5323 319.684 10.8842 319.801 11.1481C319.919 11.4119 320.007 11.5879 320.065 11.7052L320.153 11.8811H320.182L320.27 11.7052C320.329 11.5879 320.417 11.3826 320.534 11.1187C320.652 10.8548 320.828 10.503 321.062 10.0632C321.297 9.62335 321.59 9.09557 321.942 8.4505L326.223 0.475114ZM336.349 21H333.153V0.475114H336.349V21ZM354.541 18.537H354.512H354.483C354.277 18.8302 353.984 19.1528 353.603 19.4753C353.222 19.7978 352.782 20.091 352.254 20.3843C351.726 20.6775 351.14 20.912 350.495 21.0586C349.85 21.2346 349.175 21.3225 348.442 21.3225C347.094 21.3225 345.833 21.0586 344.689 20.5895C343.546 20.091 342.549 19.3873 341.699 18.4784C340.848 17.5694 340.203 16.4552 339.734 15.1357C339.265 13.8163 339.03 12.3502 339.03 10.7376C339.03 9.12489 339.265 7.65882 339.734 6.33937C340.203 5.01991 340.878 3.9057 341.728 2.96742C342.578 2.02914 343.575 1.32543 344.719 0.826969C345.862 0.328507 347.123 0.064616 348.501 0.064616C350.466 0.0939368 352.166 0.592399 353.603 1.53068C355.04 2.46896 356.154 3.78842 356.916 5.45973L353.75 6.31005C353.222 5.2838 352.489 4.49213 351.58 3.96434C350.671 3.43656 349.645 3.17267 348.53 3.17267C347.592 3.17267 346.742 3.3486 345.979 3.70045C345.217 4.05231 344.572 4.55077 344.015 5.19584C343.458 5.84091 343.047 6.63258 342.754 7.57086C342.461 8.50914 342.314 9.56471 342.314 10.7376C342.314 11.9397 342.49 12.9953 342.813 13.9336C343.135 14.8719 343.575 15.6635 344.132 16.3086C344.689 16.9537 345.364 17.4521 346.155 17.804C346.947 18.1558 347.827 18.3318 348.765 18.3318C349.586 18.3318 350.319 18.2145 350.964 17.9799C351.609 17.7453 352.166 17.4521 352.635 17.1003C353.104 16.7484 353.515 16.3379 353.838 15.8981C354.16 15.4583 354.395 15.0185 354.541 14.5786V12.5555H349.234V9.94588H357.268V21H354.541C354.541 20.0324 354.541 19.3873 354.541 19.0648C354.541 18.7423 354.541 18.5663 354.541 18.537ZM374.71 20.9707H371.132L367.145 13.5524C367.057 13.5817 366.969 13.5817 366.852 13.5817H366.558H363.568V20.9414H360.372V0.416472H366.558C367.702 0.416472 368.728 0.563078 369.637 0.885611C370.546 1.20815 371.338 1.64796 371.983 2.23439C372.628 2.82082 373.126 3.52453 373.478 4.34552C373.83 5.16652 374.006 6.07548 374.006 7.10172C374.006 8.53846 373.683 9.74063 373.009 10.7376C372.335 11.7345 371.396 12.4675 370.194 12.966L374.71 20.9707ZM363.568 10.8255H366.822V10.7962C368.083 10.7962 369.051 10.4443 369.725 9.74063C370.399 9.03692 370.722 8.15729 370.722 7.13104C370.722 6.04615 370.399 5.16652 369.725 4.49213C369.051 3.81774 368.083 3.46588 366.822 3.46588H363.568V10.8255ZM390.586 21L388.914 16.3379H380.294L378.622 21H375.251L382.991 0.475114H386.187L393.957 21H390.586ZM381.349 13.4938H387.917L385.454 6.77919C385.337 6.45665 385.22 6.13412 385.132 5.81158C385.044 5.48905 384.956 5.19584 384.897 4.96127C384.839 4.7267 384.78 4.52145 384.721 4.37484L384.663 4.14027H384.604L384.545 4.37484C384.487 4.52145 384.428 4.7267 384.34 4.96127C384.252 5.19584 384.164 5.48905 384.076 5.81158C383.988 6.13412 383.871 6.45665 383.754 6.77919L381.349 13.4938ZM394.017 0.475114H409.352V3.49521H403.253V21H400.057V3.49521H394.017V0.475114ZM414.56 21H411.364V0.475114H414.56V21ZM417.183 10.7669V10.8255C417.183 9.21285 417.417 7.74679 417.886 6.42733C418.356 5.10787 419.03 3.99367 419.88 3.05538C420.731 2.1171 421.727 1.41339 422.871 0.914932C424.015 0.416472 425.275 0.15258 426.653 0.15258C428.032 0.15258 429.292 0.416472 430.465 0.914932C431.638 1.41339 432.664 2.1171 433.515 3.05538C434.365 3.99367 435.039 5.10787 435.508 6.42733C435.978 7.74679 436.212 9.21285 436.212 10.8255C436.212 12.4382 435.978 13.9043 435.508 15.2237C435.039 16.5432 434.365 17.6574 433.515 18.5957C432.664 19.5339 431.667 20.2376 430.495 20.7361C429.322 21.2052 428.061 21.4398 426.683 21.4398C425.305 21.4398 424.044 21.1759 422.871 20.7068C421.698 20.2083 420.701 19.4753 419.851 18.537C419.001 17.5987 418.356 16.4845 417.886 15.1651C417.417 13.8456 417.183 12.3795 417.183 10.7669ZM420.525 10.7376L420.467 10.7669C420.467 11.9397 420.613 12.9953 420.906 13.9336C421.2 14.8719 421.64 15.6635 422.197 16.3086C422.754 16.9537 423.399 17.4521 424.161 17.804C424.923 18.1558 425.774 18.3318 426.683 18.3318C427.621 18.3318 428.471 18.1558 429.234 17.804C429.996 17.4521 430.67 16.9537 431.228 16.3086C431.785 15.6635 432.224 14.8719 432.518 13.9336C432.811 12.9953 432.958 11.9397 432.958 10.7669C432.958 9.56471 432.811 8.50914 432.518 7.57086C432.224 6.63258 431.785 5.84091 431.228 5.19584C430.67 4.55077 430.025 4.05231 429.263 3.70045C428.501 3.3486 427.65 3.17267 426.712 3.17267C425.803 3.17267 424.953 3.3486 424.19 3.70045C423.428 4.05231 422.783 4.55077 422.226 5.19584C421.669 5.84091 421.258 6.63258 420.965 7.57086C420.672 8.50914 420.525 9.56471 420.525 10.7376ZM451.651 0.475114H454.818L454.73 20.9414H451.827L444.995 10.5616C444.614 10.0045 444.233 9.44742 443.881 8.89032C443.529 8.33321 443.206 7.83475 442.913 7.39493C442.62 6.95511 442.385 6.60326 442.21 6.33937L441.946 5.92887H441.887L441.916 6.39801C441.946 6.72054 441.946 7.16036 441.975 7.71747C442.004 8.27457 442.034 8.94896 442.063 9.71131C442.092 10.4737 442.092 11.2947 442.092 12.2036V20.912H438.926V0.387151H441.828L448.777 10.8842C449.1 11.3533 449.423 11.8518 449.774 12.3795C450.126 12.9073 450.449 13.3765 450.742 13.8163C451.035 14.2561 451.24 14.6373 451.446 14.9012L451.739 15.3117H451.798V14.8132C451.798 14.4907 451.798 14.0509 451.768 13.4938C451.739 12.9367 451.71 12.2916 451.68 11.5586C451.651 10.8255 451.651 10.0338 451.651 9.21285V0.475114ZM464.684 0.475114H472.161L472.102 0.533757C473.539 0.533757 474.887 0.768326 476.119 1.26679C477.35 1.76525 478.406 2.46896 479.286 3.37792C480.165 4.28688 480.869 5.37176 481.367 6.63258C481.866 7.89339 482.13 9.30082 482.13 10.8548C482.13 12.4089 481.895 13.8163 481.397 15.0771C480.898 16.3379 480.224 17.3935 479.344 18.2731C478.465 19.1528 477.438 19.8271 476.236 20.2963C475.034 20.7654 473.744 21 472.336 21H464.684V0.475114ZM467.909 18.0092H472.483H472.454C473.363 18.0092 474.213 17.8333 475.005 17.5108C475.796 17.1882 476.471 16.7191 477.057 16.1033C477.644 15.4876 478.083 14.7252 478.406 13.8456C478.728 12.966 478.904 11.9397 478.904 10.7962C478.904 9.62335 478.728 8.56778 478.406 7.65882C478.083 6.74986 477.614 5.98751 477.028 5.37176C476.441 4.75602 475.738 4.28688 474.946 3.96434C474.154 3.64181 473.275 3.46588 472.336 3.46588H467.909V18.0092ZM483.503 10.7669V10.8255C483.503 9.21285 483.737 7.74679 484.206 6.42733C484.675 5.10787 485.35 3.99367 486.2 3.05538C487.05 2.1171 488.047 1.41339 489.191 0.914932C490.334 0.416472 491.595 0.15258 492.973 0.15258C494.351 0.15258 495.612 0.416472 496.785 0.914932C497.958 1.41339 498.984 2.1171 499.835 3.05538C500.685 3.99367 501.359 5.10787 501.828 6.42733C502.297 7.74679 502.532 9.21285 502.532 10.8255C502.532 12.4382 502.297 13.9043 501.828 15.2237C501.359 16.5432 500.685 17.6574 499.835 18.5957C498.984 19.5339 497.987 20.2376 496.814 20.7361C495.642 21.2052 494.381 21.4398 493.003 21.4398C491.625 21.4398 490.364 21.1759 489.191 20.7068C488.018 20.2083 487.021 19.4753 486.171 18.537C485.32 17.5987 484.675 16.4845 484.206 15.1651C483.737 13.8456 483.503 12.3795 483.503 10.7669ZM486.845 10.7376L486.787 10.7669C486.787 11.9397 486.933 12.9953 487.226 13.9336C487.52 14.8719 487.959 15.6635 488.516 16.3086C489.074 16.9537 489.719 17.4521 490.481 17.804C491.243 18.1558 492.094 18.3318 493.003 18.3318C493.941 18.3318 494.791 18.1558 495.554 17.804C496.316 17.4521 496.99 16.9537 497.547 16.3086C498.105 15.6635 498.544 14.8719 498.838 13.9336C499.131 12.9953 499.277 11.9397 499.277 10.7669C499.277 9.56471 499.131 8.50914 498.838 7.57086C498.544 6.63258 498.105 5.84091 497.547 5.19584C496.99 4.55077 496.345 4.05231 495.583 3.70045C494.821 3.3486 493.97 3.17267 493.032 3.17267C492.123 3.17267 491.273 3.3486 490.51 3.70045C489.748 4.05231 489.103 4.55077 488.546 5.19584C487.989 5.84091 487.578 6.63258 487.285 7.57086C486.992 8.50914 486.845 9.56471 486.845 10.7376ZM521.9 5.45973L518.733 6.31005L518.616 6.39801C518.088 5.37176 517.355 4.58009 516.446 4.05231C515.537 3.52453 514.511 3.26063 513.397 3.26063C512.458 3.26063 511.608 3.43656 510.846 3.78842C510.083 4.14027 509.438 4.63873 508.911 5.2838C508.383 5.92887 507.972 6.72054 507.679 7.65882C507.386 8.5971 507.239 9.65267 507.239 10.8255C507.239 11.9984 507.386 13.0539 507.708 13.9922C508.031 14.9305 508.471 15.7222 509.028 16.3672C509.585 17.0123 510.23 17.5108 510.992 17.8626C511.755 18.2145 512.605 18.3904 513.514 18.3904C514.746 18.3904 515.86 18.0679 516.857 17.4228C517.854 16.7777 518.587 15.8688 519.085 14.6959L522.222 15.5169C521.489 17.3642 520.346 18.8302 518.821 19.8858C517.296 20.9414 515.537 21.4398 513.514 21.4398C512.136 21.4398 510.875 21.1759 509.702 20.7068C508.529 20.2083 507.532 19.4753 506.682 18.537C505.832 17.5987 505.187 16.4845 504.718 15.1651C504.248 13.8456 504.014 12.3795 504.014 10.7669C504.014 9.15421 504.248 7.68815 504.718 6.36869C505.187 5.04923 505.861 3.93502 506.711 2.99674C507.562 2.05846 508.559 1.35475 509.702 0.85629C510.846 0.357828 512.107 0.0939368 513.485 0.0939368C515.391 0.0939368 517.062 0.563078 518.528 1.50136C519.994 2.43964 521.108 3.7591 521.9 5.45973ZM537.369 5.45973L534.378 6.28072L534.32 6.54462C534.056 5.43041 533.557 4.58009 532.795 3.99367C532.032 3.40724 531.153 3.11403 530.127 3.11403C529.1 3.11403 528.279 3.3486 527.664 3.84706C527.048 4.34552 526.725 4.99059 526.725 5.78226C526.725 6.22208 526.872 6.60326 527.136 6.95511C527.4 7.30697 527.752 7.6295 528.191 7.92272C528.631 8.21593 529.159 8.47982 529.745 8.71439C530.332 8.94896 530.948 9.18353 531.563 9.44742C532.238 9.71131 532.941 10.0338 533.645 10.3857C534.349 10.7376 534.994 11.1481 535.58 11.6172C536.167 12.0863 536.636 12.6434 537.017 13.2885C537.398 13.9336 537.574 14.6959 537.574 15.6049C537.574 16.4552 537.398 17.2469 537.046 17.9799C536.695 18.7129 536.225 19.358 535.61 19.8858C534.994 20.4136 534.232 20.8241 533.352 21.088C532.472 21.3812 531.505 21.5278 530.449 21.5278C529.394 21.5278 528.455 21.3812 527.605 21.088C526.755 20.8241 526.022 20.4136 525.377 19.8858C524.731 19.358 524.204 18.7129 523.793 17.9799C523.383 17.2469 523.089 16.4259 522.884 15.5462L525.904 14.7252C525.992 15.253 526.168 15.7515 526.432 16.2206C526.696 16.6898 527.019 17.1003 527.4 17.4521C527.781 17.804 528.25 18.0972 528.778 18.3024C529.306 18.5077 529.892 18.5957 530.566 18.5957C531.739 18.5957 532.648 18.3024 533.293 17.7453C533.938 17.1882 534.261 16.4845 534.261 15.6342C534.261 15.0478 534.114 14.5493 533.792 14.1681C533.469 13.787 533.059 13.4351 532.56 13.1419C532.062 12.8487 531.475 12.5555 530.83 12.2916C530.185 12.0277 529.511 11.7638 528.836 11.4706C528.221 11.2067 527.605 10.9135 526.96 10.591C526.315 10.2684 525.728 9.88724 525.201 9.44742C524.673 9.0076 524.233 8.47982 523.91 7.86407C523.588 7.24833 523.412 6.51529 523.412 5.66498C523.412 4.90263 523.588 4.16959 523.91 3.49521C524.233 2.82082 524.702 2.23439 525.289 1.73593C525.875 1.23747 526.608 0.826969 527.458 0.533757C528.309 0.240545 529.247 0.0939368 530.273 0.0939368C531.182 0.0939368 532.032 0.211222 532.795 0.475114C533.557 0.739005 534.261 1.09086 534.877 1.56C535.492 2.02914 536.02 2.58625 536.431 3.26063C536.841 3.93502 537.164 4.66805 537.369 5.45973Z" fill="black"/>
</svg>
